<svg width="535" height="535" viewBox="0 0 535 535" fill="none" xmlns="http://www.w3.org/2000/svg"><g clip-path="url(#clip0)" fill="#EFEAE1"><path d="M7.432 260.58l2.81-.997 2.447 7.523-2.447 7.523-2.81-.997 2.175-6.526-2.175-6.526zm13.142-13.142l2.81-.997 6.889 20.665-6.889 20.665-2.81-.997 6.617-19.668-6.617-19.668zm13.234-13.233l2.81-.997 11.238 33.898-11.239 33.898-2.81-.997 10.968-32.901-10.967-32.901z"/><path d="M46.95 221.063l2.81-.997 15.68 47.04-15.68 47.041-2.81-.997 15.408-46.044-15.408-46.043z"/><path d="M73.053 194.053l2.81.997-8.43 25.106 15.59 46.95-15.59 46.95 8.43 25.106-2.81.997-8.792-26.194 15.68-46.859-15.68-46.859 8.792-26.194z"/><path d="M96.8 171.213l2.81-.997 1.088 3.081-15.68 46.859 15.589 46.95-15.59 46.95 15.681 46.859-1.088 3.082L96.8 363l.725-2.176-15.68-46.859 15.68-46.859-15.68-46.859 15.68-46.859-.725-2.175z"/><path d="M109.943 158.07l2.809-.997 5.529 16.224-15.68 46.859 15.589 46.95-15.589 46.95 15.68 46.859-5.529 16.224-2.809-.997 5.166-15.317-15.68-46.86 15.68-46.859-15.68-46.859 15.68-46.859-5.166-15.318z"/><path d="M123.175 144.837l2.81-.997 9.879 29.457-15.68 46.859 15.589 46.95-15.589 46.95 15.68 46.859-9.879 29.457-2.81-.997 9.517-28.55-15.68-46.86 15.68-46.859-15.68-46.859 15.68-46.859-9.517-28.551z"/><path d="M136.317 131.695l2.81-.997 14.321 42.599-15.681 46.859 15.59 46.95-15.59 46.95 15.681 46.859-14.321 42.599-2.81-.997 13.958-41.692-15.68-46.86 15.68-46.859-15.68-46.859 15.68-46.859-13.958-41.693z"/><path d="M157.98 109.127l2.9.906-5.529 16.405 15.681 46.859-15.681 46.86 15.59 46.949-15.59 46.95 15.681 46.859-15.681 46.859 5.529 16.406-2.9.906-5.71-17.312 15.499-46.859-15.59-46.95 15.68-46.859-15.68-46.859 15.59-46.95-15.499-46.859 5.71-17.311z"/><path d="M184.355 82.751l2.9.907-14.321 42.78 15.681 46.859-15.681 46.859 15.59 46.95-15.59 46.95 15.681 46.859-15.681 46.859 14.321 42.781-2.9.906-14.502-43.687 15.499-46.859-15.59-46.95 15.68-46.859-15.68-46.859 15.59-46.95-15.499-46.859 14.502-43.687z"/><path d="M199.31 68.703l2.809-.998 4.079 11.874-15.68 46.859 15.68 46.859-15.68 46.859 15.589 46.95-15.589 46.95 15.68 46.859-15.68 46.859 15.68 46.859-4.079 11.874-2.809-.997 3.625-10.877-15.499-46.859 15.499-46.859-15.589-46.95 15.68-46.859-15.68-46.859 15.589-46.95-15.499-46.859 15.499-46.86-3.625-10.876z"/><path d="M212.543 55.47l2.81-.997 8.429 25.106-15.68 46.859 15.68 46.859-15.68 46.859 15.589 46.95-15.589 46.95 15.68 46.859-15.68 46.859 15.68 46.859-8.429 25.107-2.81-.997 7.976-24.11-15.499-46.859 15.499-46.859-15.589-46.95 15.68-46.859-15.68-46.859 15.589-46.95-15.499-46.859 15.499-46.859-7.976-24.11z"/><path d="M225.685 42.327l2.81-.997 12.871 38.249-15.681 46.859 15.68 46.859-15.68 46.859 15.59 46.95-15.59 46.95 15.68 46.859-15.68 46.859 15.68 46.859-12.87 38.249-2.81-.997 12.418-37.252-15.59-46.949 15.59-46.769-15.59-46.95 15.68-46.859-15.68-46.859 15.59-46.95-15.59-46.768 15.59-46.95-12.418-37.252z"/><path d="M242.997 24.11l2.809.996-2.538 7.614 15.681 46.859-15.681 46.859 15.681 46.859-15.681 46.859 15.59 46.95-15.59 46.95 15.681 46.859-15.681 46.859 15.681 46.859-15.681 46.86 2.538 7.613-2.809.997-2.901-8.52 15.59-46.95-15.59-46.949 15.59-46.769-15.59-46.95 15.68-46.859-15.68-46.859 15.59-46.95-15.59-46.768 15.59-46.95-15.59-46.95 2.901-8.52z"/><path d="M267.469 3.263l2.9.906-9.517 28.55 15.681 46.86-15.681 46.859 15.681 46.859-15.681 46.859 15.59 46.95-15.59 46.95 15.681 46.859-15.681 46.859 15.68 46.859-15.68 46.86 9.517 28.55-2.9.906-9.789-29.366 15.59-46.95-15.59-46.949 15.59-46.769-15.59-46.95 15.68-46.859-15.68-46.859 15.59-46.95-15.59-46.768 15.59-46.95-15.59-46.95 9.789-29.366z"/><path d="M280.702 16.496l2.81.816-5.076 15.408 15.68 46.859-15.68 46.859 15.68 46.859-15.68 46.859 15.589 46.95-15.589 46.95 15.68 46.859-15.68 46.859 15.68 46.859-15.68 46.86 5.076 15.408-2.81.816-5.438-16.134 15.589-46.95-15.589-46.949 15.589-46.769-15.589-46.95 15.68-46.859-15.68-46.859 15.589-46.95-15.589-46.768 15.589-46.95-15.589-46.95 5.438-16.133z"/><path d="M293.844 29.638l2.901.906-.726 2.176L311.7 79.579l-15.681 46.859 15.681 46.859-15.681 46.859 15.59 46.95-15.59 46.95 15.681 46.859-15.681 46.859 15.681 46.859-15.681 46.86.725 2.175-2.9.906-.997-2.991 15.59-46.95-15.59-46.949 15.59-46.769-15.59-46.95 15.68-46.859-15.68-46.859 15.59-46.95-15.59-46.768 15.59-46.95-15.59-46.95.997-2.99z"/><path d="M317.681 54.382l2.81-.997 8.792 26.194-15.68 46.859 15.589 46.95-15.589 46.768 15.589 46.95-15.589 46.95 15.589 46.769-15.589 46.949 15.68 46.859-8.792 26.194-2.81-.997 8.339-25.197-15.59-46.949 15.59-46.769-15.59-46.95 15.681-46.859-15.68-46.859 15.589-46.95-15.589-46.768 15.589-46.95-8.339-25.197z"/><path d="M343.694 79.488l2.901.907-15.409 46.043 15.59 46.95-15.59 46.768 15.59 46.95-15.59 46.95 15.59 46.768-15.59 46.95 15.409 46.044-2.901.906-15.68-47.04 15.59-46.769-15.59-46.95 15.68-46.859-15.68-46.859 15.59-46.95-15.59-46.768 15.68-47.04z"/><path d="M356.837 92.63l2.9.907-10.967 32.901 15.589 46.95-15.589 46.768 15.589 46.95-15.589 46.95 15.589 46.768-15.589 46.95 10.967 32.901-2.9.907-11.239-33.898 15.589-46.769-15.589-46.95 15.68-46.859-15.68-46.859 15.589-46.95-15.589-46.768 11.239-33.898z"/><path d="M370.07 105.864l2.9.906-6.617 19.668 15.59 46.95-15.59 46.768 15.59 46.95-15.59 46.95 15.59 46.768-15.59 46.95 6.617 19.668-2.9.907-6.889-20.665 15.59-46.769-15.59-46.95 15.68-46.859-15.68-46.859 15.59-46.95-15.59-46.768 6.889-20.665z"/><path d="M383.212 119.006l2.9.906-2.175 6.526 15.589 46.95-15.589 46.768 15.589 46.95-15.589 46.95 15.589 46.768-15.589 46.95 2.175 6.526-2.9.906-2.447-7.522 15.589-46.769-15.589-46.95 15.68-46.859-15.68-46.859 15.589-46.95-15.589-46.768 2.447-7.523z"/><path d="M402.608 139.309l2.9-.907 11.602 34.986-15.59 46.768 15.59 46.95-15.59 46.95 15.59 46.769-11.602 34.985-2.9-.906 11.33-33.989-15.59-46.95 15.68-46.859-15.68-46.859 15.59-46.95-11.33-33.988z"/><path d="M428.983 165.684l2.901-.907 2.809 8.611-15.589 46.768 15.589 46.95-15.589 46.95 15.589 46.769-2.809 8.61-2.901-.906 2.538-7.614-15.589-46.95 15.68-46.859-15.68-46.859 15.589-46.95-2.538-7.613z"/><path d="M446.204 181.998l2.901.907-12.418 37.251 15.59 46.95-15.59 46.95 12.418 37.252-2.901.906-12.689-38.249 15.68-46.859-15.68-46.859 12.689-38.249z"/><path d="M459.437 195.231l2.901.907-8.067 24.018 15.589 46.95-15.589 46.95 8.067 24.019-2.901.906-8.338-25.016 15.68-46.859-15.68-46.859 8.338-25.016z"/><path d="M472.58 208.374l2.9.906-3.625 10.876 15.589 46.95-15.589 46.95 3.625 10.876-2.9.907-3.898-11.874 15.68-46.859-15.68-46.859 3.898-11.873zm15.045 15.952l2.81-.997 14.592 43.777-14.592 43.778-2.81-.997 14.321-42.781-14.321-42.78zM514 250.701l2.81-.997 5.801 17.402-5.801 17.402-2.81-.997 5.529-16.405L514 250.701z"/></g><defs><clipPath id="clip0"><path transform="rotate(135 534.212 267.106)" fill="#fff" d="M534.212 267.106h377.745v377.745H534.212z"/></clipPath></defs></svg>