<svg width="966" height="508" viewBox="0 0 966 508" fill="none" xmlns="http://www.w3.org/2000/svg">
<mask id="mask0" mask-type="alpha" maskUnits="userSpaceOnUse" x="0" y="0" width="966" height="508">
<rect width="966" height="508" fill="#F9F7EF"/>
</mask>
<g mask="url(#mask0)">
<g opacity="0.1">
<g clip-path="url(#clip0)">
<path d="M409.666 722.835L407.95 717.999L481.27 693.351L561.921 720.339L642.729 693.507L723.536 720.339L804.187 693.351L877.507 717.999L875.791 722.835L804.031 698.811L723.38 725.799L642.729 698.811L562.077 725.799L481.426 698.811L409.666 722.835Z" fill="#B69D6D"/>
<path d="M370.822 685.551L372.382 680.559L400.618 690.075L481.27 663.087L561.921 690.075L642.729 663.243L723.536 690.075L804.187 663.087L884.839 690.075L913.075 680.559L914.635 685.551L884.839 695.379L804.187 668.703L723.38 695.535L642.729 668.547L562.077 695.535L481.27 668.703L400.618 695.379L370.822 685.551Z" fill="#B69D6D"/>
<path d="M325.427 640.156L326.987 635.164L400.618 659.812L481.27 632.824L561.921 659.812L642.729 632.98L723.536 659.812L804.187 632.824L884.839 659.812L958.47 635.164L960.03 640.156L884.839 665.116L804.187 638.44L723.38 665.272L642.729 638.284L562.077 665.272L481.27 638.44L400.618 665.116L325.427 640.156Z" fill="#B69D6D"/>
<path d="M301.247 614.416L299.531 609.58L319.967 602.56L400.618 629.548L481.27 602.56L561.921 629.548L642.729 602.716L723.536 629.548L804.187 602.56L884.839 629.548L965.49 602.56L985.926 609.58L984.21 614.416L965.49 608.176L884.839 634.852L804.187 608.176L723.38 635.008L642.729 608.02L562.077 635.008L481.27 608.176L400.618 634.852L319.967 608.176L301.247 614.416Z" fill="#B69D6D"/>
<path d="M278.471 591.64L276.755 586.804L319.967 572.296L400.618 599.284L481.27 572.296L561.921 599.284L642.729 572.452L723.536 599.284L804.187 572.296L884.839 599.284L965.49 572.296L1008.7 586.804L1006.99 591.64L965.49 577.912L884.839 604.588L804.187 577.912L723.38 604.744L642.729 577.756L562.077 604.744L481.27 577.912L400.618 604.588L319.967 577.912L278.471 591.64Z" fill="#B69D6D"/>
<path d="M255.851 569.02L254.135 564.184L319.967 542.032L400.618 569.02L481.27 542.032L561.921 569.02L642.729 542.188L723.536 569.02L804.187 542.032L884.839 569.02L965.49 542.032L1031.32 564.184L1029.61 569.02L965.49 547.648L884.683 574.48L804.187 547.648L723.38 574.48L642.729 547.492L562.077 574.48L481.27 547.648L400.774 574.48L319.967 547.648L255.851 569.02Z" fill="#B69D6D"/>
<path d="M224.496 539.225L226.212 534.389L239.315 538.757L319.967 511.769L400.618 538.757L481.27 511.769L561.921 538.757L642.729 511.925L723.536 538.757L804.187 511.769L884.839 538.757L965.49 511.769L1046.14 538.757L1059.25 534.389L1060.96 539.225L1046.3 544.217L965.49 517.385L884.683 544.216L804.187 517.385L723.38 544.216L642.729 517.229L562.077 544.216L481.27 517.385L400.774 544.216L319.967 517.385L239.159 544.217L224.496 539.225Z" fill="#B69D6D"/>
<path d="M188.616 497.105L190.176 492.113L239.315 508.493L319.967 481.505L400.618 508.493L481.27 481.505L561.921 508.493L642.729 481.661L723.536 508.493L804.187 481.505L884.839 508.493L965.49 481.505L1046.14 508.493L1095.28 492.113L1096.84 497.105L1046.3 513.953L965.49 487.121L884.683 513.953L804.187 487.121L723.38 513.953L642.729 486.965L562.077 513.953L481.27 487.121L400.774 513.953L319.967 487.121L239.159 513.953L188.616 497.105Z" fill="#B69D6D"/>
<path d="M211.392 474.329L212.796 469.493L239.315 478.229L319.967 451.241L400.618 478.229L481.27 451.241L561.921 478.229L642.729 451.397L723.536 478.229L804.187 451.241L884.839 478.229L965.49 451.241L1046.14 478.229L1072.66 469.493L1074.07 474.329L1046.3 483.689L965.49 456.857L884.683 483.689L804.187 456.857L723.38 483.689L642.729 456.701L562.077 483.689L481.27 456.857L400.774 483.689L319.967 456.857L239.159 483.689L211.392 474.329Z" fill="#B69D6D"/>
<path d="M234.011 451.709L235.572 446.717L239.315 447.965L319.967 420.977L400.618 447.965L481.27 420.977L561.921 447.965L642.729 421.133L723.536 447.965L804.187 420.977L884.839 447.965L965.49 420.977L1046.14 447.965L1049.89 446.717L1051.45 451.709L1046.3 453.425L965.49 426.593L884.683 453.425L804.187 426.593L723.38 453.425L642.729 426.437L562.077 453.425L481.27 426.593L400.774 453.425L319.967 426.593L239.159 453.425L234.011 451.709Z" fill="#B69D6D"/>
<path d="M276.599 410.681L274.883 405.845L319.967 390.713L400.618 417.701L481.426 390.869L561.921 417.701L642.729 390.869L723.536 417.701L804.031 390.869L884.839 417.701L965.49 390.713L1010.57 405.845L1008.86 410.681L965.49 396.329L884.683 423.161L804.187 396.329L723.38 423.161L642.729 396.173L562.077 423.161L481.27 396.329L400.774 423.161L319.967 396.329L276.599 410.681Z" fill="#B69D6D"/>
<path d="M319.811 365.91L321.371 360.918L400.618 387.438L481.426 360.606L561.921 387.438L642.729 360.606L723.536 387.438L804.031 360.606L884.839 387.438L964.086 360.918L965.646 365.91L884.683 392.898L804.187 366.066L723.38 392.898L642.729 365.91L562.077 392.898L481.27 366.066L400.774 392.898L319.811 365.91Z" fill="#B69D6D"/>
<path d="M342.431 343.29L343.991 338.298L400.618 357.174L481.426 330.342L561.921 357.174L642.729 330.342L723.536 357.174L804.031 330.342L884.839 357.174L941.466 338.298L943.026 343.29L884.683 362.634L804.187 335.802L723.38 362.634L642.729 335.646L562.077 362.634L481.27 335.802L400.774 362.634L342.431 343.29Z" fill="#B69D6D"/>
<path d="M365.207 320.514L366.767 315.522L400.618 326.91L481.426 300.078L561.921 326.91L642.729 300.078L723.536 326.91L804.031 300.078L884.839 326.91L918.691 315.522L920.25 320.514L884.683 332.37L804.187 305.538L723.38 332.37L642.729 305.382L562.077 332.37L481.27 305.538L400.774 332.37L365.207 320.514Z" fill="#B69D6D"/>
<path d="M387.826 297.894L389.386 292.902L400.618 296.646L481.426 269.814L561.921 296.646L642.729 269.814L723.536 296.646L804.031 269.814L884.839 296.646L896.071 292.902L897.631 297.894L884.683 302.106L804.187 275.274L723.38 302.106L642.729 275.118L562.077 302.106L481.27 275.274L400.774 302.106L387.826 297.894Z" fill="#B69D6D"/>
<path d="M422.77 264.51L421.21 259.518L481.426 239.551L561.921 266.382L642.729 239.551L723.536 266.382L804.031 239.551L864.247 259.518L862.687 264.51L804.187 245.011L723.38 271.842L642.729 244.855L562.077 271.842L481.27 245.011L422.77 264.51Z" fill="#B69D6D"/>
<path d="M468.166 219.115L466.606 214.123L481.426 209.287L561.921 236.119L642.729 209.287L723.536 236.119L804.031 209.287L818.851 214.123L817.291 219.115L804.187 214.747L723.38 241.579L642.729 214.591L562.077 241.579L481.27 214.747L468.166 219.115Z" fill="#B69D6D"/>
<path d="M496.246 189.475L497.806 184.483L561.921 205.855L642.729 179.023L723.536 205.855L787.651 184.483L789.211 189.475L723.38 211.315L642.729 184.327L562.077 211.315L496.246 189.475Z" fill="#B69D6D"/>
<path d="M519.021 166.699L520.581 161.707L561.921 175.591L642.729 148.759L723.536 175.591L764.876 161.707L766.436 166.699L723.38 181.051L642.729 154.063L562.077 181.051L519.021 166.699Z" fill="#B69D6D"/>
<path d="M541.641 144.079L543.201 139.087L561.921 145.327L642.729 118.495L723.536 145.327L742.256 139.087L743.816 144.079L723.38 150.787L642.729 123.799L562.077 150.787L541.641 144.079Z" fill="#B69D6D"/>
<path d="M569.097 118.183L567.381 113.347L642.729 88.2316L718.076 113.347L716.36 118.183L642.729 93.5356L569.097 118.183Z" fill="#B69D6D"/>
<path d="M614.493 72.7877L612.777 67.9518L642.729 57.9679L672.68 67.9518L670.964 72.7877L642.729 63.2718L614.493 72.7877Z" fill="#B69D6D"/>
</g>
</g>
</g>
<defs>
<clipPath id="clip0">
<rect x="642.729" y="38" width="650.155" height="650.155" transform="rotate(45 642.729 38)" fill="white"/>
</clipPath>
</defs>
</svg>
