<svg width="535" height="536" viewBox="0 0 535 536" fill="none" xmlns="http://www.w3.org/2000/svg"><g clip-path="url(#clip0)" fill="#EFEAE1"><path d="M.908 521.343l1.815-3.813 9.985 5.083 5.083 9.985-3.812 1.816-4.357-8.714-8.714-4.357zm0-26.324l1.815-3.812 27.594 13.797 13.797 27.594-3.812 1.816L27.23 508.09.908 495.019zm0-26.505l1.815-3.812 45.204 22.692 22.693 45.204-3.813 1.815-21.966-43.932L.908 468.514z"/><path d="M.908 442.191l1.815-3.813 62.813 31.407 31.407 62.813-3.813 1.815-30.68-61.542-61.542-30.68z"/><path d="M0 389l3.812-1.816 16.702 33.585 62.632 31.407 31.406 62.631 33.585 16.702-1.815 3.812-35.038-17.428-31.225-62.631-62.631-31.225L0 389z"/><path d="M.908 342.343l1.815-3.812 4.176 1.997 31.225 62.632 62.631 31.406 31.407 62.632 62.631 31.224 1.997 4.176-3.812 1.815-1.453-2.904-62.631-31.225-31.225-62.632-62.631-31.225-31.225-62.631-2.905-1.453z"/><path d="M.908 316.02l1.815-3.812 21.785 10.711 31.225 62.631 62.631 31.407 31.407 62.631 62.631 31.225 10.711 21.785-3.812 1.815-10.166-20.514-62.632-31.225-31.225-62.631-62.631-31.225-31.225-62.632L.908 316.02z"/><path d="M.908 289.515l1.815-3.812 39.394 19.607 31.225 62.631 62.632 31.407 31.406 62.631 62.632 31.225 19.606 39.394-3.812 1.816-19.062-38.124-62.631-31.225-31.225-62.631-62.632-31.225-31.225-62.632L.908 289.515z"/><path d="M.907 263.192l1.816-3.812 57.004 28.32 31.225 62.632 62.631 31.406 31.407 62.632 62.631 31.225 28.32 57.003-3.812 1.816-27.776-55.733-62.631-31.225-31.225-62.632-62.632-31.225-31.225-62.631L.907 263.192z"/><path d="M0 218.896l3.813-1.997 10.892 21.966 62.632 31.225 31.225 62.632 62.631 31.406 31.406 62.632 62.632 31.225 31.225 62.631 21.966 10.893-1.997 3.812-23.055-11.618-31.407-62.45-62.631-31.407-31.225-62.631-62.632-31.225-31.406-62.632-62.45-31.406L0 218.896z"/><path d="M0 166.068l3.812-1.997 28.502 57.185 62.632 31.225 31.225 62.632 62.631 31.406 31.407 62.632 62.631 31.225 31.225 62.631 57.185 28.502-1.996 3.812-58.275-29.228-31.406-62.45-62.632-31.406-31.225-62.632-62.631-31.225-31.407-62.631-62.45-31.407L0 166.068z"/><path d="M.908 137.021l1.815-3.812 15.976 7.806 31.225 62.632 62.631 31.225 31.225 62.631 62.632 31.407 31.406 62.631 62.632 31.225 31.225 62.632 62.631 31.225 7.806 15.975-3.812 1.816-7.262-14.523-62.45-31.407-31.406-62.45-62.632-31.407-31.225-62.631-62.631-31.225-31.407-62.631-62.45-31.407-31.406-62.45-14.523-7.262z"/><path d="M.908 110.516l1.815-3.812 33.585 16.702 31.225 62.631 62.632 31.225 31.224 62.632 62.632 31.406 31.406 62.632 62.632 31.225 31.225 62.631 62.631 31.225 16.702 33.585-3.812 1.816-16.157-32.133-62.45-31.407-31.407-62.45-62.631-31.406-31.225-62.632-62.632-31.224-31.406-62.632-62.45-31.407-31.407-62.449L.908 110.516z"/><path d="M.908 84.193l1.815-3.812 51.194 25.415 31.225 62.632 62.632 31.225 31.225 62.631 62.631 31.407 31.407 62.631 62.631 31.225 31.225 62.632 62.632 31.225 25.415 51.194-3.812 1.816-24.871-49.743-62.631-31.406-31.225-62.45-62.632-31.406-31.225-62.632-62.631-31.225-31.407-62.631-62.45-31.225-31.406-62.632L.908 84.194z"/><path d="M0 48.611l3.812-1.815 5.083 10.166 62.632 31.225 31.225 62.631 62.631 31.225 31.225 62.632 62.632 31.406 31.406 62.632 62.632 31.225 31.225 62.631 62.631 31.225 31.225 62.632 10.166 5.083-1.815 3.812-11.437-5.627-31.407-62.632-62.631-31.406-31.225-62.45-62.632-31.407-31.225-62.631-62.631-31.225-31.406-62.632-62.45-31.225-31.407-62.631L5.628 60.048 0 48.611z"/><path d="M3.63 3.226l3.813-1.997 19.062 38.123 62.631 31.226 31.225 62.631 62.632 31.225 31.225 62.631 62.631 31.407 31.407 62.631 62.631 31.225 31.225 62.632 62.632 31.225 31.225 62.631 38.123 19.062-1.997 3.812-39.212-19.606-31.407-62.631-62.631-31.407-31.225-62.45-62.632-31.406-31.225-62.632-62.631-31.225-31.407-62.631-62.45-31.225-31.406-62.632L23.237 42.44 3.631 3.226z"/><path d="M30.136 3.226l3.63-1.997 10.348 20.514 62.632 31.225 31.225 62.632 62.631 31.224 31.225 62.632 62.632 31.407 31.406 62.631 62.632 31.225 31.225 62.631 62.631 31.225 31.225 62.632 20.514 10.348-1.997 3.631-21.603-10.711-31.407-62.632-62.631-31.406-31.225-62.45-62.631-31.407-31.225-62.631-62.632-31.225-31.406-62.632-62.45-31.225-31.407-62.631-62.631-31.407L30.136 3.226z"/><path d="M56.46 3.226l3.812-1.997 1.452 2.905 62.631 31.225L155.58 97.99l62.632 31.225 31.225 62.632 62.631 31.406 31.407 62.632 62.631 31.225 31.225 62.631 62.632 31.225 31.225 62.632 2.904 1.452-1.997 3.812-3.994-1.997-31.406-62.631-62.632-31.407-31.225-62.45-62.631-31.406-31.225-62.632-62.631-31.225-31.407-62.631-62.45-31.225-31.406-62.632L58.456 7.22 56.46 3.226z"/><path d="M105.112 4.134L106.927.32l35.038 17.428L173.19 80.38l62.631 31.406 31.225 62.45 62.632 31.407 31.406 62.631 62.45 31.225 31.407 62.632 62.631 31.225L535 428.394l-3.812 1.815-16.884-33.585-62.631-31.406-31.225-62.45-62.632-31.407-31.225-62.631-62.631-31.225-31.407-62.632-62.449-31.225-31.407-62.631-33.585-16.883z"/><path d="M156.306 3.226l3.813-1.997 30.68 61.542 62.632 31.407 31.225 62.45 62.631 31.406 31.407 62.632 62.45 31.225 31.406 62.631 61.542 30.681-1.997 3.812-62.813-31.407-31.225-62.45-62.631-31.406-31.225-62.632-62.632-31.225-31.406-62.631-62.45-31.225-31.407-62.813z"/><path d="M182.63 3.226l3.812-1.997 21.967 43.933 62.631 31.406 31.225 62.45 62.632 31.407 31.406 62.631 62.45 31.225 31.406 62.632 43.933 21.966-1.997 3.812-45.203-22.692-31.225-62.45-62.632-31.407-31.225-62.631-62.631-31.225-31.407-62.632-62.45-31.224L182.63 3.225z"/><path d="M209.135 3.226l3.812-1.997 13.071 26.323L288.65 58.96l31.224 62.45 62.632 31.406 31.406 62.632 62.45 31.225 31.407 62.631 26.323 13.071-1.997 3.813-27.594-13.798-31.225-62.449-62.631-31.407-31.225-62.631-62.632-31.225-31.406-62.632-62.45-31.225-13.797-27.594z"/><path d="M235.458 3.226l3.812-1.997 4.357 8.714 62.632 31.407 31.225 62.449 62.631 31.407 31.407 62.631 62.45 31.225 31.406 62.632 8.714 4.357-1.997 3.812-9.984-5.083-31.225-62.45-62.632-31.406-31.225-62.632-62.631-31.225-31.407-62.631-62.45-31.225-5.083-9.985z"/><path d="M275.215 4.134L277.212.32l46.656 23.419 31.225 62.45 62.632 31.406 31.406 62.632 62.45 31.225L535 258.109l-3.812 1.997-22.693-45.385-62.631-31.407-31.225-62.631-62.632-31.225-31.406-62.632-45.386-22.692z"/><path d="M328.044 4.134L330.041.32l11.437 5.81 31.225 62.45 62.631 31.406 31.407 62.632 62.45 31.225L535 205.281l-3.812 1.997-5.083-10.167-62.632-31.406-31.225-62.632-62.631-31.225L338.21 9.217l-10.166-5.083z"/><path d="M361.629 3.226l3.812-1.997 24.871 49.742 62.632 31.407 31.406 62.631 49.742 24.871-1.997 3.813-51.013-25.598-31.225-62.631-62.631-31.225-25.597-51.013z"/><path d="M388.134 3.226l3.812-1.997 15.976 32.133 62.631 31.406L501.96 127.4l32.132 15.975-1.997 3.813-33.403-16.702-31.225-62.632-62.632-31.225-16.701-33.403z"/><path d="M414.457 3.226l3.812-1.997 7.262 14.523 62.632 31.407 31.406 62.631 14.523 7.262-1.997 3.812-15.794-7.988-31.225-62.631-62.631-31.225-7.988-15.794zm31.044.908L447.316.32l58.456 29.228L535 88.005l-3.812 1.816-28.502-57.185-57.185-28.502zm52.828 0L500.144.32l23.237 11.619L535 35.177l-3.812 1.816-10.893-21.967-21.966-10.892z"/></g><defs><clipPath id="clip0"><path transform="rotate(90 535 .321)" fill="#fff" d="M535 .321h535v535H535z"/></clipPath></defs></svg>