<svg width="966" height="508" viewBox="0 0 966 508" fill="none" xmlns="http://www.w3.org/2000/svg"><mask id="mask0" maskUnits="userSpaceOnUse" x="0" y="0" width="966" height="508"><path fill="#F9F7EF" d="M0 0h966v508H0z"/></mask><g clip-path="url(#clip0)" fill="#B69D6D" opacity=".1" mask="url(#mask0)"><path d="M409.666 722.835l-1.716-4.836 73.32-24.648 80.651 26.988 80.808-26.832 80.807 26.832 80.651-26.988 73.32 24.648-1.716 4.836-71.76-24.024-80.651 26.988-80.651-26.988-80.652 26.988-80.651-26.988-71.76 24.024z"/><path d="M370.822 685.551l1.56-4.992 28.236 9.516 80.652-26.988 80.651 26.988 80.808-26.832 80.807 26.832 80.651-26.988 80.652 26.988 28.236-9.516 1.56 4.992-29.796 9.828-80.652-26.676-80.807 26.832-80.651-26.988-80.652 26.988-80.807-26.832-80.652 26.676-29.796-9.828z"/><path d="M325.427 640.156l1.56-4.992 73.631 24.648 80.652-26.988 80.651 26.988 80.808-26.832 80.807 26.832 80.651-26.988 80.652 26.988 73.631-24.648 1.56 4.992-75.191 24.96-80.652-26.676-80.807 26.832-80.651-26.988-80.652 26.988-80.807-26.832-80.652 26.676-75.191-24.96z"/><path d="M301.247 614.416l-1.716-4.836 20.436-7.02 80.651 26.988 80.652-26.988 80.651 26.988 80.808-26.832 80.807 26.832 80.651-26.988 80.652 26.988 80.651-26.988 20.436 7.02-1.716 4.836-18.72-6.24-80.651 26.676-80.652-26.676-80.807 26.832-80.651-26.988-80.652 26.988-80.807-26.832-80.652 26.676-80.651-26.676-18.72 6.24z"/><path d="M278.471 591.64l-1.716-4.836 43.212-14.508 80.651 26.988 80.652-26.988 80.651 26.988 80.808-26.832 80.807 26.832 80.651-26.988 80.652 26.988 80.651-26.988 43.21 14.508-1.71 4.836-41.5-13.728-80.651 26.676-80.652-26.676-80.807 26.832-80.651-26.988-80.652 26.988-80.807-26.832-80.652 26.676-80.651-26.676-41.496 13.728z"/><path d="M255.851 569.02l-1.716-4.836 65.832-22.152 80.651 26.988 80.652-26.988 80.651 26.988 80.808-26.832 80.807 26.832 80.651-26.988 80.652 26.988 80.651-26.988 65.83 22.152-1.71 4.836-64.12-21.372-80.807 26.832-80.496-26.832-80.807 26.832-80.651-26.988-80.652 26.988-80.807-26.832-80.496 26.832-80.807-26.832-64.116 21.372z"/><path d="M224.496 539.225l1.716-4.836 13.103 4.368 80.652-26.988 80.651 26.988 80.652-26.988 80.651 26.988 80.808-26.832 80.807 26.832 80.651-26.988 80.652 26.988 80.651-26.988 80.65 26.988 13.11-4.368 1.71 4.836-14.66 4.992-80.81-26.832-80.807 26.831-80.496-26.831-80.807 26.831-80.651-26.987-80.652 26.987-80.807-26.831-80.496 26.831-80.807-26.831-80.808 26.832-14.663-4.992z"/><path d="M188.616 497.105l1.56-4.992 49.139 16.38 80.652-26.988 80.651 26.988 80.652-26.988 80.651 26.988 80.808-26.832 80.807 26.832 80.651-26.988 80.652 26.988 80.651-26.988 80.65 26.988 49.14-16.38 1.56 4.992-50.54 16.848-80.81-26.832-80.807 26.832-80.496-26.832-80.807 26.832-80.651-26.988-80.652 26.988-80.807-26.832-80.496 26.832-80.807-26.832-80.808 26.832-50.543-16.848z"/><path d="M211.392 474.329l1.404-4.836 26.519 8.736 80.652-26.988 80.651 26.988 80.652-26.988 80.651 26.988 80.808-26.832 80.807 26.832 80.651-26.988 80.652 26.988 80.651-26.988 80.65 26.988 26.52-8.736 1.41 4.836-27.77 9.36-80.81-26.832-80.807 26.832-80.496-26.832-80.807 26.832-80.651-26.988-80.652 26.988-80.807-26.832-80.496 26.832-80.807-26.832-80.808 26.832-27.767-9.36z"/><path d="M234.011 451.709l1.561-4.992 3.743 1.248 80.652-26.988 80.651 26.988 80.652-26.988 80.651 26.988 80.808-26.832 80.807 26.832 80.651-26.988 80.652 26.988 80.651-26.988 80.65 26.988 3.75-1.248 1.56 4.992-5.15 1.716-80.81-26.832-80.807 26.832-80.496-26.832-80.807 26.832-80.651-26.988-80.652 26.988-80.807-26.832-80.496 26.832-80.807-26.832-80.808 26.832-5.148-1.716z"/><path d="M276.599 410.681l-1.716-4.836 45.084-15.132 80.651 26.988 80.808-26.832 80.495 26.832 80.808-26.832 80.807 26.832 80.495-26.832 80.808 26.832 80.651-26.988 45.08 15.132-1.71 4.836-43.37-14.352-80.807 26.832-80.496-26.832-80.807 26.832-80.651-26.988-80.652 26.988-80.807-26.832-80.496 26.832-80.807-26.832-43.368 14.352z"/><path d="M319.811 365.91l1.56-4.992 79.247 26.52 80.808-26.832 80.495 26.832 80.808-26.832 80.807 26.832 80.495-26.832 80.808 26.832 79.247-26.52 1.56 4.992-80.963 26.988-80.496-26.832-80.807 26.832-80.651-26.988-80.652 26.988-80.807-26.832-80.496 26.832-80.963-26.988z"/><path d="M342.431 343.29l1.56-4.992 56.627 18.876 80.808-26.832 80.495 26.832 80.808-26.832 80.807 26.832 80.495-26.832 80.808 26.832 56.627-18.876 1.56 4.992-58.343 19.344-80.496-26.832-80.807 26.832-80.651-26.988-80.652 26.988-80.807-26.832-80.496 26.832-58.343-19.344z"/><path d="M365.207 320.514l1.56-4.992 33.851 11.388 80.808-26.832 80.495 26.832 80.808-26.832 80.807 26.832 80.495-26.832 80.808 26.832 33.852-11.388 1.559 4.992-35.567 11.856-80.496-26.832-80.807 26.832-80.651-26.988-80.652 26.988-80.807-26.832-80.496 26.832-35.567-11.856z"/><path d="M387.826 297.894l1.56-4.992 11.232 3.744 80.808-26.832 80.495 26.832 80.808-26.832 80.807 26.832 80.495-26.832 80.808 26.832 11.232-3.744 1.56 4.992-12.948 4.212-80.496-26.832-80.807 26.832-80.651-26.988-80.652 26.988-80.807-26.832-80.496 26.832-12.948-4.212z"/><path d="M422.77 264.51l-1.56-4.992 60.216-19.967 80.495 26.831 80.808-26.831 80.807 26.831 80.495-26.831 60.216 19.967-1.56 4.992-58.5-19.499-80.807 26.831-80.651-26.987-80.652 26.987-80.807-26.831-58.5 19.499z"/><path d="M468.166 219.115l-1.56-4.992 14.82-4.836 80.495 26.832 80.808-26.832 80.807 26.832 80.495-26.832 14.82 4.836-1.56 4.992-13.104-4.368-80.807 26.832-80.651-26.988-80.652 26.988-80.807-26.832-13.104 4.368z"/><path d="M496.246 189.475l1.56-4.992 64.115 21.372 80.808-26.832 80.807 26.832 64.115-21.372 1.56 4.992-65.831 21.84-80.651-26.988-80.652 26.988-65.831-21.84z"/><path d="M519.021 166.699l1.56-4.992 41.34 13.884 80.808-26.832 80.807 26.832 41.34-13.884 1.56 4.992-43.056 14.352-80.651-26.988-80.652 26.988-43.056-14.352z"/><path d="M541.641 144.079l1.56-4.992 18.72 6.24 80.808-26.832 80.807 26.832 18.72-6.24 1.56 4.992-20.436 6.708-80.651-26.988-80.652 26.988-20.436-6.708zm27.456-25.896l-1.716-4.836 75.348-25.115 75.347 25.115-1.716 4.836-73.631-24.647-73.632 24.647zm45.396-45.395l-1.716-4.836 29.952-9.984 29.951 9.984-1.716 4.836-28.235-9.516-28.236 9.516z"/></g><defs><clipPath id="clip0"><path transform="rotate(45 642.729 38)" fill="#fff" d="M642.729 38h650.155v650.155H642.729z"/></clipPath></defs></svg>