<svg width="69" height="69" viewBox="0 0 69 69" fill="none" xmlns="http://www.w3.org/2000/svg"><g clip-path="url(#clip0)" fill="#2D486B"><path d="M60.666 6.897H36.63c-.305 0-.595.12-.81.336L14.071 28.98a1.142 1.142 0 00-.335.81v2.289h-2.29c-.303 0-.595.12-.809.335L1.15 41.902A3.936 3.936 0 000 44.67c0 1.031.418 2.04 1.148 2.768l20.12 20.12a3.929 3.929 0 002.77 1.15 3.927 3.927 0 002.766-1.147l9.49-9.49a1.14 1.14 0 00.335-.809v-2.29h2.289c.304 0 .595-.12.81-.334l21.748-21.749c.215-.214.335-.506.335-.81V8.043c0-.632-.512-1.145-1.145-1.145zm-1.144 24.709L38.444 52.683h-2.96c-.632 0-1.144.512-1.144 1.145v2.96l-9.155 9.156c-.601.603-1.69.605-2.294-.002L2.766 45.817a1.602 1.602 0 01-.477-1.147c0-.433.169-.84.478-1.147l9.153-9.154h2.96c.632 0 1.145-.513 1.145-1.145v-2.96L37.103 9.188h22.419v22.419z"/><path d="M52.654 10.331a5.73 5.73 0 00-5.724 5.724 5.73 5.73 0 005.724 5.723 5.73 5.73 0 005.723-5.723 5.73 5.73 0 00-5.723-5.724zm0 9.158a3.438 3.438 0 01-3.434-3.434 3.438 3.438 0 013.434-3.434 3.438 3.438 0 013.434 3.434 3.438 3.438 0 01-3.434 3.434z"/><path d="M68.343.365a1.143 1.143 0 00-1.618 0l-14.88 14.88a1.143 1.143 0 101.618 1.619l14.88-14.88a1.144 1.144 0 000-1.62zm-31.379 16.03l-14.88 14.88 1.618 1.619 14.88-14.88-1.618-1.62zM28.95 31.27l-3.433 3.435 1.619 1.618 3.434-3.434-1.62-1.619zm11.447-11.447L31.24 28.98l1.618 1.619 9.158-9.157-1.62-1.62zm3.435 3.44l-14.88 14.88 1.618 1.619 14.88-14.88-1.618-1.62zM24.848 49.585l-.413-.413a4.393 4.393 0 00-5.528-.544l-2.452 1.626a2.098 2.098 0 01-2.641-.257l-.409-.409a2.111 2.111 0 01-.003-2.963l1.14-1.142a2.112 2.112 0 012.968 0l1.611-1.625c-1.706-1.693-4.483-1.692-6.193.004l-1.149 1.148a4.41 4.41 0 00.003 6.194l.413.413a4.393 4.393 0 005.527.543l2.452-1.626a2.102 2.102 0 012.642.257l.409.409c.811.818.811 2.148.003 2.963l-1.141 1.142a2.112 2.112 0 01-2.967 0l-1.612 1.625a4.381 4.381 0 003.095 1.27 4.39 4.39 0 003.1-1.273l1.147-1.148a4.41 4.41 0 00-.002-6.194z"/><path d="M12.253 42.716l-1.619 1.62 1.145 1.144 1.619-1.62-1.145-1.144zm12.592 12.591l-1.618 1.62 1.144 1.144 1.619-1.62-1.145-1.144zm-6.866-20.603l-1.62 1.619 2.29 2.289 1.619-1.62-2.29-2.288zm4.578 4.578l-1.619 1.62 2.29 2.288 1.618-1.619-2.289-2.289zm4.578 4.579l-1.619 1.619 2.29 2.289 1.618-1.619-2.289-2.289zm4.578 4.579l-1.618 1.618 2.289 2.29 1.618-1.62-2.289-2.289zm2.29-8.013l-1.618 1.618 5.722 5.723 1.619-1.62-5.723-5.721zm3.433-3.434l-1.619 1.62 5.723 5.721 1.618-1.618-5.722-5.723zm3.434-3.428l-1.619 1.618 5.723 5.723 1.618-1.62-5.722-5.721zm3.434-3.437l-1.619 1.618 5.723 5.723 1.618-1.619-5.722-5.722zm3.436-3.436l-1.62 1.619 5.723 5.722 1.618-1.619-5.722-5.722z"/></g><defs><clipPath id="clip0"><path fill="#fff" d="M0 .029h68.679v68.679H0z"/></clipPath></defs></svg>