<svg width="75" height="74" viewBox="0 0 75 74" fill="none" xmlns="http://www.w3.org/2000/svg"><g clip-path="url(#clip0)" fill="#2D486B"><path d="M8.14 54.973h6.107v9.771a8.56 8.56 0 008.55 8.55h30.537c.607 0 1.122-.446 1.209-1.047l.42-2.95a23.894 23.894 0 013.745-9.805 26.085 26.085 0 004.398-14.516V35.43c0-.666-.534-1.21-1.2-1.221l6.003-15.576c.1-.259.109-.545.025-.809L64.727 7.71a1.221 1.221 0 00-1.78-.685l-9.167 5.348c-.24.138-.425.354-.525.61l-1.221 3.177a14.567 14.567 0 00-4.807-12.424 14.658 14.658 0 00-24.25 8.608c-.058.366-.07.732-.099 1.107l-1.09-2.893a1.222 1.222 0 00-1.573-.714L8.031 14.428c-.63.237-.95.942-.713 1.573l7.092 18.846a1.308 1.308 0 00-.076.128L7.005 53.297a1.222 1.222 0 001.135 1.676zm51.15-20.765H54.8l6.48-16.816 3.909 1.506-5.9 15.31zM62.86 9.9l1.978 6.24-7.633-2.942L62.861 9.9zm-7.765 5.104l3.909 1.506-6.822 17.697h-4.489l7.402-19.203zm-10.02 19.203h-.292v-3.986a5.84 5.84 0 012.16-4.397 14.77 14.77 0 002.342-2.534l-4.21 10.917zM25.393 12.71c.9-5.38 5.235-9.526 10.65-10.184a12.215 12.215 0 019.32 21.433 8.402 8.402 0 00-2.967 5.363H41.12v-9.405l2.238-3.357a1.221 1.221 0 00-1.016-1.895H32.57a1.223 1.223 0 00-1.016 1.9l2.238 3.352v9.405H32.5a8.024 8.024 0 00-2.81-5.241 12.185 12.185 0 01-4.3-11.37zm10.636 6.16l-1.176-1.762h5.206l-1.176 1.764a1.225 1.225 0 00-.205.678v9.772h-2.443V19.55a1.23 1.23 0 00-.206-.678v-.002zm6.313 12.895v2.443H32.57v-2.443h9.772zm-12.215-1.221v2.17l-2.838-7.545c.278.27.545.548.855.799a5.79 5.79 0 011.983 4.576zM14.14 27.193l2.947-1.109-.855-2.287-2.947 1.11-1.192-3.169 5.673-2.135-.855-2.287-5.675 2.135-1.192-3.166 9.894-3.726 8.14 21.649H16.779l-.587-1.56 5.675-2.136-.856-2.287-5.68 2.135-1.191-3.167zm2.156 9.458h44.367v8.325a23.657 23.657 0 01-3.985 13.161 26.32 26.32 0 00-4.132 10.814l-.271 1.9H22.798a6.115 6.115 0 01-6.108-6.107v-3.746a10.89 10.89 0 006.855-3.8l.18-.209-1.855-1.588-.18.21a8.386 8.386 0 01-5 2.915v-4.775c0-.674-.547-1.221-1.221-1.221H9.944l6.352-15.88z"/><path d="M56.998 44.976h-2.442a18.775 18.775 0 01-3.166 10.451l2.033 1.355a21.209 21.209 0 003.575-11.806zm-2.442-4.661h2.442v2.544h-2.442v-2.544zM24.02 50.087a4.886 4.886 0 10-.001-9.772 4.886 4.886 0 000 9.772zm0-7.329a2.443 2.443 0 110 4.886 2.443 2.443 0 010-4.886zM35.36 7.64l-.696-2.34a9.69 9.69 0 00-2.245.99l1.26 2.092a7.256 7.256 0 011.681-.74zm-3.14 1.894l-1.745-1.71a9.687 9.687 0 00-2.693 5.444l2.418.348a7.267 7.267 0 012.02-4.082z"/></g><defs><clipPath id="clip0"><path fill="#fff" d="M.803 0h73.294v73.294H.803z"/></clipPath></defs></svg>