<svg width="423" height="315" viewBox="0 0 423 315" fill="none" xmlns="http://www.w3.org/2000/svg">
<g opacity="0.13">
<g clip-path="url(#clip0)">
<path d="M-109.79 512.337L-108.426 508.027L-84.0487 516.341L-14.2487 493.266L55.3822 516.847L125.317 493.907L195.083 517.354L264.883 494.278L334.514 517.86L358.951 509.722L360.283 514.042L334.497 522.444L264.865 499.133L194.931 522.073L125.3 498.492L55.4999 521.567L-14.2663 498.12L-84.0653 520.926L-109.79 512.337Z" fill="#B69D6D"/>
<path d="M-148.888 472.955L-147.524 468.645L-83.9538 490.182L-14.1537 467.106L55.477 490.687L125.411 467.747L195.178 491.194L264.978 468.119L334.608 491.7L398.333 470.625L399.666 474.945L334.592 496.285L264.96 472.973L195.026 495.913L125.395 472.332L55.5948 495.407L-14.1713 471.961L-83.9704 494.766L-148.888 472.955Z" fill="#B69D6D"/>
<path d="M-169.708 450.63L-171.177 446.444L-153.49 440.44L-83.8589 464.022L-14.0589 440.946L55.5719 464.527L125.506 441.587L195.272 465.034L265.072 441.958L334.703 465.54L404.503 442.464L422.146 448.596L420.648 452.771L404.486 447.319L334.687 470.124L265.055 446.813L195.12 469.753L125.49 446.172L55.6896 469.247L-14.0765 445.8L-83.8756 468.606L-153.507 445.295L-169.708 450.63Z" fill="#B69D6D"/>
<path d="M-189.325 430.871L-190.793 426.685L-153.395 414.28L-83.7641 437.861L-13.964 414.786L55.6668 438.367L125.601 415.427L195.367 438.874L265.167 415.798L334.798 439.38L404.598 416.304L441.905 428.98L440.407 433.155L404.581 421.158L334.782 443.964L265.15 420.653L195.215 443.593L125.585 420.012L55.7845 443.087L-13.9817 419.64L-83.7807 442.446L-153.412 419.135L-189.325 430.871Z" fill="#B69D6D"/>
<path d="M-208.806 411.247L-210.274 407.062L-153.3 388.12L-83.6691 411.701L-13.8691 388.626L55.7617 412.207L125.696 389.267L195.462 412.714L265.262 389.638L334.893 413.219L404.693 390.144L461.529 409.498L460.03 413.673L404.675 394.998L334.741 417.938L265.245 394.493L195.31 417.433L125.679 393.852L55.8794 416.927L-13.8867 393.48L-83.5514 416.421L-153.317 392.974L-208.806 411.247Z" fill="#B69D6D"/>
<path d="M-235.817 385.393L-234.318 381.219L-223.005 385.035L-153.205 361.96L-83.5743 385.541L-13.7742 362.466L55.8566 386.047L125.791 363.107L195.557 386.554L265.357 363.478L334.988 387.059L404.788 363.984L474.419 387.565L485.76 383.83L487.228 388.016L474.537 392.285L404.77 368.838L334.836 391.778L265.34 368.332L195.405 391.273L125.774 367.691L55.9743 390.767L-13.7918 367.32L-83.4565 390.261L-153.223 366.814L-223.157 389.755L-235.817 385.393Z" fill="#B69D6D"/>
<path d="M-266.699 348.872L-265.335 344.562L-222.91 358.875L-153.11 335.8L-83.4794 359.381L-13.6793 336.305L55.9515 359.886L125.886 336.946L195.652 360.393L265.452 337.318L335.083 360.899L404.883 337.823L474.514 361.405L517.042 347.4L518.374 351.72L474.631 366.125L404.865 342.678L334.931 365.618L265.434 342.172L195.5 365.112L125.869 341.531L56.0692 364.607L-13.6969 341.16L-83.3616 364.101L-153.128 340.654L-223.062 363.594L-266.699 348.872Z" fill="#B69D6D"/>
<path d="M-246.941 329.256L-245.712 325.08L-222.815 332.715L-153.015 309.639L-83.3845 333.221L-13.5845 310.145L56.0463 333.726L125.981 310.786L195.747 334.233L265.547 311.158L335.178 334.739L404.978 311.663L474.609 335.245L497.56 327.776L498.758 331.961L474.726 339.965L404.96 316.518L335.026 339.458L265.529 316.012L195.595 338.952L125.964 315.371L56.1641 338.447L-13.6021 315L-83.2668 337.941L-153.033 314.494L-222.967 337.434L-246.941 329.256Z" fill="#B69D6D"/>
<path d="M-227.317 309.774L-225.953 305.464L-222.72 306.555L-152.92 283.479L-83.2896 307.061L-13.4896 283.985L56.1412 307.566L126.076 284.626L195.842 308.073L265.642 284.997L335.273 308.579L405.073 285.503L474.703 309.084L477.944 308.017L479.276 312.337L474.821 313.805L405.055 290.358L335.121 313.298L265.624 289.852L195.69 312.792L126.059 289.211L56.259 312.286L-13.5072 288.839L-83.1719 311.781L-152.938 288.334L-222.872 311.274L-227.317 309.774Z" fill="#B69D6D"/>
<path d="M-190.375 274.443L-191.843 270.258L-152.826 257.319L-83.1947 280.9L-13.2603 257.96L56.2361 281.406L126.171 258.466L195.937 281.913L265.601 258.972L335.367 282.419L405.168 259.343L444.091 272.564L442.592 276.739L405.15 264.197L335.216 287.138L265.719 263.692L195.785 286.632L126.154 263.051L56.3538 286.126L-13.4123 262.679L-83.077 285.62L-152.843 262.174L-190.375 274.443Z" fill="#B69D6D"/>
<path d="M-152.883 235.878L-151.518 231.568L-83.0998 254.74L-13.1654 231.8L56.331 255.246L126.265 232.306L196.032 255.753L265.696 232.812L335.462 256.258L404.047 233.583L405.38 237.903L335.31 260.978L265.814 237.532L195.88 260.472L126.249 236.891L56.4487 259.966L-13.3174 236.519L-82.9821 259.46L-152.883 235.878Z" fill="#B69D6D"/>
<path d="M-133.259 216.396L-131.895 212.086L-83.0049 228.58L-13.0705 205.64L56.4259 229.086L126.36 206.146L196.126 229.593L265.791 206.651L335.557 230.098L384.566 213.959L385.898 218.279L335.405 234.817L265.909 211.371L195.974 234.312L126.344 210.73L56.5436 233.806L-13.2225 210.359L-82.8872 233.3L-133.259 216.396Z" fill="#B69D6D"/>
<path d="M-113.5 196.78L-112.136 192.47L-82.9101 202.42L-12.9757 179.48L56.5208 202.926L126.455 179.986L196.221 203.432L265.886 180.491L335.652 203.938L364.949 194.2L366.282 198.52L335.5 208.657L266.004 185.211L196.069 208.152L126.439 184.57L56.6385 207.646L-13.1276 184.199L-82.7923 207.14L-113.5 196.78Z" fill="#B69D6D"/>
<path d="M-93.8765 177.298L-92.5123 172.988L-82.8152 176.26L-12.8808 153.32L56.6157 176.766L126.55 153.825L196.316 177.272L265.981 154.331L335.747 177.778L345.468 174.577L346.801 178.897L335.595 182.497L266.099 159.051L196.164 181.991L126.533 158.41L56.7334 181.486L-13.0327 158.039L-82.6974 180.98L-93.8765 177.298Z" fill="#B69D6D"/>
<path d="M-63.5663 148.551L-64.8991 144.231L-12.7859 127.16L56.7105 150.605L126.645 127.665L196.411 151.112L266.076 128.171L318.064 145.62L316.7 149.93L266.194 132.891L196.259 155.831L126.628 132.25L56.8283 155.326L-12.9379 131.879L-63.5663 148.551Z" fill="#B69D6D"/>
<path d="M-24.1837 109.453L-25.5166 105.133L-12.691 100.999L56.8054 124.445L126.74 101.505L196.506 124.952L266.171 102.011L278.966 106.238L277.602 110.548L266.288 106.731L196.354 129.671L126.723 106.09L56.9232 129.165L-12.843 105.719L-24.1837 109.453Z" fill="#B69D6D"/>
<path d="M0.181485 83.9204L1.54559 79.6102L56.9003 98.2851L126.835 75.345L196.601 98.7918L252.09 80.519L253.422 84.8389L196.449 103.511L126.818 79.9297L57.0181 103.005L0.181485 83.9204Z" fill="#B69D6D"/>
<path d="M19.9404 64.3043L21.3045 59.9941L56.9952 72.125L126.93 49.1848L196.696 72.6317L232.474 60.76L233.806 65.08L196.544 77.3508L126.913 53.7696L57.1129 76.8451L19.9404 64.3043Z" fill="#B69D6D"/>
<path d="M39.564 44.8225L40.9281 40.5123L57.0901 45.9649L127.024 23.0247L196.791 46.4716L212.992 41.1364L214.325 45.4564L196.639 51.1907L127.008 27.6094L57.2078 50.6849L39.564 44.8225Z" fill="#B69D6D"/>
<path d="M63.3781 22.5241L61.91 18.3385L127.119 -3.13544L192.171 18.811L190.673 22.9859L127.103 1.44932L63.3781 22.5241Z" fill="#B69D6D"/>
<path d="M102.761 -16.5737L101.293 -20.7593L127.214 -29.2956L153.073 -20.5715L151.575 -16.3967L127.198 -24.7108L102.761 -16.5737Z" fill="#B69D6D"/>
</g>
</g>
<defs>
<clipPath id="clip0">
<rect x="127.277" y="-46.5559" width="562" height="562" transform="rotate(45.2078 127.277 -46.5559)" fill="white"/>
</clipPath>
</defs>
</svg>
