<svg width="280" height="207" viewBox="0 0 280 207" fill="none" xmlns="http://www.w3.org/2000/svg"><g clip-path="url(#clip0)" fill="#B69D6D" opacity=".07"><path d="M-322.69 498.079l-1.468-4.175 17.529-6.079 69.14 23.246 69.18-23.37 69.14 23.246 69.313-23.235 69.274 23.111 69.18-23.37 69.139 23.246 69.181-23.37 17.518 6.047-1.475 4.178-16.048-5.375-69.18 23.1-69.139-22.976-69.314 23.235-69.14-23.245-69.18 23.369-69.273-23.11-69.18 23.1-69.14-22.976-16.057 5.403z"/><path d="M-342.204 478.426l-1.467-4.175 37.065-12.563 69.14 23.246 69.18-23.37 69.14 23.246 69.314-23.235 69.273 23.111 69.18-23.37 69.139 23.246 69.181-23.37 37.043 12.496-1.475 4.178-35.573-11.824-69.18 23.1-69.139-22.976-69.314 23.235-69.14-23.245-69.18 23.369-69.273-23.111-69.18 23.101-69.14-22.977-35.594 11.888z"/><path d="M-361.583 458.908l-1.468-4.175 56.469-19.182 69.139 23.246 69.18-23.37 69.14 23.246 69.314-23.235 69.273 23.111 69.18-23.37 69.139 23.246 69.181-23.37 56.435 19.08-1.476 4.178-54.963-18.408-69.315 23.235-69.005-23.111-69.314 23.235-69.14-23.246-69.18 23.37-69.273-23.111-69.047 23.235-69.273-23.111-54.996 18.507z"/><path d="M-388.448 433.2l1.475-4.178 11.233 3.762 69.181-23.37 69.139 23.246 69.18-23.37 69.14 23.246 69.314-23.235 69.273 23.111 69.18-23.37 69.14 23.246 69.18-23.37 69.139 23.246 11.24-3.783 1.468 4.175-12.578 4.323-69.273-23.111-69.314 23.235-69.006-23.111-69.314 23.235-69.14-23.246-69.18 23.37-69.273-23.111-69.047 23.235-69.273-23.111-69.314 23.236-12.57-4.3z"/><path d="M-419.184 396.851l1.342-4.313 42.125 14.109 69.181-23.37 69.139 23.246 69.18-23.37 69.14 23.246 69.314-23.235 69.273 23.11 69.18-23.369 69.14 23.245 69.18-23.369 69.139 23.245 42.151-14.184 1.334 4.31-43.355 14.59-69.273-23.111-69.314 23.235-69.006-23.111-69.314 23.235-69.14-23.246-69.18 23.37-69.273-23.111-69.046 23.235-69.274-23.111-69.314 23.235-43.329-14.511z"/><path d="M-399.636 377.163l1.208-4.177 22.734 7.524 69.181-23.37 69.139 23.246 69.18-23.37 69.14 23.246 69.314-23.235 69.273 23.11 69.18-23.369 69.14 23.245 69.18-23.369 69.139 23.245 22.748-7.565 1.201 4.176-23.819 8.105-69.273-23.111-69.314 23.235-69.006-23.111-69.314 23.235-69.14-23.246-69.18 23.37-69.273-23.111-69.046 23.235-69.274-23.111-69.314 23.235-23.804-8.062z"/><path d="M-380.222 357.61l1.342-4.312 3.209 1.075 69.181-23.37 69.139 23.246 69.181-23.37 69.139 23.246 69.314-23.236L39.556 354l69.181-23.369 69.139 23.245 69.18-23.369 69.14 23.245 3.211-1.08 1.334 4.31-4.416 1.486-69.273-23.111-69.314 23.235-69.006-23.111-69.314 23.235-69.14-23.246-69.18 23.37-69.273-23.111-69.046 23.235-69.273-23.111-69.314 23.235-4.414-1.478z"/><path d="M-343.671 322.144l-1.467-4.175 38.671-13.103 69.139 23.246 69.314-23.236 69.006 23.112 69.314-23.236 69.273 23.111 69.047-23.235 69.273 23.111 69.18-23.37 38.649 13.034-1.475 4.178-37.178-12.361-69.314 23.235-69.006-23.111-69.314 23.235-69.139-23.246-69.18 23.37-69.274-23.111-69.046 23.235-69.273-23.111-37.2 12.428z"/><path d="M-306.582 283.444l1.342-4.312 67.935 22.843 69.314-23.236 69.006 23.112 69.314-23.236 69.273 23.111 69.047-23.235 69.273 23.111 67.976-22.964 1.334 4.31-69.448 23.37-69.006-23.111-69.314 23.235-69.139-23.246-69.18 23.37-69.273-23.111-69.047 23.235-69.407-23.246z"/><path d="M-287.168 263.892l1.342-4.313 48.544 16.259 69.315-23.236 69.005 23.112 69.314-23.236 69.273 23.111 69.047-23.235 69.273 23.111 48.574-16.345 1.334 4.31-50.046 16.751-69.005-23.111-69.315 23.235-69.139-23.246-69.18 23.37-69.273-23.111-69.047 23.235-50.016-16.661z"/><path d="M-267.62 244.204l1.342-4.312 29.02 9.809 69.314-23.236 69.005 23.112 69.314-23.236 69.274 23.111 69.046-23.235 69.273 23.111 29.037-9.861 1.334 4.31-30.509 10.267-69.005-23.111-69.314 23.235-69.14-23.246-69.18 23.37-69.273-23.111-69.047 23.235-30.491-10.212z"/><path d="M-248.206 224.651l1.342-4.312 9.629 3.225 69.314-23.236 69.005 23.111 69.314-23.235 69.274 23.111 69.046-23.235 69.273 23.111 9.635-3.242 1.334 4.31-11.107 3.648-69.005-23.111-69.314 23.235-69.14-23.246-69.18 23.37-69.273-23.111-69.047 23.235-11.1-3.628z"/><path d="M-218.215 195.793l-1.334-4.31 51.651-17.292 69.005 23.111 69.315-23.235 69.273 23.111 69.046-23.235 51.621 17.199-1.342 4.312-50.149-16.795-69.314 23.235-69.14-23.246-69.18 23.37-69.273-23.111-50.179 16.886z"/><path d="M-179.253 156.552l-1.334-4.31 12.712-4.188 69.006 23.111 69.314-23.235 69.273 23.111 69.046-23.235 12.705 4.165-1.341 4.313-11.234-3.762-69.314 23.235-69.14-23.246-69.18 23.37-69.273-23.111-11.24 3.782z"/><path d="M-155.152 130.933l1.342-4.313 54.964 18.408 69.314-23.235 69.273 23.111 54.996-18.507 1.334 4.31-56.468 18.913-69.14-23.246-69.18 23.37-56.435-18.811z"/><path d="M-135.604 111.245l1.342-4.313 35.439 11.959 69.314-23.235 69.273 23.111 35.46-12.022 1.334 4.31-36.932 12.428-69.14-23.246-69.18 23.37-36.91-12.362z"/><path d="M-116.189 91.692l1.341-4.312 16.048 5.374 69.314-23.235L39.787 92.63l16.057-5.403 1.334 4.31-17.529 5.809L-29.49 74.1l-69.18 23.37-17.519-5.778zm23.563-22.386l-1.468-4.175 64.631-21.749L35.13 65.015l-1.476 4.178-63.12-21.23-63.16 21.343z"/></g><defs><clipPath id="clip0"><path transform="matrix(.70459 .70962 -.70459 .70962 -29.424 0)" fill="#fff" d="M0 0h559.014v560.011H0z"/></clipPath></defs></svg>