<svg width="67" height="66" viewBox="0 0 67 66" fill="none" xmlns="http://www.w3.org/2000/svg"><g clip-path="url(#clip0)" fill="#2D486B"><path d="M43.855 20.68a1.286 1.286 0 00-1.038-.875l-5.594-.812-2.503-5.068a1.286 1.286 0 00-2.306 0l-2.5 5.07-5.593.814a1.286 1.286 0 00-.712 2.194l4.049 3.944-.954 5.57a1.286 1.286 0 001.866 1.356l5.002-2.632 5.003 2.63a1.285 1.285 0 001.866-1.357l-.957-5.57 4.046-3.947c.35-.341.476-.852.325-1.318zm-6.65 3.895a1.286 1.286 0 00-.37 1.138l.63 3.669-3.296-1.731a1.286 1.286 0 00-1.196 0l-3.295 1.733.628-3.67a1.286 1.286 0 00-.37-1.137l-2.666-2.598 3.684-.537c.418-.06.78-.324.968-.703l1.646-3.339 1.649 3.338c.187.38.55.643.968.703l3.684.535-2.665 2.599z"/><path d="M62.467 56.494L51.839 38.008a23.288 23.288 0 005.132-14.606C56.971 10.498 46.473 0 33.57 0 20.666 0 10.168 10.498 10.168 23.402c0 5.52 1.923 10.6 5.132 14.606L4.672 56.494a1.286 1.286 0 001.286 1.915l8.295-1.114 3.183 7.741a1.286 1.286 0 002.303.154l10.73-18.584.004-.008a23.502 23.502 0 006.194 0l.005.008L47.4 65.19a1.286 1.286 0 002.302-.154l3.183-7.74 8.296 1.113a1.285 1.285 0 001.285-1.915zM18.82 61.639l-2.317-5.635 2.079-3.393a1.286 1.286 0 10-2.193-1.344l-2.1 3.429-6.086.817L17.11 40.02a23.4 23.4 0 0010.69 6.063l-8.98 15.556zm14.75-17.407c-11.486 0-20.83-9.345-20.83-20.83 0-11.486 9.344-20.83 20.83-20.83 11.485 0 20.83 9.344 20.83 20.83 0 11.485-9.345 20.83-20.83 20.83zm19.28 10.464l-2.1-3.429a1.286 1.286 0 10-2.193 1.344l2.08 3.393-2.318 5.635-8.98-15.556a23.4 23.4 0 0010.69-6.063l8.908 15.493-6.086-.817z"/><path d="M33.57 6.686c-2.87 0-5.7.74-8.187 2.14a1.286 1.286 0 001.26 2.24 14.147 14.147 0 016.927-1.808c7.798 0 14.143 6.345 14.143 14.144 0 2.13-.461 4.178-1.372 6.085a1.286 1.286 0 002.32 1.109 16.567 16.567 0 001.624-7.194c0-9.217-7.498-16.716-16.715-16.716zm11.964 26.542a1.286 1.286 0 00-1.818.027l-.028.03a1.286 1.286 0 001.84 1.796l.033-.035a1.286 1.286 0 00-.027-1.818zm-3.402 3.076a1.286 1.286 0 00-1.747-.506 14.155 14.155 0 01-6.816 1.747c-7.798 0-14.143-6.345-14.143-14.143 0-2.043.425-4.014 1.265-5.857a1.286 1.286 0 10-2.34-1.066 16.583 16.583 0 00-1.497 6.923c0 9.216 7.498 16.715 16.715 16.715 2.818 0 5.604-.714 8.057-2.066a1.286 1.286 0 00.506-1.747zM23.155 11.945a1.286 1.286 0 00-1.817.064l-.029.031a1.286 1.286 0 001.888 1.747l.022-.025a1.286 1.286 0 00-.064-1.817z"/></g><defs><clipPath id="clip0"><path fill="#fff" d="M.653 0h65.833v65.833H.653z"/></clipPath></defs></svg>