<svg width="181" height="496" viewBox="0 0 181 496" fill="none" xmlns="http://www.w3.org/2000/svg">
<g opacity="0.07">
<g clip-path="url(#clip0)">
<path d="M161.772 260.461L163.113 256.148L187.319 264.345L256.499 240.975L325.638 264.221L394.953 240.985L464.226 264.096L533.406 240.727L602.545 263.972L626.765 255.732L628.099 260.042L602.541 268.553L533.402 245.577L464.088 268.812L394.948 245.566L325.768 268.936L256.495 245.825L187.315 268.925L161.772 260.461Z" fill="#B69D6D"/>
<path d="M122.879 221.29L124.221 216.978L187.342 238.208L256.522 214.838L325.662 238.084L394.976 214.849L464.249 237.96L533.429 214.59L602.568 237.836L665.727 216.492L667.061 220.802L602.564 242.416L533.425 219.44L464.111 242.675L394.972 219.43L325.791 242.799L256.518 219.689L187.338 242.789L122.879 221.29Z" fill="#B69D6D"/>
<path d="M102.164 199.079L100.696 194.904L118.226 188.825L187.365 212.071L256.545 188.701L325.685 211.947L394.999 188.712L464.272 211.823L533.452 188.453L602.592 211.699L671.772 188.329L689.291 194.376L687.815 198.554L671.768 193.179L602.587 216.279L533.448 193.303L464.134 216.538L394.995 193.293L325.814 216.662L256.541 193.551L187.361 216.652L118.221 193.676L102.164 199.079Z" fill="#B69D6D"/>
<path d="M82.6507 179.426L81.1829 175.251L118.249 162.688L187.388 185.934L256.568 162.564L325.708 185.81L395.022 162.575L464.295 185.686L533.475 162.316L602.615 185.562L671.795 162.192L708.839 174.688L707.364 178.866L671.791 167.042L602.611 190.142L533.471 167.166L464.157 190.401L395.018 167.156L325.837 190.525L256.564 167.414L187.384 190.515L118.244 167.538L82.6507 179.426Z" fill="#B69D6D"/>
<path d="M63.2712 159.908L61.8034 155.733L118.272 136.551L187.411 159.797L256.592 136.427L325.731 159.673L395.045 136.438L464.318 159.549L533.499 136.179L602.638 159.425L671.818 136.055L728.253 155.135L726.778 159.313L671.814 140.905L602.5 164.14L533.494 141.029L464.18 164.264L395.041 141.018L325.86 164.388L256.587 141.277L187.541 164.512L118.268 141.401L63.2712 159.908Z" fill="#B69D6D"/>
<path d="M36.4058 134.2L37.881 130.022L49.1145 133.784L118.295 110.414L187.434 133.66L256.615 110.29L325.754 133.536L395.068 110.301L464.341 133.412L533.522 110.042L602.661 133.288L671.841 109.918L740.981 133.164L752.221 129.381L753.689 133.556L741.11 137.879L671.837 114.768L602.523 138.003L533.517 114.892L464.203 138.127L395.064 114.881L325.883 138.251L256.61 115.14L187.564 138.375L118.291 115.264L48.9765 138.5L36.4058 134.2Z" fill="#B69D6D"/>
<path d="M5.67059 97.8507L7.01214 93.5382L49.1377 107.647L118.318 84.277L187.457 107.523L256.638 84.153L325.777 107.399L395.091 84.1635L464.364 107.274L533.545 83.9046L602.684 107.15L671.864 83.7806L741.004 107.026L783.154 92.8422L784.488 97.1523L741.133 111.742L671.86 88.6308L602.546 111.866L533.54 88.7548L464.226 111.99L395.087 88.7442L325.907 112.114L256.634 89.0031L187.587 112.238L118.314 89.1272L48.9997 112.362L5.67059 97.8507Z" fill="#B69D6D"/>
<path d="M25.2186 78.1631L26.4262 73.9855L49.1607 81.5098L118.341 58.14L187.48 81.3858L256.661 58.016L325.8 81.2617L395.114 58.0265L464.387 81.1374L533.568 57.7676L602.707 81.0134L671.888 57.6436L741.027 80.8893L763.775 73.3242L764.975 77.4997L741.156 85.6047L671.883 62.4937L602.569 85.7289L533.564 62.6178L464.249 85.853L395.11 62.6072L325.93 85.9771L256.657 62.8661L187.61 86.1011L118.337 62.9902L49.0227 86.2254L25.2186 78.1631Z" fill="#B69D6D"/>
<path d="M44.6327 58.6103L45.9742 54.2978L49.1838 55.3728L118.364 32.003L187.504 55.2487L256.684 31.8789L325.823 55.1247L395.137 31.8895L464.41 55.0004L533.591 31.6306L602.73 54.8763L671.911 31.5065L741.05 54.7523L744.261 53.6716L745.595 57.9816L741.179 59.4676L671.906 36.3567L602.592 59.5919L533.587 36.4808L464.273 59.7159L395.133 36.4702L325.953 59.84L256.68 36.7291L187.633 59.964L118.36 36.8531L49.0459 60.0883L44.6327 58.6103Z" fill="#B69D6D"/>
<path d="M81.1837 23.1443L79.7159 18.9691L118.387 5.86592L187.527 29.1117L256.841 5.87647L325.846 28.9876L395.16 5.75242L464.434 28.8633L533.48 5.6284L602.753 28.7393L671.934 5.36949L710.582 18.4033L709.107 22.5812L671.93 10.2197L602.615 33.4549L533.61 10.3437L464.296 33.5789L395.156 10.3332L325.976 33.7029L256.703 10.592L187.656 33.827L118.383 10.7161L81.1837 23.1443Z" fill="#B69D6D"/>
<path d="M118.273 -15.5555L119.614 -19.868L187.55 2.97465L256.864 -20.2605L325.869 2.85057L395.184 -20.3846L464.457 2.72628L533.503 -20.5086L602.776 2.60226L670.753 -20.3623L672.086 -16.0522L602.638 7.31781L533.633 -15.7933L464.319 7.44188L395.179 -15.8039L325.999 7.56592L256.726 -15.545L187.679 7.68998L118.273 -15.5555Z" fill="#B69D6D"/>
<path d="M137.687 -35.1083L139.028 -39.4208L187.573 -23.1624L256.887 -46.3976L325.893 -23.2864L395.207 -46.5216L464.48 -23.4107L533.526 -46.6457L602.8 -23.5348L651.373 -39.8803L652.707 -35.5702L602.662 -18.8192L533.656 -41.9304L464.342 -18.6952L395.203 -41.9409L326.022 -18.5711L256.749 -41.682L187.702 -18.4471L137.687 -35.1083Z" fill="#B69D6D"/>
<path d="M157.235 -54.796L158.576 -59.1085L187.596 -49.2994L256.91 -72.5346L325.916 -49.4235L395.23 -72.6587L464.503 -49.5478L533.549 -72.7827L602.823 -49.6718L631.86 -59.5329L633.194 -55.2229L602.685 -44.9563L533.679 -68.0674L464.365 -44.8322L395.226 -68.078L326.045 -44.7082L256.772 -67.8191L187.726 -44.5841L157.235 -54.796Z" fill="#B69D6D"/>
<path d="M176.649 -74.3488L177.99 -78.6613L187.619 -75.4365L256.933 -98.6717L325.939 -75.5605L395.253 -98.7957L464.526 -75.6848L533.573 -98.9198L602.846 -75.8089L612.48 -79.051L613.814 -74.7409L602.708 -71.0933L533.702 -94.2044L464.388 -70.9692L395.249 -94.215L326.068 -70.8452L256.795 -93.9561L187.749 -70.7211L176.649 -74.3488Z" fill="#B69D6D"/>
</g>
</g>
<defs>
<clipPath id="clip0">
<rect width="559.014" height="560.011" transform="matrix(0.704586 0.709619 -0.704586 0.709619 395.43 -299)" fill="white"/>
</clipPath>
</defs>
</svg>
