<svg width="77" height="77" viewBox="0 0 77 77" fill="none" xmlns="http://www.w3.org/2000/svg"><g clip-path="url(#clip0)" fill="#2D486B"><path d="M75.591 68.277h-3.675V52.854a3.512 3.512 0 001.2-2.643 3.525 3.525 0 00-3.521-3.521h-7.341L61.12 28.553A1.122 1.122 0 0060 27.501h-4.797c-.593 0-1.083.46-1.12 1.052L52.95 46.69h-2.69l-1.133-18.137a1.122 1.122 0 00-1.12-1.052H43.21c-.593 0-1.083.46-1.12 1.052L40.957 46.69h-2.69l-1.133-18.137a1.122 1.122 0 00-1.12-1.052h-4.797c-.592 0-1.083.46-1.12 1.052L28.964 46.69h-3.126l-.695-31.284a1.122 1.122 0 00-1.122-1.097h-7.195c-.61 0-1.109.487-1.122 1.097l-.802 36.081h-8.87a3.525 3.525 0 00-3.521 3.52 3.51 3.51 0 001.2 2.644v10.626H1.233a1.122 1.122 0 000 2.244H75.59a1.122 1.122 0 000-2.244zM14.795 56.284h-3.966a1.122 1.122 0 000 2.245h3.916l-.216 9.748H5.954v-9.75l.078.001a1.122 1.122 0 000-2.244 1.278 1.278 0 01-1.277-1.276c0-.704.573-1.277 1.277-1.277h8.82l-.057 2.553zm41.462-26.539h2.689l1.059 16.945h-4.807l1.059-16.945zm-11.993 0h2.689l1.06 16.945h-4.808l1.059-16.945zm-11.993 0h2.689l1.059 16.945h-4.807l1.059-16.945zm-12.97 38.532h-2.528l1.15-51.724h5l.67 30.137h-1.97a3.525 3.525 0 00-3.521 3.52c0 1.053.465 1.998 1.2 2.644v15.423zm50.294-16.79h-2.399a1.122 1.122 0 000 2.244h2.399l.077-.002v14.548H21.545V53.73l.077.002H62.4a1.122 1.122 0 000-2.244H21.622a1.278 1.278 0 01-1.276-1.276c0-.704.573-1.277 1.276-1.277h47.972a1.278 1.278 0 010 2.553z"/><path d="M28.818 62.364c-.62 0-1.122.502-1.122 1.122v2.398a1.122 1.122 0 002.244 0v-2.398c0-.62-.502-1.122-1.122-1.122zm4.798 0c-.62 0-1.122.502-1.122 1.122v2.398a1.122 1.122 0 102.244 0v-2.398c0-.62-.503-1.122-1.122-1.122zm4.797 0c-.62 0-1.122.502-1.122 1.122v2.398a1.122 1.122 0 002.244 0v-2.398c0-.62-.503-1.122-1.122-1.122zm4.797 0c-.62 0-1.122.502-1.122 1.122v2.398a1.122 1.122 0 002.244 0v-2.398c0-.62-.502-1.122-1.122-1.122zm4.797 0c-.62 0-1.122.502-1.122 1.122v2.398a1.122 1.122 0 002.244 0v-2.398c0-.62-.502-1.122-1.122-1.122zm4.797 0c-.62 0-1.122.502-1.122 1.122v2.398a1.122 1.122 0 002.244 0v-2.398c0-.62-.502-1.122-1.122-1.122zm4.798 0c-.62 0-1.122.502-1.122 1.122v2.398a1.122 1.122 0 002.244 0v-2.398c0-.62-.503-1.122-1.122-1.122zm4.797 0c-.62 0-1.122.502-1.122 1.122v2.398a1.122 1.122 0 002.244 0v-2.398c0-.62-.503-1.122-1.122-1.122z"/></g><defs><clipPath id="clip0"><path fill="#fff" d="M.112 0h76.601v76.601H.112z"/></clipPath></defs></svg>