<svg width="507" height="150" viewBox="0 0 507 150" fill="none" xmlns="http://www.w3.org/2000/svg"><g clip-path="url(#clip0)" fill="#B69D6D" opacity=".13"><path d="M613.407-275.839l1.386 4.213-37.634 11.67-69.155-24.94-70.239 21.704-69.156-24.941-70.37 21.566-69.294-24.809-70.238 21.704-69.156-24.94-70.238 21.704-37.052-13.405 1.58-4.144 35.584 12.695 70.233-21.434 69.162 24.671 70.37-21.566 69.155 24.941 70.239-21.704 69.294 24.809 70.232-21.435 69.162 24.671 36.135-11.03z"/><path d="M632.5-255.838l1.386 4.214-57.334 17.822-69.156-24.941-70.238 21.704-69.156-24.94-70.37 21.566-69.294-24.809-70.238 21.704-69.156-24.941-70.239 21.704-56.445-20.464 1.58-4.145 54.978 19.756 70.37-21.566 69.024 24.802 70.371-21.566 69.155 24.941 70.239-21.704 69.293 24.809 70.101-21.572 69.293 24.809 55.836-17.183z"/><path d="M659-229.46l-1.58 4.145-11.237-4.038-70.238 21.704-69.156-24.941-70.239 21.704-69.155-24.94-70.371 21.566-69.293-24.809-70.239 21.704-69.155-24.941-70.239 21.704-69.155-24.94-11.412 3.511-1.386-4.213 12.772-4.02 69.294 24.809 70.37-21.566 69.024 24.803 70.37-21.566 69.156 24.94 70.239-21.704 69.293 24.809 70.101-21.572 69.293 24.809 70.371-21.566L659-229.46z"/><path d="M689.161-192.341l-1.448 4.283-42.137-15.142-70.239 21.704-69.155-24.94-70.239 21.704-69.155-24.941-70.371 21.566-69.293-24.809-70.239 21.704-69.155-24.94-70.24 21.704-69.155-24.941-42.794 13.169-1.248-4.345 44.017-13.545 69.294 24.808 70.37-21.566 69.024 24.803 70.37-21.566 69.156 24.941 70.238-21.704 69.294 24.809 70.1-21.573 69.294 24.809 70.37-21.566 43.341 15.574z"/><path d="M669.022-173.116l-1.311 4.151-22.742-8.081-70.239 21.704-69.156-24.941-70.238 21.704-69.156-24.941-70.37 21.566-69.294-24.808-70.238 21.703-69.156-24.94-70.238 21.704-69.156-24.941-23.093 7.017-1.116-4.207 24.184-7.531 69.293 24.809 70.37-21.566 69.025 24.802 70.37-21.566 69.155 24.941 70.239-21.704 69.294 24.809 70.1-21.572 69.294 24.808 70.37-21.566 23.809 8.646z"/><path d="M649.02-154.022l-1.448 4.283-3.211-1.154-70.238 21.704-69.156-24.941-70.238 21.704-69.156-24.94-70.37 21.566-69.294-24.809-70.238 21.704-69.156-24.941-70.239 21.704-69.155-24.94-3.26 1.003-1.249-4.345 4.484-1.38 69.293 24.809 70.37-21.566 69.024 24.803 70.371-21.566 69.155 24.94 70.239-21.704 69.293 24.809 70.101-21.572 69.293 24.809 70.371-21.566 4.414 1.586z"/><path d="M611.394-119.421l1.385 4.213-39.264 12.172-69.155-24.94-70.37 21.566-69.024-24.803-70.371 21.566-69.293-24.809-70.101 21.572-69.293-24.809-70.239 21.704-38.656-13.981 1.58-4.145 37.189 13.273 70.37-21.566 69.024 24.803 70.37-21.566 69.156 24.94 70.238-21.704 69.294 24.809 70.101-21.572 69.293 24.809 37.766-11.532z"/><path d="M573.153-81.598l-1.449 4.283-67.951-24.508-70.371 21.566-69.024-24.803-70.37 21.566-69.293-24.809-70.101 21.573-69.293-24.809-69.016 21.327-1.248-4.345 70.508-21.698 69.024 24.803 70.37-21.566 69.156 24.94 70.238-21.703 69.294 24.809 70.1-21.573 69.426 24.947z"/><path d="M553.151-62.504l-1.448 4.282-48.558-17.448-70.37 21.566-69.024-24.802-70.37 21.566-69.294-24.81-70.1 21.573-69.294-24.809L35.378-70.21l-1.248-4.346L84.938-90.1l69.022 24.8 70.371-21.566 69.155 24.94 70.239-21.703 69.293 24.809 70.101-21.572 50.031 17.887z"/><path d="M533.012-43.279l-1.448 4.283-29.026-10.52-70.37 21.565-69.024-24.802-70.37 21.566-69.294-24.81-70.101 21.573-69.293-24.809-29.482 9.162-1.248-4.345 30.974-9.532 69.024 24.803 70.371-21.566 69.155 24.94 70.239-21.704 69.293 24.81 70.101-21.573 30.499 10.96z"/><path d="M513.01-24.185l-1.448 4.282-9.631-3.46-70.37 21.566L362.537-26.6 292.166-5.034l-69.293-24.809L152.772-8.27 83.479-33.08l-9.782 3.01-1.248-4.345 11.274-3.38 69.024 24.803 70.37-21.566 69.156 24.94 70.238-21.703 69.294 24.808 70.101-21.572 11.104 3.9z"/><path d="M482.143 3.963l1.248 4.345-52.438 16.048L361.929-.447l-70.37 21.566L222.266-3.69l-70.101 21.573L100.529-.581l1.448-4.283 50.163 18.025 70.37-21.566 69.156 24.94 70.238-21.703 69.294 24.809 50.945-15.678z"/><path d="M442.002 42.282l1.248 4.345-12.904 3.882-69.024-24.802-70.37 21.566-69.294-24.81-70.1 21.573-12.71-4.477 1.448-4.282 11.236 4.037 70.371-21.566 69.155 24.941 70.239-21.704 69.293 24.809 11.412-3.512z"/><path d="M417.142 67.333l-1.449 4.282-54.978-19.755-70.37 21.566-69.294-24.81L165.215 65.8l-1.248-4.345 57.328-17.552 69.156 24.94 70.239-21.704 56.452 20.195z"/><path d="M397.002 86.558l-1.448 4.283-35.446-12.828-70.371 21.566-69.293-24.809-36.004 11.17-1.248-4.345 37.496-11.54 69.156 24.942 70.238-21.704 36.92 13.266z"/><path d="M377.001 105.652l-1.449 4.282-16.052-5.768-70.37 21.566-69.293-24.809-16.303 5.017-1.248-4.345 17.795-5.387 69.156 24.941 70.238-21.704 17.526 6.207zm-24.247 21.827l1.386 4.214-65.617 20.193-64.61-23.217 1.58-4.145 63.136 22.778 64.125-19.823zm-40.14 38.319l1.386 4.214-26.084 8.027-25.684-9.229 1.58-4.145 24.21 8.79 24.592-7.657z"/></g><defs><clipPath id="clip0"><path transform="rotate(-133.67 287.515 195.295)" fill="#fff" d="M287.515 195.295h562v562h-562z"/></clipPath></defs></svg>