<svg width="65" height="66" viewBox="0 0 65 66" fill="none" xmlns="http://www.w3.org/2000/svg"><g clip-path="url(#clip0)" fill="#2D486B"><path d="M32.61 13.824h-.005a21.456 21.456 0 00-15.268 6.323 21.462 21.462 0 00-6.329 15.27c-.002 11.91 9.685 21.601 21.594 21.603h.014c1.685 0 3.367-.198 5.001-.59l-.504-2.1a19.261 19.261 0 01-4.498.53h-.013c-10.718-.002-19.436-8.723-19.434-19.441a19.313 19.313 0 015.696-13.744 19.307 19.307 0 0113.742-5.691h.004a19.514 19.514 0 0114.172 6.138l1.576-1.477a21.682 21.682 0 00-15.748-6.821z"/><path d="M33.682 7.345h-2.16v7.559h2.16v-7.56z"/><path d="M32.602.865a6.486 6.486 0 00-6.48 6.48 6.486 6.486 0 006.48 6.479 6.486 6.486 0 006.48-6.48 6.486 6.486 0 00-6.48-6.479zm0 10.8a4.324 4.324 0 01-4.32-4.32 4.324 4.324 0 014.32-4.32 4.324 4.324 0 014.32 4.32 4.324 4.324 0 01-4.32 4.32z"/><path d="M35.842 6.265h-6.48v2.16h6.48v-2.16zm-3.24 31.317a2.16 2.16 0 100-4.32 2.16 2.16 0 000 4.32z"/><path d="M39.193 19.822L31.635 34.94l1.931.966 7.559-15.118-1.932-.966zm-5.511-1.678h-2.16v2.16h2.16v-2.16zm0 32.396h-2.16v2.16h2.16v-2.16zM24.9 19.92l-1.872 1.077 1.081 1.882 1.873-1.076L24.9 19.92zm-6.727 5.928l-1.077 1.872 1.882 1.082 1.077-1.873-1.882-1.081zm-.69 8.494h-2.16v2.16h2.16v-2.16zm1.453 7.726l-1.835 1.059 1.079 1.871 1.835-1.059-1.079-1.87zm5.174 5.894l-1.082 1.882 1.873 1.076 1.081-1.883-1.873-1.075z"/><path d="M2.366 63.5V14.43L20.277 3.484c1.515 3.665.415 8.005-2.768 10.46l-4.732 3.436a4.331 4.331 0 00-1.77 3.496v.507a4.324 4.324 0 004.319 4.32v-2.16a2.162 2.162 0 01-2.16-2.16v-.512a2.162 2.162 0 01.882-1.747l4.755-3.453c4.352-3.356 5.582-9.488 2.86-14.262a1.077 1.077 0 00-1.501-.387L.724 12.902a1.082 1.082 0 00-.518.922v50.755c0 .598.484 1.08 1.08 1.08h48.596V63.5H2.366z"/><path d="M50.96 52.7h-9.719a6.486 6.486 0 00-6.48 6.48 6.486 6.486 0 006.48 6.48h9.72a6.486 6.486 0 006.479-6.48 6.486 6.486 0 00-6.48-6.48zm0 10.8h-9.719a4.324 4.324 0 01-4.32-4.32 4.324 4.324 0 014.32-4.32h9.72a4.324 4.324 0 014.32 4.32 4.324 4.324 0 01-4.32 4.32z"/><path d="M55.28 41.902h-9.719a6.486 6.486 0 00-6.48 6.48 6.486 6.486 0 006.48 6.479h9.72a6.486 6.486 0 006.479-6.48 6.486 6.486 0 00-6.48-6.48zm0 10.799h-9.719a4.324 4.324 0 01-4.32-4.32 4.324 4.324 0 014.32-4.32h9.72a4.324 4.324 0 014.319 4.32 4.324 4.324 0 01-4.32 4.32z"/><path d="M58.52 31.103H48.8a6.486 6.486 0 00-6.479 6.479 6.486 6.486 0 006.48 6.48h9.719a6.486 6.486 0 006.48-6.48 6.486 6.486 0 00-6.48-6.48zm0 10.799H48.8a4.324 4.324 0 01-4.319-4.32 4.324 4.324 0 014.32-4.32h9.719a4.324 4.324 0 014.32 4.32 4.324 4.324 0 01-4.32 4.32z"/><path d="M58.52 20.303H48.8a6.486 6.486 0 00-6.479 6.48 6.486 6.486 0 006.48 6.48h9.719a6.486 6.486 0 006.48-6.48 6.486 6.486 0 00-6.48-6.48zm0 10.8H48.8a4.324 4.324 0 01-4.319-4.32 4.324 4.324 0 014.32-4.32h9.719a4.324 4.324 0 014.32 4.32 4.324 4.324 0 01-4.32 4.32zM18.246 14.141l-1.527 1.527 3.24 3.24 1.527-1.527-3.24-3.24zm-3.239 3.239l-1.528 1.528 3.24 3.24 1.528-1.527-3.24-3.24z"/><path d="M51.724 17.38l-3.24-3.24a1.078 1.078 0 00-1.527 0l-3.24 3.24 1.528 1.527 2.476-2.476 1.713 1.713-2.477 2.476 1.527 1.527 3.24-3.24a1.079 1.079 0 000-1.527z"/></g><defs><clipPath id="clip0"><path fill="#fff" d="M.205.864H65v64.795H.205z"/></clipPath></defs></svg>