<svg width="423" height="315" viewBox="0 0 423 315" fill="none" xmlns="http://www.w3.org/2000/svg"><g clip-path="url(#clip0)" fill="#B69D6D" opacity=".13"><path d="M-109.79 512.337l1.364-4.31 24.377 8.314 69.8-23.075 69.631 23.581 69.935-22.94 69.766 23.447 69.8-23.076 69.631 23.582 24.437-8.138 1.332 4.32-25.786 8.402-69.632-23.311-69.934 22.94-69.631-23.581-69.8 23.075-69.766-23.447-69.8 22.806-25.724-8.589z"/><path d="M-148.888 472.955l1.364-4.31 63.57 21.537 69.8-23.076 69.631 23.581 69.934-22.94 69.767 23.447 69.8-23.075 69.63 23.581 63.725-21.075 1.333 4.32-65.074 21.34-69.632-23.312-69.934 22.94-69.631-23.581-69.8 23.075-69.766-23.446-69.8 22.805-64.917-21.811z"/><path d="M-169.708 450.63l-1.469-4.186 17.687-6.004 69.631 23.582 69.8-23.076 69.63 23.581 69.935-22.94 69.766 23.447 69.8-23.076 69.631 23.582 69.8-23.076 17.643 6.132-1.498 4.175-16.162-5.452-69.799 22.805-69.632-23.311-69.935 22.94-69.63-23.581-69.8 23.075-69.766-23.447-69.8 22.806-69.631-23.311-16.201 5.335z"/><path d="M-189.325 430.871l-1.468-4.186 37.398-12.405 69.63 23.581 69.801-23.075 69.63 23.581 69.935-22.94 69.766 23.447 69.8-23.076 69.631 23.582 69.8-23.076 37.307 12.676-1.498 4.175-35.826-11.997-69.799 22.806-69.632-23.311-69.935 22.94-69.63-23.581-69.8 23.075-69.767-23.447-69.799 22.806-69.631-23.311-35.913 11.736z"/><path d="M-208.806 411.247l-1.468-4.185 56.974-18.942 69.63 23.581 69.8-23.075 69.632 23.581 69.934-22.94 69.766 23.447 69.8-23.076 69.631 23.581 69.8-23.075 56.836 19.354-1.499 4.175-55.355-18.675-69.934 22.94-69.496-23.445-69.935 22.94-69.631-23.581-69.8 23.075-69.766-23.447-69.664 22.941-69.766-23.447-55.489 18.273z"/><path d="M-235.817 385.393l1.499-4.174 11.313 3.816 69.8-23.075 69.63 23.581 69.8-23.075 69.632 23.581 69.934-22.94 69.766 23.447 69.8-23.076 69.631 23.581 69.8-23.075 69.631 23.581 11.341-3.735 1.468 4.186-12.691 4.269-69.767-23.447-69.934 22.94-69.496-23.446-69.935 22.941-69.631-23.582-69.8 23.076-69.766-23.447-69.665 22.941-69.766-23.447-69.934 22.941-12.66-4.362z"/><path d="M-266.699 348.872l1.364-4.31 42.425 14.313 69.8-23.075 69.63 23.581 69.8-23.076 69.631 23.581 69.935-22.94 69.766 23.447 69.8-23.075 69.631 23.581 69.8-23.076 69.631 23.582 42.528-14.005 1.332 4.32-43.743 14.405-69.766-23.447-69.934 22.94-69.497-23.446-69.934 22.94-69.631-23.581-69.8 23.076-69.766-23.447-69.665 22.941-69.766-23.447-69.934 22.94-43.637-14.722z"/><path d="M-246.941 329.256l1.229-4.176 22.897 7.635 69.8-23.076 69.63 23.582 69.8-23.076 69.631 23.581 69.935-22.94 69.766 23.447 69.8-23.075 69.631 23.581 69.8-23.076 69.631 23.582 22.951-7.469 1.198 4.185-24.032 8.004-69.766-23.447-69.934 22.94-69.497-23.446-69.934 22.94-69.631-23.581-69.8 23.076L-13.602 315l-69.665 22.941-69.766-23.447-69.934 22.94-23.974-8.178z"/><path d="M-227.317 309.774l1.364-4.31 3.233 1.091 69.8-23.076 69.63 23.582 69.8-23.076 69.631 23.581 69.935-22.94 69.766 23.447 69.8-23.076 69.631 23.582 69.8-23.076 69.63 23.581 3.241-1.067 1.332 4.32-4.455 1.468-69.766-23.447-69.934 22.94-69.497-23.446-69.934 22.94-69.631-23.581-69.8 23.075-69.766-23.447-69.665 22.942-69.766-23.447-69.934 22.94-4.445-1.5z"/><path d="M-190.375 274.443l-1.468-4.185 39.017-12.939 69.631 23.581 69.935-22.94 69.496 23.446 69.935-22.94 69.766 23.447 69.664-22.941 69.766 23.447 69.801-23.076 38.923 13.221-1.499 4.175-37.442-12.542-69.934 22.941-69.497-23.446-69.934 22.94-69.631-23.581-69.8 23.075-69.766-23.447-69.665 22.941-69.766-23.446-37.532 12.269z"/><path d="M-152.883 235.878l1.365-4.31L-83.1 254.74l69.935-22.94 69.496 23.446 69.934-22.94 69.767 23.447 69.664-22.941 69.766 23.446 68.585-22.675 1.333 4.32-70.07 23.075-69.496-23.446-69.934 22.94-69.631-23.581-69.8 23.075-69.766-23.447-69.665 22.941-69.901-23.582z"/><path d="M-133.259 216.396l1.364-4.31 48.89 16.494 69.934-22.94 69.497 23.446 69.934-22.94 69.766 23.447 69.665-22.942 69.766 23.447 49.009-16.139 1.332 4.32-50.493 16.538-69.496-23.446-69.935 22.941-69.63-23.582-69.8 23.076-69.766-23.447-69.665 22.941-50.372-16.904z"/><path d="M-113.5 196.78l1.364-4.31 29.226 9.95 69.934-22.94 69.497 23.446 69.934-22.94 69.766 23.446 69.665-22.941 69.766 23.447 29.297-9.738 1.333 4.32-30.782 10.137-69.496-23.446-69.935 22.941-69.63-23.582-69.8 23.076-69.767-23.447-69.664 22.941-30.708-10.36z"/><path d="M-93.876 177.298l1.364-4.31 9.697 3.272 69.934-22.94 69.497 23.446 69.934-22.941 69.766 23.447 69.665-22.941 69.766 23.447 9.721-3.201 1.333 4.32-11.206 3.6-69.496-23.446-69.935 22.94-69.631-23.581-69.8 23.076-69.766-23.447-69.664 22.941-11.18-3.682z"/><path d="M-63.566 148.551l-1.333-4.32 52.113-17.071 69.496 23.445 69.935-22.94 69.766 23.447 69.665-22.941 51.988 17.449-1.364 4.31-50.506-17.039-69.935 22.94-69.631-23.581-69.8 23.076-69.766-23.447-50.628 16.672z"/><path d="M-24.184 109.453l-1.333-4.32 12.826-4.134 69.496 23.446 69.935-22.94 69.766 23.447 69.665-22.941 12.795 4.227-1.364 4.31-11.314-3.817-69.934 22.94-69.631-23.581-69.8 23.075-69.766-23.446-11.34 3.734z"/><path d="M.181 83.92l1.365-4.31L56.9 98.285l69.935-22.94 69.766 23.447 55.489-18.273 1.332 4.32-56.973 18.672-69.631-23.581-69.8 23.075L.181 83.92z"/><path d="M19.94 64.304l1.364-4.31 35.691 12.131 69.935-22.94 69.766 23.447 35.778-11.872 1.332 4.32-37.262 12.27-69.631-23.58-69.8 23.075-37.173-12.54z"/><path d="M39.564 44.822l1.364-4.31 16.162 5.453 69.934-22.94 69.767 23.447 16.201-5.336 1.333 4.32-17.686 5.735-69.631-23.582-69.8 23.076-17.644-5.863zm23.814-22.298l-1.468-4.186 65.209-21.473 65.052 21.946-1.498 4.175-63.57-21.537-63.725 21.075zm39.383-39.098l-1.468-4.185 25.921-8.537 25.859 8.724-1.498 4.175-24.377-8.314-24.437 8.137z"/></g><defs><clipPath id="clip0"><path transform="rotate(45.208 127.277 -46.556)" fill="#fff" d="M127.277-46.556h562v562h-562z"/></clipPath></defs></svg>