<svg width="10" height="6" viewBox="0 0 10 6" fill="none" xmlns="http://www.w3.org/2000/svg"><mask id="mask0" maskUnits="userSpaceOnUse" x="0" y="0" width="10" height="6"><path d="M5 3.99L1.22.21A.714.714 0 10.21 1.22l4.285 4.285a.714.714 0 001.01 0L9.791 1.22A.714.714 0 008.78.21L5 3.99z" fill="#fff"/></mask><g mask="url(#mask0)"><path d="M5 3.99L1.22.21A.714.714 0 10.21 1.22l4.285 4.285a.714.714 0 001.01 0L9.791 1.22A.714.714 0 008.78.21L5 3.99z" fill="#000"/><path d="M13.571-5.714H-3.57v17.143h17.14V-5.714z" fill="#68717D"/></g></svg>