<svg width="10" height="6" viewBox="0 0 10 6" fill="none" xmlns="http://www.w3.org/2000/svg">
<mask id="mask0" mask-type="alpha" maskUnits="userSpaceOnUse" x="0" y="0" width="10" height="6">
<path d="M5 3.98985L1.21936 0.209209C0.940416 -0.0697365 0.488155 -0.0697365 0.209209 0.209209C-0.0697365 0.488155 -0.0697365 0.940416 0.209209 1.21936L4.49492 5.50508C4.77387 5.78402 5.22613 5.78402 5.50508 5.50508L9.79079 1.21936C10.0697 0.940416 10.0697 0.488155 9.79079 0.209209C9.51184 -0.0697365 9.05958 -0.0697365 8.78064 0.209209L5 3.98985Z" fill="white"/>
</mask>
<g mask="url(#mask0)">
<path d="M5 3.98985L1.21936 0.209209C0.940416 -0.0697365 0.488155 -0.0697365 0.209209 0.209209C-0.0697365 0.488155 -0.0697365 0.940416 0.209209 1.21936L4.49492 5.50508C4.77387 5.78402 5.22613 5.78402 5.50508 5.50508L9.79079 1.21936C10.0697 0.940416 10.0697 0.488155 9.79079 0.209209C9.51184 -0.0697365 9.05958 -0.0697365 8.78064 0.209209L5 3.98985Z" fill="black"/>
<path d="M13.5714 -5.71429H-3.57141V11.4286H13.5714V-5.71429Z" fill="#68717D"/>
</g>
</svg>
