<svg width="17" height="18" viewBox="0 0 17 18" fill="none" xmlns="http://www.w3.org/2000/svg"><mask id="mask0" maskUnits="userSpaceOnUse" x="0" y="0" width="17" height="18"><path d="M10.217 8.903l6.427 6.732a1.315 1.315 0 010 1.799 1.176 1.176 0 01-1.717 0L8.5 10.702l-6.427 6.732a1.176 1.176 0 01-1.717 0 1.315 1.315 0 010-1.799l6.427-6.732L.356 2.171a1.315 1.315 0 010-1.798 1.176 1.176 0 011.717 0L8.5 7.104 14.927.373a1.176 1.176 0 011.717 0 1.315 1.315 0 010 1.798l-6.427 6.732z" fill="#fff"/></mask><g mask="url(#mask0)"><path d="M10.217 8.903l6.427 6.732a1.315 1.315 0 010 1.799 1.176 1.176 0 01-1.717 0L8.5 10.702l-6.427 6.732a1.176 1.176 0 01-1.717 0 1.315 1.315 0 010-1.799l6.427-6.732L.356 2.171a1.315 1.315 0 010-1.798 1.176 1.176 0 011.717 0L8.5 7.104 14.927.373a1.176 1.176 0 011.717 0 1.315 1.315 0 010 1.798l-6.427 6.732z" fill="#000"/><path d="M23.071-6.36H-6.07v30.526h29.14V-6.36z" fill="#1B3C65"/></g></svg>