<svg width="17" height="18" viewBox="0 0 17 18" fill="none" xmlns="http://www.w3.org/2000/svg">
<mask id="mask0" mask-type="alpha" maskUnits="userSpaceOnUse" x="0" y="0" width="17" height="18">
<path d="M10.2173 8.90316L16.6443 15.6351C17.1186 16.1318 17.1186 16.9371 16.6443 17.4338C16.1701 17.9305 15.4013 17.9305 14.9271 17.4338L8.5 10.7019L2.07291 17.4338C1.59871 17.9305 0.829864 17.9305 0.355656 17.4338C-0.118552 16.9371 -0.118552 16.1318 0.355656 15.6351L6.78274 8.90316L0.355656 2.17123C-0.118552 1.67453 -0.118552 0.869225 0.355656 0.372525C0.829864 -0.124175 1.59871 -0.124175 2.07291 0.372525L8.5 7.10445L14.9271 0.372525C15.4013 -0.124175 16.1701 -0.124175 16.6443 0.372525C17.1186 0.869225 17.1186 1.67453 16.6443 2.17123L10.2173 8.90316Z" fill="white"/>
</mask>
<g mask="url(#mask0)">
<path d="M10.2173 8.90316L16.6443 15.6351C17.1186 16.1318 17.1186 16.9371 16.6443 17.4338C16.1701 17.9305 15.4013 17.9305 14.9271 17.4338L8.5 10.7019L2.07291 17.4338C1.59871 17.9305 0.829864 17.9305 0.355656 17.4338C-0.118552 16.9371 -0.118552 16.1318 0.355656 15.6351L6.78274 8.90316L0.355656 2.17123C-0.118552 1.67453 -0.118552 0.869225 0.355656 0.372525C0.829864 -0.124175 1.59871 -0.124175 2.07291 0.372525L8.5 7.10445L14.9271 0.372525C15.4013 -0.124175 16.1701 -0.124175 16.6443 0.372525C17.1186 0.869225 17.1186 1.67453 16.6443 2.17123L10.2173 8.90316Z" fill="black"/>
<path d="M23.0714 -6.35938H-6.07141V24.1657H23.0714V-6.35938Z" fill="#1B3C65"/>
</g>
</svg>
