<svg width="170" height="153" viewBox="0 0 170 153" fill="none" xmlns="http://www.w3.org/2000/svg">
<mask id="mask0" mask-type="alpha" maskUnits="userSpaceOnUse" x="0" y="0" width="296" height="296">
<rect x="148.411" width="208.228" height="209.127" transform="rotate(45.2078 148.411 0)" fill="#F9F7EF"/>
</mask>
<g mask="url(#mask0)">
<g opacity="0.13">
<g clip-path="url(#clip0)">
<path d="M70.9096 244.966L70.2493 243.083L98.7873 233.605L130.103 244.21L161.555 233.893L192.931 244.438L224.323 234.06L252.791 243.745L252.117 245.623L224.254 236.182L192.863 246.56L161.547 235.955L130.156 246.333L98.8402 235.727L70.9096 244.966Z" fill="#B69D6D"/>
<path d="M55.8617 230.416L56.4751 228.478L67.4385 232.217L98.83 221.839L130.145 232.444L161.597 222.127L192.974 232.672L224.365 222.294L255.681 232.9L266.671 229.24L267.27 231.183L255.673 234.962L224.357 224.478L192.905 234.795L161.59 224.189L130.198 234.567L98.8221 224.022L67.431 234.279L55.8617 230.416Z" fill="#B69D6D"/>
<path d="M38.2778 212.705L38.8913 210.766L67.4811 220.452L98.8726 210.074L130.188 220.68L161.64 210.363L193.016 220.907L224.408 210.53L255.723 221.135L284.383 211.657L284.982 213.6L255.716 223.197L224.4 212.713L192.948 223.03L161.633 212.424L130.241 222.802L98.8647 212.257L67.4736 222.514L38.2778 212.705Z" fill="#B69D6D"/>
<path d="M28.9142 202.664L28.2539 200.782L36.2083 198.082L67.5238 208.687L98.9153 198.309L130.231 208.914L161.683 198.597L193.059 209.142L224.451 198.764L255.766 209.37L287.158 198.992L295.092 201.75L294.418 203.627L287.15 201.175L255.759 211.432L224.443 200.948L192.991 211.265L161.675 200.659L130.284 211.037L98.9074 200.492L67.5163 210.749L36.2004 200.265L28.9142 202.664Z" fill="#B69D6D"/>
<path d="M20.0921 193.778L19.4318 191.895L36.251 186.316L67.5664 196.922L98.958 186.544L130.273 197.149L161.725 186.832L193.102 197.377L224.493 186.999L255.809 197.604L287.2 187.227L303.978 192.928L303.305 194.805L287.192 189.41L255.801 199.666L224.485 189.182L193.033 199.499L161.718 188.894L130.326 199.272L98.95 188.727L67.5589 198.984L36.2431 188.5L20.0921 193.778Z" fill="#B69D6D"/>
<path d="M11.3305 184.952L10.6703 183.07L36.2937 174.551L67.6091 185.157L99.0007 174.779L130.316 185.384L161.768 175.067L193.144 185.612L224.536 175.234L255.851 185.839L287.243 175.461L312.804 184.166L312.13 186.043L287.235 177.645L255.783 187.962L224.528 177.417L193.076 187.734L161.761 177.129L130.369 187.507L98.9928 176.962L67.6621 187.279L36.2858 176.734L11.3305 184.952Z" fill="#B69D6D"/>
<path d="M-0.817224 173.325L-0.143304 171.447L4.94474 173.164L36.3363 162.786L67.6517 173.391L99.0433 163.014L130.359 173.619L161.811 163.302L193.187 173.847L224.579 163.469L255.894 174.074L287.286 163.696L318.601 174.302L323.701 172.622L324.362 174.504L318.654 176.424L287.278 165.88L255.826 176.197L224.571 165.652L193.119 175.969L161.803 165.364L130.412 175.742L99.0354 165.197L67.7047 175.514L36.3284 164.969L4.87638 175.286L-0.817224 173.325Z" fill="#B69D6D"/>
<path d="M-14.7061 156.9L-14.0926 154.962L4.98748 161.399L36.379 151.021L67.6945 161.626L99.086 151.248L130.401 161.854L161.853 151.537L193.23 162.082L224.621 151.704L255.937 162.309L287.328 151.931L318.644 162.536L337.77 156.238L338.369 158.181L318.697 164.659L287.32 154.114L255.868 164.431L224.613 153.887L193.161 164.204L161.846 153.599L130.454 163.976L99.0781 153.432L67.7474 163.749L36.3711 153.204L4.91914 163.521L-14.7061 156.9Z" fill="#B69D6D"/>
<path d="M-5.81984 148.078L-5.26722 146.2L5.03014 149.634L36.4217 139.256L67.7371 149.861L99.1287 139.483L130.444 150.089L161.896 139.772L193.272 150.316L224.664 139.939L255.979 150.544L287.371 140.166L318.686 150.771L329.008 147.413L329.547 149.295L318.739 152.894L287.363 142.349L255.911 152.666L224.656 142.122L193.204 152.439L161.889 141.833L130.497 152.211L99.1208 141.666L67.7901 151.984L36.4138 141.439L4.96178 151.756L-5.81984 148.078Z" fill="#B69D6D"/>
<path d="M3.00561 139.317L3.6191 137.378L5.07281 137.869L36.4644 127.491L67.7798 138.096L99.1714 127.718L130.487 138.323L161.939 128.006L193.315 138.551L224.707 128.173L256.022 138.779L287.414 128.401L318.729 139.006L320.186 138.526L320.786 140.469L318.782 141.129L287.406 130.584L255.954 140.901L224.699 130.357L193.247 140.674L161.931 130.068L130.54 140.446L99.1634 129.901L67.8328 140.219L36.4565 129.674L5.00448 139.991L3.00561 139.317Z" fill="#B69D6D"/>
<path d="M19.6195 123.427L18.9593 121.545L36.507 115.726L67.8225 126.331L99.2744 116.014L130.529 126.558L161.981 116.241L193.358 126.786L224.688 116.469L256.065 127.014L287.456 116.636L304.961 122.582L304.287 124.459L287.448 118.819L255.996 129.136L224.741 118.591L193.289 128.909L161.974 118.303L130.582 128.681L99.2061 118.136L67.8754 128.454L36.4991 117.909L19.6195 123.427Z" fill="#B69D6D"/>
<path d="M36.4814 106.083L37.0949 104.144L67.8652 114.566L99.3171 104.249L130.572 114.793L162.024 104.476L193.4 115.021L224.731 104.704L256.107 115.248L286.953 105.051L287.552 106.993L256.039 117.371L224.784 106.826L193.332 117.143L162.017 106.538L130.625 116.916L99.2488 106.371L67.9181 116.688L36.4814 106.083Z" fill="#B69D6D"/>
<path d="M45.3068 97.3211L45.9203 95.3826L67.9078 102.801L99.3598 92.4835L130.615 103.028L162.067 92.711L193.443 103.256L224.774 92.9384L256.15 103.483L278.191 96.2251L278.79 98.1679L256.082 105.606L224.827 95.0612L193.375 105.378L162.059 94.7729L130.668 105.151L99.2915 94.6059L67.9608 104.923L45.3068 97.3211Z" fill="#B69D6D"/>
<path d="M54.1931 88.499L54.8066 86.5606L67.9505 91.0354L99.4025 80.7184L130.657 91.2628L162.109 80.9458L193.486 91.4907L224.816 81.1733L256.193 91.7182L269.369 87.3388L269.968 89.2816L256.124 93.8405L224.869 83.2961L193.417 93.6131L162.102 83.0078L130.71 93.3856L99.3341 82.8407L68.0035 93.1582L54.1931 88.499Z" fill="#B69D6D"/>
<path d="M63.0185 79.7374L63.632 77.7989L67.9932 79.2702L99.4452 68.9532L130.7 79.4977L162.152 69.1807L193.528 79.7256L224.859 69.4081L256.235 79.953L260.607 78.5134L261.207 80.4562L256.167 82.0754L224.912 71.5309L193.46 81.8479L162.145 71.2426L130.753 81.6205L99.3768 71.0756L68.0461 81.393L63.0185 79.7374Z" fill="#B69D6D"/>
<path d="M76.6501 66.8086L76.0507 64.8658L99.4878 57.1881L130.743 67.7326L162.195 57.4156L193.571 67.9605L224.902 57.643L248.283 65.4905L247.669 67.4289L224.955 59.7658L193.503 70.0828L162.187 59.4775L130.796 69.8554L99.4195 59.3105L76.6501 66.8086Z" fill="#B69D6D"/>
<path d="M94.3618 49.2249L93.7624 47.2821L99.5305 45.423L130.786 55.9674L162.237 45.6504L193.614 56.1953L224.944 45.8779L230.699 47.7787L230.085 49.7172L224.997 48.0007L193.545 58.3177L162.23 47.7123L130.838 58.0902L99.4621 47.5453L94.3618 49.2249Z" fill="#B69D6D"/>
<path d="M105.32 37.7419L105.933 35.8035L130.828 44.2023L162.28 33.8853L193.656 44.4302L218.612 36.2122L219.211 38.155L193.588 46.5525L162.273 35.9472L130.881 46.3251L105.32 37.7419Z" fill="#B69D6D"/>
<path d="M114.206 28.9199L114.819 26.9814L130.871 32.4371L162.323 22.1201L193.699 32.665L209.79 27.3259L210.389 29.2687L193.631 34.7874L162.315 24.1821L130.924 34.5599L114.206 28.9199Z" fill="#B69D6D"/>
<path d="M123.031 20.1582L123.645 18.2198L130.914 20.672L162.366 10.355L193.742 20.8999L201.028 18.5005L201.627 20.4433L193.673 23.0222L162.358 12.4169L130.966 22.7948L123.031 20.1582Z" fill="#B69D6D"/>
<path d="M133.741 10.1299L133.081 8.24745L162.408 -1.41016L191.664 8.45994L190.99 10.3375L162.401 0.651773L133.741 10.1299Z" fill="#B69D6D"/>
<path d="M151.453 -7.45383L150.793 -9.33625L162.451 -13.1753L174.081 -9.25178L173.407 -7.3742L162.443 -11.1134L151.453 -7.45383Z" fill="#B69D6D"/>
</g>
</g>
</g>
<defs>
<clipPath id="clip0">
<rect x="162.479" y="-20.9379" width="252.751" height="252.751" transform="rotate(45.2078 162.479 -20.9379)" fill="white"/>
</clipPath>
</defs>
</svg>
