<svg width="423" height="360" viewBox="0 0 423 360" fill="none" xmlns="http://www.w3.org/2000/svg"><mask id="mask0" maskUnits="userSpaceOnUse" x="0" y="0" width="657" height="657"><path transform="rotate(45.208 329.995 0)" fill="#F9F7EF" d="M329.995 0h463v465h-463z"/></mask><g clip-path="url(#clip0)" fill="#B69D6D" opacity=".13" mask="url(#mask0)"><path d="M157.67 544.688l-1.468-4.186 63.455-21.075 69.63 23.581 69.935-22.94 69.766 23.447 69.8-23.076 63.3 21.536-1.498 4.174-61.954-20.991-69.8 23.076-69.631-23.582-69.8 23.076-69.631-23.581-62.104 20.541z"/><path d="M124.21 512.337l1.364-4.31 24.377 8.314 69.8-23.075 69.631 23.581 69.935-22.94 69.766 23.447 69.8-23.076 69.631 23.581 24.437-8.137 1.332 4.32-25.786 8.402-69.632-23.311-69.934 22.94-69.631-23.581-69.8 23.075-69.766-23.447-69.799 22.806-25.725-8.589z"/><path d="M85.112 472.955l1.364-4.31 63.57 21.537 69.8-23.076 69.631 23.581 69.934-22.94 69.767 23.447 69.8-23.076 69.63 23.582 63.725-21.075 1.333 4.32-65.074 21.34-69.632-23.312-69.934 22.94-69.631-23.581-69.8 23.075-69.766-23.446-69.799 22.805-64.918-21.811z"/><path d="M64.292 450.63l-1.469-4.186 17.687-6.004 69.631 23.581 69.8-23.075 69.631 23.581 69.934-22.94 69.766 23.447 69.801-23.076 69.63 23.582 69.8-23.076 17.643 6.132-1.498 4.175-16.162-5.452-69.799 22.805-69.632-23.311-69.934 22.94-69.631-23.581-69.8 23.075-69.766-23.447-69.8 22.806-69.631-23.311-16.201 5.335z"/><path d="M44.675 430.871l-1.468-4.186 37.398-12.405 69.631 23.581 69.8-23.075 69.631 23.581 69.934-22.94 69.766 23.447 69.8-23.076 69.631 23.582 69.8-23.076 37.307 12.676-1.498 4.175-35.826-11.996-69.799 22.805-69.632-23.311-69.935 22.94-69.63-23.581-69.8 23.075-69.767-23.447-69.799 22.806-69.631-23.311-35.912 11.736z"/><path d="M25.194 411.247l-1.468-4.185L80.7 388.12l69.631 23.581 69.8-23.075 69.631 23.581 69.934-22.94 69.766 23.447 69.8-23.076 69.631 23.581 69.8-23.075 56.836 19.354-1.499 4.175-55.355-18.675-69.934 22.94-69.496-23.445-69.935 22.94-69.631-23.581-69.8 23.075-69.766-23.447-69.664 22.941-69.767-23.447-55.488 18.273z"/><path d="M-1.817 385.393l1.499-4.174 11.313 3.816 69.8-23.075 69.631 23.581 69.8-23.075 69.631 23.581 69.934-22.94 69.766 23.447 69.8-23.076 69.631 23.581 69.8-23.075 69.631 23.581 11.341-3.735 1.468 4.186-12.691 4.269-69.767-23.447-69.934 22.94-69.496-23.446-69.935 22.941-69.631-23.582-69.8 23.076-69.766-23.447-69.664 22.941-69.767-23.447-69.934 22.941-12.66-4.362z"/><path d="M-32.7 348.872l1.365-4.31 42.425 14.313 69.8-23.075 69.631 23.581 69.8-23.076 69.63 23.582 69.935-22.941 69.766 23.447 69.8-23.075 69.631 23.581 69.8-23.076 69.631 23.582 42.528-14.005 1.332 4.32-43.743 14.405-69.766-23.447-69.934 22.94-69.497-23.446-69.934 22.94-69.631-23.581-69.8 23.076-69.766-23.447-69.665 22.941-69.766-23.447-69.934 22.94-43.638-14.722z"/><path d="M-12.94 329.256l1.228-4.176 22.897 7.635 69.8-23.076 69.631 23.582 69.8-23.076 69.63 23.581 69.935-22.94 69.766 23.447 69.8-23.075 69.631 23.581 69.8-23.076 69.631 23.582 22.951-7.469 1.198 4.185-24.032 8.004-69.766-23.447-69.934 22.94-69.497-23.446-69.934 22.94-69.631-23.581-69.8 23.076L220.398 315l-69.665 22.941-69.766-23.447-69.934 22.94-23.974-8.178z"/><path d="M6.683 309.774l1.364-4.31 3.233 1.091 69.8-23.076 69.63 23.582 69.8-23.076 69.631 23.581 69.935-22.94 69.766 23.447 69.8-23.076 69.631 23.582 69.8-23.076 69.63 23.581 3.241-1.067 1.333 4.32-4.456 1.468-69.766-23.447-69.934 22.94-69.497-23.446-69.934 22.94-69.631-23.581-69.8 23.075-69.766-23.447-69.665 22.942-69.766-23.447-69.934 22.94-4.445-1.5z"/><path d="M43.625 274.443l-1.468-4.185 39.017-12.939 69.631 23.581 69.935-22.94 69.496 23.446 69.935-22.94 69.766 23.447 69.664-22.941 69.767 23.447 69.8-23.076 38.923 13.221-1.499 4.175-37.442-12.542-69.934 22.941-69.497-23.446-69.934 22.94-69.631-23.581-69.8 23.075-69.766-23.447-69.665 22.941-69.766-23.446-37.532 12.269z"/><path d="M81.117 235.878l1.364-4.31L150.9 254.74l69.935-22.94 69.496 23.446 69.934-22.94 69.767 23.447 69.664-22.941 69.766 23.446 68.585-22.675 1.333 4.32-70.07 23.075-69.496-23.446-69.934 22.94-69.631-23.581-69.8 23.075-69.766-23.447-69.665 22.941-69.9-23.582z"/><path d="M100.741 216.396l1.364-4.31 48.89 16.494 69.934-22.94 69.497 23.446 69.934-22.94 69.766 23.447 69.665-22.942 69.766 23.447 49.009-16.139 1.332 4.32-50.493 16.538-69.496-23.445-69.935 22.94-69.63-23.582-69.8 23.076-69.766-23.447-69.665 22.941-50.372-16.904z"/><path d="M120.5 196.78l1.364-4.31 29.226 9.95 69.934-22.94 69.497 23.446 69.934-22.94 69.766 23.446 69.665-22.941 69.766 23.447 29.297-9.737 1.333 4.319-30.782 10.137-69.496-23.446-69.935 22.941-69.63-23.582-69.8 23.076-69.767-23.447-69.664 22.941-30.708-10.36z"/><path d="M140.124 177.299l1.364-4.311 9.697 3.272 69.934-22.94 69.497 23.446 69.934-22.941 69.766 23.447 69.665-22.941 69.766 23.447 9.721-3.201 1.333 4.32-11.206 3.6-69.496-23.446-69.935 22.94-69.631-23.581-69.8 23.076-69.766-23.447-69.664 22.941-11.179-3.681z"/><path d="M170.434 148.551l-1.333-4.32 52.113-17.071 69.497 23.445 69.934-22.94 69.766 23.447 69.665-22.941 51.988 17.449-1.364 4.31-50.506-17.039-69.935 22.94-69.631-23.581-69.8 23.076-69.766-23.447-50.628 16.672z"/><path d="M209.816 109.453l-1.333-4.32 12.826-4.134 69.496 23.446 69.935-22.94 69.766 23.447 69.665-22.941 12.795 4.226-1.364 4.311-11.314-3.817-69.934 22.94-69.631-23.581-69.8 23.075-69.766-23.447-11.341 3.735z"/><path d="M234.182 83.92l1.364-4.31L290.9 98.285l69.935-22.94 69.766 23.447 55.489-18.273 1.332 4.32-56.973 18.672-69.631-23.581-69.8 23.075-56.836-19.085z"/><path d="M253.94 64.304l1.365-4.31 35.69 12.131 69.935-22.94 69.766 23.447 35.778-11.872 1.332 4.32-37.262 12.27-69.631-23.58-69.8 23.075-37.173-12.54z"/><path d="M273.564 44.822l1.364-4.31 16.162 5.453 69.935-22.94 69.766 23.447 16.201-5.336 1.333 4.32-17.686 5.735-69.631-23.582-69.8 23.076-17.644-5.863zm23.814-22.298l-1.468-4.186 65.209-21.473 65.052 21.946-1.498 4.175-63.57-21.537-63.725 21.075zm39.383-39.098l-1.468-4.185 25.921-8.537 25.859 8.724-1.498 4.175-24.377-8.314-24.437 8.137z"/></g><defs><clipPath id="clip0"><path transform="rotate(45.208 361.277 -46.556)" fill="#fff" d="M361.277-46.556h562v562h-562z"/></clipPath></defs></svg>