<svg width="170" height="153" viewBox="0 0 170 153" fill="none" xmlns="http://www.w3.org/2000/svg"><mask id="mask0" maskUnits="userSpaceOnUse" x="0" y="0" width="296" height="296"><path transform="rotate(45.208 148.411 0)" fill="#F9F7EF" d="M148.411 0h208.228v209.127H148.411z"/></mask><g clip-path="url(#clip0)" fill="#B69D6D" opacity=".13" mask="url(#mask0)"><path d="M70.91 244.966l-.66-1.883 28.537-9.478 31.316 10.605 31.452-10.317 31.376 10.545 31.392-10.378 28.468 9.685-.674 1.878-27.863-9.441-31.391 10.378-31.316-10.605-31.391 10.378-31.316-10.606-27.93 9.239z"/><path d="M55.862 230.416l.613-1.938 10.964 3.739 31.391-10.378 31.315 10.605 31.452-10.317 31.377 10.545 31.391-10.378 31.316 10.606 10.99-3.66.599 1.943-11.597 3.779-31.316-10.484-31.452 10.317-31.315-10.606-31.392 10.378-31.376-10.545-31.391 10.257-11.57-3.863z"/><path d="M38.278 212.705l.613-1.939 28.59 9.686 31.392-10.378 31.315 10.606 31.452-10.317 31.376 10.544 31.392-10.377 31.315 10.605 28.66-9.478.599 1.943-29.266 9.597-31.316-10.484-31.452 10.317-31.315-10.606-31.392 10.378-31.376-10.545-31.391 10.257-29.196-9.809z"/><path d="M28.914 202.664l-.66-1.882 7.954-2.7 31.316 10.605 31.391-10.378 31.316 10.605 31.452-10.317 31.376 10.545 31.392-10.378 31.315 10.606 31.392-10.378 7.934 2.758-.674 1.877-7.268-2.452-31.391 10.257-31.316-10.484-31.452 10.317-31.316-10.606-31.391 10.378-31.377-10.545-31.39 10.257L36.2 200.265l-7.286 2.399z"/><path d="M20.092 193.778l-.66-1.883 16.819-5.579 31.315 10.606 31.392-10.378 31.315 10.605 31.452-10.317 31.377 10.545 31.391-10.378 31.316 10.605 31.391-10.377 16.778 5.701-.673 1.877-16.113-5.395-31.391 10.256-31.316-10.484-31.452 10.317-31.315-10.605-31.392 10.378-31.376-10.545-31.391 10.257L36.243 188.5l-16.15 5.278z"/><path d="M11.33 184.952l-.66-1.882 25.624-8.519 31.315 10.606 31.392-10.378 31.315 10.605 31.452-10.317 31.376 10.545 31.392-10.378 31.315 10.605 31.392-10.378 25.561 8.705-.674 1.877-24.895-8.398-31.452 10.317-31.255-10.545-31.452 10.317-31.315-10.605-31.392 10.378-31.376-10.545-31.33 10.317-31.377-10.545-24.956 8.218z"/><path d="M-.817 173.325l.674-1.878 5.088 1.717 31.391-10.378 31.316 10.605 31.391-10.377 31.316 10.605 31.452-10.317 31.376 10.545 31.392-10.378 31.315 10.605 31.392-10.378 31.315 10.606 5.1-1.68.661 1.882-5.708 1.92-31.376-10.544-31.452 10.317-31.255-10.545-31.452 10.317-31.316-10.605-31.391 10.378-31.377-10.545-31.33 10.317-31.377-10.545-31.452 10.317-5.693-1.961z"/><path d="M-14.706 156.9l.613-1.938 19.08 6.437 31.392-10.378 31.316 10.605 31.391-10.378 31.315 10.606 31.452-10.317 31.377 10.545 31.391-10.378 31.316 10.605 31.391-10.378 31.316 10.605 19.126-6.298.599 1.943-19.672 6.478-31.377-10.545-31.452 10.317-31.255-10.544-31.452 10.317-31.315-10.605-31.392 10.377-31.376-10.544-31.33 10.317-31.377-10.545L4.92 163.521l-19.625-6.621z"/><path d="M-5.82 148.078l.553-1.878 10.297 3.434 31.392-10.378 31.315 10.605 31.392-10.378 31.315 10.606 31.452-10.317 31.376 10.544 31.392-10.377 31.315 10.605 31.392-10.378 31.315 10.605 10.322-3.358.539 1.882-10.808 3.599-31.376-10.545-31.452 10.317-31.255-10.544-31.452 10.317-31.315-10.606-31.392 10.378-31.376-10.545-31.33 10.318-31.377-10.545-31.452 10.317-10.782-3.678z"/><path d="M3.006 139.317l.613-1.939 1.454.491 31.391-10.378 31.316 10.605 31.391-10.378 31.316 10.605 31.452-10.317 31.376 10.545 31.392-10.378 31.315 10.606 31.392-10.378 31.315 10.605 1.457-.48.6 1.943-2.004.66-31.376-10.545-31.452 10.317-31.255-10.544-31.452 10.317-31.316-10.606-31.391 10.378-31.377-10.545-31.33 10.318-31.377-10.545-31.452 10.317-1.998-.674z"/><path d="M19.62 123.427l-.66-1.882 17.547-5.819 31.316 10.605 31.451-10.317 31.255 10.544 31.452-10.317 31.377 10.545 31.33-10.317 31.377 10.545 31.391-10.378 17.505 5.946-.674 1.877-16.839-5.64-31.452 10.317-31.255-10.545-31.452 10.318-31.315-10.606-31.392 10.378-31.376-10.545-31.33 10.318-31.377-10.545-16.88 5.518z"/><path d="M36.481 106.083l.614-1.939 30.77 10.422 31.452-10.317 31.255 10.544 31.452-10.317 31.376 10.545 31.331-10.317 31.376 10.544 30.846-10.197.599 1.942-31.513 10.378-31.255-10.545-31.452 10.317-31.315-10.605-31.392 10.378-31.376-10.545-31.33 10.317-31.438-10.605z"/><path d="M45.307 97.321l.613-1.938 21.988 7.418L99.36 92.484l31.255 10.544 31.452-10.317 31.376 10.545 31.331-10.318 31.376 10.545 22.041-7.258.599 1.943-22.708 7.438-31.255-10.545-31.452 10.317-31.316-10.605-31.391 10.378-31.377-10.545-31.33 10.317-22.654-7.602z"/><path d="M54.193 88.499l.614-1.938 13.144 4.474 31.452-10.317 31.254 10.545 31.452-10.317 31.377 10.545 31.33-10.318 31.377 10.545 13.176-4.38.599 1.944-13.844 4.559-31.255-10.545-31.452 10.317-31.315-10.605-31.392 10.378L99.334 82.84l-31.33 10.317-13.81-4.659z"/><path d="M63.019 79.737l.613-1.938 4.361 1.471 31.452-10.317L130.7 79.498l31.452-10.317 31.376 10.545 31.331-10.318 31.376 10.545 4.372-1.44.6 1.943-5.04 1.62-31.255-10.545-31.452 10.317-31.315-10.605-31.392 10.378-31.376-10.545-31.33 10.317-5.028-1.656z"/><path d="M76.65 66.809l-.6-1.943 23.438-7.678 31.255 10.545 31.452-10.317 31.376 10.544 31.331-10.317 23.381 7.847-.614 1.939-22.714-7.663-31.452 10.317-31.316-10.605-31.391 10.377L99.42 59.31l-22.77 7.5z"/><path d="M94.362 49.225l-.6-1.943 5.769-1.859 31.255 10.544 31.451-10.317 31.377 10.545 31.33-10.317 5.755 1.9-.614 1.94L224.997 48l-31.452 10.317-31.315-10.606-31.392 10.378-31.376-10.545-5.1 1.68z"/><path d="M105.32 37.742l.613-1.938 24.895 8.398 31.452-10.317 31.376 10.545 24.956-8.218.599 1.943-25.623 8.398-31.315-10.606-31.392 10.378-25.561-8.583z"/><path d="M114.206 28.92l.613-1.939 16.052 5.456 31.452-10.317 31.376 10.545 16.091-5.34.599 1.944-16.758 5.518-31.316-10.605-31.391 10.378-16.718-5.64z"/><path d="M123.031 20.158l.614-1.938 7.269 2.452 31.452-10.317L193.742 20.9l7.286-2.4.599 1.943-7.954 2.58-31.315-10.606-31.392 10.378-7.935-2.637zm10.71-10.028l-.66-1.883 29.327-9.657 29.256 9.87-.674 1.877L162.401.652l-28.66 9.478zm17.712-17.584l-.66-1.882 11.658-3.84 11.63 3.924-.674 1.878-10.964-3.74-10.99 3.66z"/></g><defs><clipPath id="clip0"><path transform="rotate(45.208 162.479 -20.938)" fill="#fff" d="M162.479-20.938H415.23v252.751H162.479z"/></clipPath></defs></svg>