<svg width="966" height="508" viewBox="0 0 966 508" fill="none" xmlns="http://www.w3.org/2000/svg"><mask id="mask0" maskUnits="userSpaceOnUse" x="0" y="0" width="966" height="508"><path fill="#F9F7EF" d="M0 0h966v508H0z"/></mask><g clip-path="url(#clip0)" fill="#B69D6D" opacity=".1" mask="url(#mask0)"><path d="M935.406-303.477l-1.56 4.992-73.631-24.648-80.652 26.988-80.651-26.988-80.808 26.832-80.807-26.832-80.651 26.988-80.652-26.988-73.631 24.648-1.56-4.992 75.191-24.96 80.652 26.676 80.807-26.832 80.651 26.988 80.652-26.988 80.807 26.832 80.652-26.676 75.191 24.96z"/><path d="M959.586-277.737l1.716 4.836-20.436 7.02-80.651-26.988-80.652 26.988-80.651-26.988-80.808 26.832-80.807-26.832-80.651 26.988-80.652-26.988-80.651 26.988-20.436-7.02 1.716-4.836 18.72 6.24 80.651-26.676 80.652 26.676 80.807-26.832 80.651 26.988 80.652-26.988 80.807 26.832 80.652-26.676 80.651 26.676 18.72-6.24z"/><path d="M982.362-254.961l1.716 4.835-43.212 14.508-80.651-26.987-80.652 26.987-80.651-26.987-80.808 26.831-80.807-26.831-80.651 26.987-80.652-26.987-80.651 26.987-43.212-14.508 1.716-4.835 41.496 13.727 80.651-26.675 80.652 26.675 80.807-26.831 80.651 26.987 80.652-26.987 80.807 26.831 80.652-26.675 80.651 26.675 41.496-13.727z"/><path d="M1004.98-232.342l1.72 4.836-65.834 22.152-80.651-26.988-80.652 26.988-80.651-26.988-80.808 26.832-80.807-26.832-80.651 26.988-80.652-26.988-80.651 26.988-65.832-22.152 1.716-4.836 64.116 21.372 80.807-26.832 80.496 26.832 80.807-26.832 80.651 26.988 80.652-26.988 80.807 26.832 80.496-26.832 80.807 26.832 64.114-21.372z"/><path d="M1036.34-202.546l-1.72 4.836-13.1-4.368-80.654 26.988-80.651-26.988-80.652 26.988-80.651-26.988-80.808 26.832-80.807-26.832-80.651 26.988-80.652-26.988-80.651 26.988-80.652-26.988-13.103 4.368-1.717-4.836 14.664-4.992 80.808 26.832 80.807-26.832 80.496 26.832 80.807-26.832 80.651 26.988 80.652-26.988 80.807 26.832 80.496-26.832 80.807 26.832 80.804-26.832 14.67 4.992z"/><path d="M1072.22-160.426l-1.56 4.992-49.14-16.38-80.654 26.988-80.651-26.988-80.652 26.988-80.651-26.988-80.808 26.832-80.807-26.832-80.651 26.988-80.652-26.988-80.651 26.988-80.652-26.988-49.139 16.38-1.56-4.992 50.543-16.848 80.808 26.832 80.807-26.832 80.496 26.832 80.807-26.832 80.651 26.988 80.652-26.988 80.807 26.832 80.496-26.832 80.807 26.832 80.804-26.832 50.55 16.848z"/><path d="M1049.44-137.65l-1.4 4.836-26.52-8.736-80.654 26.988-80.651-26.988-80.652 26.988-80.651-26.988-80.808 26.832-80.807-26.832-80.651 26.988-80.652-26.988-80.651 26.988-80.652-26.988-26.519 8.736-1.404-4.836 27.767-9.36 80.808 26.832 80.807-26.832 80.496 26.832 80.807-26.832 80.651 26.988 80.652-26.988 80.807 26.832 80.496-26.832 80.807 26.832 80.804-26.832 27.77 9.36z"/><path d="M1026.82-115.03l-1.56 4.992-3.74-1.248-80.654 26.987-80.651-26.987-80.652 26.987-80.651-26.987-80.808 26.831-80.807-26.831-80.651 26.987-80.652-26.987-80.651 26.987-80.652-26.987-3.743 1.248-1.561-4.992 5.148-1.716 80.808 26.831 80.807-26.831 80.496 26.831 80.807-26.831 80.651 26.987 80.652-26.987 80.807 26.831 80.496-26.831 80.807 26.831 80.804-26.831 5.15 1.716z"/><path d="M984.234-74.003l1.716 4.836-45.084 15.132-80.651-26.988-80.808 26.832-80.495-26.832-80.808 26.832-80.807-26.832-80.495 26.832-80.808-26.832-80.651 26.988-45.084-15.132 1.716-4.836 43.368 14.352 80.807-26.832 80.496 26.832 80.807-26.832 80.651 26.988 80.652-26.988 80.807 26.832 80.496-26.832 80.807 26.832 43.368-14.352z"/><path d="M941.022-29.231l-1.56 4.992-79.247-26.52-80.808 26.832-80.495-26.832-80.808 26.832-80.807-26.832-80.495 26.832-80.808-26.832-79.247 26.52-1.56-4.992 80.963-26.988 80.496 26.832 80.807-26.832 80.651 26.988 80.652-26.988 80.807 26.832 80.496-26.832 80.963 26.988z"/><path d="M918.402-6.611l-1.56 4.992-56.627-18.876-80.808 26.832-80.495-26.832-80.808 26.832-80.807-26.832-80.495 26.832-80.808-26.832-56.627 18.876-1.56-4.992 58.343-19.344L456.646.877l80.807-26.832 80.651 26.988 80.652-26.988L779.563.877l80.496-26.832 58.343 19.344z"/><path d="M895.626 16.165l-1.56 4.992-33.851-11.388L779.407 36.6 698.912 9.77 618.104 36.6 537.297 9.77 456.802 36.6 375.994 9.77l-33.851 11.388-1.56-4.992L376.15 4.309l80.496 26.832 80.807-26.832 80.651 26.988 80.652-26.988 80.807 26.832 80.496-26.832 35.567 11.856z"/><path d="M873.007 38.785l-1.56 4.992-11.232-3.745-80.808 26.832-80.495-26.832-80.808 26.832-80.807-26.832-80.495 26.832-80.808-26.832-11.232 3.745-1.56-4.992 12.948-4.212 80.496 26.831 80.807-26.831 80.651 26.987 80.652-26.987 80.807 26.831 80.496-26.831 12.948 4.212z"/><path d="M838.063 72.168l1.56 4.992-60.216 19.968-80.495-26.832-80.808 26.832-80.807-26.832-80.495 26.832-60.216-19.968 1.56-4.992 58.5 19.5 80.807-26.832 80.651 26.988 80.652-26.988 80.807 26.832 58.5-19.5z"/><path d="M792.667 117.564l1.56 4.992-14.82 4.836-80.495-26.832-80.808 26.832-80.807-26.832-80.495 26.832-14.82-4.836 1.56-4.992 13.104 4.368L537.453 95.1l80.651 26.988L698.756 95.1l80.807 26.832 13.104-4.368z"/><path d="M764.587 147.204l-1.56 4.992-64.115-21.372-80.808 26.832-80.807-26.832-64.115 21.372-1.56-4.992 65.831-21.84 80.651 26.988 80.652-26.988 65.831 21.84z"/><path d="M741.812 169.98l-1.56 4.992-41.34-13.884-80.808 26.831-80.807-26.831-41.34 13.884-1.56-4.992 43.056-14.352 80.651 26.987 80.652-26.987 43.056 14.352z"/><path d="M719.192 192.599l-1.56 4.992-18.72-6.24-80.808 26.832-80.807-26.832-18.72 6.24-1.56-4.992 20.436-6.708 80.651 26.988 80.652-26.988 20.436 6.708zm-27.456 25.896l1.716 4.836-75.348 25.116-75.347-25.116 1.716-4.836 73.631 24.648 73.632-24.648zm-45.396 45.396l1.716 4.836-29.952 9.984-29.951-9.984 1.716-4.836 28.235 9.516 28.236-9.516z"/></g><defs><clipPath id="clip0"><path transform="rotate(-135 618.104 298.679)" fill="#fff" d="M618.104 298.679h650.155v650.155H618.104z"/></clipPath></defs></svg>