<svg width="231" height="220" viewBox="0 0 231 220" fill="none" xmlns="http://www.w3.org/2000/svg">
<g opacity="0.1">
<g clip-path="url(#clip0)">
<path d="M178.073 214.653L177.404 212.721L182.613 210.98L187.789 212.617L187.082 214.563L182.592 213.107L178.073 214.653Z" fill="#B69D6D"/>
<path d="M169.09 205.672L168.421 203.74L182.733 198.842L196.95 203.454L196.242 205.401L182.712 200.97L169.09 205.672Z" fill="#B69D6D"/>
<path d="M160.049 196.63L159.38 194.697L182.855 186.706L206.176 194.229L205.468 196.176L182.834 188.833L160.049 196.63Z" fill="#B69D6D"/>
<path d="M151.068 187.649L150.399 185.716L182.977 174.568L215.338 185.067L214.631 187.013L182.956 176.696L151.068 187.649Z" fill="#B69D6D"/>
<path d="M132.605 169.818L133.313 167.872L150.584 173.517L183.099 162.432L215.398 172.868L232.786 166.877L233.455 168.809L215.314 175.059L183.078 164.559L150.625 175.706L132.605 169.818Z" fill="#B69D6D"/>
<path d="M117.002 153.584L116.334 151.652L118.468 150.88L150.704 161.379L183.219 150.295L215.518 160.731L247.971 149.585L250.09 150.314L249.383 152.26L247.886 151.775L215.434 162.921L183.198 152.422L150.745 163.568L118.509 153.069L117.002 153.584Z" fill="#B69D6D"/>
<path d="M108.022 144.604L107.353 142.671L118.59 138.743L150.826 149.242L183.34 138.158L215.64 148.594L248.092 137.448L259.253 141.152L258.545 143.098L248.008 139.638L215.555 150.785L183.319 140.285L150.867 151.431L118.631 140.932L108.022 144.604Z" fill="#B69D6D"/>
<path d="M98.9802 135.561L98.3114 133.629L118.712 126.606L150.948 137.106L183.463 126.021L215.762 136.457L248.215 125.311L268.479 131.927L267.771 133.873L248.13 127.501L215.678 138.648L183.441 128.148L150.989 139.295L118.753 128.795L98.9802 135.561Z" fill="#B69D6D"/>
<path d="M89.9997 126.58L89.3309 124.648L118.834 114.469L151.07 124.969L183.584 113.884L215.884 124.32L248.336 113.174L277.641 122.764L276.934 124.711L248.252 115.364L215.799 126.511L183.563 116.011L151.11 127.158L118.874 116.658L89.9997 126.58Z" fill="#B69D6D"/>
<path d="M74.5716 111.783L75.2172 109.775L86.5027 113.478L118.955 102.332L151.191 112.831L183.706 101.747L216.005 112.183L248.458 101.037L280.694 111.536L292.056 107.607L292.661 109.602L280.673 113.663L248.435 103.289L215.921 114.373L183.685 103.874L151.232 115.02L118.933 104.584L86.4814 115.605L74.5716 111.783Z" fill="#B69D6D"/>
<path d="M56.5473 93.7603L57.193 91.7521L86.6232 101.341L119.076 90.1949L151.312 100.695L183.826 89.6099L216.126 100.046L248.578 88.8998L280.814 99.3994L310.442 89.2194L311.048 91.2151L280.793 101.527L248.556 91.152L216.041 102.237L183.805 91.737L151.353 102.884L119.053 92.4471L86.6019 103.469L56.5473 93.7603Z" fill="#B69D6D"/>
<path d="M46.9537 83.5346L46.2849 81.6021L54.5086 78.7048L86.7447 89.2045L119.197 78.0579L151.433 88.5576L183.948 77.4729L216.247 87.9094L248.7 76.7628L280.936 87.2625L313.389 76.1159L321.556 78.8492L320.848 80.7955L313.366 78.3681L280.915 89.3896L248.677 79.015L216.163 90.0997L183.927 79.6L151.474 90.7466L119.175 80.3101L86.7235 91.3316L54.4861 80.9571L46.9537 83.5346Z" fill="#B69D6D"/>
<path d="M37.91 74.4921L37.2412 72.5596L54.629 66.568L86.8651 77.0677L119.318 65.9211L151.554 76.4208L184.068 65.3361L216.368 75.7726L248.82 64.626L281.056 75.1257L313.509 63.979L330.78 69.624L330.073 71.5702L313.486 66.2312L281.035 77.2528L248.798 66.8782L216.283 77.9629L184.047 67.4632L151.594 78.6098L119.295 68.1733L86.8438 79.1948L54.6064 68.8203L37.91 74.4921Z" fill="#B69D6D"/>
<path d="M28.9295 65.5112L28.2607 63.5787L54.7505 54.4309L86.9866 64.9306L119.439 53.784L151.675 64.2836L184.19 53.199L216.489 63.6355L248.942 52.4888L281.178 62.9885L313.63 51.8419L339.943 60.4616L339.235 62.4079L313.608 54.0941L281.093 65.1788L248.919 54.741L216.405 65.8257L184.169 55.3261L151.716 66.4727L119.417 56.0362L87.0273 67.1196L54.728 56.6831L28.9295 65.5112Z" fill="#B69D6D"/>
<path d="M16.475 53.688L17.1826 51.7418L22.4202 53.4409L54.8728 42.2943L87.1089 52.794L119.562 41.6474L151.798 52.1471L184.312 41.0624L216.611 51.4989L249.064 40.3522L281.3 50.8519L313.753 39.7053L345.989 50.205L351.262 48.4007L351.93 50.3333L346.03 52.394L313.73 41.9575L281.216 53.0422L249.042 42.6045L216.527 53.6892L184.291 43.1895L151.838 54.3361L119.539 43.8996L87.1496 54.983L54.8503 44.5465L22.3358 55.6312L16.475 53.688Z" fill="#B69D6D"/>
<path d="M2.25513 36.94L2.90076 34.9318L22.542 41.3036L54.9946 30.157L87.2307 40.6567L119.683 29.5101L151.919 40.0098L184.434 28.9251L216.733 39.3616L249.186 28.2149L281.422 38.7146L313.874 27.568L346.111 38.0677L365.883 31.3016L366.489 33.2974L346.151 40.2567L313.852 29.8202L281.337 40.9049L249.163 30.4672L216.649 41.5518L184.413 31.0522L151.96 42.1988L119.661 31.7623L87.2713 42.8457L54.972 32.4092L22.4575 43.4939L2.25513 36.94Z" fill="#B69D6D"/>
<path d="M11.4804 27.7147L12.0629 25.7696L22.6633 29.1667L55.1159 18.0201L87.352 28.5198L119.805 17.3731L152.041 27.8728L184.555 16.7881L216.855 27.2246L249.307 16.078L281.543 26.5777L313.996 15.431L346.232 25.9307L356.902 22.3209L357.446 24.2547L346.273 28.1198L313.973 17.6832L281.459 28.7679L249.285 18.3302L216.77 29.4149L184.534 18.9152L152.081 30.0618L119.782 19.6253L87.3927 30.7088L55.0934 20.2723L22.5789 31.357L11.4804 27.7147Z" fill="#B69D6D"/>
<path d="M20.6426 18.5525L21.2883 16.5443L22.7847 17.0297L55.2373 5.8831L87.4734 16.3828L119.926 5.23616L152.162 15.7359L184.677 4.65116L216.976 15.0877L249.429 3.94103L281.665 14.4407L314.117 3.29409L346.353 13.7938L347.86 13.2783L348.465 15.274L346.394 15.9828L314.095 5.54631L281.58 16.631L249.406 6.19325L216.891 17.2779L184.655 6.77826L152.203 17.9249L119.903 7.48839L87.5141 18.5718L55.2148 8.13532L22.7003 19.22L20.6426 18.5525Z" fill="#B69D6D"/>
<path d="M37.8861 1.9281L37.2173 -0.00443819L55.3583 -6.25373L87.5944 4.24595L120.109 -6.83873L152.283 3.59902L184.798 -7.48567L217.097 2.95083L249.486 -8.13261L281.786 2.30389L314.238 -8.84274L332.258 -2.95508L331.55 -1.00879L314.216 -6.59053L281.701 4.49416L249.527 -5.94358L217.012 5.14111L184.776 -5.35857L152.324 5.78804L120.024 -4.64845L87.6351 6.43499L55.3358 -4.00151L37.8861 1.9281Z" fill="#B69D6D"/>
<path d="M55.3956 -16.2005L56.0413 -18.2088L87.7162 -7.89112L120.231 -18.9758L152.405 -8.53806L184.919 -19.6227L217.219 -9.18626L249.608 -20.2697L281.907 -9.83319L313.795 -20.7865L314.401 -18.7908L281.823 -7.64291L249.649 -18.0807L217.134 -6.99597L184.898 -17.4957L152.446 -6.34902L120.146 -16.7855L87.7569 -5.70209L55.3956 -16.2005Z" fill="#B69D6D"/>
<path d="M64.5578 -25.3627L65.2034 -27.3709L87.8376 -20.0281L120.352 -31.1128L152.526 -20.675L185.041 -31.7597L217.34 -21.3232L249.729 -32.4066L282.029 -21.9701L304.814 -29.7672L305.42 -27.7715L281.944 -19.7799L249.77 -30.2176L217.256 -19.1329L185.02 -29.6326L152.567 -18.486L120.268 -28.9225L87.8782 -17.839L64.5578 -25.3627Z" fill="#B69D6D"/>
<path d="M73.7831 -34.588L74.4288 -36.5963L87.959 -32.165L120.473 -43.2497L152.648 -32.812L185.162 -43.8966L217.461 -33.4601L249.851 -44.5436L282.15 -34.1071L295.772 -38.8098L296.377 -36.8141L282.066 -31.9168L249.892 -42.3546L217.377 -31.2699L185.141 -41.7696L152.688 -30.6229L120.389 -41.0594L87.9996 -29.976L73.7831 -34.588Z" fill="#B69D6D"/>
<path d="M82.9453 -43.7502L83.5909 -45.7584L88.0803 -44.302L120.595 -55.3867L152.769 -44.9489L185.284 -56.0336L217.583 -45.5971L249.972 -56.6805L282.272 -46.244L286.791 -47.7905L287.397 -45.7948L282.187 -44.0537L250.013 -54.4915L217.498 -43.4068L185.262 -53.9065L152.81 -42.7599L120.51 -53.1964L88.121 -42.1129L82.9453 -43.7502Z" fill="#B69D6D"/>
<path d="M97.0925 -57.2783L96.487 -59.2741L120.716 -67.5235L152.89 -57.0857L185.405 -68.1704L217.704 -57.7339L250.093 -68.8173L274.162 -61.051L273.516 -59.0427L250.134 -66.6283L217.619 -55.5436L185.383 -66.0433L152.931 -54.8967L120.631 -65.3332L97.0925 -57.2783Z" fill="#B69D6D"/>
</g>
</g>
<defs>
<clipPath id="clip0">
<rect x="186.213" y="-149" width="258.13" height="263.345" transform="rotate(45 186.213 -149)" fill="white"/>
</clipPath>
</defs>
</svg>
