<svg width="231" height="220" viewBox="0 0 231 220" fill="none" xmlns="http://www.w3.org/2000/svg"><g clip-path="url(#clip0)" fill="#B69D6D" opacity=".1"><path d="M178.073 214.653l-.669-1.932 5.209-1.741 5.176 1.637-.707 1.946-4.49-1.456-4.519 1.546zm-8.983-8.981l-.669-1.932 14.312-4.898 14.217 4.612-.708 1.947-13.53-4.431-13.622 4.702zm-9.041-9.042l-.669-1.933 23.475-7.991 23.321 7.523-.708 1.947-22.634-7.343-22.785 7.797z"/><path d="M151.068 187.649l-.669-1.933 32.578-11.148 32.361 10.499-.707 1.946-31.675-10.317-31.888 10.953z"/><path d="M132.605 169.818l.708-1.946 17.271 5.645 32.515-11.085 32.299 10.436 17.388-5.991.669 1.932-18.141 6.25-32.236-10.5-32.453 11.147-18.02-5.888z"/><path d="M117.002 153.584l-.668-1.932 2.134-.772 32.236 10.499 32.515-11.084 32.299 10.436 32.453-11.146 2.119.729-.707 1.946-1.497-.485-32.452 11.146-32.236-10.499-32.453 11.146-32.236-10.499-1.507.515z"/><path d="M108.022 144.604l-.669-1.933 11.237-3.928 32.236 10.499 32.514-11.084 32.3 10.436 32.452-11.146 11.161 3.704-.708 1.946-10.537-3.46-32.453 11.147-32.236-10.5-32.452 11.146-32.236-10.499-10.609 3.672z"/><path d="M98.98 135.561l-.669-1.932 20.401-7.023 32.236 10.5 32.515-11.085 32.299 10.436 32.453-11.146 20.264 6.616-.708 1.946-19.641-6.372-32.452 11.147-32.237-10.5-32.452 11.147-32.236-10.5-19.773 6.766z"/><path d="M90 126.58l-.67-1.932 29.504-10.179 32.236 10.5 32.514-11.085 32.3 10.436 32.452-11.146 29.305 9.59-.707 1.947-28.682-9.347-32.453 11.147-32.236-10.5-32.453 11.147-32.236-10.5L90 126.58z"/><path d="M74.572 111.783l.645-2.008 11.286 3.703 32.452-11.146 32.236 10.499 32.515-11.084 32.299 10.436 32.453-11.146 32.236 10.499 11.362-3.929.605 1.995-11.988 4.061-32.238-10.374-32.514 11.084-32.236-10.499-32.453 11.146-32.299-10.436-32.452 11.021-11.91-3.822z"/><path d="M56.547 93.76l.646-2.008 29.43 9.589 32.453-11.146 32.236 10.5 32.514-11.085 32.3 10.436L248.578 88.9l32.236 10.5 29.628-10.18.606 1.995-30.255 10.312-32.237-10.375-32.515 11.085-32.236-10.5-32.452 11.147-32.3-10.437-32.451 11.022-30.055-9.709z"/><path d="M46.954 83.535l-.67-1.933 8.225-2.897 32.236 10.5 32.452-11.147 32.236 10.5 32.515-11.085 32.299 10.436L248.7 76.763l32.236 10.5 32.453-11.147 8.167 2.733-.708 1.947-7.482-2.428-32.451 11.022-32.238-10.375L216.163 90.1l-32.236-10.5-32.453 11.147-32.299-10.437-32.451 11.022-32.238-10.375-7.532 2.578z"/><path d="M37.91 74.492l-.669-1.932 17.388-5.992 32.236 10.5 32.453-11.147 32.236 10.5 32.514-11.085 32.3 10.437 32.452-11.147 32.236 10.5 32.453-11.147 17.271 5.645-.707 1.946-16.587-5.339-32.451 11.022-32.237-10.375-32.515 11.085-32.236-10.5-32.453 11.147-32.299-10.437-32.451 11.022L54.606 68.82 37.91 74.492z"/><path d="M28.93 65.511l-.67-1.932 26.49-9.148 32.237 10.5 32.452-11.147 32.236 10.5 32.515-11.085 32.299 10.437 32.453-11.147 32.236 10.5 32.452-11.147 26.313 8.62-.708 1.946-25.627-8.314-32.515 11.085-32.174-10.438-32.514 11.085-32.236-10.5-32.453 11.147-32.299-10.437-32.39 11.084-32.299-10.437-25.799 8.828z"/><path d="M16.475 53.688l.708-1.946 5.237 1.699 32.453-11.147 32.236 10.5 32.453-11.147 32.236 10.5 32.514-11.085L216.611 51.5l32.453-11.147 32.236 10.5 32.453-11.147 32.236 10.5 5.273-1.804.668 1.932-5.9 2.061-32.3-10.436-32.514 11.084-32.174-10.438-32.515 11.085-32.236-10.5-32.453 11.147L119.539 43.9l-32.39 11.083L54.85 44.547 22.336 55.63l-5.861-1.943z"/><path d="M2.255 36.94l.646-2.008 19.641 6.372 32.453-11.147 32.236 10.5 32.452-11.147 32.236 10.5 32.515-11.085 32.299 10.437 32.453-11.147 32.236 10.5 32.452-11.147 32.237 10.5 19.772-6.766.606 1.995-20.338 6.96-32.299-10.437-32.515 11.085-32.174-10.438-32.514 11.085-32.236-10.5L151.96 42.2l-32.299-10.437-32.39 11.084L54.972 32.41 22.458 43.495 2.255 36.94z"/><path d="M11.48 27.715l.583-1.945 10.6 3.397L55.116 18.02l32.236 10.5 32.453-11.147 32.236 10.5 32.514-11.085 32.3 10.437 32.452-11.147 32.236 10.5 32.453-11.147 32.236 10.5 10.67-3.61.544 1.934-11.173 3.865-32.3-10.437-32.514 11.085-32.174-10.438-32.515 11.085-32.236-10.5-32.453 11.147-32.299-10.437-32.39 11.084-32.299-10.437L22.58 31.357l-11.1-3.642z"/><path d="M20.643 18.552l.645-2.008 1.497.486L55.237 5.883l32.236 10.5 32.453-11.147 32.236 10.5L184.677 4.65l32.299 10.437L249.429 3.94l32.236 10.5 32.452-11.147 32.236 10.5 1.507-.516.605 1.996-2.071.709-32.299-10.437L281.58 16.63 249.406 6.192l-32.515 11.085-32.236-10.5-32.452 11.147-32.3-10.437-32.389 11.084-32.3-10.437L22.7 19.22l-2.057-.668z"/><path d="M37.886 1.928l-.669-1.932 18.141-6.25 32.236 10.5L120.11-6.84 152.283 3.6l32.515-11.085 32.299 10.437 32.389-11.084 32.3 10.437 32.452-11.147 18.02 5.888-.708 1.946-17.334-5.582-32.515 11.085-32.174-10.438-32.515 11.085-32.236-10.5-32.452 11.147-32.3-10.436L87.635 6.435l-32.3-10.437-17.449 5.93z"/><path d="M55.396-16.2l.645-2.009L87.716-7.89l32.515-11.085 32.174 10.438 32.514-11.085 32.3 10.437 32.389-11.084 32.299 10.437 31.888-10.954.606 1.996-32.578 11.148-32.174-10.438-32.515 11.085-32.236-10.5-32.452 11.147-32.3-10.436-32.39 11.083L55.396-16.2z"/><path d="M64.558-25.363l.645-2.008 22.635 7.343 32.514-11.085 32.174 10.438 32.515-11.085 32.299 10.437 32.389-11.084 32.3 10.437 22.785-7.797.606 1.995-23.476 7.992-32.174-10.438-32.514 11.085-32.236-10.5-32.453 11.147-32.299-10.436-32.39 11.083-23.32-7.524z"/><path d="M73.783-34.588l.646-2.008 13.53 4.431 32.514-11.085 32.175 10.438 32.514-11.085 32.299 10.437 32.39-11.084 32.299 10.437 13.622-4.703.605 1.996-14.311 4.897-32.174-10.438-32.515 11.085-32.236-10.5-32.453 11.147-32.299-10.436-32.39 11.083-14.216-4.612z"/><path d="M82.945-43.75l.646-2.008 4.49 1.456 32.514-11.085 32.174 10.438 32.515-11.085 32.299 10.437 32.389-11.084 32.3 10.437 4.519-1.547.606 1.996-5.21 1.741-32.174-10.438-32.515 11.085-32.236-10.5L152.81-42.76l-32.3-10.436-32.389 11.083-5.176-1.637z"/><path d="M97.093-57.278l-.606-1.996 24.229-8.25 32.174 10.438 32.515-11.084 32.299 10.436 32.389-11.083 24.069 7.766-.646 2.008-23.382-7.585-32.515 11.084-32.236-10.5-32.452 11.147-32.3-10.436-23.538 8.055z"/></g><defs><clipPath id="clip0"><path transform="rotate(45 186.213 -149)" fill="#fff" d="M186.213-149h258.13v263.345h-258.13z"/></clipPath></defs></svg>