<svg width="535" height="535" viewBox="0 0 535 535" fill="none" xmlns="http://www.w3.org/2000/svg"><g clip-path="url(#clip0)" fill="#EFEAE1"><path d="M.908 521.021l1.815-3.812 9.985 5.083 5.083 9.985-3.812 1.815-4.357-8.714-8.714-4.357zm0-26.323l1.815-3.813 27.594 13.798 13.797 27.594-3.812 1.815-13.07-26.323L.907 494.698zm0-26.505l1.815-3.813 45.204 22.693 22.692 45.204-3.812 1.815-21.966-43.933L.908 468.193z"/><path d="M.908 441.869l1.815-3.812 62.813 31.407 31.407 62.813-3.813 1.815-30.68-61.542L.908 441.869z"/><path d="M0 388.678l3.812-1.815 16.702 33.585 62.632 31.406 31.406 62.632 33.585 16.702-1.815 3.812-35.038-17.428-31.225-62.631-62.631-31.225L0 388.678z"/><path d="M.908 342.022l1.815-3.812 4.176 1.997 31.225 62.631 62.631 31.407 31.407 62.631 62.631 31.225 1.997 4.176-3.812 1.815-1.453-2.905-62.631-31.225-31.225-62.631-62.631-31.225-31.225-62.632-2.905-1.452z"/><path d="M.908 315.699l1.815-3.813 21.785 10.711 31.225 62.632 62.632 31.406 31.406 62.632 62.632 31.225 10.711 21.785-3.813 1.815-10.166-20.514-62.632-31.225-31.225-62.631-62.631-31.225-31.225-62.632L.908 315.699z"/><path d="M.908 289.194l1.815-3.812 39.394 19.606 31.225 62.632 62.632 31.406 31.406 62.632 62.632 31.225 19.606 39.394-3.812 1.815-19.062-38.123-62.632-31.225-31.224-62.632-62.632-31.225-31.225-62.631L.908 289.194z"/><path d="M.908 262.871l1.815-3.813 57.004 28.321 31.225 62.631 62.631 31.407 31.407 62.631 62.631 31.225 28.32 57.004-3.812 1.815-27.776-55.733-62.631-31.225-31.225-62.631-62.632-31.225-31.224-62.631L.908 262.871z"/><path d="M0 218.575l3.813-1.997 10.892 21.966 62.631 31.225 31.225 62.632 62.632 31.406 31.406 62.632 62.632 31.225 31.225 62.631 21.966 10.893-1.997 3.812-23.055-11.619-31.407-62.45-62.631-31.406-31.225-62.632-62.632-31.225-31.406-62.631-62.45-31.407L0 218.575z"/><path d="M0 165.747l3.812-1.997 28.502 57.185 62.632 31.225 31.225 62.631 62.631 31.407 31.407 62.631 62.631 31.225 31.225 62.632 57.185 28.502-1.997 3.812-58.274-29.228-31.407-62.45-62.631-31.406-31.225-62.632-62.632-31.225-31.406-62.631-62.45-31.407L0 165.747z"/><path d="M.908 136.7l1.815-3.812 15.975 7.806 31.225 62.632 62.632 31.225 31.225 62.631 62.631 31.407 31.407 62.631 62.631 31.225 31.225 62.632 62.632 31.224 7.806 15.976-3.812 1.815-7.262-14.523-62.45-31.406-31.406-62.45-62.632-31.407-31.225-62.631-62.631-31.225-31.407-62.632-62.45-31.406-31.406-62.45L.908 136.7z"/><path d="M.908 110.195l1.815-3.812 33.585 16.702 31.225 62.631 62.632 31.225 31.224 62.631 62.632 31.407 31.406 62.631 62.632 31.225 31.225 62.632 62.631 31.225 16.702 33.585-3.812 1.815-16.157-32.132-62.45-31.407-31.407-62.45-62.631-31.406-31.225-62.632-62.632-31.225-31.406-62.631-62.45-31.407-31.407-62.45L.908 110.195z"/><path d="M.908 83.872l1.815-3.813 51.194 25.416 31.225 62.632 62.632 31.225 31.225 62.631 62.631 31.407 31.407 62.631 62.631 31.225 31.225 62.632 62.632 31.224 25.416 51.195-3.813 1.815-24.871-49.742-62.631-31.406-31.225-62.45-62.632-31.407-31.225-62.631-62.631-31.225-31.407-62.632-62.45-31.225-31.406-62.631L.908 83.872z"/><path d="M0 48.29l3.812-1.816 5.083 10.167 62.632 31.225 31.225 62.631 62.631 31.225 31.225 62.632 62.632 31.406 31.406 62.632 62.632 31.225 31.225 62.631 62.631 31.225 31.225 62.632 10.166 5.083L486.71 535l-11.437-5.628-31.406-62.631-62.632-31.407-31.225-62.45-62.631-31.406-31.225-62.632-62.632-31.225-31.406-62.631-62.45-31.225-31.407-62.632L5.628 59.727 0 48.29z"/><path d="M3.63 2.905L7.444.908 26.505 39.03l62.631 31.225 31.225 62.632 62.632 31.225 31.225 62.631 62.631 31.407 31.407 62.631 62.631 31.225 31.225 62.632 62.632 31.225 31.225 62.631 38.123 19.062-1.997 3.812-39.212-19.606-31.407-62.632-62.631-31.406-31.225-62.45-62.632-31.407-31.225-62.631-62.631-31.225-31.407-62.632-62.45-31.225-31.406-62.631-62.632-31.407L3.631 2.905z"/><path d="M30.136 2.905l3.63-1.997 10.348 20.514 62.632 31.225 31.225 62.631 62.631 31.225 31.225 62.632 62.632 31.406 31.406 62.632 62.632 31.225 31.225 62.631 62.631 31.225 31.225 62.632 20.514 10.347-1.997 3.631-21.603-10.711-31.407-62.631-62.631-31.407-31.225-62.45-62.631-31.406-31.225-62.632-62.632-31.225-31.406-62.631-62.45-31.225-31.407-62.632-62.631-31.406L30.136 2.905z"/><path d="M56.46 2.905L60.271.908l1.452 2.904 62.631 31.225L155.58 97.67l62.632 31.225 31.225 62.631 62.631 31.407 31.407 62.631 62.631 31.225 31.225 62.632 62.632 31.225 31.225 62.631 2.904 1.453-1.997 3.812-3.994-1.997-31.406-62.632-62.632-31.406-31.225-62.45-62.631-31.407-31.225-62.631-62.631-31.225-31.407-62.631-62.45-31.225-31.406-62.632L58.456 6.899 56.46 2.905z"/><path d="M105.112 3.812L106.927 0l35.038 17.428 31.225 62.631 62.631 31.407 31.225 62.45 62.632 31.406 31.406 62.632 62.45 31.225 31.407 62.631 62.631 31.225L535 428.073l-3.812 1.815-16.884-33.585-62.631-31.407-31.225-62.449-62.632-31.407-31.225-62.631-62.631-31.225-31.407-62.632-62.449-31.225-31.407-62.631-33.585-16.884z"/><path d="M156.306 2.905l3.813-1.997 30.68 61.542 62.632 31.406 31.225 62.45 62.631 31.407 31.407 62.631 62.45 31.225 31.406 62.632 61.542 30.68-1.997 3.813-62.813-31.407-31.225-62.45-62.631-31.406-31.225-62.632-62.632-31.225-31.406-62.631-62.45-31.225-31.407-62.813z"/><path d="M182.63 2.905l3.812-1.997 21.967 43.932 62.631 31.407 31.225 62.45 62.632 31.406 31.406 62.632 62.45 31.225 31.406 62.631 43.933 21.967-1.997 3.812-45.203-22.692-31.225-62.45-62.632-31.407-31.225-62.631-62.631-31.225-31.407-62.632-62.45-31.225L182.63 2.905z"/><path d="M209.135 2.905l3.812-1.997 13.071 26.323 62.632 31.407 31.224 62.45 62.632 31.406 31.406 62.632 62.45 31.224 31.407 62.632 26.323 13.071-1.997 3.812-27.594-13.797-31.225-62.45-62.631-31.406-31.225-62.632-62.632-31.225-31.406-62.631-62.45-31.225-13.797-27.594z"/><path d="M235.458 2.905L239.27.908l4.357 8.714 62.632 31.406 31.225 62.45 62.631 31.407 31.407 62.631 62.45 31.225 31.406 62.632 8.714 4.357-1.997 3.812-9.984-5.083-31.225-62.45-62.632-31.407-31.225-62.631-62.631-31.225-31.407-62.632-62.45-31.225-5.083-9.984z"/><path d="M275.215 3.812L277.212 0l46.656 23.419 31.225 62.45 62.632 31.406 31.406 62.632 62.45 31.225L535 257.788l-3.812 1.997-22.693-45.386-62.631-31.406-31.225-62.632-62.632-31.225-31.406-62.631-45.386-22.693z"/><path d="M328.044 3.812L330.041 0l11.437 5.81 31.225 62.45 62.631 31.406 31.407 62.631 62.45 31.225L535 204.959l-3.812 1.997-5.083-10.166-62.632-31.407-31.225-62.631-62.631-31.225L338.21 8.895l-10.166-5.083z"/><path d="M361.629 2.905l3.812-1.997 24.871 49.742 62.632 31.406 31.406 62.632 49.742 24.871-1.997 3.812-51.013-25.597-31.225-62.632-62.631-31.224-25.597-51.013z"/><path d="M388.134 2.905l3.812-1.997 15.976 32.132 62.631 31.407 31.407 62.631 32.132 15.976-1.997 3.812-33.403-16.701-31.225-62.632-62.632-31.225-16.701-33.403z"/><path d="M414.457 2.905l3.812-1.997 7.262 14.523 62.632 31.407 31.406 62.631 14.523 7.262-1.997 3.812-15.794-7.988-31.225-62.631-62.631-31.225-7.988-15.794zm31.044.907L447.316 0l58.456 29.228L535 87.684l-3.812 1.816-28.502-57.186-57.185-28.502zm52.828 0L500.144 0l23.237 11.619L535 34.856l-3.812 1.815-10.893-21.966-21.966-10.893z"/></g><defs><clipPath id="clip0"><path transform="rotate(90 535 0)" fill="#fff" d="M535 0h535v535H535z"/></clipPath></defs></svg>