<svg width="966" height="508" viewBox="0 0 966 508" fill="none" xmlns="http://www.w3.org/2000/svg">
<g opacity="0.1">
<g clip-path="url(#clip0)">
<path d="M935.405 -303.477L933.845 -298.485L860.214 -323.133L779.562 -296.145L698.911 -323.133L618.104 -296.301L537.296 -323.133L456.645 -296.145L375.993 -323.133L302.362 -298.485L300.802 -303.477L375.993 -328.437L456.645 -301.761L537.452 -328.593L618.104 -301.605L698.755 -328.593L779.562 -301.761L860.214 -328.437L935.405 -303.477Z" fill="#B69D6D"/>
<path d="M959.585 -277.737L961.301 -272.901L940.865 -265.881L860.214 -292.869L779.562 -265.881L698.911 -292.869L618.104 -266.037L537.296 -292.869L456.645 -265.881L375.993 -292.869L295.342 -265.881L274.906 -272.901L276.622 -277.737L295.342 -271.497L375.993 -298.173L456.645 -271.497L537.452 -298.329L618.104 -271.341L698.755 -298.329L779.562 -271.497L860.214 -298.173L940.865 -271.497L959.585 -277.737Z" fill="#B69D6D"/>
<path d="M982.361 -254.961L984.077 -250.126L940.865 -235.618L860.214 -262.605L779.562 -235.618L698.911 -262.605L618.104 -235.774L537.296 -262.605L456.645 -235.618L375.993 -262.605L295.342 -235.618L252.13 -250.126L253.846 -254.961L295.342 -241.234L375.993 -267.909L456.645 -241.234L537.452 -268.065L618.104 -241.078L698.755 -268.065L779.562 -241.234L860.214 -267.909L940.865 -241.234L982.361 -254.961Z" fill="#B69D6D"/>
<path d="M1004.98 -232.342L1006.7 -227.506L940.865 -205.354L860.214 -232.342L779.562 -205.354L698.911 -232.342L618.104 -205.51L537.296 -232.342L456.645 -205.354L375.993 -232.342L295.342 -205.354L229.51 -227.506L231.226 -232.342L295.342 -210.97L376.149 -237.802L456.645 -210.97L537.452 -237.802L618.104 -210.814L698.755 -237.802L779.562 -210.97L860.058 -237.802L940.865 -210.97L1004.98 -232.342Z" fill="#B69D6D"/>
<path d="M1036.34 -202.546L1034.62 -197.71L1021.52 -202.078L940.865 -175.09L860.214 -202.078L779.562 -175.09L698.911 -202.078L618.104 -175.246L537.296 -202.078L456.645 -175.09L375.993 -202.078L295.342 -175.09L214.69 -202.078L201.587 -197.71L199.871 -202.546L214.534 -207.538L295.342 -180.706L376.149 -207.538L456.645 -180.706L537.452 -207.538L618.104 -180.55L698.755 -207.538L779.562 -180.706L860.058 -207.538L940.865 -180.706L1021.67 -207.538L1036.34 -202.546Z" fill="#B69D6D"/>
<path d="M1072.22 -160.426L1070.66 -155.434L1021.52 -171.814L940.865 -144.826L860.214 -171.814L779.562 -144.826L698.911 -171.814L618.104 -144.982L537.296 -171.814L456.645 -144.826L375.993 -171.814L295.342 -144.826L214.69 -171.814L165.551 -155.434L163.991 -160.426L214.534 -177.274L295.342 -150.442L376.149 -177.274L456.645 -150.442L537.452 -177.274L618.104 -150.286L698.755 -177.274L779.562 -150.442L860.058 -177.274L940.865 -150.442L1021.67 -177.274L1072.22 -160.426Z" fill="#B69D6D"/>
<path d="M1049.44 -137.65L1048.04 -132.814L1021.52 -141.55L940.865 -114.562L860.214 -141.55L779.562 -114.562L698.911 -141.55L618.104 -114.718L537.296 -141.55L456.645 -114.562L375.993 -141.55L295.342 -114.562L214.69 -141.55L188.171 -132.814L186.767 -137.65L214.534 -147.01L295.342 -120.178L376.149 -147.01L456.645 -120.178L537.452 -147.01L618.104 -120.022L698.755 -147.01L779.562 -120.178L860.058 -147.01L940.865 -120.178L1021.67 -147.01L1049.44 -137.65Z" fill="#B69D6D"/>
<path d="M1026.82 -115.03L1025.26 -110.038L1021.52 -111.286L940.865 -84.2985L860.214 -111.286L779.562 -84.2985L698.911 -111.286L618.104 -84.4546L537.296 -111.286L456.645 -84.2985L375.993 -111.286L295.342 -84.2985L214.69 -111.286L210.947 -110.038L209.386 -115.03L214.534 -116.746L295.342 -89.9145L376.149 -116.746L456.645 -89.9145L537.452 -116.746L618.104 -89.7585L698.755 -116.746L779.562 -89.9145L860.058 -116.746L940.865 -89.9145L1021.67 -116.746L1026.82 -115.03Z" fill="#B69D6D"/>
<path d="M984.233 -74.0027L985.949 -69.1667L940.865 -54.0348L860.214 -81.0227L779.406 -54.1909L698.911 -81.0227L618.104 -54.1908L537.296 -81.0227L456.801 -54.1909L375.993 -81.0227L295.342 -54.0348L250.258 -69.1667L251.974 -74.0027L295.342 -59.6508L376.149 -86.4826L456.645 -59.6508L537.452 -86.4826L618.104 -59.4948L698.755 -86.4826L779.562 -59.6508L860.058 -86.4826L940.865 -59.6508L984.233 -74.0027Z" fill="#B69D6D"/>
<path d="M941.021 -29.231L939.461 -24.239L860.214 -50.7588L779.406 -23.927L698.911 -50.7588L618.104 -23.927L537.296 -50.7588L456.801 -23.927L375.993 -50.7588L296.746 -24.239L295.186 -29.231L376.149 -56.2188L456.645 -29.387L537.452 -56.2188L618.104 -29.231L698.755 -56.2188L779.562 -29.387L860.058 -56.2188L941.021 -29.231Z" fill="#B69D6D"/>
<path d="M918.401 -6.61116L916.841 -1.61918L860.214 -20.495L779.406 6.33676L698.911 -20.495L618.104 6.33677L537.296 -20.495L456.801 6.33676L375.993 -20.495L319.366 -1.61918L317.806 -6.61116L376.149 -25.955L456.645 0.876808L537.452 -25.955L618.104 1.0328L698.755 -25.955L779.562 0.876808L860.058 -25.955L918.401 -6.61116Z" fill="#B69D6D"/>
<path d="M895.625 16.1647L894.066 21.1567L860.214 9.76875L779.406 36.6005L698.911 9.76874L618.104 36.6005L537.296 9.76874L456.801 36.6005L375.993 9.76875L342.142 21.1567L340.582 16.1647L376.149 4.30877L456.645 31.1406L537.452 4.30879L618.104 31.2966L698.755 4.30879L779.562 31.1406L860.058 4.30877L895.625 16.1647Z" fill="#B69D6D"/>
<path d="M873.006 38.7845L871.446 43.7765L860.214 40.0325L779.406 66.8643L698.911 40.0325L618.104 66.8643L537.296 40.0325L456.801 66.8643L375.993 40.0325L364.761 43.7765L363.201 38.7845L376.149 34.5726L456.645 61.4044L537.452 34.5726L618.104 61.5604L698.755 34.5726L779.562 61.4044L860.058 34.5726L873.006 38.7845Z" fill="#B69D6D"/>
<path d="M838.062 72.1682L839.622 77.1602L779.406 97.128L698.911 70.2962L618.104 97.128L537.296 70.2962L456.801 97.128L396.585 77.1602L398.145 72.1682L456.645 91.6681L537.452 64.8363L618.104 91.8241L698.755 64.8363L779.562 91.6681L838.062 72.1682Z" fill="#B69D6D"/>
<path d="M792.666 117.564L794.226 122.556L779.406 127.392L698.911 100.56L618.104 127.392L537.296 100.56L456.801 127.392L441.981 122.556L443.541 117.564L456.645 121.932L537.452 95.1001L618.104 122.088L698.755 95.1001L779.562 121.932L792.666 117.564Z" fill="#B69D6D"/>
<path d="M764.586 147.204L763.026 152.196L698.911 130.824L618.104 157.656L537.296 130.824L473.181 152.196L471.621 147.204L537.452 125.364L618.104 152.352L698.755 125.364L764.586 147.204Z" fill="#B69D6D"/>
<path d="M741.811 169.98L740.251 174.972L698.911 161.088L618.104 187.919L537.296 161.088L495.956 174.972L494.396 169.98L537.452 155.628L618.104 182.615L698.755 155.628L741.811 169.98Z" fill="#B69D6D"/>
<path d="M719.191 192.599L717.631 197.591L698.911 191.351L618.104 218.183L537.296 191.351L518.576 197.591L517.016 192.599L537.452 185.891L618.104 212.879L698.755 185.891L719.191 192.599Z" fill="#B69D6D"/>
<path d="M691.735 218.495L693.451 223.331L618.104 248.447L542.756 223.331L544.472 218.495L618.104 243.143L691.735 218.495Z" fill="#B69D6D"/>
<path d="M646.339 263.891L648.055 268.727L618.104 278.711L588.152 268.727L589.868 263.891L618.104 273.407L646.339 263.891Z" fill="#B69D6D"/>
</g>
</g>
<defs>
<clipPath id="clip0">
<rect x="618.104" y="298.679" width="650.155" height="650.155" transform="rotate(-135 618.104 298.679)" fill="white"/>
</clipPath>
</defs>
</svg>
