<svg width="206" height="25" viewBox="0 0 206 25" fill="none" xmlns="http://www.w3.org/2000/svg"><path d="M32.04.036h8.215l4.905 6.737L49.963.036h8.284V25h-8.214v-9.796l-4.906 6.809-4.836-6.843V25h-8.247V.036h-.003z" fill="#1B3C65"/><path d="M56.122 25L65.903.036h9.292L84.904 25h-10.06l-.869-2.953h-6.819L66.25 25H56.122zm12.842-9.834h3.13l-1.53-5.837-1.6 5.837z" fill="#1B3C65"/><path d="M94.787 25l-4.105-5.546V25h-8.284V.036h11.798c2.713 0 5.034.938 6.961 2.81 1.927 1.874 2.889 4.13 2.889 6.77 0 2.666-.962 4.934-2.889 6.81a9.714 9.714 0 01-1.46 1.187l5.219 7.384H94.787V25zM93.36 12.142c.602 0 1.13-.247 1.584-.74.453-.492.677-1.084.677-1.782s-.224-1.29-.677-1.783c-.453-.492-.982-.739-1.584-.739h-2.68v5.044h2.68z" fill="#1B3C65"/><path d="M101.815 25L111.593.036h9.292L130.593 25h-10.059l-.869-2.953h-6.82L111.94 25h-10.125zm12.842-9.834h3.13l-1.53-5.837-1.6 5.837z" fill="#1B3C65"/><path d="M128.471.036h8.214l4.909 6.737 4.8-6.737h8.284V25h-8.215v-9.796l-4.905 6.809-4.836-6.843V25h-8.248V.036h-.003z" fill="#1B3C65"/><path d="M152.556 25L162.334.036h9.292L181.334 25h-10.055l-.87-2.953h-6.823L162.681 25h-10.125zm12.839-9.834h3.13l-1.53-5.837-1.6 5.837z" fill="#1B3C65"/><path d="M192.124 19.994L188.676 25h-10.198l8.595-12.393-8.595-12.57h9.953l3.689 5.296 3.653-5.297h9.957l-8.595 12.571L205.73 25h-10.198l-3.408-5.006z" fill="#1B3C65"/><path d="M0 0v25h26V0H0zm22.294 21.425h-5.827v-7.006l-3.48 4.869-3.432-4.895v7.032H3.704V3.575H9.53l3.481 4.817 3.407-4.817h5.876v17.85z" fill="#2E7CD3"/></svg>