<svg width="192" height="409" viewBox="0 0 192 409" fill="none" xmlns="http://www.w3.org/2000/svg"><g clip-path="url(#clip0)" fill="#EFEAE1" opacity=".23"><path d="M187.386 393.139l-.741-2.142 15.86-5.427 15.755 5.111-.785 2.157-14.994-4.91-15.095 5.211zm-10.021-10.021l-.741-2.142 26.015-8.856 25.844 8.338-.784 2.157-25.083-8.138-25.251 8.641z"/><path d="M167.413 373.165l-.742-2.141 36.103-12.354 35.863 11.634-.785 2.157-35.102-11.434-35.337 12.138z"/><path d="M146.952 353.405l.784-2.157 19.14 6.256 36.032-12.284 35.795 11.566 19.269-6.64.741 2.141-20.104 6.926-35.724-11.636-35.964 12.353-19.969-6.525z"/><path d="M129.662 335.415l-.741-2.142 2.366-.855 35.724 11.636 36.032-12.284 35.794 11.565 35.964-12.352 2.349.808-.784 2.157-1.659-.538-35.964 12.353-35.724-11.636-35.963 12.352-35.724-11.635-1.67.571z"/><path d="M119.71 325.463l-.742-2.142 12.453-4.353 35.724 11.635 36.032-12.284 35.794 11.566 35.964-12.353 12.368 4.105-.784 2.157-11.677-3.834-35.964 12.352-35.724-11.635-35.964 12.352-35.724-11.635-11.756 4.069z"/><path d="M109.689 315.442l-.741-2.142 22.608-7.782 35.724 11.635 36.032-12.284 35.794 11.566 35.964-12.353 22.457 7.332-.784 2.157-21.767-7.061-35.963 12.352-35.724-11.635-35.964 12.352-35.724-11.635-21.912 7.498z"/><path d="M99.736 305.489l-.741-2.141 32.695-11.28 35.724 11.635 36.032-12.284 35.795 11.566 35.963-12.353 32.476 10.629-.784 2.157-31.785-10.358-35.964 12.352-35.724-11.635-35.964 12.352-35.724-11.635-31.999 10.995z"/><path d="M82.638 289.092l.716-2.226 12.507 4.104 35.963-12.353 35.724 11.636 36.033-12.284 35.794 11.566 35.964-12.353 35.724 11.636 12.591-4.355.671 2.212-13.286 4.5-35.725-11.497-36.033 12.284-35.724-11.636-35.964 12.353-35.794-11.566-35.962 12.214-13.199-4.235z"/><path d="M62.665 269.118l.715-2.225 32.615 10.627 35.964-12.353 35.724 11.636 36.032-12.284 35.794 11.566 35.964-12.353 35.724 11.636 32.834-11.282.671 2.212-33.528 11.427-35.726-11.497-36.032 12.284-35.724-11.636-35.964 12.353-35.794-11.566-35.962 12.214-33.307-10.759z"/><path d="M52.033 257.787l-.741-2.142 9.114-3.211 35.723 11.636 35.964-12.353 35.724 11.636 36.033-12.284 35.794 11.566 35.964-12.353 35.724 11.636 35.964-12.353 9.051 3.029-.784 2.157-8.292-2.69-35.963 12.214-35.725-11.497-36.033 12.284-35.724-11.636-35.964 12.353-35.794-11.566-35.962 12.214L60.38 254.93l-8.348 2.857z"/><path d="M42.012 247.765l-.741-2.141 19.27-6.64 35.723 11.636 35.964-12.353 35.724 11.636 36.033-12.284 35.794 11.565 35.963-12.352 35.724 11.635 35.964-12.352 19.14 6.255-.784 2.157-18.381-5.916-35.962 12.214-35.726-11.497-36.032 12.284-35.724-11.636-35.964 12.353-35.794-11.566-35.963 12.214-35.725-11.497-18.503 6.285z"/><path d="M32.06 237.813l-.742-2.142 29.357-10.137 35.724 11.635 35.963-12.352 35.724 11.636 36.033-12.284 35.794 11.565 35.964-12.352 35.724 11.635 35.964-12.352 29.159 9.552-.784 2.157-28.4-9.214-36.033 12.285-35.655-11.568-36.033 12.284-35.724-11.635-35.963 12.352-35.795-11.565-35.893 12.282L60.65 228.03l-28.59 9.783z"/><path d="M18.257 224.71l.784-2.157 5.804 1.883 35.964-12.352 35.724 11.635 35.964-12.352 35.724 11.635 36.033-12.284 35.794 11.566 35.964-12.353 35.724 11.636 35.964-12.353 35.723 11.636 5.844-1.999.741 2.141-6.539 2.284-35.794-11.566-36.033 12.284-35.655-11.567-36.033 12.284-35.724-11.635-35.964 12.352-35.794-11.565-35.894 12.282-35.794-11.565-36.032 12.284-6.495-2.154z"/><path d="M2.498 206.15l.715-2.225 21.767 7.061 35.964-12.352 35.724 11.635 35.964-12.352 35.724 11.635 36.032-12.284 35.794 11.566 35.964-12.353 35.724 11.636 35.964-12.353 35.724 11.636 21.912-7.498.671 2.212-22.538 7.712-35.794-11.566-36.033 12.284-35.655-11.567-36.032 12.284-35.724-11.636-35.964 12.353-35.794-11.566-35.894 12.283-35.794-11.566-36.033 12.284-22.388-7.263z"/><path d="M12.721 195.927l.646-2.156 11.747 3.765 35.964-12.353 35.724 11.636 35.964-12.353 35.724 11.636 36.033-12.284 35.794 11.566 35.964-12.353 35.724 11.636 35.963-12.353 35.725 11.636 11.825-4 .602 2.143-12.382 4.283-35.794-11.566-36.033 12.284-35.655-11.567-36.033 12.284-35.724-11.636-35.964 12.353-35.794-11.566-35.894 12.283-35.794-11.566-36.032 12.284-12.3-4.036z"/><path d="M22.875 185.773l.715-2.225 1.659.538 35.964-12.353 35.724 11.636 35.964-12.353 35.724 11.636 36.032-12.284 35.794 11.566 35.964-12.353 35.724 11.636 35.964-12.353 35.724 11.636 1.669-.572.672 2.212-2.296.786-35.794-11.566-36.033 12.284-35.655-11.567-36.032 12.284-35.724-11.636-35.964 12.353-35.794-11.566-35.894 12.283-35.794-11.566-36.033 12.284-2.28-.74z"/><path d="M41.984 167.35l-.74-2.142 20.103-6.925 35.724 11.636 36.033-12.284 35.655 11.567 36.033-12.284 35.794 11.565 35.893-12.282 35.795 11.565 35.963-12.352 19.97 6.525-.784 2.156-19.211-6.185-36.032 12.284-35.655-11.567-36.033 12.284-35.724-11.636-35.964 12.353-35.794-11.566-35.894 12.283-35.794-11.566-19.338 6.571z"/><path d="M61.388 147.26l.716-2.225 35.102 11.434 36.032-12.284 35.656 11.567 36.032-12.284 35.794 11.565 35.894-12.282 35.794 11.565 35.338-12.138.671 2.212-36.102 12.354-35.656-11.567-36.032 12.284-35.724-11.636-35.964 12.353-35.794-11.566-35.894 12.283-35.863-11.635z"/><path d="M71.542 137.107l.715-2.226 25.083 8.137 36.033-12.284 35.655 11.568 36.033-12.285 35.794 11.566 35.894-12.282 35.794 11.565 25.251-8.64.671 2.211-26.016 8.857-35.655-11.568-36.033 12.284-35.724-11.635-35.964 12.352-35.794-11.565-35.894 12.282-25.843-8.337z"/><path d="M81.765 126.883l.716-2.225 14.994 4.91 36.032-12.284 35.656 11.567 36.032-12.284 35.794 11.566 35.894-12.283 35.794 11.566 15.095-5.211.672 2.211-15.86 5.427-35.656-11.567-36.032 12.284-35.724-11.635-35.964 12.352-35.794-11.565-35.894 12.282-15.755-5.111z"/><path d="M91.919 116.73l.715-2.226 4.975 1.614 36.033-12.284 35.655 11.567 36.033-12.284 35.794 11.566 35.894-12.283 35.794 11.566 5.008-1.714.671 2.212-5.773 1.929-35.655-11.567-36.033 12.284-35.724-11.636-35.964 12.353-35.794-11.566-35.894 12.283-5.735-1.814z"/><path d="M107.597 101.738l-.671-2.212 26.85-9.142 35.656 11.567 36.032-12.284 35.794 11.566 35.894-12.283 26.673 8.607-.716 2.225-25.912-8.406-36.032 12.284-35.724-11.636-35.964 12.353-35.794-11.566-26.086 8.927z"/><path d="M127.974 81.36l-.671-2.211 6.608-2.215L169.566 88.5l36.033-12.284 35.794 11.566L277.287 75.5l6.564 2.083-.715 2.226-5.804-1.883-36.033 12.284-35.724-11.636-35.964 12.353-35.794-11.566-5.843 2z"/><path d="M140.585 68.063l.716-2.225 28.4 9.213 36.032-12.284 35.794 11.565 28.59-9.783.671 2.212-29.354 9.999-35.724-11.636-35.964 12.353-29.161-9.414z"/><path d="M150.809 57.84l.715-2.226 18.311 5.987 36.033-12.284 35.794 11.565 18.434-6.354.671 2.212-19.199 6.57-35.724-11.636-35.964 12.352-19.071-6.186z"/><path d="M160.962 47.686l.716-2.225 8.292 2.69 36.032-12.285 35.794 11.566 8.348-2.856.671 2.211-9.112 3.072-35.724-11.635-35.964 12.352-9.053-2.89zm12.318-11.631l-.742-2.142 33.599-11.497 33.375 10.828-.784 2.157-32.615-10.628-32.833 11.282z"/></g><defs><clipPath id="clip0"><path transform="rotate(45 206.36 .092)" fill="#fff" d="M206.36.092h286.059V291.93H206.36z"/></clipPath></defs></svg>