<svg width="166" height="45" viewBox="0 0 166 45" fill="none" xmlns="http://www.w3.org/2000/svg"><path fill-rule="evenodd" clip-rule="evenodd" d="M117.186 28.505h-4.135l12.133-23.828h4.765l12.133 23.828h-4.19l-3.177-6.272h-14.324l-3.205 6.272zm15.995-9.202l-5.669-11.12-5.67 11.12h11.339zM98.261 4.048l2.821-3.26h6.272l-9.093 3.26zM90.18 28.56h21.308v-2.711H93.851v-8.244h13.092V14.81H93.851V7.36h17.529V4.706H90.181V28.56zM61.205 4.677h15.694c4.19 0 7.613 3.123 7.613 6.93 0 3.314-2.602 6.107-6.053 6.765l7.368 10.16h-4.328l-7.257-9.996h-9.723v9.997h-3.314V4.677zM77.09 7.526l.219.027.22.028.218.054.22.055.191.082.192.083.191.082.192.11.192.109.164.11.165.136.164.137.137.137.137.137.137.164.137.165.11.164.109.164.11.165.081.164.083.164.082.165.055.164.054.164.055.165.028.191.027.192.027.192v.767l-.027.192-.028.191-.027.192-.055.192-.054.164-.055.164-.082.165-.083.164-.082.164-.11.165-.109.164-.11.164-.136.165-.137.164-.137.137-.137.137-.165.137-.164.137-.164.11-.192.109-.192.11-.191.082-.192.082-.192.082-.219.055-.219.054-.219.055-.22.027-.218.028H64.71V7.498h12.188l.192.028zM40.828 3.28A12.18 12.18 0 0028.64 15.468a12.18 12.18 0 0012.188 12.188 12.18 12.18 0 0012.188-12.188c0-6.737-5.478-12.187-12.188-12.187zm0-2.74c-8.956 0-16.241 6.684-16.241 14.927 0 8.244 7.258 14.927 16.24 14.927 8.984 0 16.242-6.683 16.242-14.927C57.042 7.225 49.784.542 40.828.542zM.868 28.56V4.705h3.04v21.253H21.93v2.602H.869zm142.939 0h21.391v-2.711h-18.022V4.705h-3.341V28.56h-.028zM67.066 44.062h-1.808l5.34-9.285h2.082l5.341 9.285h-1.835l-1.397-2.438H68.49l-1.424 2.438zm7.011-3.588l-2.492-4.327-2.492 4.327h4.984zm7.368-5.697h6.6c1.753 0 3.204 1.205 3.204 2.684 0 1.287-1.095 2.383-2.547 2.63l3.095 3.943H89.99l-3.068-3.889H83.17v3.917h-1.753v-9.285h.028zM88.1 35.9h.082l.082.027.082.028.083.027.082.028.082.027.082.027.082.028.082.055.083.054.054.055.055.055.055.055.055.054.054.055.055.055.055.055.055.054.055.055.027.055.027.055.028.055.027.054.028.083.027.082v.821l-.027.082-.028.083-.027.054-.028.055-.027.055-.027.055-.055.055-.055.054-.055.055-.055.055-.054.055-.055.054-.055.055-.055.055-.054.055-.083.055-.082.054-.082.028-.082.027-.082.028-.082.027-.083.027-.082.028-.082.027h-4.93v-3.204h4.766l.082.027zm-33.36-1.123h6.601c1.752 0 3.204 1.205 3.204 2.684 0 .931-.575 1.753-1.424 2.246-.575.329-1.178.41-1.835.438h-4.793v3.917H54.74v-9.285zm6.655 1.123h.083l.082.027.082.028.082.027.082.028.082.027.083.027.082.028.082.055.082.054.082.055.055.055.055.055.055.054.054.055.055.055.055.055.055.054.027.055.027.055.028.055.027.055.028.054.027.083.027.082.028.082v.657l-.028.082-.027.082-.027.083-.028.054-.027.055-.028.055-.027.055-.027.055-.055.054-.055.055-.055.055-.054.055-.055.054-.055.055-.055.055-.082.055-.082.055-.082.054-.082.028-.083.027-.082.028-.082.027-.082.027-.082.028-.082.027h-4.929v-3.204h4.766l.081.027zm40.371 5.176l1.588-.11c.082.466.247.85.521 1.151.273.301.712.548 1.287.712.575.192 1.232.274 1.972.274.657 0 1.232-.055 1.725-.219.493-.137.877-.329 1.096-.575.246-.247.356-.493.356-.794a.972.972 0 00-.356-.767c-.219-.22-.63-.411-1.151-.548-.356-.11-1.095-.247-2.3-.466-1.178-.191-2-.383-2.465-.575-.603-.219-1.068-.52-1.37-.849a1.734 1.734 0 01-.438-1.15c0-.466.192-.904.548-1.315.356-.41.904-.712 1.616-.931.712-.22 1.506-.301 2.355-.301.959 0 1.78.11 2.52.328.739.22 1.287.548 1.671.986.383.439.602.932.63 1.452l-1.589.11a1.785 1.785 0 00-.904-1.342c-.493-.302-1.26-.439-2.246-.439-1.04 0-1.78.137-2.245.411-.466.274-.712.603-.712.986 0 .329.164.603.492.822.329.219 1.178.438 2.575.657 1.369.22 2.328.438 2.848.603.74.246 1.288.575 1.671.93.356.384.52.822.52 1.315s-.191.959-.575 1.397c-.383.438-.958.767-1.698 1.014-.739.246-1.561.356-2.465.356-1.15 0-2.136-.11-2.93-.356-.795-.247-1.397-.603-1.863-1.096-.411-.493-.657-1.04-.684-1.67zm-5.724-3.56h1.725v6.546h-1.725v-6.546zm0-2.739h1.725v1.726h-1.725v-1.726zM15.74 13.058h2.821L22.78 4.87h-3.588l-3.45 8.19z" fill="#000"/></svg>