<svg width="84" height="84" viewBox="0 0 84 84" fill="none" xmlns="http://www.w3.org/2000/svg">
<g clip-path="url(#clip0)">
<path d="M83.4336 41.7994C83.4336 64.8416 64.7556 83.5167 41.7168 83.5167C18.678 83.5167 0 64.8416 0 41.7994C0 18.7572 18.677 0.0809994 41.7168 0.0809994C64.7567 0.0809994 83.4336 18.7572 83.4336 41.7963" fill="#0A2A79"/>
<path d="M56.962 38.502H52.6847V40.4109L56.962 40.4057V42.9866H52.6847V45.1046H56.962V48.6595H48.2383V35.0451H56.962V38.502Z" fill="white"/>
<path d="M64.5452 44.9274C64.5452 44.9388 66.2489 41.4375 66.2489 41.4375C66.2489 41.4375 67.9197 44.9418 67.9197 44.9274H64.5452ZM66.2489 33.9248C63.4908 38.7938 58.0602 48.6637 58.0602 48.6637H62.7137L63.4671 47.1815H69.0246L69.7574 48.6637H74.4428L66.2489 33.9248Z" fill="white"/>
<path d="M39.7107 41.1468L42.7646 35.0451H47.5058C47.5233 35.0451 39.7076 49.6737 39.7076 49.6737L31.9229 35.0451H36.6712C36.6712 35.0451 39.4675 40.7211 39.7107 41.1468Z" fill="white"/>
<path d="M31.1953 48.6595H26.7438V35.0451C26.7438 35.0451 31.1953 35.0616 31.1953 35.0451V48.6595Z" fill="white"/>
<path d="M18.2721 40.3129V35.044H22.7226V49.6737L15.4955 43.3854V48.6595H11.0388V34.0144L18.2721 40.3129Z" fill="white"/>
</g>
<defs>
<clipPath id="clip0">
<rect y="0.0849609" width="83.4326" height="83.4326" fill="white"/>
</clipPath>
</defs>
</svg>
