<svg width="168" height="45" viewBox="0 0 168 45" fill="none" xmlns="http://www.w3.org/2000/svg"><g clip-path="url(#clip0)" fill-rule="evenodd" clip-rule="evenodd" fill="#316596"><path d="M148.254 13.28a1.474 1.474 0 00-.413-1.03 1.402 1.402 0 00-1.006-.427h-2.11c-.379 0-.742.153-1.01.427a1.472 1.472 0 00-.418 1.03v22.518c0 .388.15.76.418 1.034.267.275.63.43 1.01.433h2.11a1.406 1.406 0 001.007-.434 1.463 1.463 0 00.412-1.033V13.28zm2.694.623v1.073a.807.807 0 00.232.567.772.772 0 00.558.23h14.538c.319 0 .625-.13.851-.36.225-.23.352-.542.352-.868v-1.833a1.195 1.195 0 00-.341-.88 1.145 1.145 0 00-.862-.348l-14.511 1.503a.894.894 0 00-.584.296.928.928 0 00-.233.62zm-11.791 23.362a5.618 5.618 0 01-2.265-.399 5.7 5.7 0 01-1.928-1.277 5.839 5.839 0 01-1.281-1.948 5.938 5.938 0 01-.425-2.306v-9.01h-1.033a.997.997 0 01-.708-.296 1.042 1.042 0 01-.298-.72v-1.513c.003-.27.11-.529.298-.72a.997.997 0 01.708-.297h1.033V13.28a1.414 1.414 0 01.858-1.315 1.36 1.36 0 01.534-.105h2.056c.368.002.719.153.978.419s.405.626.405 1.001v5.5h3.215c.264 0 .517.106.704.297.187.19.292.45.292.72v1.512c0 .27-.105.528-.292.719a.986.986 0 01-.704.298h-3.215v8.33a2.6 2.6 0 00.147 1.086c.125.347.323.662.579.923a2.463 2.463 0 001.968.741h.35c.287 0 .562.116.765.322.204.206.319.486.321.778v1.64c0 .295-.114.577-.318.785-.204.208-.48.325-.768.325l-1.976.009zm-33.943-19.137c-5.854 0-9.14 4.684-9.14 9.605 0 5.252 3.52 9.88 9.176 9.88 3.871 0 7.696-2.09 8.414-5.499a.933.933 0 00-.188-.725.907.907 0 00-.656-.338h-2.766a1.359 1.359 0 00-.659.157 1.396 1.396 0 00-.508.457 4.115 4.115 0 01-1.592 1.417 4.014 4.014 0 01-2.072.416 4.185 4.185 0 01-2.923-1.192 4.36 4.36 0 01-1.306-2.923h11.772a1.395 1.395 0 001.175-.416 1.457 1.457 0 00.388-1.206c0-4.803-2.784-9.605-9.115-9.605v-.028zm0 3.859a4.081 4.081 0 012.797 1.006 4.24 4.24 0 011.415 2.66h-8.396a4.213 4.213 0 011.399-2.658 4.05 4.05 0 012.785-1.008zm53.672-3.859c-5.855 0-9.142 4.684-9.142 9.605 0 5.252 3.52 9.88 9.178 9.88 3.87 0 7.686-2.09 8.414-5.499a.933.933 0 00-.189-.725.903.903 0 00-.656-.338h-2.765a1.363 1.363 0 00-.66.157 1.396 1.396 0 00-.508.457 4.105 4.105 0 01-1.591 1.417 4.016 4.016 0 01-2.072.416 4.182 4.182 0 01-2.923-1.192 4.356 4.356 0 01-1.307-2.923h11.764a1.375 1.375 0 001.181-.412 1.454 1.454 0 00.39-1.21c0-4.803-2.784-9.605-9.114-9.605v-.028zm0 3.859a4.079 4.079 0 012.796 1.006 4.24 4.24 0 011.415 2.66h-8.396a4.218 4.218 0 011.399-2.658 4.055 4.055 0 012.786-1.008z"/><path d="M129.298 12.07H91.17a1.536 1.536 0 00-1.108.47 1.597 1.597 0 00-.454 1.134l.126 15.278s-8.208-15.14-8.639-15.91a2.82 2.82 0 00-1.048-1.044 2.75 2.75 0 00-1.421-.358h-3.134a1.556 1.556 0 00-1.106.473c-.292.3-.457.707-.457 1.13v22.418c0 .423.165.828.458 1.127.293.3.69.468 1.105.468h2.011c.417 0 .817-.17 1.111-.47.295-.3.46-.709.46-1.134l-.125-15.709s8.288 15.296 8.647 15.901c.246.441.605.806 1.039 1.054.433.249.925.372 1.422.358h2.882a1.556 1.556 0 001.106-.473c.292-.3.457-.708.457-1.131V15.874h34.796c.275-.003.54-.113.737-.31.198-.196.313-.463.322-.744v-1.622a1.115 1.115 0 00-.316-.775 1.063 1.063 0 00-.761-.316l.018-.037z"/><path d="M123.174 21.803c1.661 0 2.9.614 3.34 1.668.216.514.629.614 1.203.614h2.281a.819.819 0 00.57-.25.854.854 0 00.238-.584c0-2.703-3.161-5.123-7.632-5.123-4.634 0-7.669 2.255-7.669 5.838 0 2.75 2.119 4.381 4.732 5.078 1.186.311 3.224.825 4.212 1.09.988.266 2.02.624 2.02 1.55 0 1.475-1.526 1.979-3.179 1.979-1.652 0-3.142-.724-3.591-1.833-.261-.66-.71-.752-1.401-.752h-2.326a.889.889 0 00-.635.269.928.928 0 00-.263.648v.238c0 2.621 3.439 5.362 8.18 5.362 3.368 0 8.082-1.43 8.082-6.03 0-2.677-1.742-4.52-4.597-5.262l-4.365-1.136c-1.041-.275-2.002-.614-2.002-1.521 0-1.375 1.239-1.833 2.793-1.833l.009-.01zM38.765 6.892a.753.753 0 00.424-.131.793.793 0 00.116-1.199.758.758 0 00-.832-.169.766.766 0 00-.343.287.79.79 0 00.095.984.756.756 0 00.54.228zm-10.3-1.384a.637.637 0 00.363-.107.673.673 0 00.104-1.019.643.643 0 00-.71-.142.65.65 0 00-.289.247.67.67 0 00-.105.37.661.661 0 00.187.46.637.637 0 00.45.191zm-7.659 16.048l-.315-.34a7.34 7.34 0 001.95-2.923c.134-.724 1.149-.605.96.174-.252 1.009-1.455 2.218-2.595 3.089zM14.269 5.783c-1.607.715-1.85 2.392-.718 3.4a2.002 2.002 0 002.254.309c.363-.183.665-.472.866-.83.201-.36.294-.771.265-1.183.391.004.779-.078 1.136-.242.357-.163.675-.405.931-.706a2.78 2.78 0 00.627-2.223 1.85 1.85 0 00.462-.646 1.865 1.865 0 00-.045-1.56c-.12-.24-.29-.451-.498-.617a1.69 1.69 0 00-1.561-.291 1.717 1.717 0 00-.702.426 1.75 1.75 0 00-.43.708 2.45 2.45 0 00-1.267.172c-.4.168-.751.44-1.017.789a2.598 2.598 0 00-.357 2.495l-.781-.34a2.8 2.8 0 01.3-2.875 2.698 2.698 0 011.187-.89c.468-.179.977-.22 1.467-.12a2.69 2.69 0 01.677-.915c.288-.251.625-.436.99-.542a2.58 2.58 0 012.168.338c.347.215.637.514.845.87a2.576 2.576 0 01-.639 3.328 2.67 2.67 0 01-.362 2.668 2.57 2.57 0 01-1.111.816 2.52 2.52 0 01-1.364.117c-.252 2.695-2.694 3.043-4.347 1.77a4.301 4.301 0 01-1.418-2.521 4.05 4.05 0 00-.898-2.291 2.422 2.422 0 00-1.617-.605c.016-.498-.09-.99-.309-1.436a2.98 2.98 0 00-.94-1.113 2.882 2.882 0 00-2.773-.33 1.587 1.587 0 00-1.925-.35 1.624 1.624 0 00-.536.452 1.573 1.573 0 00-.271 1.36 1.55 1.55 0 00.9 1.041c-.072 1.778 1.266 2.914 3.205 2.75.1.497.347.951.709 1.3.361.35.82.577 1.312.652v.476a2.161 2.161 0 00-1.228.213c-.381.19-.7.489-.918.86-2.29-.11-3.889.916-3.826 2.602a1.67 1.67 0 00-.868.367 1.75 1.75 0 00-.129 2.575c.188.203.423.355.684.44a1.594 1.594 0 001.537-.303c.21-.179.373-.409.473-.668a2.534 2.534 0 002.045-.416c.294-.21.542-.48.728-.794a2.67 2.67 0 00.352-1.027 2.06 2.06 0 001.66-.462c.229-.192.415-.431.547-.703a2.18 2.18 0 00.218-.87l.566.047c.17 1.53-.521 2.978-2.326 2.813-.011.408-.12.806-.317 1.16a2.472 2.472 0 01-.813.873 2.409 2.409 0 01-2.282.185 2.421 2.421 0 01-.73.933 2.334 2.334 0 01-2.242.35 2.378 2.378 0 01-.97-.669 2.526 2.526 0 01-.697-1.106 2.57 2.57 0 01-.055-1.314c.096-.436.303-.837.601-1.164a2.463 2.463 0 011.093-.696c.045-1.787 1.338-3.492 3.862-2.832.096-.23.249-.429.444-.578.196-.15.426-.244.669-.274a1.448 1.448 0 01-.657-.39 1.493 1.493 0 01-.376-.673 2.553 2.553 0 01-1.284-.055 2.595 2.595 0 01-1.102-.675 2.67 2.67 0 01-.651-1.13 2.71 2.71 0 01-.043-1.311 2.291 2.291 0 01-.87-.633 2.384 2.384 0 01-.029-3.033c.223-.275.499-.499.81-.658A2.439 2.439 0 015.443.88a2.972 2.972 0 013.18-.015c.48.3.867.731 1.118 1.244a3.13 3.13 0 01.309 1.658c.343-.02.687.042 1.004.179.317.137.6.346.826.611a2.356 2.356 0 01.514 1.96 1.48 1.48 0 01.415-.699c.2-.188.448-.314.716-.365l.78.34-.035-.01z"/><path d="M18.112 2.667l.386.275a13.287 13.287 0 01-3.152 4.18l-.422-.33a27.012 27.012 0 013.188-4.125zm-10.946 8.67l.251.394a16.78 16.78 0 01-3.592 2.75l-.359-.395a13.049 13.049 0 013.655-2.749h.045zm2.209-4.692l-.44.568a24.21 24.21 0 01-4.149-3.785l.377-.394a20.446 20.446 0 014.212 3.61zM7.13 27.357a4.1 4.1 0 00.646 2.264 33.792 33.792 0 002.317 2.75 25.601 25.601 0 01-5.316 1.686 3.326 3.326 0 00-1.06.486 5.305 5.305 0 00-.53 1.833c-.05.585-.068 1.172-.053 1.76a9.527 9.527 0 00.898 3.4 4.034 4.034 0 001.877 1.988c.29-.09.594-.13.898-.119a3.406 3.406 0 011.539.335c.48.23.904.57 1.235.994.171.248.512.294.97.294a9.622 9.622 0 003.296-.78c.233-.192.898-.641 1.544-1.163.647-.523 4.266-3.666 5.864-4.446a7.96 7.96 0 003.655 1.073c.217.002.433-.02.646-.064.45-.101 1.015-.312 1.742-.45a24.43 24.43 0 013.233-.476c1.194 0 4.66.11 5.486.11.826 0 2.102-.073 2.569-.128a31.013 31.013 0 003.897-1.43c1.889-1 3.678-2.185 5.343-3.538a4.87 4.87 0 00.664-.733c.063-.083.09-.12.09-.192v-2.337s.772-.917 1.078-1.183a.16.16 0 000-.1 13.091 13.091 0 01-.198-3.29l-.79-.377a8.371 8.371 0 01-1.258 4.226c-1.176.192-3.412.916-4.22 1.832l.44.129a5.007 5.007 0 012.497-.733c.817 0 1.185.229 1.185.458a2.794 2.794 0 01-.216.687 1.65 1.65 0 01-.26.477 15.164 15.164 0 01-3.88 3.134 15.09 15.09 0 01-3.52 1.42c-.448.138-1.077.321-1.481.468-.566 0-3.592-.11-5.307-.11-2.172.01-4.34.197-6.483.56-.521.128-.647.338-1.257.338a9.163 9.163 0 01-3.512-1.026c-.27.1-.534.216-.79.348-.637.33-2.074 2.365-2.91 1.75-.421.917-2.262 1.733-2.89 2.659.071-.486.817-3.666.898-4.253a.394.394 0 00-.045-.312c-.674-1.145-2.542-1.833-3.592-2.08l-.674-.156-1.67-.513-1.544.513 1.795.348-2.271 1.53c.395-.155 2.837-.842 3.017-.916.248-.084.515-.084.763 0 .332.12 1.275.34 1.796.541a2.48 2.48 0 011.006 1.063c.085.348.124.705.116 1.063 0 .47-.058.938-.17 1.393a9.423 9.423 0 01-.898 2.347c-.18.334-.474.589-.826.715-.563.265-1.176.4-1.796.394-.467 0-.772 0-.97-.284a3.96 3.96 0 00-1.675-1.193 3.885 3.885 0 00-2.034-.182 5.392 5.392 0 01-1.376-1.798 5.499 5.499 0 01-.527-2.216c.092-1.051.325-2.084.691-3.07a30.249 30.249 0 006.196-2.127c.664-.165 1.34-.279 2.02-.34 2.048 0 4.068 1.834 5.299 3.053a1.68 1.68 0 01.683-.672c.287-.152.611-.214.933-.18 1.445 0 2.272 1.347 2.694 2.749l.754-.559a4.404 4.404 0 00-1.14-2.273 3.482 3.482 0 00-2.191-.916c-.45 0-.898.1-1.204.1a3.39 3.39 0 01-2.218-1.008 7.37 7.37 0 00-3.439-1.42c-.71 0-1.024.284-1.598.284a1.697 1.697 0 01-.918-.229c-.28-.162-.509-.4-.663-.688-.18-.22-1.041-1.008-1.275-1.32a6.028 6.028 0 01-.458-1.292l-1.167-.861v-.019z"/><path d="M8.297 28.219c.246.292.513.565.8.816.33.232.675.444 1.032.632a8.777 8.777 0 001.634.806 6.38 6.38 0 001.733.211 6.331 6.331 0 012.694.22c.557.266.602.871 1.042 1.054 1.215.267 2.457.38 3.7.34a27.31 27.31 0 005.764-.606l-.655-.742a47.04 47.04 0 01-4.957.458c-1.796 0-3.457-.293-3.457-1.045.054-.379.25-.723.545-.958a1.43 1.43 0 011.044-.306c1.072.114 2.123.376 3.125.779a.724.724 0 00.638 0l.655-.349a19.87 19.87 0 00-4.947-1.475 1.128 1.128 0 00-.616.09c-.194.088-.36.228-.48.405-.404.54-1.49 1.017-3.215 1.017a11.033 11.033 0 01-2.595-.293 14.11 14.11 0 01-2.19-1.302 7.775 7.775 0 01-2.075-2.108 1.367 1.367 0 01-.216-.76c.01-.189.037-.376.081-.56.152.21.327.4.521.569a7.263 7.263 0 003.592 1.833c.371.086.75.132 1.131.137a2.329 2.329 0 001.482-.632l-.485-.632a3.47 3.47 0 01-.781.055c-2.003 0-4.553-1.338-5.145-2.887-.054-.156-.126-.239-.063-.385.077-.233.134-.472.17-.715.197.21.42.392.665.54.745.496 2.173 1.174 2.451 1.348a8.416 8.416 0 001.68-.687 3.612 3.612 0 011.652-.413c1.472 0 3.152.852 4.74 1.65l1.078-.44c-1.4-1.008-4.49-2.42-6.16-2.42-1.005 0-1.948.752-2.622.752-.826 0-3.187-1.173-3.187-2.154 0-.751 1.535-1.182 3.986-1.485a28.79 28.79 0 00-1.203 1.98l.629.358a42.344 42.344 0 0111.215-11.64 4.387 4.387 0 001.931-2.181c1.05-2.182 2.03-3.85 3.745-3.85.37.013.733.11 1.062.287.328.176.612.426.832.73l1.24.386-1.249.861 1.275.523a7.921 7.921 0 00-2.927 1.748 8.124 8.124 0 00-1.949 2.834c-1.796.1-2.649 1.576-3.232 2.805-.395.834-1.015 1.164-1.93 1.833l-7.283 5.187.996.146 6.735-4.582a6.264 6.264 0 002.281-2.236c.62-1.274 1.293-2.218 2.613-2.218a2.764 2.764 0 011.904.816l1.185.394-1.293.806 1.078.678c-3.09.981-5.002 3.245-6.116 7.561l.817.193c.332-1.37.852-2.684 1.545-3.904 1.796 0 3.592-.083 5.388-.083 4.75 0 8.683.202 10.775.843l-.745-1.338a63.094 63.094 0 00-10.066-.595c-1.5 0-3.026.055-4.544.073a10.15 10.15 0 014.553-2.63l-1.536-.862 1.706-.916-2.325-.917a3.63 3.63 0 00-1.545-.916c.737-2.338 3.278-3.666 5.711-4.647l-1.706-.706 1.715-.916-2.64-.862a2.871 2.871 0 00-1.045-.9 2.808 2.808 0 00-1.334-.3c-2.452 0-3.484 2.172-4.49 4.096a4.293 4.293 0 01-1.706 2.026 38.51 38.51 0 00-6.591 5.655 19.118 19.118 0 01-4.31-4.876c-.215.328-.39.682-.521 1.054.251.275 3.133 3.244 4.211 4.509l-.242.275a24.89 24.89 0 01-5.128.385l-.565 1.026c.754-.073 3.7-.43 4.93-.504a25.22 25.22 0 00-1.096 1.42c-3.79.44-6.33 1.238-6.33 2.668 0 .238.098.504.098.76.015.226-.038.45-.152.644a1.085 1.085 0 01-.486.438c-.278.174-.296.293-.18.467.279.378.514.787.701 1.22 0 .293-.278.577-.503.833-.224.257-.188.284 0 .569l1.105 2.382 1.167.862.036-.11zM55.306 14.93a5.13 5.13 0 00-.638.834l-.61-.917c2.038-2.75 7.434-4.078 10.595-4.307V9.046c-.404.128-.835.275-1.23.366a5.745 5.745 0 01-1.535.257 1.182 1.182 0 01-.961-.43c-.431-.615 0-1.55 1.356-2.43l-1.096-.916a21.166 21.166 0 01-2.532 3.089c-.763.669-1.572 1.008-2.227.513-.35-.266-.485-.394-.52-1.09a10.397 10.397 0 011.203-3.603l-1.303-.155a10.78 10.78 0 01-1.536 3.99 10.549 10.549 0 01-2.953 3.048l-.719-.724a8.62 8.62 0 002.757-2.603 9.287 9.287 0 001.607-4.674l3.754.358a12.556 12.556 0 00-1.724 3.363c-.18.587-.17 1.054 0 1.21.404.303 1.095-.174 1.796-.916a31.958 31.958 0 002.298-3.19l2.694 2.3c-1.203.651-2.38 1.394-2.146 1.834.234.44.988.265 1.796 0a9.43 9.43 0 002.02-.917v3.749c-1.921.032-3.828.34-5.666.916.512.733 1.967.999 2.892 1.127l-.458 3.043a16.59 16.59 0 00-6.968-1.64l.898-.825a13.46 13.46 0 015.387 1.274l.171-1.146a5.29 5.29 0 01-2.981-1.466c-.902.334-1.759.784-2.55 1.338l-.898.825.027.009z"/><path d="M44.153 24.58l.898-1.915a34.44 34.44 0 01-2.802-3.904l-.745-1.338c-1.742-3.364-1.114-4.977-2.038-6.416-.764-1.228-4.49-.458-5.11-.33l1.078-1.833-2.12.174 1.796-2.18c.243-.4.41-.841.494-1.302.221-.93.755-1.75 1.508-2.32a3.948 3.948 0 012.614-.796c3.152 0 4.122 2.602 5.495 3.73a78.437 78.437 0 015.388 4.875l.719.724a30.98 30.98 0 012.756 3.172l.611.916c3.79 5.646 8.495 16.433 10.578 21.373.198.476.341.916.467 1.329a55.327 55.327 0 01-4.57-2.915l-.899-.669a54.692 54.692 0 01-1.742-1.32l-.96-.77c-.575-.467-1.14-.916-1.707-1.447l1.895 11.254c.144.67.692.56 1.14 0 .45-.559.62-.742.45-1.512l-1.797-8.248.961.77 1.706 7.02c.162.641.431.834 1.15.87.718.037.898-.256.727-.742l-1.84-5.829.897.67 1.742 5.242c.45 1.338 0 1.493-.79 1.493s-1.49-.192-1.93.092a16.74 16.74 0 00-1.653 1.65c-.574.595-1.41.44-1.58-.679l-2.092-12.931a46.947 46.947 0 01-3.817-3.904c-.512-.22-1.086-.495-1.598-.734l-.79-.375a5.458 5.458 0 00-.566-.248 17.232 17.232 0 01-1.796 2.062 1.412 1.412 0 01-1.087.476.953.953 0 01-.53-.11 1.892 1.892 0 01-.583-.65c-.153-.238-.377-.54-.575-.916a59.176 59.176 0 01-1.266-2.32c-.368-.714-.835-1.41-.898-1.511a1.585 1.585 0 00-.305-.349 3.624 3.624 0 00-.377 1.467l-.79-.266c.109-.526.253-1.043.43-1.549a.759.759 0 00-.18-.43.733.733 0 00-.394-.239c-.36 0-.727.403-.898 1.173l-.8.358c.1-1.247.513-2.603 1.716-2.603.434.045.85.203 1.207.46.358.257.644.604.831 1.006a98.482 98.482 0 002.308 3.235l.602.78c.075.329.212.64.404.916.215.33.44.311.754 0 .144-.128.602-.513 1.05-.99.336-.354.637-.74.899-1.155l1.93.917a49.862 49.862 0 01-6.743-10.87c-.494-1.219.458-1.631.898-.421a50.588 50.588 0 007.66 12.07c3.106 3.5 8.808 8.569 12.508 10.595-.53-1.064-1.248-2.603-2.066-4.381a31.631 31.631 0 01-11.188-11.493l.898.11c1.975 3.574 6.699 8.33 9.491 9.715-2.55-5.5-5.872-12.529-8.459-15.535a82.079 82.079 0 00-8.404-8.13c-1.653-1.484-2.335-3.345-4.706-3.345a3.46 3.46 0 00-2.202.832 3.589 3.589 0 00-1.192 2.065c-.06.272-.169.53-.323.76l-.898 1.137 2.002-.248-1.158 1.65s3.143-.715 4.247.806c1.105 1.522.413 3.483 2.362 7.076a30.22 30.22 0 003.592 5.031l-1.356 2.906-.602-.78.063-.008zm-30.908.505l-.476-.34a5.96 5.96 0 011.311-.797 2.09 2.09 0 01.79-.174 3.071 3.071 0 011.446.467 5.397 5.397 0 002.11.844c.234 0 .458-.055.719-.055.601 0 1.185.274 1.517.274.198 0 .332-.183.467-.375a3.01 3.01 0 011.374-1.1 5.616 5.616 0 012.218-.376 7.874 7.874 0 011.59.165s-.495.605-.62.742a7.927 7.927 0 00-2.694.303.899.899 0 00-.49.34.929.929 0 00-.175.576c0 .605.656.834 1.392 1.064.433.12.88.176 1.33.165a14.701 14.701 0 002.424-.404c1.158-.265 2.227-.568 2.54-.687l.423.76c-1.25.448-2.524.821-3.816 1.119-.636.138-1.282.214-1.931.229a7.198 7.198 0 01-2.918-.843 5.185 5.185 0 00-1.976-.715 3.744 3.744 0 00-1.895.596 14.48 14.48 0 01-2.002 1.127 4.412 4.412 0 01-1.742.385 1.768 1.768 0 01-1.176-.303l.96-.605a.75.75 0 00.485.147 1.6 1.6 0 00.692-.183c.25-.118.49-.256.718-.413.233-.154.452-.329.655-.522a.506.506 0 00.277-.458.521.521 0 00-.276-.459 4.121 4.121 0 00-.593-.467 1.888 1.888 0 00-1.185-.403 3.17 3.17 0 00-1.491.348l.018.028z"/><path d="M26.732 25.47a7.577 7.577 0 00-.78-.175 5.586 5.586 0 011.301-1.264 5.18 5.18 0 012.856-.917c.332 0 1.023-.091 1.41-.073a9.96 9.96 0 011.472.146c.386.074.736.175 1.033.22.343.037.69.037 1.032 0a9.275 9.275 0 002.497-.797l.224.861a8.701 8.701 0 01-3.762 1.22c-.629 0-1.293-.046-1.913-.11-1.095-.11-2.038-.257-2.361-.257a5.058 5.058 0 00-3.009 1.155v-.01zm-.88 4.811l-1.122-.522a21.538 21.538 0 014.903-1.77 20.65 20.65 0 002.694-.494c.296.76.898 1.567 1.706 1.567.457-.082.9-.237 1.31-.458l1.429-.67 2.218-1.007a40.948 40.948 0 001.302-.623l.592.32a13.52 13.52 0 01-.799 2.457 2.97 2.97 0 01-.404.65c-.36.404-.763.764-1.203 1.072-.584.431-1.302.862-2.066 1.311-.583.348-1.185.697-1.795.98l-.315-.577c.93-.559 1.83-1.171 2.694-1.833.395-.302.772-.605 1.042-.852.162-.147.307-.313.43-.495a9.95 9.95 0 00.773-1.448c-.35.174-1.661.806-2.245 1.118-.584.312-1.742.917-2.344 1.21-.373.2-.782.318-1.203.348a1.267 1.267 0 01-.682-.225 1.306 1.306 0 01-.458-.563c-.422-.779-.898-.843-2.075-.861a8.47 8.47 0 00-4.436 1.374l.054-.009z"/><path d="M32.38 26.734s-.161-.678-.233-.916c.143-.043.291-.065.44-.064.422 0 1.455.119 1.877.119.487.054.98.001 1.445-.157a3.381 3.381 0 001.249-.76 2.39 2.39 0 011.912-.669 6.574 6.574 0 012.389.55l-.072.917a3.623 3.623 0 00-1.688-.45 2.362 2.362 0 00-1.015.165 4.86 4.86 0 00-.718.605 4.098 4.098 0 01-1.185.66 5.721 5.721 0 01-2.084.321 11.803 11.803 0 01-2.299-.257l-.017-.064zm-10.191 6.755l.745-.321a7.322 7.322 0 002.344.577c.36-.013.712-.107 1.032-.275.216-.1 2.694-1.338 3.915-1.833a3.61 3.61 0 01.98-.22c.296 0 .314.129.394.266.234.385 2.057 3.043 2.236 3.245a10.586 10.586 0 004.032-2.053c.952-.917 1.742-2.026 2.505-2.86.246-.28.53-.52.845-.715.79-.43 3.25-.467 4.283-.421l-.61.916c-1.797 0-2.847.193-3.305.55-.285.24-.541.515-.764.816-.62.834-1.302 1.961-1.571 2.19.584.46 1.3.709 2.038.706 1.237-.08 2.4-.63 3.26-1.54l.52.312a5.386 5.386 0 01-3.25 2.254l-3.331-.669c-1.706.706-4.49 1.833-5.388 2.145-.207.05-.417.083-.629.1h-2.694a12.138 12.138 0 01-1.598-.063l-.826-.871a7.31 7.31 0 001.688.183 11.11 11.11 0 002.981-.366c.288-.074.333-.239.243-.504a3.6 3.6 0 00-.728-1.247 5.956 5.956 0 00-.817-.751c-.215-.156-.43-.193-1.041 0-.61.192-2.308 1.154-3.053 1.567a1.61 1.61 0 01-1.33.1 15.838 15.838 0 01-3.08-1.218h-.026zm4.84-19.759a.622.622 0 00.444-.189.648.648 0 00.184-.453.651.651 0 00-.18-.46.627.627 0 00-.448-.191.631.631 0 00-.451.19.658.658 0 000 .917.627.627 0 00.45.185z"/></g><defs><clipPath id="clip0"><path fill="#fff" d="M0 0h168v45H0z"/></clipPath></defs></svg>