<svg width="165" height="54" viewBox="0 0 165 54" fill="none" xmlns="http://www.w3.org/2000/svg"><path d="M31.868 43.53c1.798 5.938 7.353 9.994 15.802 9.994h77.748c3.747 0 8.871.796 16.861-5.555 14.903-11.924 16.299-32.082 14.781-37.73-1.367-5.124-5.564-8.871-10.988-8.871H63.735c-4.103 0-8.552-.206-16.29 6.622-6.557 5.752-10.088 12.534-14.125 22.247.87-4.936-2.886-9.779-2.886-9.779A11.447 11.447 0 0022.67.6c-6.313 0-11.905 4.917-11.905 11.24a11.4 11.4 0 00.618 3.747s-4.169-2.641-5.48-3.297c-1.312-.656-3.616-1.208-4.684.225a5.695 5.695 0 000 6.023c1.209 1.976 5.162 7.784 8.993 9.873 0 0-.44 4.927 2.632 6.791 0 0-.112 3.4 1.32 4.271 0 0 .216 1.658.938 2.09v3.512s-4.169 3.503-2.09 6.557c2.08 3.054 7.017 1.536 8.01.871 0 0 7.016 1.977 8.43-1.096 1.415-3.072.215-5.255-1.424-6.35v-2.97l3.822 1.442h.019z" fill="#fff"/><path d="M48.11 48.99c-11.184 0-13.864-7.269-9.433-18.416 3.4-8.552 6.473-14.369 12.065-19.296 6.398-5.62 10.08-5.48 13.48-5.48h79.808c4.505 0 8.889 2.95 9.105 7.344.215 4.393-2.239 21.376-14.585 31.24-6.557 5.264-10.856 4.608-13.929 4.608H48.11z" fill="#EAA94D"/><path d="M48.11 50.086a17.687 17.687 0 01-6.51-1.077 9.124 9.124 0 01-4.562-3.681 10.735 10.735 0 01-1.489-5.789 26.05 26.05 0 012.117-9.367 75.706 75.706 0 015.274-11.166 35.314 35.314 0 017.072-8.552c6.557-5.761 10.398-5.752 13.91-5.752h80.183a12.38 12.38 0 012.061.197c.673.13 1.334.315 1.977.553 3.325 1.264 5.91 4.018 6.098 7.634v.056a21.28 21.28 0 01-.103 2.707 39.845 39.845 0 01-.544 3.813c-1.377 7.306-5.255 18.294-14.35 25.563-6.258 5.011-10.557 4.927-13.714 4.861H48.11zm-5.704-3.11c1.826.668 3.76.985 5.704.937h77.448c2.81.056 6.67.131 12.309-4.384 8.58-6.856 12.243-17.3 13.563-24.26.253-1.359.422-2.586.516-3.607.085-.803.116-1.61.093-2.417v-.056c-.14-2.66-2.126-4.684-4.683-5.686a9.386 9.386 0 00-1.593-.45 10.06 10.06 0 00-1.667-.168H63.932c-3.12 0-6.558 0-12.468 5.208a33.47 33.47 0 00-6.65 8.075c-2 3.47-3.714 7.098-5.125 10.847a23.8 23.8 0 00-1.957 8.561 8.712 8.712 0 001.152 4.637 7.054 7.054 0 003.512 2.81l.01-.047z" fill="#201600"/><path d="M44.598 40.663h27.165c3.072 0 10.519-2.37 11.287-8.768.337-2.754-2.248-4.945-3.747-5.489 0 0 9.705-1.208 9.705-8.43 0-3.344-3.616-4.993-6.36-4.993H58.47l-13.873 27.69v-.01zm20.73-17.6l3.887-5.752h5.48c.768 0 2.903.103 2.81 2.35-.094 2.249-4 3.401-5.311 3.401h-6.867zm-8.778 12.55l5.152-7.784h6.904c1.32 0 2.52.993 1.976 3.457-.543 2.463-4.552 4.327-5.751 4.327h-8.28zm26.885 5.05H96.38l7.785-21.441h-7.953l-12.777 21.44zm19.37-22.041c2.201-.29 3.803-1.995 3.569-3.812-.234-1.818-2.22-3.054-4.431-2.764-2.21.29-3.793 1.986-3.56 3.803.235 1.818 2.221 3.054 4.422 2.81v-.037zm29.226 6.575h5.621l11.137-11.952h-11.437l-1.152 2.089s-2.033-3.016-9.264-3.016c-7.232 0-17.798 4.112-20.29 13.535-2.491 9.423 4.178 15.25 12.833 15.25 8.656 0 13.817-2.53 18.088-7.353l-3.344-3.176s-4.683 7.241-13.535 5.152c-3.794-.937-3.747-8.665 1.199-13.816 4.945-5.152 8.28-4.544 9.432-3.888 1.153.656 3.232 1.977.712 7.175zM14.341 12.486a7.897 7.897 0 117.897 7.888 7.888 7.888 0 01-7.896-7.887z" fill="#201600"/><path d="M16.918 10.95a2.81 2.81 0 115.62 0 2.81 2.81 0 01-5.62 0z" fill="#fff"/><path d="M3.485 16.57c.75 3.392 4.628 6.886 7.57 9.096.215.169.711.74.599-.271 0 0 0-.497.384-.113s16.86 13.114 17.6 13.648c.37.27.773.49 1.2.656.571.262.992.543 1.283.665.534.187.665.075.393-.356l-.74-1.208a4.685 4.685 0 00-.936-1.18L15.41 24.045S5.162 15.053 4.666 14.51c-.497-.543-.768-.768-.937-.131a9.798 9.798 0 00-.31 2.192h.066z" fill="#201600"/><path d="M27.465 35.342l.73-.178c-.271-.683.328-1.142.394-1.47.15-.628.3-6.604-.188-7.728-.402-.937-3.372-4.553-3.747-4.6-.234 0-.44.29-.59.6a.934.934 0 01-1.311-.244l.094-.224c.159-.356-.141-.384-.338-.356-.196.028-.936 0-.936 0-.216 0-.281.13-.244.271-.122.29-.524.937-1.442.206-.45-.43-.797-.206-1.171-.13-.88.164-1.743.412-2.576.74-.76.365-2.333 8.195-2.436 8.964-.103.768.131.768.3.936.538.343 1.094.656 1.667.937.553.272.628.468.628.712v3.616c0 .328-.122 1.236.59 1.208.712-.028.73.403.759.6.028.196-.225 1.592.412 1.648.637.056.684.094.684.665v4.88c0 .694 0 .937-.197 1.069-1.424.824-2.81 2.641-1.995 3.044 1.124.571 3.747-1.808 4.58-1.78.44 0 .656.328 1.293.356.375 0 .656.356 1.64.796.983.44 1.798.206 1.873-.637 0-.6-.497-1.068-1.18-1.47-.684-.403-.769-.75-.769-.75a23.43 23.43 0 01.216-3.438c0-2.52.45-2.426.843-2.81.187-.159.056-1.011.056-1.367 0-.356-.084-.74.468-.74.553 0 1.096-.169 1.04-.656-.065-.628-.056-1.649.478-1.105l.421-1.555-.046-.01zm-3.56-13.01v.074c-.103.281-.6 1.49-.937 1.49-.337 0-.665-1.246-.552-1.434a3.78 3.78 0 00.206-.459 1.18 1.18 0 001.274.328h.009zm-2.417-.638c.146.251.242.528.281.815-.14 1.368-.637 1.49-.796 1.087a8.918 8.918 0 00-.684-1.424.936.936 0 001.2-.478z" fill="#201600"/><path d="M14.652 31.877c.463.304.982.514 1.527.618.524.178.44-.937.44-1.124 0-.469-.73-.806-.656-1.265.22-1.102.553-2.179.993-3.213 0-.075.131-.253.225-.253.093 0 .122.066.13.328-.205 3.588-.42 6.716-.42 10.379 0 1.143 1.011.937 1.423.937 2.323 0 4.628 0 7.091-.15.403 0 .562-.572.59-.843.075-1.743-.271-3.513-.168-5.34.065-1.133-.14-3.531.374-3.531.516 0-.346 5.311.497 6.557 2.089-.571 1.62-5.068 1.433-7.925-.084-1.17-2.36-3.915-3.4-4.796-.422.75-.937 1.602-1.377 2.333-.356.58-.937 1.611-1.368 1.611-.43 0-1.283-1.873-1.705-2.895-.187-.477-.637-1.358-1.086-1.292-.937.131-2.857.44-3.073 1.18a47.308 47.308 0 00-1.873 8.046c-.066.516.131.45.365.684l.038-.046zm7.831 6.697c.496 0 1.011.15 1.452.169.758 0 .543.768.571 1.152.028.384-.403.543-.815.543H22.54c-.328 0-.768-.13-.768-.6v-.59c0-.355.16-.674.712-.674zm-3.42.168h1.284a.459.459 0 01.458.516c0 .365.17 1.17-.936 1.17-.51.03-1.02-.06-1.49-.262-.13-.14-.112-.543-.084-.852.056-.506.468-.553.806-.572h-.038z" fill="#EAA94D"/><path d="M21.967 40.99c.383-.125.79-.163 1.19-.112.327 0 .608.244.59 1.209a13.021 13.021 0 01-.14 1.498c0 .31-.254.553-.713.581a3.513 3.513 0 01-1.04-.056c-.196-.047-.309-.244-.337-.796a15.84 15.84 0 01.066-1.874c0-.215.103-.243.384-.402v-.047zm-2.521-.083a9.422 9.422 0 011.255 0c.328.056.497.243.469 1.208-.028.965 0 1.255-.075 1.555-.075.3-.31.496-.778.524a2.81 2.81 0 01-.936-.056c-.188-.046-.3-.243-.319-.796a16.52 16.52 0 01.047-1.873c0-.216 0-.487.337-.487v-.075z" fill="#fff"/><path d="M22.407 42.087a.936.936 0 00-.178.384c0 .365.187.515.43.515.244 0 .357-.206.432-.515a.451.451 0 00-.431-.525c-.14 0-.169 0-.253.14zm-2.464.056s-.13 0-.159.403a.459.459 0 00.393.543c.132 0 .384-.252.384-.552 0-.3-.056-.544-.309-.544-.103 0-.262.15-.309.15z" fill="#201600"/><path d="M22.81 46.91c.169 0 .6-.299.6-.467v-1.19a.515.515 0 00-.525-.543h-1.106c-.177 0-.384.477-.384.655v.937c0 .31.562.58.731.58l.684.029zm-2.127-.018a.328.328 0 00.318-.319v-1.47a.318.318 0 00-.318-.31H19.68c-.515-.046-.496.44-.496.61v1.17c0 .31.506.366.684.366l.777-.047h.038zm3.42 1.246c-.215-.085-.496 0-.609-.169-.112-.169-.065-.553-.28-.656-.46-.187-1.518-.215-1.565.281-.084.937.702.722 1.34 1.068.824.44 1.63 1.2 2.454.628.187-.356-.553-.88-.937-.88a.412.412 0 01-.403-.272zm-5.078-.431c.094-.31.272-.412.628-.393.265.014.53.014.796 0 .571 0 .525.89.112 1.096-.618.318-.646.159-.936.318-.469.29-.562.6-.937.852-.375.253-1.424.666-1.64.478-.215-.187 0-.937.47-1.218a1.98 1.98 0 01.814-.318c.14-.056.328-.384.44-.384.113 0 .253-.347.272-.43h-.019z" fill="#EAA94D"/><path d="M10.857 24.851c.075.075.262 0 .328 0l.084-.122a.177.177 0 000-.262l-4.861-4.58c-.075-.075-.281 0-.356.112l.084-.103a.328.328 0 00-.056.478l4.74 4.487.037-.01z" fill="#fff"/><path d="M160.723 12.992a4.215 4.215 0 114.225-4.215 4.09 4.09 0 01-2.588 3.935 4.08 4.08 0 01-1.637.28zm0-7.446a3.24 3.24 0 00-2.131 5.434 3.24 3.24 0 002.131 1.029 3.24 3.24 0 002.178-5.466 3.24 3.24 0 00-2.178-1.007v.01zm-.703 5.498h-.936V6.501h1.695c1.171 0 1.874.337 1.874 1.368a1.07 1.07 0 01-1.096 1.19l1.161 1.985h-1.152l-1.04-1.873h-.496v1.873h-.01zm.862-2.679c.431 0 .684-.094.684-.59 0-.497-.496-.506-.862-.506h-.674v1.096h.852z" fill="#201600"/></svg>