<svg width="143" height="40" viewBox="0 0 143 40" fill="none" xmlns="http://www.w3.org/2000/svg"><path d="M123.508 2.676c-.096-.003-9.215-.003-9.299 0-1 .03-1.826.951-1.874 1.898-.05 1.006.829 2.004 1.874 2.054.096.003 9.216.003 9.299 0 1-.03 1.827-.951 1.874-1.898.05-1.007-.829-2.003-1.874-2.054zM65.43 22.39a9.301 9.301 0 01-.232-1.563c-.006-.752-.006-1.808-.006-2.78.095-3.356.725-9.26-3.851-9.26-3.09 0-4.922 2.586-5.44 3.433-.075-2.358-1.945-4.069-4.802-4.069-1.823 0-2.905 1.443-2.905 1.443s1.777.613 1.777 2.99c.02 1.702-.002 9.987 0 10.022.07 1.469 1.102 2.845 2.947 2.845s2.99-1.41 2.99-2.847v-7.35c.256-1.2.936-2.427 1.96-2.427 1.33 0 1.404 1.471 1.41 1.471l-.006 7.113c.006.232.036.454.076.672.062.359.176.707.34 1.032.71 1.433 2.277 2.367 4.385 2.367 1.821 0 2.905-1.442 2.905-1.442s-1.07-.375-1.548-1.65zm43.988 0a8.958 8.958 0 01-.231-1.563l.005-17.606c0-.822-.329-1.611-.913-2.193a3.127 3.127 0 00-4.408 0 3.09 3.09 0 00-.913 2.193l.004 15.592c.016 1.405-.123 2.84.543 4.13.706 1.434 2.448 2.539 4.553 2.539 1.827 0 2.907-1.442 2.907-1.442s-1.066-.375-1.547-1.65zM39.769 8.634c-4.677 0-8.468 3.77-8.468 8.424 0 4.653 3.79 8.424 8.468 8.424 4.677 0 8.47-3.77 8.47-8.424s-3.793-8.425-8.47-8.425v.001zm.063 13.27v.004l-.019-.002-.017.002v-.004c-1.6-.03-2.401-1.857-2.401-4.846 0-2.984 1.015-4.815 2.4-4.847h.036c1.384.033 2.4 1.863 2.4 4.847 0 2.99-.8 4.817-2.4 4.846z" fill="#472380"/><path d="M84.478 22.39a8.902 8.902 0 01-.232-1.563l.004-17.606c0-.822-.328-1.611-.912-2.193a3.125 3.125 0 00-4.409 0 3.093 3.093 0 00-.913 2.193l-.012 8.34c-.749-1.04-2.4-2.794-5.002-2.794-7.159 0-7.61 12.68-2.702 15.816 1.384.885 3.47 1.11 5.05.703 1.09-.283 2.81-1.348 3.086-2.621.04.093.081.187.129.278.706 1.434 2.448 2.539 4.553 2.539 1.827 0 2.908-1.442 2.908-1.442s-1.067-.375-1.547-1.65zm-9.29-1.025v.003l-.016-.001h-.02v-.002c-1.598-.023-2.398-1.618-2.398-4.22 0-2.602 1.014-4.195 2.399-4.224v-.003c.008 0 .012.003.02.003.005 0 .01-.003.016-.003v.003c1.387.029 2.402 1.622 2.402 4.222 0 2.603-.802 4.199-2.402 4.221v.001zm25.507-1.096s-.914 1.246-4.46 1.246c-3.547 0-4.308-2.742-4.308-2.742 5.168 0 9.503-.344 9.503-4.507 0-4.162-4.73-5.534-7.533-5.534-4.63 0-8.012 3.672-8.012 8.52 0 5.461 4.405 8.23 8.06 8.23 6.441 0 6.75-5.213 6.75-5.213zm-9.103-4.167c.182-1.329.502-3.003 1.702-3.779.998-.644 2.396.09 2.417 1.331.023 1.311-.83 2.204-2.015 2.453-.126.026-2.122.125-2.104-.005zm34.038 4.167s-.914 1.246-4.46 1.246-4.307-2.742-4.307-2.742c5.167 0 9.503-.344 9.503-4.507 0-4.162-4.73-5.534-7.533-5.534-4.631 0-8.014 3.672-8.014 8.52 0 5.461 4.405 8.23 8.062 8.23 6.441 0 6.749-5.213 6.749-5.213zm-9.102-4.167c.181-1.329.501-3.003 1.702-3.779.998-.644 2.396.09 2.417 1.331.022 1.311-.831 2.204-2.016 2.453-.126.026-2.121.125-2.103-.005zm20.797 4.617h-3.552c.261 0 2.888-2.203 3.76-2.938 2.281-1.926 6.384-4.704 5.188-8.304l.003.025c-.219-.856-.883-1.351-.883-1.351s-.248.699-1.092 1.013a5.905 5.905 0 01-1.033.166c-.283.005-9.926 0-9.926 0-1.304-.002-2.397 1.041-2.415 2.272-.015 1.241 1.017 2.236 2.338 2.255l5.625.035c-2.608 1.447-5.721 3.16-7.302 5.776-.903 1.501-1.87 3.816-1.503 5.592 1.25-1.102 4.53-2.169 7.027-1.65.935.194 1.929.668 2.737 1.171 4.682 2.914 7.496-2.785 5.257-5.297 0 0-1.276 1.235-4.229 1.235zM31.759 24.264c-2.872-3.132-3.77-8.342-3.947-11.805-.153-2.992.01-8.173 2.38-9.681-.794-.993-2.358-1.391-3.548-1.391-2.672 0-3.96 1.77-4.873 3.043-.302.42-4.795 6.586-4.795 6.586s-3.78-5.816-4.243-6.515c-.643-.964-1.845-2.736-3.958-3.042-.91-.132-3.27-.252-4.553 1.502C6.436 4.722 6.381 9.21 5.9 12.274 4.457 21.47.524 22.318.524 22.318c2.015 5.413 7.203 3.274 8.67-1.043.95-2.804 1.563-6.356 1.705-9.301l5.694 8.69s6.448-8.663 6.448-8.655c-1.061 15.32 4.227 19.663 8.853 19.663 4.629 0 6.203-4.21 6.203-4.21-2.502-.15-4.693-1.403-6.338-3.198zm14.445 4.983c.055.226.084.447.099.669 0 .068-.004 8.015 0 8.11.02.667.64 1.218 1.28 1.25.679.034 1.35-.553 1.384-1.25.003-.092 0-7.249 0-7.249-.006-.6.053-1.214-.232-1.767-.302-.614-1.048-1.087-1.948-1.087-.783 0-1.246.618-1.246.618s.457.16.663.706zm84.459 8.707a3.986 3.986 0 01-.1-.67c0-.066.005-8.014.001-8.108-.02-.669-.641-1.22-1.279-1.25-.68-.034-1.351.552-1.386 1.25-.002.09 0 7.247 0 7.247.007.6-.052 1.215.233 1.768.302.613 1.048 1.086 1.948 1.086.783 0 1.245-.617 1.245-.617s-.456-.16-.663-.706h.001zm-48.205-5.916c-1.387 0-2.206 1.16-2.438 1.538l-.008.006c0-.384-.002-.687-.002-.702-.02-.667-.64-1.166-1.279-1.197-.678-.034-1.35.5-1.384 1.197-.003.091-.003 5.074 0 5.141.02.667.64 1.218 1.28 1.249.678.033 1.35-.553 1.383-1.249.001-.052.002-1.677.001-3.078l.011-.008c.115-.538.42-1.087.88-1.087.595 0 .628.659.63.659l-.005 3.514c.02.667.64 1.218 1.28 1.249.677.033 1.35-.553 1.383-1.249l-.003-1.837c0-1.888.198-4.155-1.73-4.145zm34.05 0c-1.385 0-2.205 1.16-2.437 1.538l-.009.006v-.702c-.022-.667-.641-1.166-1.279-1.197-.679-.034-1.351.5-1.385 1.197-.002.091-.002 5.074 0 5.141.02.667.641 1.218 1.279 1.249.678.033 1.35-.553 1.384-1.249.002-.052.003-1.677.002-3.078l.011-.008c.114-.538.419-1.087.879-1.087.595 0 .628.659.63.659l-.006 3.514c.021.667.642 1.218 1.28 1.249.679.033 1.35-.553 1.384-1.249l-.004-1.837c0-1.888.199-4.155-1.729-4.145zm-61.097 0c-1.386 0-2.206 1.16-2.438 1.538l-.008.006-.001-.702c-.02-.667-.641-1.166-1.28-1.197-.678-.034-1.35.5-1.384 1.197-.002.091-.002 5.074 0 5.141.02.667.642 1.218 1.28 1.249.678.033 1.35-.553 1.384-1.249.001-.052.002-1.677.001-3.078l.011-.008c.115-.538.42-1.087.879-1.087.595 0 .629.659.631.659l-.005 3.514c.02.667.64 1.218 1.278 1.249.68.033 1.35-.553 1.385-1.249l-.004-1.837c0-1.888.198-4.155-1.73-4.145zm51.441-.332a3.814 3.814 0 00-2.683 1.104 3.78 3.78 0 00-1.111 2.669 3.768 3.768 0 002.341 3.487 3.811 3.811 0 004.134-.818 3.762 3.762 0 00.001-5.337 3.803 3.803 0 00-2.682-1.105zm.027 5.944v.002h-.015v-.002c-.718-.013-1.076-.83-1.076-2.17 0-1.338.455-2.157 1.076-2.172h.015c.621.014 1.075.834 1.075 2.171 0 1.34-.358 2.158-1.075 2.171zm-14.196-4.86c-.022-.7-.683-1.277-1.35-1.31-.712-.035-1.416.58-1.45 1.31l-.008.178c-.338-.466-1.076-1.252-2.243-1.252-3.206 0-3.41 5.681-1.21 7.087.62.395 1.556.497 2.264.314.4-.103.988-.443 1.257-.876.163.558.72.983 1.29 1.011.71.035 1.414-.579 1.45-1.31.003-.093.002-5.09 0-5.153zm-4.07 4.57v.002h-.016c-.717-.012-1.075-.727-1.075-1.893 0-1.165.454-1.878 1.075-1.892h.016c.621.014 1.076.727 1.076 1.892 0 1.166-.36 1.88-1.076 1.892zm38.093-4.57c-.02-.7-.681-1.277-1.35-1.31-.711-.035-1.415.58-1.451 1.31 0 .05-.007.158-.007.178-.336-.466-1.076-1.252-2.242-1.252-3.206 0-3.41 5.681-1.211 7.087.621.395 1.557.497 2.264.314.4-.103.989-.443 1.257-.876.164.558.72.983 1.29 1.011.711.035 1.415-.579 1.451-1.31.002-.093.001-5.09 0-5.153h-.001zm-4.069 4.57v.002h-.016c-.717-.012-1.075-.727-1.075-1.893 0-1.165.454-1.878 1.075-1.892h.016c.621.014 1.076.727 1.076 1.892 0 1.166-.36 1.88-1.076 1.892zm-20.415-3.86a1.308 1.308 0 00-1.208-1.23c-.039-.004-.075-.012-.113-.012-.593 0-1.34.51-1.34 1.155l.004 2.444h-.003c.008.763-.001 2.14 0 2.155a1.303 1.303 0 001.206 1.23c.04.005.075.011.114.011.592 0 1.34-.51 1.34-1.154l-.004-2.042h.004c-.01-.764 0-2.542 0-2.557zm-.01-3.305a1.314 1.314 0 01-1.321 1.313 1.328 1.328 0 01-.933-.385 1.313 1.313 0 01-.386-.929c0-.348.14-.682.387-.928a1.323 1.323 0 012.253.929zm-26.986 1.752c-.791.033-1.183.619-1.721 1.354-.003.006 0-.34 0-.352-.02-.668-.64-1.218-1.278-1.25-.68-.033-1.35.552-1.384 1.25v5.088h-.003c.02.667.64 1.218 1.279 1.25.672.033 1.337-.543 1.383-1.23h.006l-.001-3.224c.04-.473.247-1.063.629-1.06.54.005-.017 1.305 1.222 1.305 1.778 0 1.968-3.217-.132-3.131zm-5.433 4.968s-.41.559-2 .559c-1.591 0-1.933-1.23-1.933-1.23 2.319 0 4.263-.156 4.263-2.023 0-1.866-2.122-2.482-3.38-2.482-2.076 0-3.593 1.647-3.593 3.822 0 2.45 1.975 3.691 3.616 3.691 2.89 0 3.027-2.337 3.027-2.337zm-4.083-1.87c.08-.596.225-1.347.765-1.695.447-.289 1.073.04 1.083.596.01.59-.372.99-.904 1.101-.057.012-.953.057-.944-.002zm-2.721 2.813s-.693 1.395-1.973 1.395c-1.055 0-2.351-.926-2.405-2.265l-.013-3.553h-.357c-.187 0-.519-.111-.519-.595s.373-.587.557-.587h.316c-.001-.563-.002-.951-.001-.975.033-.695.704-1.28 1.38-1.247.638.033 1.273.581 1.293 1.247v.974h1.128c.156 0 .517.102.517.596 0 .493-.36.587-.556.587h-1.088v2.96c0 .96.83 1.46 1.725 1.462l-.004.002zm35.639 0s-.693 1.395-1.974 1.395c-1.054 0-2.35-.926-2.404-2.265l-.013-3.553h-.357c-.187 0-.518-.111-.518-.595s.372-.587.556-.587h.316c-.001-.563-.002-.951 0-.975.033-.695.704-1.28 1.38-1.247.637.033 1.272.581 1.292 1.247v.974h1.128c.156 0 .517.102.517.596 0 .493-.361.587-.556.587h-1.089v2.96c0 .96.832 1.46 1.725 1.462" fill="#472380"/></svg>