<svg width="168" height="45" viewBox="0 0 168 45" fill="none" xmlns="http://www.w3.org/2000/svg">
<g clip-path="url(#clip0)">
<path fill-rule="evenodd" clip-rule="evenodd" d="M148.254 13.28C148.255 13.0891 148.219 12.8998 148.148 12.7231C148.078 12.5463 147.973 12.3856 147.841 12.2502C147.71 12.1147 147.553 12.0072 147.38 11.9339C147.207 11.8606 147.022 11.8228 146.835 11.8228H144.725C144.346 11.8228 143.983 11.9763 143.715 12.2496C143.447 12.5229 143.297 12.8936 143.297 13.28V35.7984C143.297 36.1857 143.447 36.5573 143.715 36.832C143.982 37.1068 144.345 37.2623 144.725 37.2647H146.835C147.022 37.2635 147.208 37.2247 147.381 37.1503C147.553 37.076 147.71 36.9676 147.842 36.8315C147.974 36.6953 148.078 36.534 148.149 36.3567C148.219 36.1795 148.255 35.9897 148.254 35.7984V13.28Z" fill="#316596"/>
<path fill-rule="evenodd" clip-rule="evenodd" d="M150.948 13.9033V14.9756C150.948 15.0811 150.968 15.1855 151.008 15.2828C151.048 15.3802 151.106 15.4685 151.18 15.5427C151.253 15.6168 151.34 15.6754 151.436 15.7149C151.532 15.7544 151.635 15.7742 151.738 15.7729H166.276C166.595 15.7729 166.901 15.6435 167.127 15.4132C167.352 15.1829 167.479 14.8706 167.479 14.5448V12.7118C167.484 12.5492 167.456 12.3872 167.398 12.2359C167.339 12.0846 167.251 11.9472 167.138 11.8321C167.025 11.717 166.89 11.6268 166.742 11.5668C166.594 11.5069 166.435 11.4786 166.276 11.4837L151.765 12.9868C151.541 13.0074 151.333 13.113 151.181 13.2827C151.03 13.4524 150.947 13.6739 150.948 13.9033Z" fill="#316596"/>
<path fill-rule="evenodd" clip-rule="evenodd" d="M139.157 37.2648C138.384 37.2897 137.613 37.1541 136.892 36.8661C136.171 36.5781 135.515 36.1437 134.964 35.5893C134.412 35.0349 133.976 34.372 133.683 33.6407C133.39 32.9095 133.245 32.1251 133.258 31.3351V22.3259H132.225C131.96 22.3259 131.706 22.219 131.517 22.0285C131.329 21.838 131.222 21.5792 131.219 21.3086V19.7964C131.222 19.5257 131.329 19.267 131.517 19.0765C131.706 18.8859 131.96 18.7791 132.225 18.7791H133.258V13.2801C133.257 13.0932 133.292 12.9079 133.361 12.735C133.431 12.5621 133.533 12.405 133.663 12.2729C133.792 12.1407 133.946 12.0361 134.116 11.9652C134.285 11.8942 134.467 11.8583 134.65 11.8595H136.706C137.074 11.8619 137.425 12.0127 137.684 12.2788C137.943 12.545 138.089 12.9049 138.089 13.2801V18.7791H141.304C141.568 18.7791 141.821 18.8862 142.008 19.077C142.195 19.2678 142.3 19.5266 142.3 19.7964V21.3086C142.3 21.5784 142.195 21.8372 142.008 22.0279C141.821 22.2187 141.568 22.3259 141.304 22.3259H138.089V30.6569C138.06 31.0253 138.111 31.3956 138.236 31.7423C138.361 32.0891 138.559 32.404 138.815 32.6653C139.071 32.9266 139.379 33.1282 139.719 33.2561C140.059 33.384 140.422 33.4353 140.783 33.4064H141.133C141.42 33.4063 141.695 33.5219 141.898 33.7279C142.102 33.9339 142.217 34.2136 142.219 34.5062V36.1467C142.219 36.4408 142.105 36.7229 141.901 36.9308C141.697 37.1388 141.421 37.2557 141.133 37.2557L139.157 37.2648Z" fill="#316596"/>
<path fill-rule="evenodd" clip-rule="evenodd" d="M105.214 18.1283C99.3597 18.1283 96.0731 22.8116 96.0731 27.7332C96.0731 32.9847 99.5931 37.613 105.25 37.613C109.121 37.613 112.946 35.5234 113.664 32.114C113.685 31.9865 113.678 31.856 113.646 31.7311C113.613 31.6063 113.555 31.4898 113.476 31.3894C113.396 31.289 113.296 31.2069 113.183 31.1486C113.07 31.0903 112.947 31.057 112.82 31.0509H110.054C109.825 31.0465 109.599 31.1003 109.395 31.2075C109.191 31.3147 109.017 31.4719 108.887 31.665C108.487 32.2714 107.938 32.7599 107.295 33.0816C106.652 33.4034 105.938 33.5469 105.223 33.498C104.135 33.4992 103.088 33.0722 102.3 32.3057C101.513 31.5393 101.045 30.4925 100.994 29.3829H112.766C112.98 29.4106 113.198 29.3874 113.401 29.3152C113.605 29.243 113.79 29.1238 113.941 28.9668C114.092 28.8098 114.206 28.6192 114.273 28.41C114.341 28.2008 114.359 27.9786 114.329 27.7607C114.329 22.9582 111.545 18.1558 105.214 18.1558V18.1283ZM105.214 21.9868C106.236 21.9575 107.233 22.3161 108.011 22.9933C108.789 23.6705 109.293 24.6181 109.426 25.6528H101.03C101.157 24.6204 101.655 23.6731 102.429 22.9954C103.202 22.3177 104.195 21.9582 105.214 21.9868Z" fill="#316596"/>
<path fill-rule="evenodd" clip-rule="evenodd" d="M158.886 18.1283C153.031 18.1283 149.744 22.8116 149.744 27.7332C149.744 32.9847 153.264 37.613 158.922 37.613C162.792 37.613 166.608 35.5234 167.336 32.114C167.356 31.9865 167.35 31.856 167.317 31.7311C167.285 31.6063 167.227 31.4898 167.147 31.3894C167.067 31.289 166.968 31.2069 166.855 31.1486C166.742 31.0903 166.618 31.057 166.491 31.0509H163.726C163.497 31.0465 163.27 31.1003 163.066 31.2075C162.862 31.3147 162.688 31.4719 162.558 31.665C162.159 32.2714 161.61 32.7599 160.967 33.0816C160.324 33.4034 159.609 33.5469 158.895 33.498C157.806 33.4992 156.759 33.0722 155.972 32.3057C155.184 31.5393 154.716 30.4925 154.665 29.3829H166.429C166.643 29.4121 166.862 29.3901 167.067 29.3186C167.272 29.2471 167.458 29.1281 167.61 28.9709C167.762 28.8137 167.877 28.6226 167.944 28.4126C168.012 28.2026 168.031 27.9795 168 27.7607C168 22.9582 165.216 18.1558 158.886 18.1558V18.1283ZM158.886 21.9868C159.908 21.9575 160.904 22.3161 161.682 22.9933C162.46 23.6705 162.964 24.6181 163.097 25.6528H154.701C154.828 24.6204 155.327 23.6731 156.1 22.9954C156.874 22.3177 157.867 21.9582 158.886 21.9868Z" fill="#316596"/>
<path fill-rule="evenodd" clip-rule="evenodd" d="M129.298 12.0703H91.1702C90.9643 12.0703 90.7604 12.1118 90.5702 12.1925C90.3801 12.2733 90.2074 12.3915 90.0622 12.5406C89.917 12.6896 89.8021 12.8665 89.7241 13.0611C89.6461 13.2556 89.6066 13.464 89.6078 13.6742L89.7335 28.9522C89.7335 28.9522 81.5261 13.8116 81.0951 13.0418C80.8429 12.605 80.481 12.2448 80.047 11.9983C79.6129 11.7519 79.1223 11.628 78.6257 11.6395H75.4918C75.0766 11.642 74.6792 11.812 74.3864 12.1125C74.0937 12.413 73.9293 12.8196 73.9293 13.2434V35.6609C73.9293 36.0838 74.0939 36.4895 74.387 36.7885C74.68 37.0876 75.0774 37.2556 75.4918 37.2556H77.5032C77.92 37.2556 78.3197 37.0866 78.6144 36.7859C78.9091 36.4851 79.0747 36.0771 79.0747 35.6518L78.9489 19.943C78.9489 19.943 87.2371 35.2393 87.5963 35.8442C87.8423 36.2853 88.2012 36.6496 88.6347 36.8983C89.0681 37.1469 89.5597 37.2705 90.0567 37.2556H92.9392C93.3544 37.2532 93.7518 37.0832 94.0446 36.7826C94.3373 36.4821 94.5017 36.0755 94.5017 35.6518V15.8737H129.298C129.573 15.8715 129.838 15.7606 130.035 15.5642C130.233 15.3678 130.348 15.101 130.357 14.8198V13.1976C130.357 13.0536 130.329 12.911 130.275 12.7781C130.221 12.6452 130.141 12.5245 130.041 12.4231C129.941 12.3217 129.822 12.2416 129.691 12.1873C129.561 12.133 129.421 12.1057 129.28 12.107L129.298 12.0703Z" fill="#316596"/>
<path fill-rule="evenodd" clip-rule="evenodd" d="M123.174 21.8035C124.835 21.8035 126.074 22.4175 126.514 23.4715C126.73 23.9847 127.143 24.0855 127.717 24.0855H129.998C130.213 24.0808 130.417 23.9911 130.568 23.8355C130.718 23.6798 130.804 23.4704 130.806 23.2515C130.806 20.5479 127.645 18.1283 123.174 18.1283C118.54 18.1283 115.505 20.3829 115.505 23.9664C115.505 26.7159 117.624 28.3472 120.237 29.0438C121.423 29.3554 123.461 29.8686 124.449 30.1344C125.437 30.4002 126.469 30.7576 126.469 31.6833C126.469 33.1588 124.943 33.6629 123.29 33.6629C121.638 33.6629 120.148 32.9389 119.699 31.8299C119.438 31.1701 118.989 31.0784 118.298 31.0784H115.972C115.734 31.0784 115.505 31.175 115.337 31.3468C115.169 31.5187 115.074 31.7518 115.074 31.9949V32.2332C115.074 34.8544 118.513 37.5947 123.254 37.5947C126.622 37.5947 131.336 36.165 131.336 31.5641C131.336 28.888 129.594 27.0458 126.739 26.3035L122.374 25.167C121.333 24.8921 120.372 24.5529 120.372 23.6456C120.372 22.2709 121.611 21.8126 123.165 21.8126L123.174 21.8035Z" fill="#316596"/>
<path fill-rule="evenodd" clip-rule="evenodd" d="M38.7651 6.89209C38.9161 6.89209 39.0636 6.8464 39.1892 6.7608C39.3147 6.6752 39.4125 6.55354 39.4703 6.41119C39.5281 6.26884 39.5432 6.11219 39.5137 5.96108C39.4843 5.80996 39.4116 5.67116 39.3048 5.56221C39.1981 5.45326 39.0621 5.37906 38.914 5.349C38.766 5.31894 38.6125 5.33437 38.473 5.39333C38.3335 5.45229 38.2143 5.55216 38.1305 5.68027C38.0466 5.80838 38.0018 5.95899 38.0018 6.11306C38.0018 6.31967 38.0823 6.51782 38.2254 6.66392C38.3685 6.81001 38.5627 6.89209 38.7651 6.89209Z" fill="#316596"/>
<path fill-rule="evenodd" clip-rule="evenodd" d="M28.4655 5.5081C28.5941 5.50991 28.7203 5.47254 28.828 5.40073C28.9357 5.32892 29.02 5.22595 29.07 5.10501C29.12 4.98407 29.1336 4.85063 29.109 4.72178C29.0843 4.59292 29.0225 4.47453 28.9316 4.3817C28.8406 4.28886 28.7246 4.22582 28.5984 4.20065C28.4721 4.17548 28.3414 4.18932 28.2229 4.2404C28.1044 4.29147 28.0035 4.37748 27.9331 4.48739C27.8628 4.5973 27.8262 4.72612 27.8279 4.8574C27.8279 4.94285 27.8444 5.02746 27.8765 5.10641C27.9085 5.18536 27.9555 5.2571 28.0147 5.31752C28.0739 5.37795 28.1442 5.42587 28.2215 5.45857C28.2989 5.49127 28.3818 5.5081 28.4655 5.5081Z" fill="#316596"/>
<path fill-rule="evenodd" clip-rule="evenodd" d="M20.8058 21.556L20.4915 21.2169C21.365 20.4192 22.034 19.4155 22.4401 18.2933C22.5748 17.5693 23.5895 17.6884 23.4009 18.4674C23.1495 19.4756 21.9462 20.6854 20.8058 21.556Z" fill="#316596"/>
<path fill-rule="evenodd" clip-rule="evenodd" d="M14.269 5.78313C12.6617 6.49799 12.4192 8.17518 13.5506 9.18332C13.8538 9.45755 14.23 9.63338 14.6315 9.68839C15.033 9.7434 15.4414 9.6751 15.8046 9.49219C16.1679 9.30927 16.4695 9.02005 16.671 8.66142C16.8725 8.30279 16.9647 7.89099 16.936 7.47862C17.3273 7.48335 17.715 7.40099 18.072 7.23725C18.429 7.07351 18.7468 6.83234 19.0032 6.53052C19.2596 6.2287 19.4485 5.87346 19.5567 5.48956C19.6649 5.10566 19.6899 4.7023 19.6299 4.30755C19.8284 4.12956 19.9861 3.90904 20.0915 3.66171C20.197 3.41439 20.2476 3.14637 20.2399 2.87676C20.2322 2.60714 20.1663 2.34257 20.0469 2.10195C19.9274 1.86133 19.7575 1.6506 19.549 1.48475C19.3307 1.31219 19.0749 1.19566 18.8033 1.14501C18.5316 1.09436 18.252 1.11107 17.988 1.19371C17.724 1.27634 17.4832 1.42249 17.2861 1.61987C17.089 1.81725 16.9412 2.06008 16.8551 2.32792C16.4256 2.27214 15.9892 2.33139 15.5888 2.49981C15.1884 2.66824 14.8379 2.94008 14.5716 3.2886C14.3053 3.63713 14.1324 4.05035 14.0699 4.4877C14.0074 4.92505 14.0575 5.37149 14.2151 5.78313L13.4339 5.444C13.2175 4.9836 13.131 4.47079 13.1841 3.96303C13.2371 3.45527 13.4277 2.97264 13.7344 2.56921C14.0411 2.16577 14.4519 1.85748 14.9206 1.67889C15.3893 1.5003 15.8975 1.45846 16.3882 1.55806C16.5469 1.20726 16.7779 0.895545 17.0654 0.644193C17.3529 0.392842 17.6902 0.207792 18.0542 0.101646C18.4182 -0.00450025 18.8003 -0.0292351 19.1745 0.0291493C19.5487 0.0875338 19.9062 0.227649 20.2225 0.439934C20.5698 0.655073 20.8602 0.95377 21.0682 1.30989C21.2763 1.66601 21.3958 2.06872 21.4161 2.48284C21.4365 2.89695 21.3572 3.30986 21.1851 3.68546C21.013 4.06106 20.7535 4.38794 20.429 4.63751C20.6109 5.07406 20.6733 5.55278 20.6096 6.02268C20.5458 6.49258 20.3583 6.93602 20.0671 7.30572C19.7758 7.67541 19.3918 7.9575 18.9558 8.12192C18.5198 8.28633 18.0483 8.32692 17.5915 8.23933C17.34 10.9338 14.8976 11.2821 13.2453 10.0082C12.4988 9.36269 11.9969 8.47112 11.8265 7.4878C11.771 6.64662 11.4567 5.8448 10.9286 5.19656C10.4792 4.80212 9.90495 4.58723 9.31224 4.59166C9.32756 4.09442 9.22136 3.60111 9.00321 3.15623C8.78506 2.71134 8.46183 2.32886 8.06268 2.04333C7.66352 1.75779 7.201 1.57816 6.71684 1.52064C6.23268 1.46312 5.74211 1.52955 5.28937 1.71388C5.1306 1.53816 4.93631 1.39975 4.71995 1.30824C4.50359 1.21673 4.27033 1.1743 4.03632 1.18389C3.80231 1.19348 3.57315 1.25484 3.36467 1.36376C3.1562 1.47268 2.9734 1.62654 2.82894 1.81468C2.68385 2.0046 2.58388 2.22627 2.53686 2.46228C2.48985 2.69829 2.49707 2.94221 2.55798 3.17488C2.61888 3.40756 2.73181 3.62267 2.88789 3.80329C3.04397 3.98392 3.23895 4.12514 3.45752 4.2159C3.38568 5.9939 4.72365 7.13036 6.66325 6.96539C6.76297 7.4631 7.01035 7.91744 7.37182 8.26669C7.73328 8.61593 8.1913 8.84316 8.68367 8.91753V9.3941C8.26275 9.3428 7.83627 9.41674 7.45553 9.60697C7.0748 9.79721 6.75602 10.0956 6.53754 10.4664C4.24773 10.3564 2.64936 11.3829 2.71222 13.0693C2.39482 13.1052 2.09391 13.2322 1.84443 13.4357C1.59494 13.6391 1.40713 13.9107 1.30276 14.2187C1.1984 14.5267 1.18178 14.8586 1.25484 15.1759C1.32789 15.4932 1.48762 15.7829 1.71548 16.0112C1.90338 16.2142 2.13847 16.3656 2.39894 16.4511C2.65941 16.5367 2.93684 16.5538 3.2055 16.5008C3.47416 16.4478 3.72536 16.3264 3.93581 16.1479C4.14625 15.9694 4.30915 15.7395 4.40937 15.4797C4.75984 15.5591 5.12266 15.5631 5.47476 15.4915C5.82685 15.42 6.16049 15.2744 6.45444 15.0641C6.74838 14.8537 6.9962 14.5832 7.18211 14.2697C7.36802 13.9563 7.48796 13.6067 7.53428 13.2434C7.82717 13.2902 8.12645 13.2732 8.41244 13.1935C8.69844 13.1138 8.96468 12.9733 9.19367 12.7811C9.42266 12.589 9.60922 12.3495 9.74108 12.0785C9.87295 11.8075 9.94714 11.5111 9.95878 11.2088L10.5245 11.2546C10.6951 12.7851 10.0037 14.2332 8.19878 14.0682C8.18763 14.4755 8.07883 14.8738 7.88192 15.2283C7.68501 15.5827 7.40599 15.8825 7.06927 16.1013C6.73254 16.3202 6.34839 16.4515 5.95043 16.4837C5.55247 16.5159 5.15284 16.4481 4.78651 16.2862C4.62289 16.6543 4.37183 16.9748 4.05612 17.2189C3.74041 17.4629 3.37002 17.6226 2.97853 17.6836C2.58703 17.7446 2.18683 17.7049 1.81417 17.5681C1.44152 17.4313 1.10821 17.2017 0.844452 16.9002C0.520565 16.6007 0.280369 16.2188 0.148399 15.7935C0.0164284 15.3683 -0.00258657 14.9149 0.0932898 14.4796C0.189166 14.0444 0.396496 13.643 0.694115 13.3163C0.991735 12.9896 1.36898 12.7494 1.78732 12.6202C1.83221 10.833 3.12527 9.12834 5.64855 9.78821C5.74452 9.5589 5.89795 9.3594 6.09341 9.20978C6.28886 9.06016 6.51946 8.96568 6.76203 8.93585C6.51306 8.86789 6.28625 8.73365 6.10481 8.54685C5.92336 8.36005 5.79381 8.12742 5.72938 7.87274C5.30362 7.96424 4.86218 7.9454 4.44539 7.81795C4.0286 7.69049 3.64975 7.45848 3.34343 7.1431C3.03712 6.82773 2.8131 6.43904 2.69186 6.01256C2.57061 5.58607 2.556 5.13537 2.64935 4.70164C2.3147 4.56351 2.01679 4.34658 1.77992 4.06855C1.54305 3.79053 1.37394 3.45929 1.28639 3.10185C1.19884 2.74442 1.19533 2.37095 1.27614 2.01186C1.35695 1.65278 1.5198 1.31827 1.75139 1.03565C1.97292 0.760931 2.24875 0.537002 2.56084 0.378485C2.87293 0.219969 3.21428 0.130446 3.56258 0.115742C3.91089 0.101038 4.25832 0.161482 4.58218 0.293151C4.90603 0.42482 5.19902 0.624753 5.44202 0.879863C5.91823 0.57541 6.46828 0.412734 7.0302 0.410175C7.59212 0.407616 8.14358 0.565271 8.62244 0.865374C9.10129 1.16548 9.48852 1.59609 9.74049 2.10872C9.99247 2.62135 10.0992 3.19563 10.0486 3.76682C10.3924 3.74773 10.736 3.80899 11.0532 3.94594C11.3703 4.08288 11.6527 4.2919 11.8787 4.55707C12.1047 4.82223 12.2685 5.13655 12.3575 5.47608C12.4465 5.81561 12.4584 6.17138 12.3923 6.51631C12.4637 6.24841 12.6078 6.00652 12.808 5.81845C13.0081 5.63039 13.2562 5.50378 13.5237 5.45317L14.3049 5.79227L14.269 5.78313Z" fill="#316596"/>
<path fill-rule="evenodd" clip-rule="evenodd" d="M18.1119 2.667L18.498 2.94197C17.7309 4.53557 16.6593 5.9565 15.3462 7.12119L14.9241 6.79124C15.8533 5.31431 16.9209 3.93307 18.1119 2.667Z" fill="#316596"/>
<path fill-rule="evenodd" clip-rule="evenodd" d="M7.16573 11.3371L7.41716 11.7311C6.34622 12.808 5.13808 13.7328 3.82531 14.4806L3.46613 14.0865C4.51732 12.9588 5.75432 12.0282 7.12083 11.3371H7.16573Z" fill="#316596"/>
<path fill-rule="evenodd" clip-rule="evenodd" d="M9.37473 6.64455L8.93472 7.2128C7.41295 6.11925 6.02077 4.84903 4.78613 3.42766L5.16328 3.03357C6.72082 4.03706 8.13759 5.2518 9.37473 6.64455Z" fill="#316596"/>
<path fill-rule="evenodd" clip-rule="evenodd" d="M7.12991 27.3574C7.11962 28.1609 7.34476 28.9492 7.77644 29.6212C8.50019 30.5791 9.27354 31.4969 10.0932 32.3706C8.38548 33.1254 6.60326 33.6908 4.77723 34.057C4.39907 34.1549 4.04052 34.3192 3.71764 34.5427C3.43211 35.1153 3.25251 35.7367 3.18785 36.3757C3.13741 36.9608 3.11942 37.5483 3.13397 38.1354C3.22018 39.3165 3.52488 40.4703 4.03193 41.5356C4.41129 42.4015 5.07511 43.105 5.90867 43.5244C6.19948 43.4343 6.50292 43.394 6.80664 43.4053C7.33801 43.3948 7.8646 43.5093 8.34572 43.7397C8.82685 43.9701 9.24962 44.3104 9.58134 44.7342C9.75196 44.9817 10.0932 45.0275 10.5511 45.0275C11.6856 44.965 12.8008 44.7014 13.8467 44.2484C14.0801 44.056 14.7446 43.6069 15.3912 43.0845C16.0377 42.5621 19.6565 39.4185 21.2549 38.6395C22.3722 39.2885 23.6251 39.6561 24.9096 39.7118C25.1267 39.7135 25.3434 39.692 25.5561 39.6476C26.0051 39.5468 26.5708 39.336 27.2982 39.1986C28.3643 38.9677 29.4442 38.8085 30.5308 38.722C31.7251 38.722 35.1913 38.832 36.0174 38.832C36.8435 38.832 38.1186 38.7586 38.5856 38.7036C39.914 38.315 41.2159 37.8374 42.4827 37.2739C44.3715 36.2737 46.1609 35.0889 47.8256 33.7362C48.0708 33.5154 48.2934 33.2697 48.4901 33.003C48.5529 32.9205 48.5799 32.8839 48.5799 32.8106C48.5799 32.7373 48.5799 30.4735 48.5799 30.4735C48.5799 30.4735 49.3521 29.557 49.6575 29.2912C49.6684 29.2586 49.6684 29.2231 49.6575 29.1904C49.4533 28.1069 49.3869 27.001 49.4599 25.9002L48.6697 25.5244C48.6346 27.0232 48.2 28.4839 47.4125 29.7495C46.2362 29.9419 44.0003 30.666 43.1921 31.5825L43.6321 31.7108C44.388 31.2498 45.2482 30.9972 46.1285 30.9776C46.9456 30.9776 47.3138 31.2067 47.3138 31.4358C47.2718 31.6736 47.1994 31.9047 47.0983 32.1232C47.0377 32.2956 46.9497 32.4566 46.8378 32.5998C45.7223 33.855 44.4117 34.914 42.9587 35.7342C41.8476 36.3549 40.6652 36.8321 39.4386 37.1548C38.9896 37.2922 38.3611 37.4755 37.957 37.6222C37.3913 37.6222 34.3651 37.5122 32.65 37.5122C30.4778 37.5216 28.3097 37.7085 26.1667 38.0713C25.6459 38.1996 25.5202 38.4104 24.9096 38.4104C23.6843 38.3083 22.4909 37.9595 21.3985 37.3839C21.1284 37.4834 20.8645 37.5997 20.6083 37.7322C19.9708 38.0621 18.534 40.0967 17.6989 39.4827C17.2769 40.3992 15.4361 41.2148 14.8075 42.1405C14.8793 41.6548 15.6246 38.4745 15.7055 37.888C15.7199 37.8357 15.7234 37.781 15.7157 37.7273C15.7079 37.6736 15.6891 37.6221 15.6606 37.5763C14.9871 36.4307 13.1193 35.7434 12.0687 35.4959L11.3952 35.3401L9.72502 34.8269L8.18052 35.3401L9.97645 35.6884L7.7046 37.2189C8.09971 37.0631 10.5422 36.3757 10.7218 36.3024C10.9695 36.2185 11.2372 36.2185 11.485 36.3024C11.8173 36.4216 12.7601 36.6415 13.2809 36.8432C13.7134 37.0861 14.064 37.4566 14.2867 37.9063C14.3717 38.2538 14.4109 38.6113 14.4034 38.9694C14.4026 39.4392 14.3453 39.907 14.2328 40.3625C14.039 41.1825 13.7369 41.9718 13.3348 42.7087C13.1556 43.0432 12.8613 43.2979 12.5087 43.4236C11.9461 43.6894 11.3327 43.824 10.7128 43.8177C10.2458 43.8177 9.94052 43.8177 9.74297 43.5336C9.29649 42.9936 8.71911 42.5824 8.06839 42.3412C7.41766 42.1 6.71635 42.0371 6.03439 42.1588C5.45564 41.6664 4.98645 41.0536 4.65818 40.3614C4.3299 39.6691 4.15007 38.9134 4.1307 38.1446C4.22323 37.0938 4.45586 36.0609 4.82213 35.0743C6.95574 34.5928 9.03285 33.88 11.0181 32.948C11.6821 32.7826 12.3576 32.6693 13.0385 32.6089C15.0859 32.6089 17.1063 34.4419 18.3365 35.6609C18.4955 35.3737 18.7331 35.1402 19.0202 34.9888C19.3073 34.8374 19.6314 34.7748 19.9528 34.8085C21.3985 34.8085 22.2247 36.1558 22.6467 37.558L23.401 36.999C23.251 36.1424 22.8539 35.351 22.2606 34.7261C21.6558 34.1715 20.8817 33.8476 20.0695 33.8096C19.6206 33.8096 19.1716 33.9104 18.8663 33.9104C18.0311 33.8624 17.242 33.5037 16.6483 32.9022C15.6376 32.1404 14.4545 31.6517 13.2091 31.4816C12.4997 31.4816 12.1854 31.7658 11.6107 31.7658C11.2898 31.7784 10.9718 31.6993 10.6926 31.5374C10.4133 31.3754 10.184 31.1371 10.0303 30.8493C9.85073 30.6293 8.98869 29.8411 8.75522 29.5295C8.55416 29.1183 8.40049 28.6846 8.29726 28.2373L7.12991 27.3758V27.3574Z" fill="#316596"/>
<path fill-rule="evenodd" clip-rule="evenodd" d="M8.29715 28.2189C8.54296 28.5111 8.81012 28.7838 9.09634 29.0346C9.42714 29.2675 9.77204 29.4787 10.129 29.667C10.6452 29.9923 11.1929 30.2625 11.7633 30.4735C12.3292 30.6223 12.912 30.6932 13.4964 30.6843C14.3995 30.5629 15.3175 30.6378 16.1902 30.9043C16.747 31.1701 16.7919 31.775 17.2319 31.9583C18.447 32.2246 19.6894 32.3385 20.9315 32.2974C22.8685 32.301 24.8006 32.0983 26.6964 31.6925L26.0409 30.9501C24.3976 31.1905 22.7431 31.3435 21.0841 31.4084C19.2882 31.4084 17.627 31.1151 17.627 30.3635C17.6807 29.9841 17.8761 29.6405 18.1723 29.4047C18.4686 29.169 18.8427 29.0593 19.2164 29.0988C20.2877 29.2132 21.3389 29.4753 22.3413 29.8778C22.4408 29.9266 22.5497 29.9519 22.6601 29.9519C22.7704 29.9519 22.8794 29.9266 22.9788 29.8778L23.6344 29.5295C22.0537 28.8238 20.3909 28.3279 18.6866 28.054C18.477 28.0257 18.2639 28.0569 18.0707 28.1442C17.8774 28.2316 17.7114 28.3716 17.5911 28.5489C17.187 29.0896 16.1004 29.5662 14.3764 29.5662C13.5031 29.5716 12.6322 29.4731 11.7812 29.2729C11.0145 28.9063 10.2813 28.4708 9.59021 27.9715C8.77301 27.4108 8.06884 26.6952 7.51592 25.8635C7.37104 25.6377 7.29597 25.3727 7.30041 25.1029C7.31015 24.9143 7.3372 24.7271 7.38123 24.5438C7.53284 24.753 7.7076 24.9437 7.90205 25.112C8.90845 26.0529 10.1526 26.6878 11.4939 26.945C11.8653 27.0309 12.2445 27.0769 12.6253 27.0825C13.1766 27.0556 13.701 26.8318 14.107 26.4501L13.6221 25.8177C13.3645 25.8657 13.1024 25.8841 12.8408 25.8727C10.8384 25.8727 8.28816 24.5346 7.69551 22.9858C7.64163 22.83 7.5698 22.7475 7.63266 22.6008C7.70953 22.368 7.76661 22.1288 7.80327 21.8859C7.99961 22.0962 8.22317 22.2782 8.46776 22.4267C9.21307 22.9216 10.6408 23.5998 10.9192 23.7739C11.5013 23.6063 12.0642 23.3759 12.5984 23.0866C13.1099 22.819 13.6759 22.6778 14.2506 22.6742C15.7233 22.6742 17.4025 23.5265 18.9919 24.3238L20.0694 23.8839C18.6686 22.8758 15.5796 21.4644 13.9094 21.4644C12.9037 21.4644 11.9608 22.2159 11.2874 22.2159C10.4612 22.2159 8.0996 21.0428 8.0996 20.0621C8.0996 19.3106 9.63511 18.8799 12.0865 18.5774C11.6645 19.2098 11.2604 19.8788 10.8833 20.557L11.5119 20.9145C14.483 16.3352 18.291 12.3834 22.7274 9.27496C23.5961 8.79413 24.2773 8.0244 24.658 7.0937C25.7087 4.91243 26.6874 3.2444 28.4026 3.2444C28.7732 3.25666 29.1363 3.35459 29.4645 3.5308C29.7927 3.70701 30.0774 3.95693 30.2973 4.26172L31.5364 4.64664L30.2883 5.50815L31.5634 6.03056C30.4757 6.39174 29.477 6.98805 28.6356 7.77886C27.7941 8.56966 27.1297 9.53637 26.6874 10.613C24.8915 10.7139 24.0384 12.1894 23.4548 13.4175C23.0597 14.2515 22.4401 14.5815 21.5242 15.2505L14.2417 20.4379L15.2384 20.5845L21.9731 16.0021C22.9099 15.4702 23.6957 14.6998 24.254 13.7658C24.8736 12.4919 25.547 11.5479 26.867 11.5479C27.5804 11.5616 28.2615 11.8534 28.7707 12.3636L29.956 12.7576L28.663 13.5642L29.7405 14.2424C26.6515 15.223 24.7389 17.4868 23.6254 21.8035L24.4425 21.9959C24.7744 20.6267 25.2944 19.3123 25.987 18.0917C27.783 18.0917 29.5789 18.0092 31.3748 18.0092C36.125 18.0092 40.0581 18.2108 42.1504 18.8523L41.4051 17.5143C38.0701 17.0474 34.7044 16.8482 31.3389 16.9185C29.8393 16.9185 28.3128 16.9735 26.7952 16.9919C28.0629 15.7261 29.6321 14.8195 31.3479 14.3615L29.8124 13.5L31.5185 12.5835L29.1928 11.667C28.7604 11.2355 28.2296 10.9205 27.6483 10.7505C28.3846 8.41344 30.9258 7.08452 33.3593 6.10386L31.6532 5.39817L33.3683 4.48167L30.7283 3.62016C30.4565 3.23836 30.098 2.92964 29.6835 2.7205C29.269 2.51137 28.8109 2.40809 28.3487 2.41955C25.8972 2.41955 24.8646 4.59165 23.8588 6.5163C23.5143 7.35857 22.9169 8.06768 22.1527 8.54175C19.7545 10.1679 17.5435 12.0648 15.5617 14.1966C13.8619 12.8353 12.4039 11.1861 11.2514 9.32078C11.0368 9.64937 10.8619 10.0033 10.7306 10.3747C10.9821 10.6497 13.8645 13.6192 14.9421 14.8839L14.6996 15.1589C13.0077 15.4639 11.2897 15.5929 9.57226 15.5438L9.00654 16.5703C9.76083 16.497 12.7062 16.1395 13.9364 16.0662C13.5592 16.5244 13.2 16.9827 12.8408 17.4868C9.05144 17.9267 6.5102 18.724 6.5102 20.1538C6.5102 20.3921 6.60898 20.6578 6.60898 20.9145C6.62434 21.1397 6.57139 21.3644 6.45733 21.5578C6.34326 21.7513 6.17361 21.9043 5.97142 21.9959C5.69305 22.1701 5.67509 22.2892 5.79183 22.4633C6.06995 22.8412 6.30494 23.2501 6.49224 23.6823C6.49224 23.9756 6.21387 24.2597 5.98938 24.5163C5.76489 24.7729 5.80081 24.8004 5.98938 25.0845L7.09387 27.4674L8.26123 28.3289L8.29715 28.2189Z" fill="#316596"/>
<path fill-rule="evenodd" clip-rule="evenodd" d="M55.3056 14.9297C55.0654 15.1845 54.8517 15.464 54.668 15.7637L54.0574 14.8473C56.0958 12.0978 61.4925 10.7688 64.6533 10.5397V9.04584C64.2493 9.17415 63.8182 9.32078 63.4231 9.41243C62.9248 9.56732 62.4084 9.65362 61.8876 9.66905C61.706 9.67598 61.5252 9.64081 61.3588 9.56621C61.1924 9.4916 61.0447 9.3795 60.9268 9.2383C60.4958 8.62424 60.9268 7.68942 62.2827 6.80958L61.1872 5.89309C60.4408 7.00207 59.5929 8.03624 58.655 8.98168C57.8917 9.65072 57.0835 9.98982 56.428 9.49491C56.0778 9.22913 55.9431 9.10082 55.9072 8.40428C56.0846 7.13757 56.4927 5.91594 57.1105 4.80245L55.8084 4.64664C55.5666 6.06924 55.0439 7.42681 54.2721 8.63682C53.5002 9.84683 52.4954 10.884 51.3186 11.6853L50.6002 10.9613C51.6968 10.313 52.6384 9.42391 53.357 8.35847C54.303 6.98054 54.8591 5.36342 54.9643 3.68433L58.7178 4.04175C57.9782 5.06651 57.3968 6.20085 56.9937 7.4053C56.8141 7.99186 56.8231 8.45928 56.9937 8.61508C57.3978 8.91753 58.0892 8.44095 58.7896 7.69859C59.6197 6.68491 60.3874 5.61972 61.0884 4.50917L63.7823 6.80958C62.579 7.4603 61.4027 8.20266 61.6362 8.64258C61.8697 9.0825 62.624 8.90836 63.4321 8.64258C64.1382 8.41814 64.8162 8.11057 65.4525 7.72608V11.4745C63.531 11.5065 61.6235 11.815 59.7864 12.391C60.2982 13.1242 61.7529 13.39 62.6778 13.5183L62.2199 16.5611C60.0387 15.5124 57.6626 14.953 55.2517 14.9206L56.1496 14.0957C58.0117 14.142 59.8451 14.5754 61.5374 15.3697L61.708 14.224C60.5871 14.0702 59.5431 13.5567 58.7268 12.7576C57.8248 13.0921 56.968 13.5417 56.1766 14.0957L55.2786 14.9206L55.3056 14.9297Z" fill="#316596"/>
<path fill-rule="evenodd" clip-rule="evenodd" d="M44.1529 24.5805L45.0508 22.665C44.0285 21.4322 43.0923 20.1276 42.2492 18.7607L41.5039 17.4227C39.7618 14.0591 40.3904 12.4461 39.4655 11.0072C38.7022 9.77907 34.9757 10.5489 34.3561 10.6773L35.4336 8.84426L33.3145 9.01839L35.1104 6.83713C35.3528 6.43841 35.5203 5.99705 35.6043 5.53569C35.8255 4.60614 36.3591 3.78521 37.1122 3.21583C37.8653 2.64645 38.7902 2.3647 39.7259 2.4196C42.8778 2.4196 43.8476 5.02246 45.2215 6.14975C46.7839 7.43285 48.8133 9.22916 50.6092 11.0255L51.3276 11.7495C52.316 12.7415 53.237 13.8009 54.0844 14.9206L54.695 15.8371C58.4844 21.4827 63.1897 32.2699 65.273 37.2098C65.4705 37.6864 65.6142 38.1263 65.7399 38.5388C64.3301 37.7414 62.7677 36.7516 61.1693 35.6243L60.2713 34.9553C59.6877 34.5337 59.113 34.0937 58.5293 33.6355L57.5685 32.8656C56.9938 32.3982 56.4281 31.9491 55.8623 31.4176L57.757 42.6722C57.9007 43.3412 58.4485 43.2312 58.8975 42.6722C59.3464 42.1131 59.5171 41.9298 59.3464 41.1599L57.5505 32.9115L58.5113 33.6813L60.2175 40.7017C60.3791 41.3432 60.6485 41.5357 61.3669 41.5724C62.0852 41.609 62.2648 41.3157 62.0942 40.83L60.2534 35.0011L61.1513 35.6701L62.8934 40.9125C63.3424 42.2506 62.8934 42.4064 62.1032 42.4064C61.313 42.4064 60.6126 42.2139 60.1726 42.498C59.5849 43.008 59.0328 43.5592 58.5203 44.1477C57.9456 44.7434 57.1105 44.5876 56.9399 43.4695L54.8476 30.5377C53.5024 29.313 52.2281 28.0094 51.0313 26.6335C50.5194 26.4135 49.9448 26.1385 49.4329 25.9003L48.6427 25.5245C48.4588 25.4313 48.2699 25.3487 48.077 25.277C47.533 26.012 46.9324 26.7016 46.2811 27.3392C46.1434 27.4927 45.9754 27.6147 45.7881 27.6968C45.6007 27.779 45.3984 27.8195 45.1945 27.8157C45.0113 27.8311 44.8275 27.7929 44.6647 27.7058C44.423 27.5384 44.2231 27.3156 44.0811 27.055C43.9284 26.8168 43.7039 26.5143 43.5063 26.1386C43.0933 25.4237 42.6084 24.5347 42.2402 23.8198C41.872 23.1049 41.4051 22.4084 41.3423 22.3076C41.2578 22.1768 41.1549 22.0595 41.0369 21.9593C40.8097 22.4149 40.681 22.915 40.6598 23.4257L39.8696 23.1599C39.9786 22.6342 40.1226 22.1167 40.3006 21.6111C40.2871 21.4516 40.2241 21.3007 40.1207 21.1804C40.0173 21.06 39.879 20.9765 39.7259 20.942C39.3667 20.942 38.9986 21.3453 38.828 22.1151L38.0288 22.4726C38.1275 21.2261 38.5406 19.8697 39.7439 19.8697C40.1785 19.9147 40.5944 20.0733 40.9514 20.3301C41.3085 20.587 41.5946 20.9335 41.7822 21.3361C42.2492 22.0418 43.7668 24.1589 44.09 24.5713L44.6917 25.3504C44.7667 25.6797 44.904 25.991 45.0957 26.2668C45.3112 26.5968 45.5358 26.5785 45.85 26.2668C45.9937 26.1385 46.4517 25.7536 46.9006 25.277C47.2364 24.9231 47.5371 24.5363 47.7986 24.1222L49.7292 25.0387C47.0295 21.729 44.7626 18.0752 42.9855 14.1691C42.4917 12.9502 43.4435 12.5377 43.8835 13.7475C45.859 18.1235 48.4384 22.1882 51.5431 25.8178C54.6501 29.3188 60.3521 34.387 64.0518 36.4125C63.522 35.3493 62.8036 33.8096 61.9864 32.0316C57.3511 29.2458 53.4976 25.2875 50.7978 20.5387L51.6958 20.6487C53.6713 24.2231 58.3946 28.9797 61.1873 30.3636C58.637 24.8646 55.3146 17.8351 52.7284 14.829C50.1195 11.9189 47.3108 9.20226 44.3235 6.69966C42.6712 5.21493 41.9888 3.35442 39.6182 3.35442C38.8123 3.3648 38.0345 3.65857 37.4162 4.18617C36.7978 4.71377 36.3767 5.44289 36.2239 6.25055C36.1647 6.52288 36.055 6.78113 35.9006 7.01126L35.0026 8.14771L37.0051 7.90027L35.8467 9.54995C35.8467 9.54995 38.9896 8.83509 40.0941 10.3565C41.1986 11.8779 40.5071 13.8392 42.4557 17.4318C43.4802 19.2307 44.6839 20.9168 46.0476 22.4634L44.6917 25.3687L44.09 24.5897L44.1529 24.5805Z" fill="#316596"/>
<path fill-rule="evenodd" clip-rule="evenodd" d="M13.2449 25.0846L12.769 24.7454C13.1709 24.4237 13.6115 24.1557 14.08 23.9481C14.3301 23.839 14.5983 23.7799 14.8702 23.7739C15.3825 23.8058 15.8791 23.9664 16.3159 24.2414C16.9538 24.67 17.6727 24.9572 18.4262 25.0846C18.6596 25.0846 18.8841 25.0296 19.1445 25.0296C19.7461 25.0296 20.3298 25.3045 20.6621 25.3045C20.8596 25.3045 20.9943 25.1212 21.129 24.9287C21.47 24.4312 21.9482 24.0483 22.5029 23.8289C23.2106 23.5551 23.9645 23.4275 24.7209 23.4532C25.2547 23.454 25.7872 23.5092 26.3103 23.6182C26.3103 23.6182 25.8164 24.223 25.6907 24.3605C24.7824 24.3058 23.8717 24.4081 22.9968 24.6629C22.8009 24.7167 22.6286 24.8365 22.5079 25.0029C22.3872 25.1693 22.3253 25.3725 22.3323 25.5794C22.3323 26.1843 22.9878 26.4135 23.7241 26.6426C24.1569 26.7635 24.6046 26.819 25.0531 26.8075C25.8707 26.7411 26.6816 26.6062 27.4776 26.4043C28.636 26.1385 29.7046 25.8361 30.0189 25.7169L30.4409 26.4776C29.1909 26.925 27.9167 27.2983 26.6246 27.5957C25.9894 27.7336 25.3431 27.8103 24.6939 27.8249C23.6741 27.7552 22.6799 27.4679 21.7756 26.9817C21.1708 26.6104 20.4989 26.3672 19.8 26.2668C19.1279 26.2907 18.4741 26.4963 17.9053 26.8626C17.268 27.2915 16.5984 27.6685 15.9029 27.9898C15.3532 28.2357 14.7609 28.3666 14.1608 28.3748C13.7462 28.4163 13.3304 28.3093 12.9845 28.0723L13.9453 27.4674C14.0859 27.5711 14.2569 27.6229 14.4302 27.6141C14.6712 27.6061 14.9073 27.5435 15.1216 27.4308C15.3716 27.3134 15.6119 27.1754 15.84 27.0184C16.0731 26.8641 16.2924 26.6893 16.4955 26.4959C16.5786 26.4532 16.6485 26.3877 16.6973 26.3068C16.7461 26.2258 16.7719 26.1327 16.7719 26.0377C16.7719 25.9427 16.7461 25.8495 16.6973 25.7686C16.6485 25.6877 16.5786 25.6222 16.4955 25.5794C16.3123 25.4055 16.114 25.2491 15.9029 25.112C15.5631 24.846 15.1458 24.704 14.7176 24.7088C14.2005 24.7012 13.6893 24.8206 13.2269 25.0571L13.2449 25.0846Z" fill="#316596"/>
<path fill-rule="evenodd" clip-rule="evenodd" d="M26.7324 25.4695C26.4751 25.3977 26.2143 25.3396 25.9512 25.2954C26.3148 24.8042 26.7546 24.377 27.2532 24.0306C28.0978 23.4489 29.09 23.1305 30.1087 23.1141C30.441 23.1141 31.1324 23.0225 31.5185 23.0408C32.0123 23.0531 32.5045 23.1022 32.9912 23.1874C33.3773 23.2607 33.7275 23.3616 34.0239 23.4074C34.3672 23.4439 34.7132 23.4439 35.0565 23.4074C35.9209 23.2615 36.7612 22.9931 37.5529 22.61L37.7773 23.4715C36.6294 24.1625 35.3431 24.5793 34.0149 24.6905C33.3863 24.6905 32.7218 24.6446 32.1022 24.5805C31.0067 24.4705 30.0638 24.3239 29.7406 24.3239C28.6424 24.3692 27.5876 24.7741 26.7324 25.4787V25.4695Z" fill="#316596"/>
<path fill-rule="evenodd" clip-rule="evenodd" d="M25.8524 30.2811L24.7299 29.7587C26.2893 28.9718 27.9353 28.3779 29.6328 27.9898C30.5403 27.8847 31.4402 27.7194 32.3267 27.4949C32.623 28.2556 33.2247 29.0621 34.0328 29.0621C34.4904 28.9796 34.9327 28.825 35.3439 28.6039L36.7716 27.9348L38.9896 26.9267C39.3218 26.78 40.2467 26.331 40.2916 26.3035L40.8843 26.6243C40.6966 27.4675 40.429 28.2901 40.0851 29.0805C39.9788 29.3144 39.8429 29.5331 39.681 29.7312C39.3219 30.1348 38.9181 30.4947 38.4777 30.8035C37.8941 31.2342 37.1757 31.665 36.4124 32.1141C35.8288 32.4623 35.2271 32.8106 34.6165 33.0947L34.3022 32.5173C35.2329 31.958 36.1323 31.346 36.9961 30.6843C37.3912 30.3819 37.7684 30.0794 38.0377 29.832C38.2004 29.6853 38.3451 29.5192 38.4688 29.3371C38.7652 28.8771 39.0235 28.3928 39.241 27.889C38.8908 28.0632 37.5798 28.6955 36.9961 29.0071C36.4124 29.3188 35.2541 29.9236 34.6524 30.2169C34.2792 30.4165 33.8695 30.5351 33.4492 30.5652C33.2053 30.5579 32.9686 30.4799 32.7666 30.3403C32.5647 30.2007 32.4059 30.0054 32.3087 29.777C31.8867 28.998 31.4108 28.9338 30.2344 28.9155C28.6603 28.9503 27.1258 29.4259 25.7985 30.2902L25.8524 30.2811Z" fill="#316596"/>
<path fill-rule="evenodd" clip-rule="evenodd" d="M32.3806 26.7342C32.3806 26.7342 32.2189 26.056 32.1471 25.8177C32.2899 25.7747 32.4381 25.753 32.5871 25.7536C33.0091 25.7536 34.0418 25.8727 34.4638 25.8727C34.9511 25.9275 35.4442 25.874 35.9092 25.7158C36.3742 25.5576 36.8002 25.2984 37.1577 24.9562C37.4109 24.7113 37.7128 24.5248 38.0428 24.4093C38.3728 24.2939 38.7232 24.2522 39.0704 24.2872C39.8929 24.3189 40.7027 24.5053 41.459 24.8371L41.3871 25.7536C40.8678 25.468 40.2888 25.314 39.699 25.3045C39.353 25.2843 39.0069 25.3405 38.6843 25.4694C38.4263 25.647 38.1857 25.8496 37.9659 26.0743C37.609 26.3593 37.2085 26.5822 36.7806 26.7342C36.111 26.9694 35.4051 27.0781 34.6973 27.055C33.9247 27.045 33.1549 26.959 32.3985 26.7984L32.3806 26.7342Z" fill="#316596"/>
<path fill-rule="evenodd" clip-rule="evenodd" d="M22.1887 33.4887L22.934 33.168C23.6793 33.4891 24.4709 33.6842 25.2777 33.7454C25.6374 33.7319 25.99 33.6381 26.3103 33.4704C26.5258 33.3696 29.0042 32.1323 30.2254 31.6374C30.5403 31.5188 30.8696 31.4448 31.2042 31.4175C31.5005 31.4175 31.5185 31.5458 31.5993 31.6832C31.8328 32.0682 33.6557 34.726 33.8352 34.9277C35.3071 34.5441 36.6817 33.8442 37.8671 32.8747C38.819 31.9582 39.6092 30.8492 40.3724 30.0152C40.6178 29.7358 40.9022 29.4949 41.2165 29.3003C42.0067 28.8696 44.4671 28.8329 45.4998 28.8788L44.8892 29.7953C43.0933 29.7953 42.0427 29.9877 41.5847 30.3452C41.3001 30.5859 41.0439 30.8596 40.8214 31.1608C40.2018 31.9948 39.5194 33.1221 39.25 33.3513C39.8335 33.8115 40.5509 34.0598 41.2883 34.057C42.5251 33.9768 43.6877 33.4276 44.548 32.5173L45.0688 32.8289C44.302 33.9713 43.1412 34.7765 41.8181 35.0834L38.4867 34.4144C36.7806 35.1201 33.9969 36.2474 33.0989 36.559C32.8922 36.6087 32.6821 36.6424 32.4704 36.6598C31.734 36.6598 30.6744 36.6598 29.7765 36.6598C29.2429 36.6736 28.709 36.6522 28.1781 36.5957L27.352 35.725C27.906 35.8515 28.4724 35.913 29.0401 35.9083C30.0454 35.9216 31.048 35.7983 32.0214 35.5417C32.3087 35.4684 32.3536 35.3034 32.2638 35.0376C32.1072 34.5759 31.8596 34.1517 31.5365 33.7912C31.2875 33.5153 31.014 33.2637 30.7193 33.0397C30.5038 32.8839 30.2883 32.8472 29.6777 33.0397C29.0671 33.2321 27.3699 34.1944 26.6246 34.6069C26.4225 34.718 26.1996 34.7844 25.9706 34.8018C25.7417 34.8192 25.5116 34.7871 25.2956 34.7077C24.2306 34.4107 23.1984 34.0022 22.2156 33.4887H22.1887Z" fill="#316596"/>
<path fill-rule="evenodd" clip-rule="evenodd" d="M27.0287 13.7291C27.1954 13.7291 27.3553 13.6615 27.4731 13.5412C27.591 13.4209 27.6572 13.2577 27.6572 13.0876C27.6584 13.0025 27.6431 12.9181 27.612 12.8393C27.5809 12.7604 27.5348 12.6885 27.4763 12.628C27.4179 12.5675 27.3482 12.5194 27.2713 12.4866C27.1945 12.4537 27.112 12.4369 27.0287 12.4369C26.8596 12.4369 26.6974 12.5054 26.5778 12.6274C26.4583 12.7495 26.3911 12.915 26.3911 13.0876C26.3911 13.1726 26.4077 13.2568 26.4398 13.3352C26.472 13.4137 26.5191 13.4848 26.5784 13.5445C26.6377 13.6042 26.7081 13.6512 26.7854 13.6829C26.8627 13.7146 26.9454 13.7303 27.0287 13.7291Z" fill="#316596"/>
</g>
<defs>
<clipPath id="clip0">
<rect width="168" height="45" fill="white"/>
</clipPath>
</defs>
</svg>
