<svg width="84" height="84" viewBox="0 0 84 84" fill="none" xmlns="http://www.w3.org/2000/svg"><g clip-path="url(#clip0)"><path d="M83.434 41.8c0 23.042-18.678 41.717-41.717 41.717C18.678 83.517 0 64.842 0 41.799 0 18.757 18.677.081 41.717.081s41.717 18.676 41.717 41.715" fill="#0A2A79"/><path d="M56.962 38.502h-4.277v1.909l4.277-.005v2.58h-4.277v2.119h4.277v3.555h-8.724V35.044h8.724v3.457zm7.583 6.425c0 .012 1.704-3.49 1.704-3.49s1.67 3.505 1.67 3.49h-3.374zm1.704-11.002c-2.758 4.869-8.189 14.739-8.189 14.739h4.654l.753-1.483h5.558l.732 1.483h4.686l-8.194-14.74zM39.71 41.147l3.055-6.102h4.74c.018 0-7.797 14.629-7.797 14.629l-7.785-14.629h4.748s2.797 5.676 3.04 6.102zm-8.515 7.513h-4.451V35.044s4.451.017 4.451 0V48.66zm-12.923-8.347v-5.269h4.45v14.63l-7.227-6.289v5.275H11.04V34.014l7.233 6.299z" fill="#fff"/></g><defs><clipPath id="clip0"><path fill="#fff" d="M0 .085h83.433v83.433H0z"/></clipPath></defs></svg>