<svg width="166" height="39" viewBox="0 0 166 39" fill="none" xmlns="http://www.w3.org/2000/svg"><path fill-rule="evenodd" clip-rule="evenodd" d="M43.149 25.108h3.824c1.493 0 2.06.514 2.06 1.776 0 1.215-.568 1.729-2.06 1.729H43.15v-3.505zm-5.927 12.757h5.927v-5.188h6.346c4.203 0 5.716-2.476 5.716-5.676 0-3.715-1.555-5.818-5.759-5.818h-12.23v16.682zm19.943-16.681h15.95v4.064H63.092v2.243h9.31v4.066h-9.31V33.8h10.023v4.065h-15.95V21.184zm24.356 3.924h3.824c1.494 0 2.06.514 2.06 1.776 0 1.215-.567 1.729-2.06 1.729h-3.824v-3.505zm-5.926 12.757h5.927v-5.188h6.346c4.205 0 5.716-2.476 5.716-5.676 0-3.715-1.555-5.818-5.758-5.818h-12.23v16.682zm23.726-7.08c-2.9-.49-4.097-2.36-4.097-4.696 0-4.322 3.804-5.49 8.679-5.49 6.681 0 9.435 1.939 9.647 5.467h-6.894c0-.679-.358-1.1-.903-1.333-.526-.255-1.197-.35-1.85-.35-1.765 0-2.375.49-2.375 1.192 0 .467.189.771.777.865l7.082 1.168c2.985.49 4.835 2.033 4.835 4.86 0 4.065-2.985 5.98-9.647 5.98-4.559 0-9.54-.7-9.562-5.606h7.146c.021.56.211.933.631 1.19.442.235 1.093.351 2.018.351 1.849 0 2.354-.56 2.354-1.355 0-.49-.273-.98-1.073-1.12l-6.768-1.123zm16.832-9.601h5.927v16.681h-5.927V21.184zm27.886 10.186c-.378 2.197-1.05 3.972-2.522 5.187-1.449 1.216-3.719 1.893-7.334 1.893-3.593 0-10.254-.28-10.254-8.924s6.661-8.925 10.254-8.925c3.572 0 9.078.514 9.855 7.126h-6.681c-.168-1.192-.883-2.92-3.174-2.92-2.417 0-3.951 1.332-3.951 4.72s1.493 4.72 3.657 4.72c1.872 0 2.985-.865 3.468-2.875h6.682v-.002zm7.755-1.845c0-3.388 1.536-4.72 3.951-4.72 2.417 0 3.952 1.332 3.952 4.72s-1.535 4.72-3.952 4.72c-2.416-.001-3.951-1.333-3.951-4.72zm-6.304 0c0 8.643 6.662 8.924 10.254 8.924 3.594 0 10.256-.28 10.256-8.924s-6.662-8.925-10.256-8.925c-3.592-.001-10.254.28-10.254 8.925zM28.268 21.348c.383-8.003-6.52-17.016-15.928-18.13l.016-.11c9.276 0 16.387 8.588 16.387 15.362-.01 1.41-.12 2.284-.32 2.919l-.155-.04zm-.562 1.018a15.077 15.077 0 01-2.303 2.234C23.73 14.98 16.659 6.564 11.66 4.108l-.107.075C16.58 8.31 22.578 16.322 24.909 24.977a19.5 19.5 0 01-3.83 2.193c-4.744-5.41-9.166-15.843-10.592-22.464l-.145.043c.032 6.427 4.595 17.338 10.16 22.661a19.002 19.002 0 01-3.958 1.093c-5.334-2.113-9.13-8.88-9.13-15.813 0-4.526 1.38-7.326 1.646-7.898l-.113-.045c-.323.489-2.345 3.286-2.345 8.172 0 7.836 3.865 13.826 8.996 15.712-1.835.202-3.69.115-5.497-.258l-.039.12c.548.202 2.411.984 5.251.984 6.426 0 10.769-3.993 12.518-7.027l-.125-.084z" fill="#255398"/><path fill-rule="evenodd" clip-rule="evenodd" d="M14.672.28C9.8.28 4.09 3.797 4.09 7.01c0 1.242 1.136 2.293 3.49 2.293 5.462 0 10.538-3.753 10.538-6.672 0-1.536-1.475-2.35-3.446-2.35zm1.944 2.26c0 2.46-4.724 5.467-8.674 5.467-1.744 0-2.687-.686-2.687-1.82 0-2.496 4.778-5.452 8.482-5.452 2.415 0 2.879 1.23 2.879 1.805z" fill="#0097D5"/><path fill-rule="evenodd" clip-rule="evenodd" d="M2.148 8.497c-.137.237-.685 1.31-.685 2.41 0 2.04 2.061 3.935 5.853 3.935 7.294 0 15.72-5.369 15.72-10.353 0-2.237-2.117-3.453-3.587-3.704L19.42.87c.457.145 2.133.924 2.133 2.917 0 3.97-7.44 9.382-14.852 9.382-2.837 0-4.625-1.4-4.625-3.441 0-.646.135-1.07.17-1.194l-.099-.038z" fill="#D9783E"/><path fill-rule="evenodd" clip-rule="evenodd" d="M26.044 4.862c.2.153 1.401 1.153 1.401 3.047 0 6.457-10.115 12.805-19.058 12.805-5.333 0-7.764-2.633-7.656-4.971h.094c.21 1.214 1.941 3.387 6.609 3.387 8.953 0 18.95-6.569 18.95-12.324 0-.987-.268-1.603-.419-1.876l.079-.068z" fill="#2F9C5C"/><path fill-rule="evenodd" clip-rule="evenodd" d="M29.426 10.89c.041.137.26.755.26 1.723 0 7.18-10.239 13.33-19.141 13.33-4.583 0-6.975-2.227-7.48-3.13l.08-.06c1.268 1.11 3.765 1.95 6.68 1.95 7.863 0 19.596-5.981 19.492-13.787l.109-.027z" fill="#CC2131"/></svg>