<svg width="152" height="50" viewBox="0 0 152 50" fill="none" xmlns="http://www.w3.org/2000/svg"><g clip-path="url(#clip0)" fill="#E61A27"><path d="M58.486 42.911c-5.617-3.561-13.241-4.186-25.536-.83-13.108 3.032-17.478 4.975-23.218 1.074-2.205-1.916-2.995-5-2.405-9.445 1.37-7.244 5.07-14.215 11.641-21.949 3.669-4.022 7.072-7.474 11.565-8.86 3.443-.87 3.121 1.793 2.705 2.174-.44 0-1.179.068-1.75.434-.463.354-1.735 1.496-1.803 3.032-.098 2.35 2.374 1.861 3.44.57 1.15-1.454 2.849-4.24 1.513-6.836-.56-.924-1.528-1.563-2.73-1.78-4.114-.231-7.946 1.699-11.483 3.832C12.691 9.614 6.505 16.94 3.004 24.958.986 29.796-.839 36.727 1.896 42.368c2.117 3.913 6.511 5.992 11.753 5.558 3.677-.38 8.123-1.55 11.113-2.256 2.99-.707 18.297-5.885 23.326 3.127 0 0 1.673-3.195 5.852-3.263 3.437-.312 8.394.979 12.004 3.588-1.203-1.78-4.613-4.403-7.458-6.211z"/><path d="M34.51 12.671c-2.863-1.848-8.616 1.686-13.225 7.747-4.215 5.437-6.034 11.756-4.054 14.678 2.946 3.438 8.415-1.563 10.741-4.24l.3-.313c1.582-1.672 2.803-3.683 3.986-5.613 0 0 1.087-1.767 1.14-1.849a26 26 0 002.392-.57c-.013.04-3.489 5.79-3.134 8.643.11.87.026 4.05 3.181 5.015 4.206.694 7.564-2.514 10.526-5.368 0 0 .505-.475.79-.747l-.166.665c-1.231 4.213.428 5.097 1.467 5.423 3.137.898 6.885-3.588 6.897-3.588-.097 1.413-.381 2.582 1.133 3.52 1.428.503 2.874-.264 3.973-.985 3.958-2.745 7.147-7.041 9.723-10.755h-1.643c-.02 0-4.054 5.754-6.674 7.005-.005 0-.481.24-.756.05-.34-.285-.206-.879.004-1.3.013-.027 10.116-17.269 10.116-17.269h-4.77s-.521.83-.563.884c-.033-.027-.11-.17-.162-.238-2.955-4.023-9.648 2.165-14.686 9.34-1.94 2.76-4.41 5.866-6.97 8.109 0 0-3.795 3.422-5.416.963-.592-1.033-.41-2.543-.075-3.535 1.887-5.287 5.139-10.085 8.84-12.98 1.044-.801 2.18-1.033 2.743-.693.538.313.624 1.087.285 1.617-.862-.027-1.553.23-2.114.802-1.106 1.141-1.49 2.242-1.139 3.275 1.708 2.392 5.115-2.338 4.95-5.219-.059-1.033-.619-2.011-1.455-2.487-1.246-.734-3.146-.544-4.376.041-1.646.611-4.252 2.745-5.774 4.403-1.915 2.08-5.2 4.39-6.226 4.131.335-.883 3.11-6.469.191-8.562zm22.998 8.264c.927-1.264 3.628-4.648 4.286-5.219 2.215-1.917 3.1-1.074 3.177-.476a427.941 427.941 0 01-6.8 11.566c.005-.013-.717 1.073-.717 1.073-1.013 1.522-2.033 2.827-3.696 3.737-.238.069-.629.096-.889-.095-.313-.204-.437-.544-.401-.897.1-1.168 1.308-4.742 5.04-9.69zm-25.95 2.188s-.042.122-.062.162c-.005 0-2.08 3.33-2.08 3.33-1.252 1.644-2.815 3.71-4.769 4.702-.58.19-1.38.313-1.788-.19-.865-1.019-.42-2.432-.057-3.574l.128-.407c1.039-2.773 2.686-5.22 4.29-7.49a.214.214 0 01.08-.026c.005.014.011.014.014.04 1.006 1.903 2.893 2.786 4.304 3.195.009 0 .018.013.018.04 0 .04-.023.096-.078.217zm1.965-3.928c-.009.027-.924 2.093-.924 2.093-.132.109-.341.055-.58 0l-.411-.068c-1.29-.394-2.262-1.237-2.562-2.242-.414-1.958 1.285-3.493 2.034-4.05.718-.49 1.834-.748 2.483-.245.4.462.551 1.06.551 1.713 0 .883-.276 1.875-.59 2.8zm60.303 6.306c-.46-.979-1.552-1.604-2.716-1.536-3.778.34-7.474 3.398-9.415 7.787-1.018 2.257-1.574 4.118-1.939 7.081 1.175-1.331 3.572-3.52 6.292-4.716 0 0 .37-2.84 2.257-5.368.714-1.047 2.143-2.732 3.748-2.284 1.402.463.91 4.282-.954 7.978-1.379 2.718-3.489 5.437-5.624 7.312-1.887 1.577-4.68 3.48-7.122 2.012-1.54-.897-2.324-2.773-2.158-5.192.735-6.863 3.91-12.707 8.453-19.366 4.685-6.184 9.849-12.53 16.805-15.915 1.419-.707 2.734-.87 3.869-.435 0 0-6.53 3.533-9.643 10.07-.792 1.659-1.893 3.9-.784 5.885.58 1.033 1.609 1.115 2.437 1.06 3.816-.87 6.281-4.376 8.295-7.583 1.168-2.433 2.206-4.852 2.206-7.543 0-.326-.017-.76-.045-1.087 1.823-.951 5.561.734 5.561.734 2.921.951 9.141 5.64 11.239 6.537 1.023-1.169 2.705-2.935 3.652-3.819l-1.371-.83c-2.194-1.317-4.514-2.568-6.797-3.805-5.186-2.785-9.407-1.807-11.556-1.046-.844.299-1.615.557-1.615.557-1.595-1.712-4.21-1.55-6.136-1.087C93.836 2.86 87.404 7.63 80.507 15.906c-5.07 6.483-8.216 12.082-9.892 17.614-1.292 3.723-1.685 9.2 1.469 12.449 2.681 2.758 6.237 2.16 8.748 1.169 5.44-2.637 10.33-8.318 12.766-14.855.588-1.944 1.24-4.689.228-6.782zM106.335 5.02c-.72 8.127-7.14 12.898-8.728 13.278-.963.19-2.606-.231-1.14-3.642 2.16-4.594 5.847-8.494 9.803-10.492.096.34.093.557.065.856zm38.083 1.033c-3.453 1.93-7.033 3.18-11.367 2.745a65.76 65.76 0 00-3.448 4.118c6.082 1.522 12.53-1.862 16.126-5.083 3.805-3.248 5.755-7.338 5.755-7.338s-2.851 3.207-7.066 5.558zM79.155 12.82h-4.53l-2.555 4.086h4.529l2.556-4.085z"/><path d="M133.033 43.288c-.487.326-1.171.076-.915-.672.637-1.902 3.171-5.78 3.171-5.78l7.057-12.317h-4.834c-.23.372-.721 1.224-.721 1.224-.224-.366-.892-1.181-1.168-1.358-1.181-.734-2.913-.387-4.109.279-5.197 2.99-8.989 8.898-11.979 13.506 0 0-3.148 5.122-4.896 5.502-1.364.11-1.223-1.7-1.164-2.12.528-3.045 1.753-5.94 2.987-8.563a66.71 66.71 0 007.978-6.414c5.649-5.315 10.412-11.335 11.109-12.68 0 0-.754.149-1.644.176-4.346 5.966-13.241 14.637-15.937 15.928 1.194-2.827 8.912-16.322 15.48-22.778l1.034-.979c1.598-1.536 3.254-3.112 4.544-3.37.136-.014.312 0 .463.313.058 1.196-.394 2.08-.913 3.085l-.728 1.468s1.031-.19 1.707-.409c.785-1.453 1.655-3.085 1.334-5.028-.107-.625-.567-1.1-1.168-1.21-1.959-.366-4.094 1.06-5.812 2.216l-.07.04c-8.832 6.81-16.29 16.622-22.81 30.023-.473.352-2.299.774-2.609.57.644-1.304 1.455-3.058 1.86-4.96.07-.545.136-1.101.136-1.645 0-1.17-.286-2.27-1.35-3.03-1.249-.613-2.792-.327-3.833.135-4.66 1.902-8.144 6.605-10.658 10.478-1.352 2.46-2.7 5.096-3.073 8.114-.263 2.364.272 3.886 1.639 4.648 1.404.706 3.173-.028 3.867-.381 4.722-2.447 8.021-7.353 10.622-11.838.103-.013 1.523-.054 2.597-.326.015 0 .021 0 .044.014-.061.203-.616 1.835-.616 1.835-1.648 4.756-2.411 7.991-.854 9.907 2.225 2.705 5.908-.095 8.905-3.792-.643 4.43 1.69 5.124 3.469 4.785 2.043-.544 4.32-2.692 5.376-3.792-.339 1.29-.247 3.602 1.612 3.832 1.274.232 2.227-.45 3.331-1.035 3.957-2.12 8.694-9.185 9.924-11.228h-1.613c-1.748 2.6-3.973 6.01-6.772 7.627zm-35.52-.473c-.25-.367-.334-.768-.342-1.202-.048-2.665 2.866-7.437 4.922-10.037h.004c.862 1.857 2.814 3.05 3.992 3.554-1.463 3.207-6.482 10.077-8.576 7.685zm9.402-9.12c-.139.096-2.6-.72-3.076-2.962-.404-1.93.947-3.439 2.254-4.2.562-.434 1.407-.583 2.027-.367.575.381.731 1.061.731 1.794 0 .45-.061.911-.114 1.332l-.012.096a17.957 17.957 0 01-1.81 4.308zm19.739 8.264c-.002 0-.467.407-.467.407-.664.585-1.347 1.21-2.172.897-.228-.081-.388-.38-.426-.612-.038-1.672.727-3.22 1.469-4.729l.19-.394c2.134-3.506 4.615-7.638 8.258-10.505.614-.436 1.28-.802 1.983-.517.162.15.35.408.35.666 0 .082-.074.299-.116.367-1.018 1.618-1.987 3.316-2.929 4.947-1.842 3.221-3.752 6.55-6.14 9.473z"/></g><defs><clipPath id="clip0"><path fill="#fff" d="M.511.463h150.973v48.669H.511z"/></clipPath></defs></svg>