<svg width="148" height="53" viewBox="0 0 148 53" fill="none" xmlns="http://www.w3.org/2000/svg"><path fill-rule="evenodd" clip-rule="evenodd" d="M143.316 7.724c1.961 4.448.636 9.736-3.465 12.936-3.846 3.177-9.884 4.198-14.825 2.429-4.712-1.52-8.15-5.924-8.253-10.326-.356-5.016 3.056-9.737 8.176-11.688C130.043-.99 136.54.1 140.436 3.753c1.3 1.18 2.192 2.54 2.88 3.971zM36.484.507L35.338 5.41c-.127.136-.28.227-.484.159-.509-.387-.305-1.135-.535-1.68-.152-.862-1.07-1.656-2.012-1.86-1.58-.273-3.694-.455-4.967.567-.586.59-.688 1.361-.61 2.202v4.97l.05.023c3.005.499 6.495.363 9.374-.273.178-.022.33.069.458.205.102.295-.102.59-.357.771-1.044.68-2.241 1.022-3.439 1.385-1.884.523-3.973.613-6.062.636v7.171c.051.93.866 1.839 1.86 2.134 2.547.59 5.553.34 7.26-1.634.84-.726.713-1.816 1.553-2.496.204-.068.357.068.408.227.025 1.68-.433 3.2-1.223 4.607-1.044 1.793-3.541 1.135-5.451 1.225-3.72-.227-7.54-.159-11.285-.068-.408-.023-.89-.068-1.095-.408-.05-.25.28-.296.433-.386.943-.046 1.885-.25 2.471-1.022.688-.93.739-2.11.739-3.313L22.398 3.71c-.102-.908-.458-1.861-1.452-2.315-.28-.227-.943-.205-.84-.658.305-.25.713-.273 1.145-.318l5.757.09 8.457-.248c.357.042.79-.049 1.02.246zM93.263.53l-1.146 4.88a.39.39 0 01-.46.159c-.56-.409-.306-1.204-.56-1.77-.179-.727-.917-1.453-1.733-1.68-1.68-.386-4.152-.613-5.424.68-.281.387-.408.864-.408 1.363v5.605l.076.023c2.956.5 6.47.363 9.324-.272.178-.022.356.09.457.227.103.25-.05.522-.28.703-1.044.749-2.292 1.021-3.514 1.43-1.885.454-3.923.636-6.037.636v7.216c.101.682.433 1.317 1.146 1.748 1.91.953 4.84.794 6.674-.25 1.248-.77 2.088-1.929 2.445-3.154.128-.136.179-.318.382-.386a.376.376 0 01.407.16c.077 1.77-.483 3.381-1.323 4.833-1.172 1.68-3.694.976-5.555 1l-.584-.046c-2.802-1.317-5.502-2.815-7.896-4.97l-.026-14.843c-.103-.999-.51-2.042-1.605-2.497-.255-.182-.866-.182-.739-.59.306-.25.739-.272 1.146-.318l5.809.091L92.295.26c.331.067.815-.07.968.271z" fill="#000"/><path fill-rule="evenodd" clip-rule="evenodd" d="M19.774.416c-.311 1.853-.66 3.7-1.044 5.538-.051.113-.153.227-.28.249a.48.48 0 01-.409-.114c-.56-.748-.05-1.906-.637-2.655-1.07-1.952-3.744-1.566-5.909-1.589-1.019.068-2.166.544-2.497 1.498-.331.84-.229 1.816-.254 2.746v4.29c3.49.386 7.438.34 10.774-.295.204 0 .485-.045.535.182a.621.621 0 01-.152.498c-2.09 1.453-4.61 2.02-7.26 2.27-1.249.136-2.573.136-3.872.09.051 2.565-.254 5.31.255 7.717.178.749.79 1.656 1.707 1.815.382.137.943.046 1.171.386.051.159.026.318-.05.409-.637.272-1.478.113-2.216.135l-5.019-.158c-1.12.023-2.241.249-3.362.113-.128-.045-.229-.113-.255-.25-.025-.135.077-.248.23-.293.968-.295 2.216-.295 2.675-1.339.358-.567.434-1.248.51-1.906L4.44 4.979C4.262 3.663 4.134 2.21 2.708 1.46c-.51-.136-1.172-.09-1.528-.476-.025-.136.05-.249.127-.34.28-.182.636-.228 1.02-.205l5.145.113 10.366-.18c.637-.001 1.35-.137 1.936.044zm26.44.16c2.981-.182 6.598-.637 9.145.703 1.58 1.044 2.471 2.587 2.191 4.357-.305 2.814-3.49 4.992-6.164 6.127.764.43 1.502 1.021 2.165 1.657l5.374 5.56c1.784 1.656 3.592 3.427 6.088 3.63.179.046.408.16.484.342.051.159-.025.34-.178.454-.382.227-.84.273-1.299.294-3.337.114-6.597-.09-8.838-2.405-2.905-2.61-4.331-5.81-7.49-8.26-.662-.477-1.528-.84-2.445-.568l.025 7.399c.102 1.067.535 2.201 1.732 2.7.51.273 1.58.023 1.529.817-.051.137-.23.205-.408.25-2.191.067-4.254-.34-6.47-.136l-3.77.159c-.28-.046-.637 0-.79-.273-.077-.203.153-.34.28-.408.943-.249 2.038-.227 2.624-1.135.79-1.09.688-2.496.714-3.88l-.051-14.094c-.102-.908-.33-1.816-1.299-2.338-.535-.317-1.3-.273-1.732-.749a.282.282 0 01.152-.363c2.268-.137 4.484.181 6.75.181l1.681-.022z" fill="#000"/><path fill-rule="evenodd" clip-rule="evenodd" d="M65.294.575c2.649-.204 5.73-.43 8.202.273 1.553.476 2.801 1.952 3.108 3.337.509 2.927-1.885 5.378-4.534 6.785-.535.25-1.07.545-1.605.795.764.453 1.502 1.044 2.165 1.679l5.35 5.515c1.833 1.656 3.617 3.517 6.164 3.676.178.046.356.16.407.318.077.16 0 .318-.1.431-.383.227-.842.318-1.325.318-3.618.204-7.057-.204-9.349-2.86-2.598-2.496-4.05-5.492-7.031-7.807-.688-.476-1.528-.84-2.42-.567v8.964c-1.936-.136-3.285-1.724-4.585-2.972l-.025-14.82c-.127-.885-.51-1.883-1.554-2.247-.458-.272-1.477-.113-1.426-.84.205-.25.561-.136.866-.181 2.571.022 5.093.34 7.692.203zm38.438 0c3.26-.113 7.311-.816 9.832 1.226 1.528 1.271 1.91 3.336 1.171 5.015-.892 2.247-3.591 3.95-5.858 4.948.765.43 1.504 1.021 2.166 1.657l5.451 5.628c1.783 1.612 3.566 3.427 6.088 3.585.153.046.33.16.407.319.077.159-.026.34-.179.454-1.223.522-2.852.272-4.253.272-2.523-.09-4.687-1.044-6.369-2.86-2.623-2.496-4.025-5.537-7.031-7.806-.662-.5-1.528-.795-2.42-.545l.026 7.035c.101 1.271.483 2.723 2.038 3.155.407.159.968.09 1.274.454 0 .181-.026.363-.229.455-2.243.249-4.407-.319-6.7-.069l-3.77.16c-.255-.046-.586-.023-.765-.25-.024-.181.052-.364.23-.409.942-.295 2.038-.25 2.65-1.157.56-.816.738-1.77.712-2.814l-.024-15.046c-.077-.976-.332-1.975-1.377-2.497-.534-.296-1.35-.205-1.681-.749 0-.159.077-.295.255-.34 2.803-.093 5.503.36 8.356.18z" fill="#000"/><path fill-rule="evenodd" clip-rule="evenodd" d="M51.895 3.208c.917 1.203 1.146 3.086.535 4.493-.892 1.929-3.16 3.109-5.4 3.223-.612-.069-1.376.181-1.707-.363l-.077-.273.025-6.468c.102-.862.382-1.815 1.426-2.133 1.937-.5 4 .023 5.198 1.52zm19.307.294c.867 1.407.917 3.586-.127 4.948-1.4 1.838-3.642 2.655-6.114 2.45-.254-.045-.509-.158-.61-.385-.077-2.202-.051-4.471 0-6.673.076-.863.356-1.793 1.375-2.133 2.064-.544 4.381.047 5.476 1.793zm38.463.091c.892 1.52.842 3.836-.407 5.174-1.478 1.634-3.541 2.316-5.885 2.134-.228-.046-.458-.136-.56-.34l-.077-.274.026-6.467c.101-.863.382-1.816 1.425-2.134 2.116-.544 4.435.115 5.478 1.907zm28.122 1.884c2.65 4.334 2.32 10.893-1.222 14.751-2.012 2.18-5.273 2.77-8.227 1.998-4.993-1.589-6.802-6.31-6.852-10.69.151-3.721 1.476-7.489 5.425-9.327 2.828-1.157 6.75-.862 9.044 1.158.763.658 1.375 1.361 1.832 2.11z" fill="#fff"/><path fill-rule="evenodd" clip-rule="evenodd" d="M49.526 35.456c1.91 3.973.994 9.1-2.344 12.256-3.923 3.835-9.934 5.242-15.487 3.586-4.534-1.249-8.354-5.401-8.737-9.624-.687-5.15 2.14-9.94 7.234-12.39 4.101-2.111 10.291-1.86 14.112.567 2.318 1.339 4.254 3.45 5.222 5.605zm23.867-6.58c.204.113.408.248.535.454v.318l-1.3 5.127c-.127.342-.228.727-.61.932-.204.044-.306-.115-.357-.228.203-1.997-.28-3.812-2.09-5.038-2.011-1.453-5.374-1.407-7.616-.432-4.483 2.066-6.266 6.4-5.757 10.735.484 3.473 3.005 7.104 6.878 8.466 4.076 1.405 8.686.226 11.538-2.679.127-.182.23-.385.46-.522.253-.046.33.204.407.34.076.614-.46 1.068-.943 1.5-3.438 3.267-8.023 5.037-13.016 3.925-4.687-.93-9.069-5.06-9.909-9.26-1.044-5.037 1.274-9.848 6.113-12.64 4.178-2.178 10.062-2.314 14.876-1.294l.791.295z" fill="#000"/><path fill-rule="evenodd" clip-rule="evenodd" d="M77.648 28.4l6.444-.182c.229 0 .407.09.535.226.077.206 0 .477-.254.545-.968.136-2.09.454-2.42 1.407-.918 2.247-.356 5.084-.485 7.603 3.568.522 7.515.25 10.852-.544-.127-2.384.46-5.06-.485-7.171-.509-1.066-1.808-1.113-2.826-1.385-.153-.09-.204-.25-.127-.386.127-.205.407-.205.687-.228 1.171.023 2.319.16 3.515.206l6.394-.206c.204.047.433.047.56.251.026.136.026.316-.102.43-.61.274-1.376.205-1.91.613-1.223 1.044-1.223 2.543-1.248 4.018l.024 13.706c.128 1.25.306 2.679 1.733 3.292.483.227 1.273.021 1.528.544.05.204-.102.386-.28.432-2.19.114-4.38-.114-6.572-.136-1.274.044-2.496.203-3.795.203-.23-.046-.485-.09-.562-.295-.05-.159.077-.295.23-.34.968-.272 2.19-.272 2.7-1.271.356-.613.483-1.317.535-2.042l.025-8.216c-.586.136-1.223.342-1.833.523-2.828.702-5.859.997-8.992 1.043-.026 2.497-.23 5.06.077 7.49.204.84.586 1.793 1.605 2.133.483.272 1.605-.023 1.425.794-.152.228-.433.205-.687.228-2.063.044-4-.206-6.062-.182l-3.77.182c-.179-.023-.382-.07-.484-.25-.077-.205.127-.364.331-.407.891-.206 1.96-.273 2.496-1.135.713-1.182.586-2.68.636-4.13l-.024-13.503c-.103-1.113-.281-2.294-1.427-2.928-.612-.25-1.325-.318-1.936-.568-.127-.114-.101-.25-.025-.385.484-.273 1.248-.137 1.834-.114l2.14.135zm40.373.113a106.202 106.202 0 01-1.172 4.946c-.102.137-.306.204-.458.114-.458-.431-.305-1.135-.484-1.68-.179-.884-1.095-1.634-2.038-1.86-1.731-.25-4.101-.545-5.247.884-.255.385-.306.863-.332 1.34v5.515c2.955.568 6.496.408 9.324-.25a.633.633 0 01.56.227c.103.522-.483.885-.892 1.112-2.674 1.272-5.73 1.68-8.966 1.702v7.127c.05.93.84 1.838 1.859 2.11 2.624.659 5.782.34 7.439-1.838.663-.66.61-1.567 1.273-2.225.102-.046.279-.09.382-.022.255.249.077.658.101.976-.178 1.497-.56 2.95-1.452 4.199-1.069 1.27-3.005.838-4.635.907-3.899-.296-8-.16-11.948-.114-.356-.023-.737-.069-.966-.341-.103-.16.05-.317.203-.363.892-.205 1.859-.205 2.497-.93 1.299-1.408.816-3.45.942-5.312l-.025-12.981c-.127-.93-.484-1.883-1.478-2.36-.305-.158-.663-.204-.891-.453-.052-.251.228-.342.407-.409l.84-.091 5.605.069 7.997-.228c.537.047 1.199-.136 1.555.229zm-107.316 0c3.44-.137 7.566-.681 9.579 2.201.968 1.249.892 3.2.152 4.54-1.044 2.087-3.515 3.562-5.68 4.515.968.522 1.86 1.318 2.65 2.111 2.878 2.769 5.272 6.15 8.889 8.192.713.454 1.68.364 2.445.703.153.115.179.318.128.5-.56.522-1.477.432-2.318.476-3.159.046-6.088-.385-8.202-2.632-2.776-2.564-4.177-5.674-7.26-8.079-.687-.477-1.553-.84-2.445-.544v7.035c.153 1.135.357 2.383 1.63 2.995.458.205.994.25 1.477.408.23.092.23.318.179.5-.128.158-.357.204-.56.204-3.413-.067-6.725-.181-10.113.023-.28 0-.586-.046-.739-.249l.026-.249c.637-.523 1.68-.205 2.293-.75 1.145-.885 1.273-2.178 1.247-3.472L4.058 31.94c-.077-.953-.331-1.952-1.375-2.45-.535-.25-1.223-.229-1.63-.681a.27.27 0 01.178-.387c3.158-.159 6.29.5 9.475.09z" fill="#000"/><path fill-rule="evenodd" clip-rule="evenodd" d="M129.179 28.49c2.929-.114 6.241-.477 8.432 1.316 1.502 1.248 1.884 3.292 1.197 4.97-.841 2.293-3.591 3.995-5.885 4.993a11.66 11.66 0 012.497 1.975c2.878 2.813 5.35 6.218 8.992 8.306.712.499 1.706.363 2.47.748.179.114.204.341.127.5-.586.476-1.478.43-2.292.453-2.752.046-5.349-.249-7.336-1.883-3.363-2.7-4.764-6.195-8.151-8.851-.688-.454-1.529-.817-2.42-.544l.024 7.217c.153 1.112.433 2.337 1.708 2.882.483.25 1.172.137 1.579.545a.374.374 0 01-.012.287.362.362 0 01-.216.188c-.714.092-1.504.046-2.217.046-2.752-.249-5.502-.022-8.278.023-.28-.023-.612-.023-.713-.272-.077-.182.077-.318.229-.386.917-.272 2.012-.228 2.597-1.09.663-.862.739-1.951.739-3.04l-.026-14.98c-.127-.907-.33-1.883-1.349-2.383-.536-.294-1.275-.227-1.681-.726-.026-.136 0-.341.204-.364 3.259-.156 6.494.502 9.781.07z" fill="#000"/><path fill-rule="evenodd" clip-rule="evenodd" d="M43.795 33.255c2.7 4.313 2.496 10.893-.891 14.843-1.91 2.202-4.917 2.928-7.897 2.337-4.432-.908-6.75-5.175-7.26-8.805-.408-3.654.255-7.217 2.828-9.919 2.063-2.086 5.196-2.723 8.227-2.063 2.038.43 3.948 1.929 4.993 3.607zm-28.249-1.724c.892 1.544.866 3.858-.408 5.242-1.477 1.657-3.592 2.315-5.91 2.133-.204-.044-.407-.157-.51-.34l-.075-.318v-6.241c.076-.817.228-1.634 1.044-2.133 1.401-.613 3.337-.408 4.585.34a3.86 3.86 0 011.274 1.317zm118.167-.023c.918 1.543.865 3.834-.356 5.22-1.503 1.68-3.669 2.429-6.063 2.156a.745.745 0 01-.433-.318l-.077-.341.026-6.332c.077-.884.357-1.883 1.452-2.202 2.063-.498 4.381.047 5.451 1.817z" fill="#fff"/></svg>