<svg width="167" height="52" viewBox="0 0 167 52" fill="none" xmlns="http://www.w3.org/2000/svg"><path d="M38.194 27.963c0-6.002 4.203-10.882 10.16-10.882 6.626 0 9.967 5.245 9.967 11.275 0 .28 0 1.122-.084 1.318H43.065c.474 3.366 2.896 5.245 5.958 5.245 2.338 0 4.008-.841 5.595-2.524l2.784 2.524c-1.949 2.356-4.649 3.955-8.49 3.955-6.18.084-10.718-4.32-10.718-10.91zm15.255-1.402c-.279-3.085-2.144-5.525-5.206-5.525-2.895 0-4.927 2.243-5.4 5.525h10.606zm5.957 1.515c0-5.919 4.566-10.883 10.718-10.883 3.925 0 6.347 1.515 8.296 3.562l-2.98 3.198c-1.502-1.515-2.978-2.637-5.4-2.637-3.452 0-5.957 3.001-5.957 6.76 0 3.758 2.505 6.759 6.236 6.759 2.227 0 3.925-1.038 5.4-2.636l2.895 2.804c-2.06 2.244-4.482 3.955-8.49 3.955-6.236 0-10.718-4.88-10.718-10.882zm19.208 0c0-6.003 4.76-10.883 11.08-10.883 6.347 0 10.996 4.88 10.996 10.883 0 5.917-4.76 10.882-11.08 10.882-6.347 0-10.996-4.88-10.996-10.882zm17.316 0c0-3.675-2.617-6.76-6.347-6.76-3.814 0-6.236 3.001-6.236 6.76 0 3.674 2.617 6.759 6.347 6.759 3.814-.112 6.236-3.113 6.236-6.76zm5.233 7.684l2.144-3.281c2.227 1.683 4.649 2.524 6.792 2.524 2.06 0 3.257-.841 3.257-2.356 0-1.514-1.948-2.075-4.287-2.72-.083 0-.278-.084-.362-.084-3.062-.926-6.43-2.16-6.43-6.283 0-3.955 3.257-6.395 7.349-6.395 2.617 0 5.401.926 7.628 2.356l-1.866 3.366c-1.948-1.234-4.092-1.964-5.873-1.964-1.866 0-2.896.842-2.896 2.16 0 1.402 1.949 2.076 4.287 2.805.084 0 .279.084.362.084 2.979.925 6.431 2.356 6.431 6.198 0 4.404-3.341 6.563-7.739 6.563-3.034.113-6.291-1.01-8.797-2.972zm17.51-7.684c0-6.003 4.761-10.883 11.08-10.883 6.347 0 10.996 4.88 10.996 10.883 0 5.917-4.761 10.882-11.08 10.882-6.347 0-10.996-4.88-10.996-10.882zm17.315 0c0-3.675-2.616-6.76-6.347-6.76-3.813 0-6.235 3.001-6.235 6.76 0 3.674 2.616 6.759 6.347 6.759 3.814-.112 6.235-3.113 6.235-6.76zm7.739-6.395h-2.616v-4.04h2.616v-1.514c0-2.356 1.114-7.516 10.161-7.516v4.123c-1.67 0-5.484 0-5.484 3.758v1.122h5.484v3.954h-5.4v16.8h-4.761V21.682zm13.029 10.994V12.874c1.113.196 3.73.757 4.76 1.514v3.282h3.173v3.955h-3.173v10.237c0 1.88.919 2.636 2.505 2.636 1.03 0 1.949-.28 2.979-.757v3.955c-1.225.645-2.505 1.038-4.287 1.038-3.424.028-5.957-1.459-5.957-6.059zM39.753 45.325h.751l1.309 4.038 1.308-4.038h.64l1.309 4.038 1.308-4.038h.752L45.348 50.4h-.64l-1.309-3.954-1.308 3.954h-.64l-1.698-5.076zm7.46 3.478c0-1.038.835-1.6 2.144-1.6.64 0 1.113.085 1.503.197v-.196c0-.842-.557-1.318-1.503-1.318-.557 0-1.03.196-1.504.364l-.194-.56c.556-.281 1.03-.477 1.781-.477.752 0 1.225.196 1.587.56.362.365.557.842.557 1.515v3.001h-.752v-.757c-.362.477-.919.841-1.782.841-.89.028-1.837-.533-1.837-1.57zm3.647-.365v-.477c-.362-.084-.835-.196-1.503-.196-.919 0-1.504.364-1.504 1.038 0 .673.557 1.037 1.225 1.037 1.03-.084 1.782-.56 1.782-1.402zm1.865.56v-3h-.64v-.645h.64v-1.515h.752v1.515h1.587v.645h-1.587v2.917c0 .56.362.841.835.841.278 0 .473-.084.752-.196v.645c-.279.084-.557.196-.92.196-.862 0-1.419-.477-1.419-1.402zm4.927.758c.64 0 1.114-.28 1.587-.757l.474.364c-.474.562-1.114.926-2.06.926-1.392 0-2.506-1.038-2.506-2.636 0-1.403 1.03-2.637 2.422-2.637 1.503 0 2.338 1.234 2.338 2.637v.28H55.9c.083 1.262.918 1.823 1.753 1.823zm1.392-2.272c-.083-.925-.64-1.683-1.586-1.683-.836 0-1.504.758-1.587 1.683h3.173zm1.504-2.16h.751v1.319c.362-.842 1.114-1.402 2.06-1.402v.841h-.083c-1.114 0-1.949.757-1.949 2.244v1.963h-.752c-.027.028-.027-4.964-.027-4.964zm5.567 0h.752v1.038c.362-.56 1.03-1.121 1.865-1.121 1.225 0 2.338.925 2.338 2.636 0 1.599-1.224 2.636-2.338 2.636-.919 0-1.503-.476-1.865-1.037V52h-.752v-6.675zm4.287 2.44c0-1.233-.835-1.963-1.781-1.963-.947 0-1.782.758-1.782 1.964s.835 1.963 1.782 1.963c.946 0 1.781-.73 1.781-1.963zm1.504-2.44h.751v1.319c.362-.842 1.114-1.402 2.06-1.402v.841h-.083c-1.114 0-1.95.757-1.95 2.244v1.963h-.778v-4.964zm2.783 2.44c0-1.402 1.114-2.636 2.617-2.636s2.617 1.234 2.617 2.637c0 1.402-1.114 2.636-2.617 2.636-1.587 0-2.617-1.206-2.617-2.636zm4.399 0c0-1.037-.835-1.963-1.865-1.963-1.114 0-1.782.842-1.782 1.964 0 1.122.751 1.963 1.865 1.963 1.03.028 1.782-.813 1.782-1.963zm1.559-1.766h-.64v-.645h.64v-.477c0-.561.194-1.038.473-1.318.278-.28.64-.365 1.03-.365s.557 0 .835.084v.645c-.278-.084-.473-.084-.752-.084-.556 0-.835.365-.835 1.038v.365h1.587v.645h-1.587v4.319h-.751v-4.207zm4.76 3.758c.64 0 1.113-.28 1.587-.757l.473.364c-.473.562-1.114.926-2.06.926-1.392 0-2.505-1.038-2.505-2.636 0-1.403 1.03-2.637 2.338-2.637 1.503 0 2.338 1.234 2.338 2.637v.28h-3.925c.084 1.262.919 1.823 1.754 1.823zm1.503-2.272c-.083-.925-.557-1.683-1.587-1.683-.835 0-1.503.758-1.586 1.683h3.173zm.919 2.16l.362-.56c.556.364 1.113.644 1.67.644.557 0 1.03-.28 1.03-.841 0-.477-.557-.645-1.225-.842-.751-.196-1.67-.477-1.67-1.402 0-.842.752-1.402 1.67-1.402.557 0 1.309.196 1.782.56l-.362.561c-.473-.28-1.03-.476-1.503-.476-.557 0-.92.28-.92.757s.641.645 1.31.841c.751.197 1.586.561 1.586 1.403 0 .925-.751 1.514-1.781 1.514-.557 0-1.392-.28-1.95-.757zm4.203 0l.362-.56c.557.364 1.114.644 1.67.644.557 0 1.03-.28 1.03-.841 0-.477-.556-.645-1.224-.842-.752-.196-1.67-.477-1.67-1.402 0-.842.751-1.402 1.67-1.402.556 0 1.308.196 1.781.56l-.362.561c-.473-.28-1.03-.476-1.503-.476-.557 0-.918.28-.918.757s.64.645 1.308.841c.751.197 1.587.561 1.587 1.403 0 .925-.752 1.514-1.782 1.514-.64 0-1.392-.28-1.949-.757zm4.454-6.283h.835v.842h-.835v-.842zm0 1.964h.752v4.964h-.752v-4.964zm1.504 2.44c0-1.403 1.113-2.637 2.616-2.637 1.504 0 2.617 1.234 2.617 2.637 0 1.402-1.113 2.636-2.617 2.636-1.503 0-2.616-1.206-2.616-2.636zm4.454 0c0-1.038-.835-1.964-1.865-1.964-1.114 0-1.782.842-1.782 1.964 0 1.122.752 1.963 1.865 1.963 1.058.028 1.782-.813 1.782-1.963zm1.419-2.44h.752v.841c.278-.56.835-.925 1.67-.925 1.225 0 1.866.841 1.866 1.963v3.085h-.752v-2.917c0-.925-.473-1.514-1.392-1.514-.835 0-1.503.645-1.503 1.598v2.805h-.752v-4.964c0 .028.111.028.111.028zm4.928 3.478c0-1.038.835-1.6 2.143-1.6.641 0 1.114.085 1.504.197v-.196c0-.842-.557-1.318-1.504-1.318-.556 0-1.03.196-1.503.364l-.195-.56c.557-.281 1.114-.477 1.782-.477.751 0 1.225.196 1.587.56.361.365.556.842.556 1.515v3.001h-.751v-.757c-.362.477-.919.841-1.782.841-.919.028-1.837-.533-1.837-1.57zm3.647-.365v-.477c-.362-.084-.836-.196-1.504-.196-.918 0-1.503.364-1.503 1.038 0 .673.557 1.037 1.225 1.037 1.03-.084 1.782-.56 1.782-1.402zm1.753-5.16h.752v7.04h-.752v-7.04zm1.309 6.366l.362-.56c.556.364 1.113.644 1.67.644.557 0 1.03-.28 1.03-.841 0-.477-.557-.645-1.225-.842-.752-.196-1.67-.477-1.67-1.402 0-.842.751-1.402 1.67-1.402.557 0 1.308.196 1.782.56l-.362.561c-.473-.28-1.03-.476-1.503-.476-.557 0-.919.28-.919.757s.64.645 1.308.841c.752.197 1.587.561 1.587 1.403 0 .925-.752 1.514-1.782 1.514-.556 0-1.391-.28-1.948-.757zM37.72.561A30.187 30.187 0 0031.959 0h-.835C14.142.477.445 14.276 0 31.357c.919.084 1.782.084 2.7.084 1.587 0 3.174-.196 4.76-.364C9.52 19.072 18.93 9.48 30.845 7.517c-2.06 12.004-11.469 21.596-23.383 23.56-.279 1.598-.362 3.197-.362 4.796 0 .925 0 1.879.083 2.72C24.135 38.23 37.748 24.43 38.194 7.236v-.841c.083-1.992-.112-3.955-.474-5.834zM5.4 50.4c1.504-.645 2.896-1.514 4.093-2.636-1.309-2.805-2.06-5.806-2.422-9.116h-.835a29.97 29.97 0 01-5.763-.56c.724 4.515 2.506 8.666 4.928 12.312z" fill="#00AEEF"/></svg>