<svg width="148" height="53" viewBox="0 0 148 53" fill="none" xmlns="http://www.w3.org/2000/svg">
<path fill-rule="evenodd" clip-rule="evenodd" d="M143.316 7.72401C145.277 12.172 143.952 17.4596 139.851 20.6599C136.005 23.8375 129.967 24.858 125.026 23.0887C120.314 21.5685 116.876 17.1651 116.773 12.7626C116.417 7.74672 119.829 3.02616 124.949 1.07512C130.043 -0.990265 136.54 0.0992196 140.436 3.75301C141.736 4.93256 142.628 6.29382 143.316 7.72401ZM36.4843 0.507281L35.3384 5.40955C35.2107 5.54583 35.058 5.63668 34.8543 5.56854C34.3452 5.18241 34.5489 4.43364 34.3194 3.88929C34.1667 3.02695 33.2495 2.23275 32.3073 2.02832C30.7275 1.75576 28.6135 1.57405 27.34 2.59617C26.7541 3.18594 26.6523 3.95743 26.7291 4.79784V9.76824L26.78 9.79096C29.7852 10.2899 33.2753 10.1536 36.1537 9.51839C36.3323 9.49646 36.4843 9.58654 36.6119 9.72282C36.7137 10.0181 36.5101 10.3134 36.2555 10.4943C35.2115 11.1749 34.0139 11.5156 32.8164 11.8791C30.9319 12.4015 28.843 12.4916 26.7541 12.5151V19.6863C26.805 20.6168 27.6204 21.5246 28.6135 21.8199C31.1606 22.4097 34.1667 22.1606 35.8733 20.1861C36.7137 19.46 36.5869 18.3705 37.4273 17.6899C37.6309 17.6217 37.7836 17.758 37.8353 17.917C37.8604 19.5963 37.4022 21.1165 36.6119 22.524C35.5679 24.3168 33.0709 23.6589 31.1606 23.749C27.4418 23.5218 23.6212 23.59 19.8765 23.6808C19.4685 23.6581 18.9852 23.6127 18.7808 23.2728C18.7307 23.0229 19.0612 22.9775 19.2139 22.8866C20.1569 22.8412 21.0992 22.6368 21.685 21.8653C22.3727 20.9348 22.4236 19.7545 22.4236 18.5522L22.3978 3.70993C22.2959 2.80216 21.9396 1.84896 20.9457 1.39469C20.6653 1.16755 20.0034 1.19026 20.1052 0.736768C20.4115 0.486916 20.8188 0.464204 21.2511 0.418776L27.0079 0.509632L35.4645 0.260563C35.8224 0.302858 36.2548 0.212001 36.4843 0.507281ZM93.2625 0.529994L92.1167 5.40955C92.0695 5.48416 91.9984 5.54052 91.915 5.56941C91.8316 5.5983 91.7409 5.598 91.6577 5.56854C91.0977 5.16048 91.3514 4.3655 91.0977 3.79844C90.9183 3.07238 90.1797 2.34631 89.3644 2.11918C87.6836 1.73304 85.2124 1.50591 83.9397 2.79981C83.6585 3.18594 83.5316 3.66293 83.5316 4.16185V9.76746L83.6084 9.79018C86.5635 10.2891 90.0779 10.1528 92.932 9.51761C93.1098 9.49568 93.2884 9.60847 93.3894 9.74475C93.492 9.9946 93.3393 10.2672 93.1098 10.4481C92.065 11.1969 90.8165 11.4694 89.5947 11.8775C87.7102 12.3318 85.6722 12.5135 83.5583 12.5135V19.7302C83.6593 20.4116 83.9914 21.0468 84.7041 21.4776C86.6144 22.4308 89.5445 22.2718 91.3781 21.2285C92.6265 20.4571 93.4662 19.2994 93.8225 18.0737C93.951 17.9382 94.0019 17.7565 94.2048 17.6883C94.2808 17.669 94.3609 17.674 94.4339 17.7025C94.5069 17.731 94.5692 17.7817 94.6121 17.8473C94.6888 19.6174 94.1288 21.2293 93.2892 22.6814C92.1174 24.3607 89.5947 23.6573 87.7345 23.6801L87.1502 23.6346C84.3478 22.318 81.6479 20.8205 79.2536 18.6642L79.2277 3.82193C79.1251 2.82331 78.7186 1.78004 77.6229 1.32498C77.3676 1.14327 76.7574 1.14327 76.8843 0.735202C77.1905 0.485351 77.6229 0.462638 78.0302 0.417211L83.8387 0.508064L92.2952 0.258997C92.6265 0.325572 93.1098 0.189287 93.2625 0.529994Z" fill="black"/>
<path fill-rule="evenodd" clip-rule="evenodd" d="M19.7738 0.416416C19.4629 2.26904 19.1148 4.11524 18.7298 5.95389C18.6788 6.06746 18.577 6.18103 18.4494 6.20296C18.2708 6.22567 18.1439 6.18102 18.0413 6.08938C17.4813 5.34061 17.9904 4.18299 17.4045 3.43422C16.3346 1.4824 13.6599 1.86775 11.495 1.84503C10.476 1.91318 9.32937 2.38938 8.99806 3.34336C8.66675 4.18299 8.76936 5.1589 8.74351 6.08938V10.3792C12.2336 10.7645 16.1819 10.7199 19.5185 10.0839C19.7221 10.0839 20.0025 10.0385 20.0534 10.2656C20.0656 10.3549 20.0582 10.4457 20.0318 10.5318C20.0055 10.618 19.9607 10.6974 19.9007 10.7645C17.8118 12.2166 15.2906 12.7845 12.6409 13.0336C11.3924 13.1698 10.068 13.1698 8.76936 13.1244C8.82027 15.6887 8.5148 18.4347 9.02391 20.8408C9.20248 21.5896 9.81419 22.4974 10.7306 22.6564C11.1128 22.7927 11.6736 22.7018 11.9023 23.0417C11.9532 23.2007 11.9281 23.3597 11.8514 23.4506C11.2146 23.7231 10.3742 23.5641 9.63561 23.5861L4.61743 23.4279C3.49662 23.4506 2.37581 23.6769 1.255 23.5414C1.12733 23.496 1.02629 23.4279 1.00045 23.2916C0.975384 23.1561 1.0772 23.0425 1.23072 22.9979C2.19801 22.7026 3.44649 22.7026 3.90547 21.6593C4.26262 21.0915 4.33859 20.4108 4.41457 19.7529L4.44042 4.97876C4.26184 3.66292 4.13417 2.21002 2.7079 1.46125C2.1988 1.32497 1.53618 1.37039 1.17981 0.985043C1.15474 0.84876 1.23072 0.735973 1.30748 0.644335C1.58709 0.463407 1.94346 0.417198 2.32646 0.439912L7.47153 0.553482L17.8384 0.371769C18.4752 0.370986 19.1879 0.234705 19.7738 0.416416ZM46.2143 0.575412C49.1952 0.393701 52.8122 -0.0605758 55.3593 1.27876C56.9391 2.32281 57.8304 3.86578 57.55 5.6359C57.2446 8.45006 54.0599 10.6282 51.386 11.7631C52.1504 12.1939 52.8882 12.7845 53.5508 13.4197L58.9254 18.9799C60.7088 20.6364 62.5173 22.4065 65.0135 22.6109C65.192 22.6564 65.4207 22.7699 65.4975 22.9517C65.5484 23.1106 65.4717 23.2924 65.3189 23.4059C64.9375 23.6331 64.4785 23.6785 64.0203 23.7004C60.683 23.814 57.4231 23.6096 55.1815 21.2951C52.2773 18.6854 50.851 15.4859 47.6922 13.0343C47.0296 12.5581 46.1641 12.1947 45.247 12.4673L45.272 19.8657C45.3738 20.9325 45.807 22.0674 47.0038 22.5663C47.5136 22.8389 48.5835 22.589 48.5326 23.3832C48.4817 23.5195 48.3031 23.5876 48.1246 23.6331C45.9339 23.7004 43.8708 23.2924 41.6543 23.4968L37.8845 23.6558C37.6042 23.6104 37.2478 23.6558 37.0951 23.3832C37.0183 23.1796 37.2478 23.0425 37.3755 22.9752C38.3177 22.7261 39.4134 22.748 39.9993 21.8402C40.7888 20.7508 40.687 19.3441 40.7128 17.9593L40.6619 3.86578C40.5601 2.95801 40.3314 2.05024 39.3633 1.52783C38.8283 1.21062 38.0639 1.25526 37.6308 0.779052C37.6037 0.71053 37.6045 0.634135 37.6331 0.566216C37.6616 0.498296 37.7156 0.444245 37.7835 0.41563C40.051 0.279347 42.2668 0.597342 44.5334 0.597342L46.2143 0.575412Z" fill="black"/>
<path fill-rule="evenodd" clip-rule="evenodd" d="M65.2938 0.575437C67.9427 0.371013 71.0247 0.144655 73.4958 0.848C75.049 1.32421 76.2974 2.79982 76.6037 4.18458C77.1128 7.11153 74.7192 9.56306 72.0695 10.9705C71.5346 11.2204 70.9996 11.5149 70.4647 11.7647C71.2291 12.2182 71.9669 12.8088 72.6296 13.444L77.9791 18.9587C79.8134 20.6153 81.5968 22.4762 84.1439 22.6352C84.3217 22.6807 84.5003 22.7942 84.5512 22.9532C84.6279 23.1122 84.5512 23.2712 84.4501 23.384C84.0679 23.6112 83.6089 23.702 83.1257 23.702C79.5079 23.9064 76.0687 23.4984 73.777 20.8424C71.179 18.3463 69.7269 15.3504 66.7459 13.0351C66.0582 12.5589 65.2178 12.1955 64.3265 12.4681V21.4322C62.3903 21.2959 61.0408 19.7075 59.7414 18.4598L59.7164 3.64023C59.5887 2.75518 59.2065 1.75656 58.1624 1.39314C57.7042 1.12057 56.6852 1.27957 56.7362 0.553507C56.9406 0.303655 57.297 0.417222 57.6024 0.371794C60.173 0.393725 62.695 0.71172 65.2938 0.575437ZM103.732 0.575437C106.992 0.461868 111.043 -0.241478 113.564 1.8012C115.092 3.07239 115.474 5.137 114.735 6.81625C113.843 9.06335 111.144 10.7653 108.877 11.7639C109.642 12.1947 110.381 12.7853 111.043 13.4205L116.494 19.0488C118.277 20.6607 120.06 22.4755 122.582 22.6345C122.735 22.6799 122.912 22.7935 122.989 22.9525C123.066 23.1115 122.963 23.2932 122.81 23.4067C121.587 23.9292 119.958 23.6793 118.557 23.6793C116.034 23.5884 113.87 22.6352 112.188 20.8197C109.565 18.3228 108.163 15.2822 105.157 13.0132C104.495 12.5135 103.629 12.2182 102.737 12.4681L102.763 19.5031C102.864 20.7743 103.246 22.2264 104.801 22.658C105.208 22.817 105.769 22.7488 106.075 23.1122C106.075 23.2932 106.049 23.4749 105.846 23.5665C103.603 23.8156 101.439 23.2485 99.1452 23.4984L95.3763 23.6574C95.1209 23.6119 94.7904 23.6347 94.6111 23.4075C94.5868 23.2266 94.6627 23.0441 94.8405 22.9995C95.7828 22.7042 96.8785 22.7496 97.4902 21.8418C98.0502 21.0257 98.2288 20.0717 98.203 19.0277L98.1787 3.98173C98.1019 3.00582 97.8466 2.00719 96.8018 1.48477C96.2676 1.18949 95.4523 1.28035 95.1209 0.735999C95.1209 0.577002 95.1977 0.440721 95.3763 0.395294C98.1787 0.302872 100.879 0.756364 103.732 0.575437Z" fill="black"/>
<path fill-rule="evenodd" clip-rule="evenodd" d="M51.8947 3.20786C52.8119 4.41091 53.0406 6.2938 52.4297 7.70128C51.5384 9.6296 49.2709 10.8099 47.0293 10.9235C46.4176 10.8554 45.6539 11.1052 45.3226 10.5609L45.2458 10.2883L45.2709 3.82035C45.3727 2.95801 45.6531 2.00482 46.6972 1.68682C48.6341 1.1879 50.6972 1.70953 51.8947 3.20786ZM71.2023 3.50236C72.0685 4.90905 72.1194 7.08801 71.0754 8.45005C69.6742 10.2883 67.4326 11.1052 64.9614 10.9008C64.7069 10.8554 64.4523 10.7418 64.3505 10.5147C64.2738 8.31299 64.2996 6.04396 64.3505 3.84228C64.4273 2.97916 64.7069 2.04868 65.7259 1.70875C67.7897 1.16519 70.1073 1.75574 71.2023 3.50236ZM109.665 3.59322C110.557 5.11347 110.507 7.42871 109.258 8.76726C107.78 10.4011 105.717 11.0825 103.373 10.9008C103.145 10.8554 102.915 10.7645 102.813 10.5601L102.736 10.2875L102.762 3.81957C102.863 2.95723 103.144 2.00403 104.187 1.68604C106.303 1.14247 108.622 1.80117 109.665 3.59322ZM137.787 5.47689C140.437 9.81131 140.107 16.3701 136.565 20.2283C134.553 22.4073 131.292 22.9971 128.338 22.2256C123.345 20.6372 121.536 15.9166 121.486 11.5368C121.637 7.81485 122.962 4.04749 126.911 2.20924C129.739 1.05162 133.661 1.3469 135.955 3.36686C136.718 4.02478 137.33 4.72812 137.787 5.47689Z" fill="white"/>
<path fill-rule="evenodd" clip-rule="evenodd" d="M49.5258 35.456C51.4361 39.4286 50.5197 44.5564 47.1823 47.7121C43.2591 51.5468 37.2478 52.9543 31.6954 51.2977C27.1613 50.0493 23.3407 45.8965 22.9584 41.6741C22.2708 36.5236 25.0975 31.7341 30.1924 29.2834C34.2934 27.1725 40.4833 27.4232 44.3039 29.8512C46.6223 31.1898 48.5577 33.3006 49.5258 35.456ZM73.3933 28.8753C73.5969 28.9889 73.8014 29.1244 73.9283 29.3296V29.6476L72.6289 34.7754C72.5012 35.1169 72.4002 35.5022 72.0179 35.7067C71.8143 35.7513 71.7117 35.5923 71.6608 35.4787C71.8644 33.4823 71.3804 31.6667 69.5719 30.441C67.5598 28.9881 64.1973 29.0335 61.9549 30.0094C57.4717 32.0748 55.6891 36.4084 56.1982 40.7436C56.6822 44.2165 59.2034 47.8476 63.0757 49.2096C67.1517 50.6155 71.7618 49.436 74.6144 46.531C74.7412 46.3493 74.8439 46.1456 75.0733 46.0093C75.3271 45.9631 75.4039 46.213 75.4806 46.3493C75.5574 46.9625 75.0216 47.4168 74.5384 47.8484C71.1 51.116 66.5149 52.8861 61.5218 51.7739C56.8349 50.8434 52.4535 46.7135 51.6131 42.5145C50.569 37.4768 52.8866 32.6661 57.7262 29.8739C61.904 27.6957 67.7877 27.5595 72.6022 28.58L73.3933 28.8753Z" fill="black"/>
<path fill-rule="evenodd" clip-rule="evenodd" d="M77.6478 28.3998L84.0915 28.2181C84.321 28.2181 84.4995 28.3082 84.6272 28.4444C84.704 28.6497 84.6272 28.9214 84.3734 28.9888C83.4054 29.1251 82.2838 29.4431 81.9532 30.3963C81.0353 32.6434 81.5969 35.4795 81.4684 37.9991C85.036 38.5208 88.9828 38.2482 92.3201 37.4548C92.1933 35.0714 92.7791 32.3943 91.8353 30.2835C91.3262 29.2175 90.0268 29.1713 89.0086 28.8987C88.8559 28.8087 88.805 28.6497 88.8817 28.5134C89.0086 28.3082 89.289 28.3082 89.5686 28.2855C90.7403 28.3082 91.8878 28.4445 93.0838 28.4907L99.4781 28.2855C99.6818 28.3317 99.9112 28.3317 100.038 28.5361C100.064 28.6724 100.064 28.8525 99.9355 28.9661C99.3254 29.2402 98.5602 29.1713 98.026 29.5794C96.8026 30.6226 96.8026 32.1217 96.7775 33.5966L96.8018 47.3032C96.9303 48.5532 97.1081 49.9818 98.5351 50.5951C99.0184 50.8215 99.8079 50.6163 100.063 51.1395C100.113 51.3431 99.9606 51.5248 99.7836 51.571C97.5929 51.6846 95.4022 51.4567 93.2115 51.4347C91.9371 51.4794 90.7145 51.6384 89.4159 51.6384C89.1864 51.5922 88.9311 51.5483 88.8543 51.3431C88.8042 51.1841 88.9311 51.0478 89.0838 51.0032C90.0519 50.7306 91.2745 50.7306 91.7836 49.732C92.14 49.1187 92.2669 48.4146 92.3194 47.6901L92.3436 39.474C91.7578 39.6102 91.121 39.8155 90.5109 39.9972C87.6826 40.6989 84.6523 40.9942 81.5193 41.0404C81.4935 43.5374 81.2898 46.1009 81.5961 48.5297C81.7997 49.3694 82.1819 50.3226 83.2009 50.6625C83.6842 50.935 84.8058 50.6398 84.6264 51.4567C84.4737 51.6846 84.1933 51.6619 83.9395 51.6846C81.8757 51.7292 79.9395 51.4794 77.8773 51.5029L74.1068 51.6846C73.9282 51.6619 73.7246 51.6157 73.6227 51.4355C73.546 51.2303 73.7504 51.0713 73.9541 51.0275C74.8454 50.8223 75.9145 50.7549 76.4502 49.8926C77.163 48.7114 77.0361 47.2139 77.0862 45.7626L77.0619 32.2596C76.9593 31.1474 76.7807 29.9663 75.6349 29.3319C75.0232 29.0828 74.3104 29.0139 73.6995 28.764C73.5718 28.6504 73.5977 28.5149 73.6737 28.3787C74.1577 28.1061 74.9221 28.2424 75.508 28.2651L77.6478 28.3998ZM118.021 28.5126C117.665 30.1691 117.283 31.8257 116.849 33.4595C116.747 33.5958 116.543 33.6631 116.391 33.5731C115.933 33.1415 116.086 32.4382 115.907 31.893C115.728 31.0088 114.812 30.2592 113.869 30.0328C112.138 29.7838 109.768 29.4885 108.622 30.9171C108.367 31.3025 108.316 31.7802 108.29 32.2572V37.772C111.245 38.3398 114.786 38.1801 117.614 37.5214C117.719 37.5096 117.825 37.5243 117.923 37.5641C118.021 37.6039 118.107 37.6676 118.174 37.7493C118.277 38.2709 117.691 38.6336 117.282 38.8615C114.608 40.1327 111.552 40.5415 108.316 40.5627V47.6901C108.366 48.6206 109.156 49.5276 110.175 49.8009C112.799 50.4588 115.957 50.1408 117.614 47.9619C118.277 47.3024 118.224 46.3954 118.887 45.7375C118.989 45.6913 119.166 45.6474 119.269 45.7148C119.524 45.9638 119.346 46.3727 119.37 46.6907C119.192 48.1882 118.81 49.6419 117.918 50.8896C116.849 52.1592 114.913 51.7277 113.283 51.7966C109.384 51.5013 105.283 51.6376 101.335 51.683C100.979 51.6603 100.598 51.6141 100.369 51.3415C100.266 51.1825 100.419 51.0251 100.572 50.9789C101.464 50.7737 102.431 50.7737 103.069 50.0484C104.368 48.6409 103.885 46.5991 104.011 44.7373L103.986 31.756C103.859 30.8255 103.502 29.8731 102.508 29.3953C102.203 29.2379 101.845 29.1917 101.617 28.9426C101.565 28.692 101.845 28.6011 102.024 28.5345L102.864 28.4429L108.469 28.5118L116.466 28.2839C117.003 28.3309 117.665 28.1484 118.021 28.5126ZM10.7055 28.5126C14.1447 28.3763 18.2715 27.832 20.2837 30.7143C21.2517 31.9627 21.1758 33.9146 20.4364 35.2531C19.3923 37.3412 16.9212 38.816 14.7556 39.7692C15.7237 40.2909 16.6158 41.0866 17.4053 41.8801C20.2837 44.6488 22.678 48.03 26.295 50.0719C27.0085 50.5262 27.9758 50.4361 28.7402 50.7753C28.893 50.8896 28.9188 51.0933 28.8679 51.2758C28.3079 51.7974 27.3907 51.7073 26.5503 51.7512C23.3915 51.7974 20.4622 51.3658 18.3483 49.1187C15.5717 46.5552 14.1713 43.445 11.0885 41.0404C10.4008 40.5634 9.53454 40.2008 8.64322 40.4961V47.5311C8.79595 48.666 8.99959 49.9145 10.2731 50.5262C10.7313 50.7314 11.2671 50.7753 11.7503 50.9343C11.9798 51.0259 11.9798 51.2522 11.9289 51.4347C11.8012 51.5922 11.5717 51.6384 11.3689 51.6384C7.95553 51.571 4.64402 51.4567 1.25574 51.6611C0.975343 51.6611 0.669882 51.6149 0.517151 51.412L0.542998 51.163C1.17977 50.6398 2.22382 50.9578 2.83553 50.4134C3.9814 49.5276 4.10907 48.2352 4.08322 46.9405L4.05816 31.94C3.9814 30.9868 3.72685 29.9882 2.6828 29.4893C2.14785 29.2402 1.46017 29.2614 1.0521 28.8087C1.03295 28.7722 1.02245 28.7318 1.02139 28.6906C1.02034 28.6494 1.02877 28.6086 1.04603 28.5712C1.06329 28.5338 1.08892 28.5009 1.12094 28.4749C1.15296 28.449 1.1905 28.4308 1.23068 28.4217C4.38868 28.2635 7.52162 28.9214 10.7055 28.5126Z" fill="black"/>
<path fill-rule="evenodd" clip-rule="evenodd" d="M129.179 28.4899C132.108 28.3763 135.42 28.0129 137.611 29.8057C139.113 31.0542 139.495 33.0977 138.808 34.7762C137.967 37.0695 135.217 38.7706 132.923 39.7693C133.842 40.3101 134.682 40.9745 135.42 41.7438C138.298 44.5572 140.77 47.9619 144.412 50.05C145.124 50.5489 146.118 50.4126 146.882 50.798C147.061 50.9116 147.086 51.1395 147.009 51.2985C146.423 51.7739 145.531 51.7285 144.717 51.7512C141.965 51.7974 139.368 51.5021 137.381 49.8683C134.018 47.1685 132.617 43.6729 129.23 41.017C128.542 40.5627 127.701 40.2001 126.81 40.4726L126.834 47.6901C126.987 48.8023 127.267 50.0273 128.542 50.5724C129.025 50.8215 129.714 50.7087 130.121 51.1168C130.138 51.1629 130.146 51.212 130.144 51.2613C130.142 51.3106 130.13 51.359 130.109 51.4035C130.088 51.4479 130.057 51.4876 130.02 51.52C129.983 51.5525 129.94 51.577 129.893 51.5922C129.179 51.6838 128.389 51.6384 127.676 51.6384C124.924 51.3893 122.174 51.6157 119.398 51.6611C119.118 51.6384 118.786 51.6384 118.685 51.3886C118.608 51.2069 118.762 51.0706 118.914 51.0032C119.831 50.7306 120.926 50.7753 121.511 49.9137C122.174 49.0506 122.25 47.9619 122.25 46.8724L122.224 31.8931C122.097 30.9861 121.894 30.0102 120.875 29.5097C120.339 29.216 119.6 29.2833 119.194 28.7844C119.168 28.6481 119.194 28.4429 119.398 28.4202C122.657 28.2636 125.892 28.9215 129.179 28.4899Z" fill="black"/>
<path fill-rule="evenodd" clip-rule="evenodd" d="M43.7952 33.2551C46.495 37.5676 46.2913 44.1483 42.9038 48.0982C40.9935 50.2999 37.9875 51.0259 35.0073 50.4354C30.5749 49.5268 28.2573 45.2605 27.7474 41.6302C27.3394 37.9757 28.002 34.4127 30.5749 31.7113C32.638 29.6248 35.7709 28.988 38.802 29.6475C40.84 30.0775 42.7503 31.5766 43.7952 33.2551ZM15.5462 31.5312C16.4375 33.075 16.4117 35.3894 15.1381 36.7734C13.661 38.4299 11.5462 39.0879 9.22864 38.9061C9.02421 38.8615 8.82057 38.7487 8.71875 38.5662L8.64278 38.2482V32.0066C8.71875 31.1897 8.87148 30.3728 9.68683 29.8739C11.088 29.2606 13.0242 29.4658 14.2719 30.2138C14.8076 30.5553 15.2658 31.0307 15.5462 31.5312ZM133.713 31.5077C134.631 33.0515 134.578 35.3424 133.357 36.7272C131.854 38.4072 129.688 39.1568 127.294 38.8842C127.115 38.8357 126.961 38.7224 126.861 38.5662L126.784 38.2247L126.81 31.893C126.887 31.0088 127.167 30.0102 128.262 29.6914C130.325 29.1932 132.643 29.7384 133.713 31.5077Z" fill="white"/>
</svg>
