<svg width="492" height="313" viewBox="0 0 492 313" fill="none" xmlns="http://www.w3.org/2000/svg"><g opacity=".1" fill="#B69D6D"><path d="M292.283 508.046l-4.005-1.907 2.098-4.386 65.792-32.801 32.992-65.792 65.792-32.992 32.801-65.792 4.386-2.098 1.907 4.005-3.051 1.526-32.801 65.792-65.792 32.801-32.801 65.792-65.792 32.801-1.526 3.051z"/><path d="M264.631 508.046l-4.004-1.907 11.251-22.884 65.792-32.801 32.992-65.792 65.792-32.992 32.801-65.792 22.884-11.251 1.907 4.004-21.549 10.68-32.801 65.792-65.792 32.801-32.801 65.792-65.792 32.801-10.68 21.549z"/><path d="M236.789 508.047l-4.005-1.907 20.596-41.383 65.793-32.801 32.991-65.792 65.792-32.991 32.801-65.793 41.383-20.596 1.907 4.005-40.048 20.024-32.801 65.792-65.792 32.801-32.801 65.792-65.792 32.801-20.024 40.048z"/><path d="M209.137 508.047l-4.004-1.907 29.749-59.881 65.792-32.801 32.992-65.792 65.792-32.992 32.801-65.792 59.881-29.749 1.907 4.004-58.546 29.178-32.801 65.792-65.792 32.801-32.801 65.792-65.792 32.801-29.178 58.546z"/><path d="M162.606 509l-2.098-4.005 23.075-11.442 32.801-65.792 65.792-32.801 32.991-65.793 65.793-32.991 32.801-65.792 65.792-32.801 11.442-23.075 4.005 2.098-12.205 24.219-65.602 32.991-32.991 65.793-65.793 32.8-32.8 65.793-65.793 32.991-32.991 65.602L162.606 509z"/><path d="M107.111 509l-2.097-4.005 60.071-29.94 32.801-65.792 65.792-32.801 32.992-65.792 65.792-32.992 32.801-65.792 65.792-32.801 29.94-60.071 4.005 2.097-30.703 61.216-65.602 32.991-32.991 65.793-65.792 32.801-32.801 65.792-65.793 32.991-32.991 65.602L107.111 509z"/><path d="M76.6 508.047l-4.006-1.907 8.2-16.782 65.793-32.801 32.801-65.792 65.792-32.801 32.991-65.793 65.793-32.991 32.801-65.792 65.792-32.801 32.801-65.792 16.782-8.2 1.907 4.004-15.257 7.628-32.991 65.602-65.602 32.991-32.991 65.793-65.793 32.8-32.8 65.793-65.793 32.991-32.991 65.602-65.602 32.991-7.628 15.257z"/><path d="M48.756 508.047l-4.004-1.907 17.544-35.28 65.793-32.801 32.8-65.793 65.793-32.8 32.991-65.793 65.793-32.991 32.8-65.793 65.793-32.8 32.801-65.793 35.28-17.544 1.907 4.005-33.755 16.972-32.991 65.602-65.602 32.991-32.991 65.792-65.793 32.801-32.801 65.793-65.792 32.991-32.991 65.602-65.602 32.991-16.973 33.755z"/><path d="M21.105 508.047l-4.005-1.908 26.698-53.778 65.793-32.8 32.8-65.793 65.793-32.801 32.991-65.792 65.792-32.991 32.801-65.793 65.793-32.8 32.8-65.793L492.139 31.1l1.908 4.005-52.253 26.126-32.991 65.792-65.602 32.801-32.992 65.792-65.792 32.801-32.801 65.792-65.792 32.992-32.801 65.602-65.792 32.991-26.126 52.253z"/><path d="M-16.273 509l-1.907-4.005 10.68-5.339 32.8-65.793 65.792-32.8 32.801-65.793 65.793-32.801 32.991-65.792 65.792-32.991 32.801-65.793 65.793-32.801 32.8-65.792 65.793-32.8 5.339-10.68L495-2.273l-5.912 12.014-65.792 32.992-32.992 65.792-65.601 32.801-32.992 65.792-65.792 32.801-32.801 65.792-65.792 32.992-32.801 65.601-65.792 32.992-32.992 65.792L-16.273 509z"/><path d="M-63.949 505.186l-2.097-4.005L-26 481.157l32.8-65.792 65.793-32.801 32.801-65.792 65.792-32.801 32.992-65.792 65.792-32.992 32.801-65.792 65.792-32.8 32.801-65.793L467.157-12l20.024-40.047 4.005 2.097L470.59-8.757l-65.792 32.992-32.992 65.792-65.601 32.801-32.992 65.792-65.792 32.801-32.801 65.792-65.792 32.992-32.801 65.601-65.793 32.992-32.991 65.792-41.192 20.596z"/><path d="M-63.949 477.343l-2.097-3.814 21.549-10.87 32.8-65.792 65.793-32.801 32.8-65.792 65.793-32.801 32.992-65.792 65.792-32.992 32.801-65.792 65.792-32.801 32.801-65.792 65.792-32.801 10.87-21.55 3.814 2.098-11.251 22.694L386.3 5.736 353.308 71.53l-65.601 32.8-32.992 65.793-65.792 32.801-32.801 65.792-65.793 32.991-32.8 65.602L-8.264 400.3l-32.991 65.792-22.694 11.251z"/><path d="M-63.949 449.692l-2.097-4.005 3.05-1.526 32.802-65.792 65.792-32.801 32.8-65.792 65.793-32.801 32.992-65.792 65.792-32.992 32.801-65.792 65.792-32.801 32.801-65.792 65.792-32.801 1.526-3.052 4.005 2.098-2.098 4.196-65.793 32.991-32.991 65.793-65.602 32.8-32.991 65.793-65.793 32.8-32.8 65.793-65.793 32.991-32.8 65.602-65.793 32.991-32.991 65.793-4.196 2.098z"/><path d="M-62.995 398.583L-67 396.676l18.307-36.805L17.1 327.07l32.991-65.792 65.602-32.801 32.991-65.793 65.793-32.991 32.801-65.602L313.07 31.1l32.801-65.793L382.676-53l1.907 4.005-35.28 17.735-32.991 65.792-65.602 32.801-32.991 65.793-65.793 32.8-32.8 65.793-65.793 32.991-32.8 65.602-65.793 32.991-17.735 35.28z"/><path d="M-63.949 344.805l-2.097-4.005 64.648-32.228 32.991-65.793 65.602-32.8 32.991-65.793 65.793-32.991 32.8-65.602 65.793-32.991L326.8-52.046l4.005 2.097-32.991 65.983-65.602 32.801-32.991 65.792-65.793 32.801-32.801 65.793-65.792 32.991-32.8 65.602-65.984 32.991z"/><path d="M-63.949 317.153l-2.097-4.004 46.15-23.075 32.991-65.793 65.602-32.801 32.991-65.792 65.792-32.991 32.801-65.602 65.793-32.992 23.075-46.15 4.004 2.098-23.837 47.485-65.602 32.8-32.992 65.793-65.792 32.801-32.8 65.792-65.793 32.992-32.8 65.602-47.486 23.837z"/><path d="M-63.949 289.311l-2.097-4.005 27.651-13.731 32.992-65.792 65.602-32.801L93.19 107.19l65.792-32.992 32.801-65.601 65.793-32.992 13.73-27.652 4.005 2.098-14.494 28.987-65.601 32.8-32.992 65.793-65.792 32.801-32.8 65.792-65.793 32.992-32.801 65.601-28.987 14.494z"/><path d="M-63.949 261.659l-2.097-4.005 9.153-4.577 32.992-65.792L41.7 154.484l32.992-65.792L140.484 55.7l32.801-65.6 65.792-32.992 4.577-9.154 4.005 2.098-5.34 10.489-65.601 32.8-32.992 65.793-65.792 32.8-32.801 65.793-65.792 32.992-32.801 65.601-10.489 5.34z"/><path d="M-62.995 219.895L-67 217.797l24.6-49.01 65.602-32.801 32.992-65.792 65.792-32.992 32.801-65.601L203.797-53l2.098 4.005-47.675 23.838-32.992 65.792-65.792 32.8-32.801 65.793-65.792 32.992-23.838 47.675z"/><path d="M-62.995 164.401L-67 162.303l6.102-12.014 65.602-32.801 32.992-65.792 65.792-32.992 32.801-65.601L148.303-53l2.098 4.005-10.68 5.34-32.991 65.792-65.792 32.8L8.137 120.73l-65.793 32.991-5.34 10.68z"/><path d="M-63.949 129.121l-2.097-4.005 52.252-26.126 32.992-65.793L84.99.206l26.126-52.253 4.005 2.098L88.231 3.64l-65.792 32.8-32.8 65.793-53.588 26.889z"/><path d="M-63.949 101.278l-2.097-4.005 33.754-16.781L.699 14.699l65.793-32.991 16.781-33.755 4.005 2.098-17.544 35.09L3.94 17.94l-32.8 65.793-35.09 17.544z"/><path d="M-63.949 73.626l-2.097-4.004 15.256-7.629L-17.8-3.799 47.994-36.79l7.628-15.257 4.004 2.098-8.39 16.591L-14.558-.557l-32.8 65.792-16.592 8.391zm.954-32.61L-67 39.11l30.703-61.406L25.11-53l1.907 4.005-60.071 29.94-29.94 60.071z"/></g></svg>