<svg width="280" height="376" viewBox="0 0 280 376" fill="none" xmlns="http://www.w3.org/2000/svg"><g clip-path="url(#clip0)" fill="#B69D6D" opacity=".1"><path d="M276.274 574.24l-3.184-1.52 16.374-32.988 52.308-26.148 26.229-52.446 52.307-26.299 26.078-52.447 32.9-16.418 1.516 3.192-31.839 15.962-26.078 52.447-52.307 26.147-26.077 52.447-52.307 26.147-15.92 31.924z"/><path d="M254.29 574.24l-3.184-1.52 23.652-47.734 52.307-26.147 26.229-52.447 52.307-26.299 26.078-52.447 47.607-23.715 1.516 3.193-46.545 23.259-26.078 52.446-52.307 26.147-26.078 52.447-52.307 26.147-23.197 46.67z"/><path d="M217.296 575l-1.668-3.193 18.345-9.121 26.078-52.446 52.307-26.148 26.229-52.446 52.308-26.299 26.077-52.447 52.307-26.147 9.097-18.394 3.184 1.672-9.703 19.306-52.156 26.299-26.229 52.447-52.307 26.147-26.078 52.447-52.307 26.299-26.229 52.295L217.296 575z"/><path d="M173.176 575l-1.668-3.192 47.759-23.867 26.078-52.447 52.307-26.147 26.229-52.447 52.307-26.299 26.078-52.446 52.307-26.148 23.803-47.886 3.184 1.673-24.41 48.798-52.155 26.299-26.229 52.446-52.307 26.148-26.078 52.446-52.307 26.3-26.23 52.294L173.176 575z"/><path d="M148.918 574.24l-3.184-1.52 6.519-13.378 52.307-26.147 26.078-52.447 52.307-26.147 26.23-52.446 52.307-26.3 26.077-52.446 52.307-26.148 26.078-52.446 13.342-6.537 1.516 3.192-12.129 6.081-26.229 52.295-52.156 26.299-26.229 52.447-52.307 26.147-26.078 52.446-52.307 26.3-26.229 52.294-52.156 26.3-6.064 12.161z"/><path d="M126.782 574.24l-3.184-1.52 13.948-28.124 52.308-26.147 26.077-52.447 52.307-26.147 26.23-52.446 52.307-26.3 26.077-52.446 52.308-26.148 26.077-52.446 28.049-13.986 1.516 3.193-26.836 13.529-26.229 52.295-52.155 26.299-26.23 52.447-52.307 26.147-26.078 52.446-52.307 26.3-26.229 52.294-52.155 26.3-13.494 26.907z"/><path d="M104.798 574.24l-3.184-1.52 21.226-42.87 52.307-26.147 26.078-52.446 52.307-26.148 26.229-52.446 52.307-26.3 26.078-52.446 52.307-26.147 26.078-52.447 42.755-21.283 1.516 3.193-41.542 20.826-26.23 52.447-52.155 26.147-26.229 52.447-52.307 26.147-26.078 52.447-52.307 26.299-26.078 52.294-52.307 26.3-20.771 41.653z"/><path d="M75.081 575l-1.516-3.192 8.49-4.257 26.078-52.446 52.307-26.148 26.078-52.446 52.307-26.147 26.23-52.447 52.307-26.299 26.077-52.447 52.307-26.147 26.078-52.447 52.307-26.147 4.245-8.513 3.184 1.52-4.7 9.577-52.307 26.3-26.229 52.446-52.156 26.147-26.229 52.447-52.307 26.147-26.078 52.447-52.307 26.299-26.078 52.295-52.307 26.299-26.229 52.447L75.081 575z"/><path d="M37.178 571.96l-1.668-3.193 31.839-15.962 26.078-52.446 52.307-26.148 26.077-52.446 52.307-26.147 26.23-52.447 52.307-26.299 26.078-52.447 52.307-26.147 26.077-52.447 52.307-26.147 15.92-31.924 3.184 1.672-16.374 32.836-52.308 26.3-26.229 52.446-52.155 26.148-26.23 52.446-52.307 26.147-26.077 52.447-52.308 26.299-26.077 52.295-52.307 26.299-26.23 52.447-32.748 16.418z"/><path d="M37.178 549.765l-1.668-3.04 17.132-8.666 26.078-52.446 52.307-26.147 26.078-52.447 52.307-26.147 26.229-52.447 52.307-26.299 26.078-52.447 52.307-26.147 26.078-52.446 52.307-26.148 8.642-17.178 3.032 1.672-8.945 18.091-52.307 26.299-26.23 52.446-52.155 26.148-26.229 52.446-52.307 26.148-26.078 52.446-52.307 26.299-26.078 52.295-52.307 26.299-26.23 52.447-18.041 8.969z"/><path d="M37.178 527.722l-1.668-3.192 2.426-1.216 26.077-52.447 52.307-26.147 26.078-52.447 52.307-26.147 26.23-52.447 52.307-26.299 26.077-52.446 52.307-26.148 26.078-52.446 52.307-26.148 1.213-2.432 3.184 1.672-1.668 3.345-52.307 26.299-26.229 52.447-52.156 26.147-26.229 52.446-52.307 26.148-26.078 52.446-52.307 26.3-26.078 52.294-52.307 26.299-26.229 52.447-3.335 1.672z"/><path d="M37.936 486.981l-3.184-1.52 14.555-29.34 52.307-26.147 26.229-52.447 52.156-26.147 26.229-52.446 52.307-26.3 26.078-52.294 52.307-26.3 26.078-52.446L392.259 127l1.516 3.192-28.048 14.138-26.23 52.447-52.155 26.147-26.23 52.447-52.307 26.147-26.077 52.446-52.307 26.3-26.078 52.294-52.307 26.3-14.1 28.123z"/><path d="M37.178 444.112l-1.668-3.193 51.397-25.691 26.229-52.447 52.156-26.147 26.229-52.446 52.307-26.3 26.078-52.294 52.307-26.299 25.623-51.535 3.184 1.672-26.229 52.599-52.156 26.147-26.229 52.447-52.307 26.147-26.078 52.447-52.307 26.299-26.078 52.294-52.458 26.3z"/><path d="M37.178 422.069l-1.668-3.193 36.69-18.394 26.23-52.446 52.155-26.148 26.23-52.446 52.307-26.299 26.077-52.295 52.308-26.299 18.345-36.789 3.184 1.672-18.952 37.853-52.156 26.147-26.229 52.447-52.307 26.147-26.078 52.447-52.307 26.299-26.077 52.294-37.753 19.003z"/><path d="M37.178 399.874l-1.668-3.192 21.984-10.946 26.23-52.446 52.155-26.147 26.229-52.447 52.307-26.299 26.078-52.295 52.307-26.299 10.916-22.043 3.184 1.672-11.523 23.107-52.155 26.147-26.229 52.447-52.308 26.147-26.077 52.447-52.307 26.299-26.078 52.295-23.045 11.553z"/><path d="M37.178 377.831l-1.668-3.192 7.277-3.648 26.23-52.447 52.155-26.147 26.229-52.447 52.307-26.299 26.078-52.295 52.307-26.299 3.639-7.297 3.184 1.672-4.245 8.361-52.156 26.148-26.229 52.446-52.307 26.147-26.078 52.447-52.307 26.299-26.078 52.295-8.338 4.256z"/><path d="M37.936 344.539l-3.184-1.672 19.558-39.069 52.155-26.147 26.23-52.447 52.307-26.299 26.078-52.295L250.045 127l1.667 3.192-37.903 19.003-26.23 52.446-52.307 26.148-26.077 52.446-52.307 26.299-18.952 38.005z"/><path d="M37.936 300.302l-3.184-1.673 4.851-9.577 52.156-26.147 26.229-52.447 52.307-26.299 26.078-52.294 9.552-4.865 1.667 3.192-8.49 4.257-26.229 52.446-52.307 26.148-26.078 52.446-52.307 26.3-4.245 8.513z"/><path d="M37.178 272.178l-1.668-3.192 41.542-20.827 26.23-52.446 52.307-26.3 20.771-41.653 3.184 1.672-21.378 42.718-52.307 26.147-26.078 52.447-42.604 21.434z"/><path d="M37.178 249.983l-1.668-3.192 26.836-13.378 26.229-52.446 52.307-26.3 13.342-26.907 3.184 1.672-13.949 27.972-52.307 26.147-26.077 52.447-27.898 13.985z"/><path d="M37.178 227.941l-1.668-3.193 12.129-6.081 26.23-52.446 52.306-26.299 6.065-12.162 3.184 1.672-6.671 13.226-52.307 26.147-26.078 52.447-13.19 6.689zm.758-25.996l-3.184-1.52 24.41-48.95L107.982 127l1.516 3.192-47.759 23.867-23.803 47.886zm0-44.237l-3.184-1.52 9.703-19.459L63.862 127l1.516 3.192-18.346 9.122-9.096 18.394z"/></g><defs><clipPath id="clip0"><path fill="#fff" d="M34.752 127h446.809v448H34.752z"/></clipPath></defs></svg>