<svg width="181" height="376" viewBox="0 0 181 376" fill="none" xmlns="http://www.w3.org/2000/svg"><g clip-path="url(#clip0)" fill="#B69D6D" opacity=".07"><path d="M161.772 260.461l1.341-4.313 24.206 8.197 69.18-23.37 69.139 23.246 69.315-23.235 69.273 23.11 69.18-23.369 69.139 23.245 24.22-8.24 1.334 4.31-25.558 8.511-69.139-22.976-69.314 23.235-69.14-23.246-69.18 23.37-69.273-23.111-69.18 23.1-25.543-8.464z"/><path d="M122.879 221.29l1.342-4.312 63.121 21.23 69.18-23.37 69.14 23.246 69.314-23.235 69.273 23.111 69.18-23.37 69.139 23.246 63.159-21.344 1.334 4.31-64.497 21.615-69.139-22.977-69.314 23.235-69.139-23.245-69.181 23.369-69.273-23.11-69.18 23.1-64.459-21.499z"/><path d="M102.164 199.079l-1.468-4.175 17.53-6.079 69.139 23.246 69.18-23.37 69.14 23.246 69.314-23.235 69.273 23.111 69.18-23.37 69.14 23.246 69.18-23.37 17.519 6.047-1.476 4.178-16.047-5.375-69.181 23.1-69.139-22.976-69.314 23.235-69.139-23.245-69.181 23.369-69.273-23.111-69.18 23.101-69.14-22.976-16.057 5.403z"/><path d="M82.65 179.426l-1.467-4.175 37.066-12.563 69.139 23.246 69.18-23.37 69.14 23.246 69.314-23.235 69.273 23.111 69.18-23.37 69.14 23.246 69.18-23.37 37.044 12.496-1.475 4.178-35.573-11.824-69.18 23.1-69.14-22.976-69.314 23.235-69.139-23.245-69.181 23.369-69.273-23.111-69.18 23.101-69.14-22.977-35.593 11.888z"/><path d="M63.271 159.908l-1.468-4.175 56.469-19.182 69.139 23.246 69.181-23.37 69.139 23.246 69.314-23.235 69.273 23.111 69.181-23.37 69.139 23.246 69.18-23.37 56.435 19.08-1.475 4.178-54.964-18.408L602.5 164.14l-69.006-23.111-69.314 23.235-69.139-23.246-69.181 23.37-69.273-23.111-69.046 23.235-69.273-23.111-54.997 18.507z"/><path d="M36.406 134.2l1.475-4.178 11.233 3.762 69.181-23.37 69.139 23.246 69.181-23.37 69.139 23.246 69.314-23.235 69.273 23.111 69.181-23.37 69.139 23.246 69.18-23.37 69.14 23.246 11.24-3.783 1.468 4.175-12.579 4.323-69.273-23.111-69.314 23.235-69.006-23.111-69.314 23.235-69.139-23.246-69.181 23.37-69.273-23.111-69.046 23.235-69.273-23.111L48.977 138.5l-12.571-4.3z"/><path d="M5.67 97.85l1.342-4.312 42.126 14.109 69.18-23.37 69.139 23.246 69.181-23.37 69.139 23.246 69.314-23.236 69.273 23.111 69.181-23.37 69.139 23.246 69.18-23.37 69.14 23.246 42.15-14.184 1.334 4.31-43.355 14.59-69.273-23.111-69.314 23.235-69.006-23.111-69.314 23.235-69.139-23.246-69.18 23.37-69.273-23.11-69.047 23.234-69.273-23.11L49 112.361 5.67 97.851z"/><path d="M25.219 78.163l1.207-4.177 22.735 7.524 69.18-23.37 69.139 23.246 69.181-23.37L325.8 81.262l69.314-23.235 69.273 23.11 69.181-23.37 69.139 23.246 69.181-23.37 69.139 23.246 22.748-7.565 1.2 4.176-23.819 8.105-69.273-23.111-69.314 23.235-69.005-23.111-69.315 23.235-69.139-23.246-69.18 23.37-69.273-23.11L187.61 86.1l-69.273-23.11-69.314 23.234-23.804-8.062z"/><path d="M44.633 58.61l1.341-4.312 3.21 1.075 69.18-23.37 69.14 23.246 69.18-23.37 69.139 23.246 69.314-23.235L464.41 55l69.181-23.37 69.139 23.246 69.181-23.37 69.139 23.246 3.211-1.08 1.334 4.31-4.416 1.486-69.273-23.111-69.314 23.235-69.005-23.111-69.314 23.235-69.14-23.246-69.18 23.37-69.273-23.11-69.047 23.234-69.273-23.11-69.314 23.234-4.413-1.478z"/><path d="M81.184 23.144l-1.468-4.175 38.671-13.103 69.14 23.246 69.314-23.236 69.005 23.112L395.16 5.752l69.274 23.111L533.48 5.628l69.273 23.111 69.181-23.37 38.648 13.034-1.475 4.178L671.93 10.22l-69.315 23.235-69.005-23.111-69.314 23.235-69.14-23.246-69.18 23.37-69.273-23.111-69.047 23.235-69.273-23.11-37.2 12.427z"/><path d="M118.273-15.556l1.341-4.312L187.55 2.975l69.314-23.236 69.005 23.112 69.315-23.236 69.273 23.111 69.046-23.235 69.273 23.111 67.977-22.964 1.333 4.31-69.448 23.37-69.005-23.111-69.314 23.235-69.14-23.246-69.18 23.37-69.273-23.111L187.679 7.69l-69.406-23.246z"/><path d="M137.687-35.108l1.341-4.313 48.545 16.259 69.314-23.236 69.006 23.112 69.314-23.236L464.48-23.41l69.046-23.235 69.274 23.11 48.573-16.345 1.334 4.31-50.045 16.75-69.006-23.11-69.314 23.235-69.139-23.246-69.181 23.37-69.273-23.111-69.047 23.235-50.015-16.661z"/><path d="M157.235-54.796l1.341-4.313 29.02 9.81 69.314-23.236 69.006 23.111 69.314-23.235 69.273 23.111 69.046-23.235 69.274 23.111 29.037-9.86 1.334 4.31-30.509 10.266-69.006-23.111-69.314 23.235-69.139-23.246-69.181 23.37-69.273-23.111-69.046 23.235-30.491-10.212z"/><path d="M176.649-74.349l1.341-4.312 9.629 3.225 69.314-23.236 69.006 23.111 69.314-23.235 69.273 23.111 69.047-23.235 69.273 23.111 9.634-3.242 1.334 4.31-11.106 3.648-69.006-23.111-69.314 23.235-69.139-23.246-69.181 23.37-69.273-23.111-69.046 23.235-11.1-3.628z"/></g><defs><clipPath id="clip0"><path transform="scale(.99644 1.00355) rotate(45 558.07 330.063)" fill="#fff" d="M0 0h559.014v560.011H0z"/></clipPath></defs></svg>