<svg width="486" height="649" viewBox="0 0 486 649" fill="none" xmlns="http://www.w3.org/2000/svg"><g clip-path="url(#clip0)" fill="#B69D6D" opacity=".1"><path d="M469.789 887.047l-4.004-1.907 20.595-41.383 65.793-32.801 32.991-65.792 65.793-32.991 32.8-65.793 41.383-20.596 1.907 4.005-40.048 20.024-32.8 65.792-65.793 32.801-32.801 65.792-65.792 32.801-20.024 40.048z"/><path d="M442.138 887.047l-4.005-1.907 29.749-59.881 65.793-32.801 32.991-65.792 65.792-32.992 32.801-65.792 59.881-29.749 1.907 4.004-58.546 29.178-32.801 65.792-65.792 32.801-32.801 65.792-65.792 32.801-29.177 58.546z"/><path d="M395.606 888l-2.098-4.005 23.075-11.442 32.801-65.792 65.792-32.801 32.992-65.793 65.792-32.991 32.801-65.792 65.792-32.801 11.442-23.075 4.005 2.098-12.205 24.219-65.602 32.991-32.991 65.793-65.792 32.8-32.801 65.793-65.793 32.991-32.991 65.602L395.606 888z"/><path d="M340.112 888l-2.098-4.005 60.071-29.94 32.801-65.792 65.792-32.801 32.992-65.792 65.792-32.992 32.801-65.792 65.792-32.801 29.941-60.071 4.004 2.097-30.703 61.216-65.601 32.991-32.992 65.793-65.792 32.801-32.801 65.792-65.792 32.991-32.992 65.602L340.112 888z"/><path d="M309.599 887.047l-4.004-1.907 8.2-16.782 65.792-32.801 32.801-65.792 65.792-32.801 32.992-65.793 65.792-32.991 32.801-65.792 65.792-32.801 32.801-65.792 16.782-8.201 1.907 4.005-15.256 7.628-32.992 65.602-65.601 32.991-32.992 65.793-65.792 32.8-32.801 65.793-65.792 32.991-32.992 65.602-65.602 32.991-7.628 15.257z"/><path d="M281.757 887.047l-4.005-1.907 17.545-35.28 65.792-32.801 32.801-65.793 65.792-32.8 32.992-65.793 65.792-32.991 32.801-65.793 65.792-32.8 32.801-65.793 35.28-17.544 1.907 4.004-33.754 16.973-32.992 65.602-65.602 32.991-32.991 65.792-65.792 32.801-32.801 65.793-65.793 32.991-32.991 65.602-65.602 32.991-16.972 33.755z"/><path d="M254.105 887.047l-4.005-1.908 26.698-53.778 65.793-32.8 32.801-65.793 65.792-32.801 32.991-65.792 65.793-32.991 32.801-65.793 65.792-32.8 32.801-65.793L725.14 410.1l1.907 4.005-52.253 26.126-32.991 65.792-65.602 32.801-32.991 65.792-65.793 32.801-32.8 65.792-65.793 32.992-32.801 65.602-65.792 32.991-26.126 52.253z"/><path d="M216.727 888l-1.907-4.005 10.68-5.339 32.8-65.793 65.793-32.8 32.8-65.793 65.793-32.801 32.991-65.792 65.793-32.991 32.8-65.793 65.793-32.801 32.801-65.792 65.792-32.801 5.34-10.679 4.004 1.907-5.911 12.014-65.793 32.992-32.991 65.792-65.602 32.801-32.991 65.792-65.793 32.801-32.801 65.792-65.792 32.992-32.801 65.601-65.792 32.992-32.992 65.792L216.727 888z"/><path d="M169.051 884.186l-2.097-4.005 40.047-20.024 32.801-65.792 65.792-32.801 32.801-65.792 65.793-32.801 32.991-65.792 65.792-32.992 32.801-65.792 65.792-32.801 32.801-65.792 65.793-32.801 20.023-40.048 4.005 2.098-20.596 41.192-65.792 32.991-32.992 65.793-65.601 32.801-32.992 65.792-65.792 32.801-32.801 65.792-65.792 32.992-32.801 65.601-65.792 32.992-32.992 65.792-41.192 20.596z"/><path d="M169.051 856.343l-2.097-3.814 21.549-10.87 32.801-65.792 65.792-32.801 32.801-65.792 65.792-32.801 32.992-65.792 65.792-32.992 32.801-65.792 65.792-32.801 32.801-65.792 65.793-32.801 10.87-21.55 3.814 2.098-11.252 22.694-65.792 32.991-32.992 65.793-65.601 32.8-32.992 65.793-65.792 32.801-32.801 65.792-65.792 32.991-32.801 65.602-65.792 32.992-32.992 65.792-22.694 11.251z"/><path d="M169.051 828.692l-2.097-4.005 3.051-1.526 32.801-65.792 65.792-32.801 32.801-65.792 65.792-32.801 32.992-65.792 65.792-32.992 32.801-65.792 65.792-32.801 32.801-65.792 65.792-32.801 1.526-3.052 4.005 2.098-2.098 4.196-65.792 32.991-32.992 65.793-65.601 32.8-32.992 65.793-65.792 32.8-32.801 65.793-65.792 32.991-32.801 65.602-65.793 32.991-32.991 65.793-4.196 2.098z"/><path d="M170.005 777.583L166 775.676l18.308-36.805L250.1 706.07l32.992-65.792 65.601-32.801 32.992-65.793 65.792-32.991 32.801-65.602L546.07 410.1l32.801-65.793L615.677 326l1.907 4.005-35.28 17.735-32.992 65.792-65.602 32.801-32.991 65.793-65.792 32.8-32.801 65.793-65.793 32.991-32.8 65.602-65.793 32.991-17.735 35.28z"/><path d="M169.051 723.805l-2.097-4.005 64.648-32.228 32.991-65.793 65.602-32.8 32.992-65.793 65.792-32.991 32.801-65.602 65.792-32.991 32.229-64.649 4.004 2.098-32.991 65.983-65.602 32.801-32.991 65.792-65.793 32.801-32.8 65.793-65.793 32.991-32.801 65.602-65.983 32.991z"/><path d="M169.051 696.153l-2.097-4.004 46.15-23.075 32.991-65.793 65.602-32.801 32.991-65.792 65.793-32.991 32.8-65.602 65.793-32.992 23.075-46.15 4.005 2.098-23.838 47.485-65.602 32.801-32.991 65.792-65.793 32.801-32.8 65.792-65.793 32.992-32.801 65.602-47.485 23.837z"/><path d="M169.051 668.311l-2.097-4.005 27.652-13.731 32.991-65.792 65.602-32.801 32.991-65.792 65.793-32.992 32.8-65.601 65.793-32.992 13.73-27.652 4.005 2.098-14.493 28.987-65.602 32.801-32.991 65.792-65.793 32.801-32.801 65.792-65.792 32.992-32.801 65.601-28.987 14.494z"/><path d="M169.051 640.659l-2.097-4.005 9.153-4.577 32.992-65.792 65.602-32.801 32.991-65.792 65.792-32.992 32.801-65.601 65.793-32.992 4.576-9.154 4.005 2.098-5.339 10.489-65.602 32.801-32.992 65.792-65.792 32.801-32.801 65.792-65.792 32.992-32.801 65.601-10.489 5.34z"/><path d="M170.005 598.895L166 596.797l24.601-49.01 65.601-32.801 32.992-65.792 65.792-32.992 32.801-65.601L436.798 326l2.097 4.005-47.675 23.838-32.992 65.792-65.792 32.801-32.801 65.792-65.792 32.992-23.838 47.675z"/><path d="M170.005 543.401L166 541.303l6.103-12.014 65.601-32.801 32.992-65.792 65.792-32.992 32.801-65.602L381.303 326l2.098 4.005-10.679 5.339-32.992 65.793-65.792 32.801-32.801 65.792-65.792 32.991-5.34 10.68z"/><path d="M169.051 508.121l-2.097-4.005 52.252-26.126 32.992-65.793 65.792-32.991 26.126-52.253 4.005 2.098-26.889 53.588-65.792 32.8-32.801 65.793-53.588 26.889z"/><path d="M169.051 480.278l-2.097-4.005 33.754-16.781 32.992-65.793 65.792-32.991 16.782-33.755 4.004 2.098-17.544 35.089-65.792 32.801-32.801 65.793-35.09 17.544z"/><path d="M169.051 452.626l-2.097-4.004 15.256-7.628 32.991-65.793 65.793-32.991 7.628-15.257 4.005 2.098-8.391 16.591-65.793 32.801-32.8 65.792-16.592 8.391zm.954-32.61L166 418.109l30.703-61.406L258.11 326l1.907 4.005-60.072 29.94-29.94 60.071zm0-55.494L166 362.615l12.205-24.41L202.615 326l1.907 4.005-23.075 11.442-11.442 23.075z"/></g><defs><clipPath id="clip0"><path fill="#fff" d="M166 326h562v562H166z"/></clipPath></defs></svg>