<svg width="670" height="313" viewBox="0 0 670 313" fill="none" xmlns="http://www.w3.org/2000/svg">
<g opacity="0.1">
<g clip-path="url(#clip0)">
<path d="M307.539 510.584L306.055 506.404L369.433 485.098L439.149 508.427L509 485.233L578.851 508.427L648.567 485.098L711.945 506.404L710.461 510.584L648.432 489.818L578.716 513.146L509 489.818L439.284 513.146L369.568 489.818L307.539 510.584Z" fill="#B69D6D"/>
<path d="M273.962 478.355L275.31 474.04L299.717 482.266L369.433 458.937L439.149 482.266L509 459.072L578.851 482.266L648.567 458.937L718.283 482.266L742.69 474.04L744.038 478.355L718.282 486.851L648.567 463.792L578.716 486.986L509 463.657L439.284 486.986L369.433 463.792L299.718 486.851L273.962 478.355Z" fill="#B69D6D"/>
<path d="M234.721 439.115L236.07 434.8L299.718 456.106L369.433 432.778L439.149 456.106L509 432.912L578.851 456.106L648.567 432.778L718.282 456.106L781.93 434.8L783.279 439.115L718.282 460.691L648.567 437.632L578.716 460.826L509 437.497L439.284 460.826L369.433 437.632L299.718 460.691L234.721 439.115Z" fill="#B69D6D"/>
<path d="M213.82 416.866L212.337 412.685L230.002 406.617L299.718 429.946L369.433 406.617L439.149 429.946L509 406.752L578.851 429.946L648.567 406.617L718.282 429.946L787.998 406.617L805.663 412.685L804.18 416.866L787.998 411.472L718.282 434.531L648.567 411.472L578.716 434.665L509 411.337L439.284 434.665L369.433 411.472L299.718 434.531L230.002 411.472L213.82 416.866Z" fill="#B69D6D"/>
<path d="M194.132 397.178L192.649 392.998L230.002 380.457L299.718 403.785L369.433 380.457L439.149 403.785L509 380.592L578.851 403.785L648.567 380.457L718.282 403.785L787.998 380.457L825.351 392.998L823.868 397.178L787.998 385.311L718.282 408.37L648.567 385.311L578.716 408.505L509 385.177L439.284 408.505L369.433 385.311L299.718 408.37L230.002 385.311L194.132 397.178Z" fill="#B69D6D"/>
<path d="M174.58 377.625L173.096 373.445L230.002 354.297L299.718 377.625L369.433 354.297L439.149 377.625L509 354.431L578.851 377.625L648.567 354.297L718.282 377.625L787.998 354.297L844.904 373.445L843.42 377.625L787.998 359.151L718.148 382.345L648.567 359.151L578.716 382.345L509 359.016L439.284 382.345L369.433 359.151L299.852 382.345L230.002 359.151L174.58 377.625Z" fill="#B69D6D"/>
<path d="M147.475 351.869L148.959 347.689L160.286 351.465L230.002 328.136L299.718 351.465L369.433 328.136L439.149 351.465L509 328.271L578.851 351.465L648.567 328.136L718.282 351.465L787.998 328.136L857.714 351.465L869.041 347.689L870.525 351.869L857.849 356.185L787.998 332.991L718.148 356.184L648.567 332.991L578.716 356.185L509 332.856L439.284 356.185L369.433 332.991L299.852 356.184L230.002 332.991L160.151 356.185L147.475 351.869Z" fill="#B69D6D"/>
<path d="M116.46 315.461L117.809 311.145L160.286 325.304L230.002 301.976L299.718 325.304L369.433 301.976L439.149 325.304L509 302.111L578.851 325.304L648.567 301.976L718.282 325.304L787.998 301.976L857.714 325.304L900.191 311.145L901.54 315.461L857.849 330.024L787.998 306.83L718.148 330.024L648.567 306.83L578.716 330.024L509 306.695L439.284 330.024L369.433 306.83L299.852 330.024L230.002 306.83L160.151 330.024L116.46 315.461Z" fill="#B69D6D"/>
<path d="M136.148 295.773L137.362 291.593L160.286 299.144L230.002 275.816L299.717 299.144L369.433 275.816L439.149 299.144L509 275.95L578.851 299.144L648.567 275.816L718.283 299.144L787.998 275.816L857.714 299.144L880.638 291.593L881.852 295.773L857.849 303.864L787.998 280.67L718.148 303.864L648.567 280.67L578.716 303.864L509 280.535L439.284 303.864L369.433 280.67L299.852 303.864L230.002 280.67L160.151 303.864L136.148 295.773Z" fill="#B69D6D"/>
<path d="M155.701 276.22L157.049 271.905L160.286 272.984L230.002 249.655L299.718 272.984L369.433 249.655L439.149 272.984L509 249.79L578.851 272.984L648.567 249.655L718.282 272.984L787.998 249.655L857.714 272.984L860.951 271.905L862.299 276.22L857.849 277.703L787.998 254.51L718.148 277.703L648.567 254.51L578.716 277.703L509 254.375L439.284 277.703L369.433 254.51L299.852 277.703L230.002 254.51L160.151 277.703L155.701 276.22Z" fill="#B69D6D"/>
<path d="M192.514 240.755L191.031 236.575L230.002 223.495L299.718 246.823L369.568 223.63L439.149 246.823L509 223.63L578.851 246.823L648.432 223.63L718.282 246.823L787.998 223.495L826.969 236.575L825.486 240.755L787.998 228.349L718.148 251.543L648.567 228.349L578.716 251.543L509 228.215L439.284 251.543L369.433 228.349L299.852 251.543L230.002 228.349L192.514 240.755Z" fill="#B69D6D"/>
<path d="M229.867 202.054L231.215 197.739L299.718 220.663L369.568 197.469L439.149 220.663L509 197.469L578.851 220.663L648.432 197.469L718.282 220.663L786.785 197.739L788.133 202.054L718.148 225.383L648.567 202.189L578.716 225.383L509 202.054L439.284 225.383L369.433 202.189L299.852 225.383L229.867 202.054Z" fill="#B69D6D"/>
<path d="M249.42 182.501L250.768 178.186L299.718 194.503L369.568 171.309L439.149 194.503L509 171.309L578.851 194.503L648.432 171.309L718.282 194.503L767.232 178.186L768.58 182.501L718.148 199.222L648.567 176.029L578.716 199.222L509 175.894L439.284 199.222L369.433 176.029L299.852 199.222L249.42 182.501Z" fill="#B69D6D"/>
<path d="M269.107 162.814L270.456 158.499L299.718 168.343L369.568 145.149L439.149 168.343L509 145.149L578.851 168.343L648.432 145.149L718.282 168.343L747.544 158.499L748.893 162.814L718.148 173.062L648.567 149.868L578.716 173.062L509 149.734L439.284 173.062L369.433 149.868L299.852 173.062L269.107 162.814Z" fill="#B69D6D"/>
<path d="M288.66 143.261L290.009 138.946L299.718 142.182L369.568 118.989L439.149 142.182L509 118.989L578.851 142.182L648.432 118.989L718.282 142.182L727.991 138.946L729.34 143.261L718.148 146.902L648.567 123.708L578.716 146.902L509 123.573L439.284 146.902L369.433 123.708L299.852 146.902L288.66 143.261Z" fill="#B69D6D"/>
<path d="M318.866 114.404L317.517 110.089L369.568 92.8282L439.149 116.022L509 92.8282L578.851 116.022L648.432 92.8282L700.483 110.089L699.134 114.404L648.567 97.5479L578.716 120.742L509 97.413L439.284 120.742L369.433 97.5479L318.866 114.404Z" fill="#B69D6D"/>
<path d="M358.106 75.1633L356.758 70.8482L369.568 66.6679L439.149 89.8616L509 66.6679L578.851 89.8616L648.432 66.6679L661.242 70.8482L659.894 75.1633L648.567 71.3876L578.716 94.5812L509 71.2527L439.284 94.5812L369.433 71.3876L358.106 75.1633Z" fill="#B69D6D"/>
<path d="M382.379 49.5423L383.727 45.2272L439.149 63.7013L509 40.5076L578.851 63.7013L634.273 45.2272L635.621 49.5423L578.716 68.4209L509 45.0924L439.284 68.4209L382.379 49.5423Z" fill="#B69D6D"/>
<path d="M402.066 29.8547L403.415 25.5396L439.149 37.541L509 14.3473L578.851 37.541L614.585 25.5396L615.934 29.8547L578.716 42.2606L509 18.9321L439.284 42.2606L402.066 29.8547Z" fill="#B69D6D"/>
<path d="M421.619 10.3019L422.968 5.98676L439.149 11.3806L509 -11.813L578.851 11.3806L595.032 5.98676L596.381 10.3019L578.716 16.1003L509 -7.22824L439.284 16.1003L421.619 10.3019Z" fill="#B69D6D"/>
<path d="M445.352 -12.0827L443.869 -16.263L509 -37.9733L574.131 -16.263L572.648 -12.0827L509 -33.3885L445.352 -12.0827Z" fill="#B69D6D"/>
</g>
</g>
<defs>
<clipPath id="clip0">
<rect x="509" y="-81.394" width="562" height="562" transform="rotate(45 509 -81.394)" fill="white"/>
</clipPath>
</defs>
</svg>
