<svg width="670" height="313" viewBox="0 0 670 313" fill="none" xmlns="http://www.w3.org/2000/svg"><g clip-path="url(#clip0)" fill="#B69D6D" opacity=".1"><path d="M307.539 510.584l-1.484-4.18 63.378-21.306 69.716 23.329L509 485.233l69.851 23.194 69.716-23.329 63.378 21.306-1.484 4.18-62.029-20.766-69.716 23.328L509 489.818l-69.716 23.328-69.716-23.328-62.029 20.766z"/><path d="M273.962 478.355l1.348-4.315 24.407 8.226 69.716-23.329 69.716 23.329L509 459.072l69.851 23.194 69.716-23.329 69.716 23.329 24.407-8.226 1.348 4.315-25.756 8.496-69.715-23.059-69.851 23.194L509 463.657l-69.716 23.329-69.851-23.194-69.715 23.059-25.756-8.496z"/><path d="M234.721 439.115l1.349-4.315 63.648 21.306 69.715-23.328 69.716 23.328L509 432.912l69.851 23.194 69.716-23.328 69.715 23.328L781.93 434.8l1.349 4.315-64.997 21.576-69.715-23.059-69.851 23.194L509 437.497l-69.716 23.329-69.851-23.194-69.715 23.059-64.997-21.576z"/><path d="M213.82 416.866l-1.483-4.181 17.665-6.068 69.716 23.329 69.715-23.329 69.716 23.329L509 406.752l69.851 23.194 69.716-23.329 69.715 23.329 69.716-23.329 17.665 6.068-1.483 4.181-16.182-5.394-69.716 23.059-69.715-23.059-69.851 23.193L509 411.337l-69.716 23.328-69.851-23.193-69.715 23.059-69.716-23.059-16.182 5.394z"/><path d="M194.132 397.178l-1.483-4.18 37.353-12.541 69.716 23.328 69.715-23.328 69.716 23.328L509 380.592l69.851 23.193 69.716-23.328 69.715 23.328 69.716-23.328 37.353 12.541-1.483 4.18-35.87-11.867-69.716 23.059-69.715-23.059-69.851 23.194L509 385.177l-69.716 23.328-69.851-23.194-69.715 23.059-69.716-23.059-35.87 11.867z"/><path d="M174.58 377.625l-1.484-4.18 56.906-19.148 69.716 23.328 69.715-23.328 69.716 23.328L509 354.431l69.851 23.194 69.716-23.328 69.715 23.328 69.716-23.328 56.906 19.148-1.484 4.18-55.422-18.474-69.85 23.194-69.581-23.194-69.851 23.194L509 359.016l-69.716 23.329-69.851-23.194-69.581 23.194-69.85-23.194-55.422 18.474z"/><path d="M147.475 351.869l1.484-4.18 11.327 3.776 69.716-23.329 69.716 23.329 69.715-23.329 69.716 23.329L509 328.271l69.851 23.194 69.716-23.329 69.715 23.329 69.716-23.329 69.716 23.329 11.327-3.776 1.484 4.18-12.676 4.316-69.851-23.194-69.85 23.193-69.581-23.193-69.851 23.194L509 332.856l-69.716 23.329-69.851-23.194-69.581 23.193-69.85-23.193-69.851 23.194-12.676-4.316z"/><path d="M116.46 315.461l1.349-4.316 42.477 14.159 69.716-23.328 69.716 23.328 69.715-23.328 69.716 23.328L509 302.111l69.851 23.193 69.716-23.328 69.715 23.328 69.716-23.328 69.716 23.328 42.477-14.159 1.349 4.316-43.691 14.563-69.851-23.194-69.85 23.194-69.581-23.194-69.851 23.194L509 306.695l-69.716 23.329-69.851-23.194-69.581 23.194-69.85-23.194-69.851 23.194-43.691-14.563z"/><path d="M136.148 295.773l1.214-4.18 22.924 7.551 69.716-23.328 69.715 23.328 69.716-23.328 69.716 23.328L509 275.95l69.851 23.194 69.716-23.328 69.716 23.328 69.715-23.328 69.716 23.328 22.924-7.551 1.214 4.18-24.003 8.091-69.851-23.194-69.85 23.194-69.581-23.194-69.851 23.194L509 280.535l-69.716 23.329-69.851-23.194-69.581 23.194-69.85-23.194-69.851 23.194-24.003-8.091z"/><path d="M155.701 276.22l1.348-4.315 3.237 1.079 69.716-23.329 69.716 23.329 69.715-23.329 69.716 23.329L509 249.79l69.851 23.194 69.716-23.329 69.715 23.329 69.716-23.329 69.716 23.329 3.237-1.079 1.348 4.315-4.45 1.483-69.851-23.193-69.85 23.193-69.581-23.193-69.851 23.193L509 254.375l-69.716 23.328-69.851-23.193-69.581 23.193-69.85-23.193-69.851 23.193-4.45-1.483z"/><path d="M192.514 240.755l-1.483-4.18 38.971-13.08 69.716 23.328 69.85-23.193 69.581 23.193L509 223.63l69.851 23.193 69.581-23.193 69.85 23.193 69.716-23.328 38.971 13.08-1.483 4.18-37.488-12.406-69.85 23.194-69.581-23.194-69.851 23.194L509 228.215l-69.716 23.328-69.851-23.194-69.581 23.194-69.85-23.194-37.488 12.406z"/><path d="M229.867 202.054l1.348-4.315 68.503 22.924 69.85-23.194 69.581 23.194L509 197.469l69.851 23.194 69.581-23.194 69.85 23.194 68.503-22.924 1.348 4.315-69.985 23.329-69.581-23.194-69.851 23.194L509 202.054l-69.716 23.329-69.851-23.194-69.581 23.194-69.985-23.329z"/><path d="M249.42 182.501l1.348-4.315 48.95 16.317 69.85-23.194 69.581 23.194L509 171.309l69.851 23.194 69.581-23.194 69.85 23.194 48.95-16.317 1.348 4.315-50.432 16.721-69.581-23.193-69.851 23.193L509 175.894l-69.716 23.328-69.851-23.193-69.581 23.193-50.432-16.721z"/><path d="M269.107 162.814l1.349-4.315 29.262 9.844 69.85-23.194 69.581 23.194L509 145.149l69.851 23.194 69.581-23.194 69.85 23.194 29.262-9.844 1.349 4.315-30.745 10.248-69.581-23.194-69.851 23.194L509 149.734l-69.716 23.328-69.851-23.194-69.581 23.194-30.745-10.248z"/><path d="M288.66 143.261l1.349-4.315 9.709 3.236 69.85-23.193 69.581 23.193L509 118.989l69.851 23.193 69.581-23.193 69.85 23.193 9.709-3.236 1.349 4.315-11.192 3.641-69.581-23.194-69.851 23.194L509 123.573l-69.716 23.329-69.851-23.194-69.581 23.194-11.192-3.641z"/><path d="M318.866 114.404l-1.349-4.315 52.051-17.26 69.581 23.193L509 92.828l69.851 23.194 69.581-23.194 52.051 17.261-1.349 4.315-50.567-16.856-69.851 23.194L509 97.413l-69.716 23.329-69.851-23.194-50.567 16.856z"/><path d="M358.106 75.163l-1.348-4.315 12.81-4.18 69.581 23.194L509 66.668l69.851 23.194 69.581-23.194 12.81 4.18-1.348 4.315-11.327-3.775-69.851 23.193L509 71.253 439.284 94.58l-69.851-23.193-11.327 3.775z"/><path d="M382.379 49.542l1.348-4.315 55.422 18.474L509 40.508 578.851 63.7l55.422-18.474 1.348 4.315-56.905 18.879L509 45.092l-69.716 23.329-56.905-18.879z"/><path d="M402.066 29.855l1.349-4.315 35.734 12.001L509 14.347l69.851 23.194 35.734-12.001 1.349 4.315-37.218 12.406L509 18.932l-69.716 23.329-37.218-12.406z"/><path d="M421.619 10.302l1.349-4.315 16.181 5.394L509-11.813l69.851 23.194 16.181-5.394 1.349 4.315-17.665 5.798L509-7.228 439.284 16.1l-17.665-5.798zm23.733-22.385l-1.483-4.18L509-37.973l65.131 21.71-1.483 4.18L509-33.388l-63.648 21.305z"/></g><defs><clipPath id="clip0"><path transform="rotate(45 509 -81.394)" fill="#fff" d="M509-81.394h562v562H509z"/></clipPath></defs></svg>