<svg width="658" height="306" viewBox="0 0 658 306" fill="none" xmlns="http://www.w3.org/2000/svg">
<g opacity="0.1">
<g clip-path="url(#clip0)">
<path d="M11.038 128.996L15.2132 127.518L18.8608 138.704L15.2331 149.883L11.0553 148.397L14.2801 138.7L11.038 128.996Z" fill="#B69D6D"/>
<path d="M30.556 109.478L34.7313 108L44.9979 138.727L34.786 169.436L30.6081 167.95L40.4171 138.723L30.556 109.478Z" fill="#B69D6D"/>
<path d="M50.209 89.8258L54.3842 88.3475L71.1352 138.75L54.4739 189.123L50.2961 187.638L66.5545 138.746L50.209 89.8258Z" fill="#B69D6D"/>
<path d="M69.727 70.3078L73.9022 68.8295L97.2722 138.774L74.0267 208.676L69.8489 207.19L92.6916 138.769L69.727 70.3078Z" fill="#B69D6D"/>
<path d="M108.492 30.1936L112.67 31.6793L100.174 68.9876L123.409 138.797L100.298 208.565L112.861 245.895L108.686 247.374L95.5825 208.426L118.828 138.793L95.4584 69.1181L108.492 30.1936Z" fill="#B69D6D"/>
<path d="M143.761 -3.72604L147.936 -5.2043L149.557 -0.622139L126.311 69.0109L149.546 138.82L126.435 208.588L149.805 278.263L148.192 282.842L144.015 281.356L145.09 278.124L121.72 208.449L144.966 138.816L121.596 69.1415L144.842 -0.491632L143.761 -3.72604Z" fill="#B69D6D"/>
<path d="M163.279 -23.2442L167.454 -24.7224L175.694 -0.598983L152.448 69.0341L175.683 138.843L152.572 208.611L175.942 278.286L167.745 302.395L163.568 300.909L171.227 278.147L147.857 208.472L171.103 138.839L147.733 69.1646L170.979 -0.46842L163.279 -23.2442Z" fill="#B69D6D"/>
<path d="M182.931 -42.8968L187.106 -44.3751L201.83 -0.575683L178.585 69.0574L201.82 138.867L178.709 208.635L202.079 278.309L187.432 322.082L183.255 320.597L197.363 278.17L173.993 208.496L197.239 138.863L173.869 69.188L197.115 -0.445164L182.931 -42.8968Z" fill="#B69D6D"/>
<path d="M202.449 -62.4147L206.624 -63.893L227.967 -0.552342L204.722 69.0807L227.957 138.89L204.846 208.658L228.216 278.332L206.985 341.635L202.807 340.149L223.5 278.193L200.13 208.519L223.376 138.886L200.006 69.2112L223.252 -0.421835L202.449 -62.4147Z" fill="#B69D6D"/>
<path d="M234.619 -95.9331L238.932 -94.582L230.735 -70.2037L254.105 -0.529115L230.859 69.104L254.094 138.913L230.984 208.681L254.353 278.356L231.108 347.989L239.348 372.382L235.038 373.725L226.527 347.985L249.503 278.351L226.268 208.542L249.514 138.909L226.144 69.2345L249.255 -0.533442L226.155 -70.2078L234.619 -95.9331Z" fill="#B69D6D"/>
<path d="M273.79 -135.104L278.102 -133.753L256.872 -70.1804L280.242 -0.505829L256.996 69.1272L280.231 138.936L257.12 208.704L280.49 278.379L257.244 348.012L278.588 411.622L274.278 412.966L252.663 348.008L275.64 278.375L252.405 208.565L275.65 138.932L252.281 69.2578L275.391 -0.510145L252.291 -70.1845L273.79 -135.104Z" fill="#B69D6D"/>
<path d="M296.001 -155.967L300.176 -157.445L306.255 -139.79L283.009 -70.1572L306.379 -0.48258L283.133 69.1505L306.368 138.96L283.257 208.728L306.627 278.402L283.381 348.035L306.751 417.71L300.704 435.354L296.526 433.868L301.901 417.706L278.8 348.031L301.777 278.398L278.542 208.589L301.787 138.956L278.418 69.2811L301.528 -0.486896L278.428 -70.1613L301.404 -139.795L296.001 -155.967Z" fill="#B69D6D"/>
<path d="M315.654 -175.619L319.829 -177.098L332.392 -139.767L309.146 -70.1339L332.516 -0.459323L309.27 69.1737L332.505 138.983L309.394 208.751L332.764 278.426L309.518 348.059L332.888 417.733L320.392 455.042L316.214 453.556L328.038 417.729L304.938 348.055L327.914 278.421L304.679 208.612L327.924 138.979L304.555 69.3043L327.666 -0.46366L304.565 -70.138L327.541 -139.771L315.654 -175.619Z" fill="#B69D6D"/>
<path d="M335.172 -195.137L339.347 -196.616L358.529 -139.744L335.283 -70.1106L358.653 -0.436035L335.407 69.1971L358.642 139.006L335.531 208.774L358.901 278.449L335.655 348.082L359.025 417.756L339.945 474.594L335.767 473.109L354.175 417.752L330.94 347.943L354.051 278.444L330.816 208.635L354.061 139.002L330.692 69.3276L353.803 -0.440345L330.568 -69.9801L353.679 -139.748L335.172 -195.137Z" fill="#B69D6D"/>
<path d="M360.88 -222.194L365.058 -220.709L361.296 -209.395L384.666 -139.72L361.42 -70.0873L384.79 -0.412722L361.544 69.2204L384.779 139.03L361.668 208.798L385.038 278.472L361.792 348.105L385.162 417.78L361.916 487.413L365.699 498.733L361.524 500.212L357.201 487.544L380.312 417.776L357.077 347.966L380.188 278.468L356.953 208.659L380.199 139.026L356.829 69.3509L379.94 -0.417016L356.705 -69.9568L379.816 -139.725L356.58 -209.534L360.88 -222.194Z" fill="#B69D6D"/>
<path d="M397.229 -253.149L401.542 -251.798L387.433 -209.372L410.803 -139.697L387.557 -70.0641L410.927 -0.389474L387.681 69.2436L410.916 139.053L387.806 208.821L411.175 278.495L387.93 348.128L411.299 417.803L388.054 487.436L402.238 529.888L397.928 531.231L383.338 487.567L406.449 417.799L383.214 347.99L406.325 278.491L383.09 208.682L406.336 139.049L382.966 69.3741L406.077 -0.3938L382.842 -69.9336L405.953 -139.701L382.718 -209.511L397.229 -253.149Z" fill="#B69D6D"/>
<path d="M416.917 -233.462L421.094 -232.245L413.57 -209.349L436.94 -139.674L413.694 -70.0409L437.064 -0.366233L413.818 69.2669L437.053 139.076L413.942 208.844L437.312 278.519L414.067 348.152L437.436 417.826L414.191 487.459L421.756 510.37L417.58 511.579L409.475 487.59L432.586 417.822L409.351 348.013L432.462 278.514L409.227 208.705L432.473 139.072L409.103 69.3974L432.214 -0.370549L408.979 -69.9103L432.09 -139.678L408.855 -209.487L416.917 -233.462Z" fill="#B69D6D"/>
<path d="M436.47 -213.909L440.782 -212.558L439.707 -209.325L463.077 -139.651L439.831 -70.0175L463.201 -0.342927L439.955 69.2902L463.19 139.099L440.08 208.867L463.449 278.542L440.204 348.175L463.573 417.85L440.328 487.483L441.408 490.717L437.098 492.061L435.612 487.613L458.723 417.845L435.488 348.036L458.599 278.538L435.364 208.728L458.61 139.095L435.24 69.4207L458.351 -0.347243L435.116 -69.887L458.227 -139.655L434.992 -209.464L436.47 -213.909Z" fill="#B69D6D"/>
<path d="M471.936 -177.097L476.111 -178.575L489.214 -139.627L465.968 -69.9943L489.203 -0.185036L466.092 69.3135L489.328 139.123L466.217 208.891L489.452 278.43L466.341 348.198L489.71 417.873L476.677 456.797L472.499 455.312L484.86 417.869L461.625 348.059L484.736 278.561L461.501 208.752L484.747 139.119L461.377 69.444L484.488 -0.323969L461.253 -69.8637L484.364 -139.632L471.936 -177.097Z" fill="#B69D6D"/>
<path d="M510.635 -139.743L514.948 -138.392L492.105 -69.971L515.34 -0.161792L492.229 69.3367L515.465 139.146L492.354 208.914L515.589 278.454L492.478 348.222L515.442 416.683L511.132 418.027L487.762 348.083L510.873 278.584L487.638 208.775L510.884 139.142L487.514 69.4672L510.625 -0.300697L487.39 -69.8405L510.635 -139.743Z" fill="#B69D6D"/>
<path d="M530.188 -120.19L534.501 -118.839L518.242 -69.9477L541.478 -0.138492L518.366 69.36L541.602 139.169L518.491 208.937L541.726 278.477L518.615 348.245L534.96 397.165L530.65 398.509L513.899 348.106L537.01 278.607L513.775 208.798L537.021 139.165L513.651 69.4905L536.762 -0.277418L513.527 -69.8172L530.188 -120.19Z" fill="#B69D6D"/>
<path d="M549.876 -100.503L554.188 -99.1514L544.379 -69.9245L567.615 -0.115237L544.503 69.3832L567.739 139.192L544.628 208.96L567.863 278.5L544.752 348.268L554.613 377.513L550.303 378.856L540.036 348.129L563.147 278.631L539.912 208.821L563.158 139.188L539.788 69.5138L562.899 -0.254167L539.664 -69.7939L549.876 -100.503Z" fill="#B69D6D"/>
<path d="M569.429 -80.9497L573.741 -79.5986L570.516 -69.9012L593.752 -0.0919561L570.64 69.4065L593.876 139.216L570.765 208.984L594 278.523L570.889 348.291L574.131 357.995L569.821 359.338L566.173 348.152L589.284 278.654L566.049 208.845L589.295 139.212L565.925 69.5371L589.036 -0.230888L565.801 -69.7706L569.429 -80.9497Z" fill="#B69D6D"/>
<path d="M598.287 -50.7452L602.597 -52.0886L619.889 -0.068676L596.777 69.4298L620.013 139.239L596.902 209.007L620.137 278.547L602.938 330.536L598.625 329.185L615.421 278.677L592.186 208.868L615.432 139.235L592.062 69.5603L615.173 -0.207593L598.287 -50.7452Z" fill="#B69D6D"/>
<path d="M637.528 -11.5047L641.838 -12.8482L646.026 -0.0453887L622.915 69.4531L646.15 139.262L623.039 209.03L646.274 278.57L642.109 291.365L637.796 290.014L641.558 278.701L618.323 208.891L641.569 139.258L618.199 69.5836L641.31 -0.184318L637.528 -11.5047Z" fill="#B69D6D"/>
<path d="M663.147 12.7689L667.46 14.12L649.052 69.4764L672.287 139.286L649.176 209.054L667.683 264.443L663.373 265.786L644.46 208.915L667.706 139.281L644.336 69.6069L663.147 12.7689Z" fill="#B69D6D"/>
<path d="M682.835 32.4565L687.147 33.8076L675.189 69.4996L698.424 139.309L675.313 209.077L687.335 244.79L683.025 246.134L670.597 208.938L693.843 139.305L670.473 69.6301L682.835 32.4565Z" fill="#B69D6D"/>
<path d="M702.388 52.0094L706.7 53.3605L701.326 69.5229L724.561 139.332L701.45 209.1L706.853 225.272L702.543 226.616L696.734 208.961L719.98 139.328L696.61 69.6534L702.388 52.0094Z" fill="#B69D6D"/>
</g>
</g>
<defs>
<clipPath id="clip0">
<rect x="794.08" y="139.394" width="561" height="562" transform="rotate(135 794.08 139.394)" fill="white"/>
</clipPath>
</defs>
</svg>
