<svg width="194" height="376" viewBox="0 0 194 376" fill="none" xmlns="http://www.w3.org/2000/svg"><g clip-path="url(#clip0)" fill="#B69D6D" opacity=".07"><path d="M-281.765-126.619l4.145-1.479 12.474 37.331-23.081 69.633 23.204 69.675-23.081 69.633 23.071 69.809-22.947 69.768 23.204 69.675-23.081 69.633 23.204 69.674-12.408 37.308-4.148-1.485 11.74-35.827-22.936-69.674 22.813-69.634-23.07-69.809 23.081-69.633-23.204-69.675 22.947-69.768-22.937-69.674 22.813-69.633-11.803-35.848z"/><path d="M-262.386-146.137l4.146-1.479 19.046 56.872-23.081 69.633 23.204 69.675-23.081 69.633 23.071 69.809-22.947 69.768 23.204 69.675-23.081 69.633 23.204 69.674-18.945 56.838-4.149-1.485 18.278-55.357-23.07-69.809 22.947-69.499-23.071-69.809 23.081-69.633-23.204-69.674 22.947-69.768-23.07-69.54 22.947-69.768-18.376-55.389z"/><path d="M-236.859-173.194l4.148 1.485-3.736 11.314 23.204 69.675-23.08 69.633 23.204 69.674-23.081 69.633 23.07 69.81-22.947 69.768 23.204 69.674-23.081 69.633 23.204 69.675-23.081 69.633 3.756 11.32-4.146 1.479-4.291-12.668 22.947-69.768-23.071-69.81 22.947-69.498-23.07-69.809 23.081-69.633-23.204-69.675 22.947-69.768-23.07-69.54 22.947-69.768-23.071-69.809 4.27-12.66z"/><path d="M-200.768-204.149l4.282 1.351-14.009 42.426 23.204 69.675-23.081 69.633 23.204 69.674-23.08 69.634 23.07 69.809-22.947 69.768 23.204 69.674-23.081 69.633 23.204 69.675-23.081 69.633 14.084 42.452-4.28 1.343-14.486-43.664 22.947-69.768-23.07-69.809 22.947-69.499-23.07-69.809 23.081-69.633-23.204-69.675 22.947-69.768-23.071-69.54 22.947-69.767-23.07-69.81 14.409-43.638z"/><path d="M-181.22-184.462l4.148 1.217-7.471 22.896 23.204 69.675-23.081 69.633 23.204 69.675-23.081 69.633 23.071 69.809-22.947 69.768 23.204 69.675-23.081 69.633 23.204 69.674-23.081 69.633 7.511 22.911-4.145 1.209-8.048-23.989 22.947-69.768-23.07-69.809 22.947-69.499-23.071-69.809 23.081-69.633-23.204-69.675 22.947-69.768-23.07-69.54 22.947-69.767-23.07-69.81 8.005-23.974z"/><path d="M-161.806-164.909l4.282 1.351-1.067 3.233 23.204 69.674-23.081 69.633 23.204 69.675-23.081 69.633 23.07 69.809-22.947 69.768 23.204 69.675-23.081 69.633 23.205 69.675-23.081 69.633 1.073 3.234-4.28 1.344-1.475-4.448 22.947-69.768-23.071-69.809 22.948-69.498-23.071-69.81 23.081-69.633-23.204-69.674 22.947-69.768-23.07-69.54 22.947-69.768-23.071-69.809 1.468-4.445z"/><path d="M-126.592-128.097l4.146-1.478 13.01 38.948-23.081 69.633 23.071 69.809-22.947 69.498 23.07 69.81-22.947 69.768 23.07 69.539-22.947 69.768 23.204 69.675-12.941 38.924-4.148-1.485 12.273-37.443-23.07-69.81 22.947-69.498-23.07-69.809 23.081-69.633-23.204-69.675 22.947-69.768-23.07-69.54 22.947-69.768-12.341-37.465z"/><path d="M-88.166-90.743l4.282 1.351-22.681 68.421 23.07 69.81-22.947 69.498 23.07 69.809-22.946 69.768 23.07 69.54-22.947 69.768 22.801 68.461-4.28 1.344-23.203-69.944 22.947-69.499-23.071-69.809 23.081-69.633-23.204-69.675 22.947-69.768-23.07-69.54 23.08-69.902z"/><path d="M-68.752-71.19l4.282 1.35-16.143 48.892 23.07 69.81-22.947 69.498 23.07 69.809-22.947 69.768 23.07 69.54-22.947 69.768 16.23 48.92-4.28 1.344-16.632-50.403 22.948-69.499-23.07-69.809 23.08-69.633-23.204-69.674 22.947-69.768-23.07-69.54 16.543-50.373z"/><path d="M-49.204-51.503l4.282 1.352-9.74 29.227 23.07 69.809-22.947 69.498 23.07 69.809-22.946 69.768 23.07 69.54-22.947 69.768 9.791 29.245-4.28 1.343-10.193-30.727 22.947-69.498-23.07-69.81 23.08-69.633-23.203-69.674 22.947-69.768-23.07-69.54 10.139-30.709z"/><path d="M-29.79-31.95l4.282 1.351-3.202 9.698 23.07 69.809-22.947 69.499 23.07 69.809-22.946 69.768 23.07 69.539-22.947 69.768 3.219 9.704-4.28 1.343-3.621-11.186 22.947-69.498-23.07-69.809 23.08-69.633-23.204-69.675 22.947-69.768-23.07-69.54 3.602-11.179z"/><path d="M-1.136-1.745l4.28-1.344 17.168 52.02-22.947 69.499 23.07 69.809-22.947 69.768 23.07 69.54-17.076 51.989-4.282-1.351 16.677-50.508-23.07-69.809 23.08-69.633-23.204-69.675L15.63 48.792-1.136-1.745z"/><path d="M37.826 37.495l4.28-1.343 4.158 12.803-22.947 69.498 23.07 69.809L23.44 258.03l23.07 69.54-4.135 12.795-4.282-1.351 3.735-11.313-23.07-69.81 23.08-69.633-23.203-69.674 22.947-69.768-3.756-11.32z"/><path d="M63.264 61.769l4.282 1.351-18.278 55.356 23.07 69.81-22.946 69.768 18.375 55.389-4.28 1.343-18.778-56.871 23.081-69.633-23.204-69.675 18.678-56.838z"/><path d="M82.812 81.457l4.282 1.35L75.22 118.5l23.07 69.809-22.947 69.768 11.938 35.713-4.28 1.344-12.34-37.196 23.081-69.633-23.204-69.675 12.274-37.173z"/><path d="M102.226 101.009l4.282 1.351-5.336 16.163 23.07 69.809-22.947 69.768 5.365 16.172-4.279 1.344-5.768-17.655 23.081-69.633-23.204-69.675 5.736-17.644zm22.227 23.732l4.146-1.478 21.595 65.092-21.48 65.054-4.148-1.485 21.079-63.573-21.192-63.61zm38.962 39.241l4.146-1.479 8.584 25.876-8.538 25.86-4.148-1.486 8.138-24.378-8.182-24.393z"/></g><defs><clipPath id="clip0"><path transform="scale(-.99644 -1.00355) rotate(-45 -323.586 140.266)" fill="#fff" d="M0 0h559.014v560.011H0z"/></clipPath></defs></svg>