<svg width="658" height="306" viewBox="0 0 658 306" fill="none" xmlns="http://www.w3.org/2000/svg"><g clip-path="url(#clip0)" fill="#B69D6D" opacity=".1"><path d="M11.038 128.996l4.175-1.478 3.648 11.186-3.628 11.179-4.178-1.486 3.225-9.697-3.242-9.704zm19.518-19.518L34.731 108l10.267 30.727-10.212 30.709-4.178-1.486 9.81-29.227-9.862-29.245zm19.653-19.652l4.175-1.478 16.751 50.402-16.661 50.373-4.178-1.485 16.259-48.892-16.346-48.92z"/><path d="M69.727 70.308l4.175-1.479 23.37 69.945-23.245 69.902-4.178-1.486 22.843-68.421-22.965-68.461z"/><path d="M108.492 30.194l4.178 1.485-12.496 37.309 23.235 69.809-23.111 69.768 12.563 37.33-4.175 1.479-13.104-38.948 23.246-69.633-23.37-69.675 13.034-38.924z"/><path d="M143.761-3.726l4.175-1.478 1.621 4.582-23.246 69.633 23.235 69.809-23.111 69.768 23.37 69.675-1.613 4.579-4.177-1.486 1.075-3.232-23.37-69.675 23.246-69.633-23.37-69.675L144.842-.492l-1.081-3.234z"/><path d="M163.279-23.244l4.175-1.478L175.694-.6l-23.246 69.633 23.235 69.809-23.111 69.768 23.37 69.675-8.197 24.109-4.177-1.486 7.659-22.762-23.37-69.675 23.246-69.633-23.37-69.674L170.979-.468l-7.7-22.776z"/><path d="M182.931-42.897l4.175-1.478 14.724 43.8-23.245 69.632 23.235 69.81-23.111 69.768 23.37 69.674-14.647 43.773-4.177-1.485 14.108-42.427-23.37-69.674 23.246-69.633-23.37-69.675L197.115-.445l-14.184-42.452z"/><path d="M202.449-62.415l4.175-1.478 21.343 63.34-23.245 69.634 23.235 69.809-23.111 69.768 23.37 69.674-21.231 63.303-4.178-1.486 20.693-61.956-23.37-69.674 23.246-69.633-23.37-69.675L223.252-.422l-20.803-61.993z"/><path d="M234.619-95.933l4.313 1.351-8.197 24.378 23.37 69.675-23.246 69.633 23.235 69.809-23.11 69.768 23.369 69.675-23.245 69.633 8.24 24.393-4.31 1.343-8.511-25.74 22.976-69.634-23.235-69.809 23.246-69.633-23.37-69.674L249.255-.534l-23.1-69.675 8.464-25.725z"/><path d="M273.79-135.104l4.312 1.351-21.23 63.573 23.37 69.674-23.246 69.633 23.235 69.809-23.111 69.768 23.37 69.675-23.246 69.633 21.344 63.61-4.31 1.344-21.615-64.958 22.977-69.633-23.235-69.81 23.245-69.633-23.369-69.674L275.391-.51l-23.1-69.674 21.499-64.92z"/><path d="M296.001-155.967l4.175-1.478 6.079 17.655-23.246 69.633 23.37 69.674-23.246 69.633 23.235 69.81-23.111 69.768 23.37 69.674-23.246 69.633 23.37 69.675-6.047 17.644-4.178-1.486 5.375-16.162-23.101-69.675 22.977-69.633-23.235-69.809 23.245-69.633-23.369-69.675 23.11-69.768-23.1-69.674 22.976-69.634-5.403-16.172z"/><path d="M315.654-175.619l4.175-1.479 12.563 37.331-23.246 69.633 23.37 69.675-23.246 69.633 23.235 69.809-23.111 69.768 23.37 69.675-23.246 69.633 23.37 69.674-12.496 37.309-4.178-1.486 11.824-35.827-23.1-69.674 22.976-69.634-23.235-69.809 23.245-69.633-23.369-69.675L327.666-.464l-23.101-69.674 22.976-69.633-11.887-35.848z"/><path d="M335.172-195.137l4.175-1.479 19.182 56.872-23.246 69.633 23.37 69.675-23.246 69.633 23.235 69.809-23.111 69.768 23.37 69.675-23.246 69.633 23.37 69.674-19.08 56.838-4.178-1.485 18.408-55.357-23.235-69.809 23.111-69.499-23.235-69.809 23.245-69.633-23.369-69.674L353.803-.44l-23.235-69.54 23.111-69.768-18.507-55.389z"/><path d="M360.88-222.194l4.178 1.485-3.762 11.314 23.37 69.675-23.246 69.633L384.79-.413 361.544 69.22l23.235 69.81-23.111 69.768 23.37 69.674-23.246 69.633 23.37 69.675-23.246 69.633 3.783 11.32-4.175 1.479-4.323-12.668 23.111-69.768-23.235-69.81 23.111-69.498-23.235-69.809 23.246-69.633-23.37-69.675L379.94-.417l-23.235-69.54 23.111-69.768-23.236-69.809 4.3-12.66z"/><path d="M397.229-253.149l4.313 1.351-14.109 42.426 23.37 69.675-23.246 69.633L410.927-.39l-23.246 69.633 23.235 69.809-23.11 69.768 23.369 69.674-23.245 69.633 23.369 69.675-23.245 69.633 14.184 42.452-4.31 1.343-14.59-43.664 23.111-69.768-23.235-69.809 23.111-69.499-23.235-69.809 23.246-69.633-23.37-69.675L406.077-.394l-23.235-69.54 23.111-69.767-23.235-69.81 14.511-43.638z"/><path d="M416.917-233.462l4.177 1.217-7.524 22.896 23.37 69.675-23.246 69.633 23.37 69.675-23.246 69.633 23.235 69.809-23.111 69.768 23.37 69.675-23.245 69.633 23.369 69.674-23.245 69.633 7.565 22.911-4.176 1.209-8.105-23.989 23.111-69.768-23.235-69.809 23.111-69.499-23.235-69.809 23.246-69.633-23.37-69.675L432.214-.37l-23.235-69.54 23.111-69.767-23.235-69.809 8.062-23.975z"/><path d="M436.47-213.909l4.312 1.351-1.075 3.233 23.37 69.674-23.246 69.634 23.37 69.674-23.246 69.633 23.235 69.81-23.11 69.768 23.369 69.675-23.245 69.633 23.369 69.675-23.245 69.633 1.08 3.234-4.31 1.344-1.486-4.448 23.111-69.768-23.235-69.809 23.111-69.498-23.235-69.81 23.246-69.633-23.37-69.674L458.351-.347l-23.235-69.54 23.111-69.768-23.235-69.809 1.478-4.445z"/><path d="M471.936-177.097l4.175-1.478 13.103 38.948-23.246 69.633L489.203-.185l-23.111 69.499 23.236 69.809-23.111 69.768 23.235 69.539-23.111 69.768 23.369 69.675-13.033 38.924-4.178-1.485 12.361-37.443-23.235-69.81 23.111-69.498-23.235-69.809 23.246-69.633-23.37-69.675L484.488-.324l-23.235-69.54 23.111-69.768-12.428-37.465z"/><path d="M510.635-139.743l4.313 1.351-22.843 68.421L515.34-.161l-23.111 69.498 23.236 69.809-23.111 69.768 23.235 69.54-23.111 69.768 22.964 68.461-4.31 1.344-23.37-69.944 23.111-69.499-23.235-69.809 23.246-69.633-23.37-69.675L510.625-.3 487.39-69.84l23.245-69.902z"/><path d="M530.188-120.19l4.313 1.351-16.259 48.891 23.236 69.81-23.112 69.498 23.236 69.809-23.111 69.768 23.235 69.54-23.111 69.768 16.345 48.92-4.31 1.344-16.751-50.403 23.111-69.499-23.235-69.809 23.246-69.633-23.37-69.674L536.762-.278l-23.235-69.54 16.661-50.373z"/><path d="M549.876-100.503l4.312 1.352-9.809 29.227L567.615-.115l-23.112 69.498 23.236 69.809-23.111 69.768 23.235 69.54-23.111 69.768 9.861 29.245-4.31 1.343-10.267-30.727 23.111-69.498-23.235-69.81 23.246-69.633-23.37-69.674L562.899-.254l-23.235-69.54 10.212-30.709z"/><path d="M569.429-80.95l4.312 1.351-3.225 9.698L593.752-.092 570.64 69.406l23.236 69.81-23.111 69.768L594 278.523l-23.111 69.768 3.242 9.704-4.31 1.343-3.648-11.186 23.111-69.498-23.235-69.809 23.246-69.633-23.37-69.675L589.036-.23l-23.235-69.54 3.628-11.179z"/><path d="M598.287-50.745l4.31-1.344 17.292 52.02-23.112 69.499 23.236 69.809-23.111 69.768 23.235 69.54-17.199 51.989-4.313-1.351 16.796-50.508-23.235-69.809 23.246-69.633-23.37-69.675L615.173-.208l-16.886-50.537z"/><path d="M637.528-11.505l4.31-1.343 4.188 12.803-23.111 69.498 23.235 69.809-23.111 69.768 23.235 69.54-4.165 12.795-4.313-1.351 3.762-11.313-23.235-69.81 23.246-69.633-23.37-69.674L641.31-.184l-3.782-11.32z"/><path d="M663.147 12.769l4.313 1.351-18.408 55.356 23.235 69.81-23.111 69.768 18.507 55.389-4.31 1.343-18.913-56.871 23.246-69.634-23.37-69.674 18.811-56.838z"/><path d="M682.835 32.456l4.312 1.352L675.189 69.5l23.235 69.809-23.111 69.768 12.022 35.713-4.31 1.344-12.428-37.196 23.246-69.633-23.37-69.675 12.362-37.173z"/><path d="M702.388 52.01l4.312 1.35-5.374 16.163 23.235 69.809L701.45 209.1l5.403 16.172-4.31 1.344-5.809-17.655 23.246-69.633-23.37-69.675 5.778-17.644z"/></g><defs><clipPath id="clip0"><path transform="rotate(135 794.08 139.394)" fill="#fff" d="M794.08 139.394h561v562h-561z"/></clipPath></defs></svg>